<svg width="25" height="24" viewBox="0 0 25 24" fill="none" xmlns="http://www.w3.org/2000/svg">
<g id="Frame" clip-path="url(#clip0_10680_25810)">
<g id="Group">
<path id="Vector" d="M14.7607 23.9999C15.5632 23.9999 16.263 23.3001 16.263 22.4977V18.9893H17.266C17.868 18.9893 18.2691 18.588 18.2691 17.9862V7.96575H6.2418V17.9863C6.2418 18.5881 6.64304 18.9894 7.24487 18.9894H8.24804V22.4977C8.24804 23.3002 8.94765 24 9.75028 24C10.5526 24 11.2524 23.3002 11.2524 22.4977V18.9894H13.2586V22.4977C13.2585 23.3001 13.9583 23.9999 14.7607 23.9999ZM20.7745 17.9863C21.5769 17.9863 22.2766 17.2866 22.2766 16.484V9.46734C22.2766 8.66911 21.577 7.96575 20.7745 7.96575C19.9719 7.96575 19.2722 8.66916 19.2722 9.46734V16.484C19.2722 17.2865 19.9719 17.9863 20.7745 17.9863ZM3.73648 17.9863C4.53902 17.9863 5.23872 17.2866 5.23872 16.484V9.46734C5.23872 8.66911 4.53912 7.96575 3.73648 7.96575C2.93403 7.96575 2.23438 8.66916 2.23438 9.46734V16.484C2.23442 17.2865 2.93403 17.9863 3.73648 17.9863ZM17.0653 0.151347C16.8648 -0.050449 16.5663 -0.050449 16.3657 0.151347L15.0204 1.4922L14.9583 1.55417C14.1606 1.1547 13.2662 0.955203 12.2702 0.953281C12.2653 0.953281 12.2605 0.953141 12.2556 0.953141H12.2555C12.2504 0.953141 12.2458 0.953281 12.2407 0.953281C11.2448 0.955203 10.3504 1.1547 9.55275 1.55417L9.49055 1.4922L8.1452 0.151347C7.94452 -0.050449 7.64612 -0.050449 7.44559 0.151347C7.24492 0.352018 7.24492 0.649861 7.44559 0.850391L8.74697 2.15201C8.32763 2.43199 7.94738 2.7746 7.61673 3.16648C6.82511 4.10482 6.32012 5.32605 6.2507 6.64923C6.25005 6.66301 6.24869 6.6766 6.24808 6.69038C6.24386 6.78085 6.24178 6.87141 6.24184 6.96198H18.2691C18.2691 6.87109 18.267 6.78052 18.2629 6.69038C18.2622 6.6766 18.2609 6.66301 18.2601 6.64923C18.1908 5.32605 17.6857 4.10477 16.8941 3.16657C16.5635 2.7747 16.1831 2.43209 15.7638 2.1521L17.0653 0.850485C17.266 0.649861 17.266 0.352065 17.0653 0.151347ZM9.74836 5.21059C9.33338 5.21059 8.99691 4.87417 8.99691 4.45914C8.99691 4.04411 9.33333 3.70769 9.74836 3.70769C10.1633 3.70769 10.4998 4.04411 10.4998 4.45914C10.4998 4.87417 10.1633 5.21059 9.74836 5.21059ZM14.7626 5.21059C14.3476 5.21059 14.0111 4.87417 14.0111 4.45914C14.0111 4.04411 14.3475 3.70769 14.7626 3.70769C15.1775 3.70769 15.514 4.04411 15.514 4.45914C15.514 4.87417 15.1776 5.21059 14.7626 5.21059Z" fill="#525966"/>
</g>
</g>
<defs>
<clipPath id="clip0_10680_25810">
<rect width="24" height="24" fill="white" transform="translate(0.257812)"/>
</clipPath>
</defs>
</svg>
