<svg width="40" height="42" viewBox="0 0 40 42" fill="none" xmlns="http://www.w3.org/2000/svg">
<g id="Group">
<path id="Vector" d="M10.7976 17.0997C10.7976 16.1197 10.0021 15.3242 9.0221 15.3242H5.88483C4.90483 15.3242 4.10938 16.1197 4.10938 17.0997V20.2369C4.10938 21.2169 4.90483 22.0124 5.88483 22.0124H9.0221C10.0021 22.0124 10.7976 21.2169 10.7976 20.2369V17.0997ZM9.71574 20.2433C9.71574 20.6251 9.40392 20.9369 9.0221 20.9369H5.88483C5.50301 20.9369 5.19119 20.6251 5.19119 20.2433V17.106C5.19119 16.7242 5.50301 16.4124 5.88483 16.4124H9.0221C9.40392 16.4124 9.71574 16.7242 9.71574 17.106V20.2433ZM17.3839 15.3306H14.2466C13.2666 15.3306 12.4712 16.126 12.4712 17.106V20.2433C12.4712 21.2233 13.2666 22.0188 14.2466 22.0188H17.3839C18.3639 22.0188 19.1594 21.2233 19.1594 20.2433V17.106C19.1594 16.126 18.3639 15.3306 17.3839 15.3306ZM18.0776 20.2433C18.0776 20.6251 17.7657 20.9369 17.3839 20.9369H14.2466C13.8648 20.9369 13.553 20.6251 13.553 20.2433V17.106C13.553 16.7242 13.8648 16.4124 14.2466 16.4124H17.3839C17.7657 16.4124 18.0776 16.7242 18.0776 17.106V20.2433ZM26.8657 20.8669C27.1585 20.9306 27.4448 20.746 27.5085 20.4533C27.5276 20.3642 27.5276 20.2942 27.5276 20.2433V17.106C27.5276 16.126 26.7321 15.3306 25.7521 15.3306H22.6148C21.6348 15.3306 20.8394 16.126 20.8394 17.106V20.2433C20.8394 21.2233 21.6348 22.0188 22.6148 22.0188H24.2057C24.3492 22.0188 24.4868 21.9618 24.5882 21.8603C24.6897 21.7589 24.7466 21.6213 24.7466 21.4779C24.7466 21.3344 24.6897 21.1968 24.5882 21.0954C24.4868 20.9939 24.3492 20.9369 24.2057 20.9369H22.6148C22.233 20.9369 21.9212 20.6251 21.9212 20.2433V17.106C21.9212 16.7179 22.2266 16.4124 22.6148 16.4124H25.7521C26.1339 16.4124 26.4457 16.7242 26.4457 17.106L26.4521 20.2306C26.3885 20.5169 26.573 20.8033 26.8657 20.8669ZM9.0221 23.616H5.88483C4.90483 23.616 4.10938 24.4115 4.10938 25.3915V28.5288C4.10938 29.5088 4.90483 30.3042 5.88483 30.3042H9.0221C10.0021 30.3042 10.7976 29.5088 10.7976 28.5288V25.3915C10.7976 24.4115 10.0021 23.616 9.0221 23.616ZM9.71574 28.5288C9.71574 28.9106 9.40392 29.2224 9.0221 29.2224H5.88483C5.50301 29.2224 5.19119 28.9106 5.19119 28.5288V25.3915C5.19119 25.0097 5.50301 24.6979 5.88483 24.6979H9.0221C9.40392 24.6979 9.71574 25.0097 9.71574 25.3915V28.5288ZM17.3839 23.616H14.2466C13.2666 23.616 12.4712 24.4115 12.4712 25.3915V28.5288C12.4712 29.5088 13.2666 30.3042 14.2466 30.3042H17.3839C18.3639 30.3042 19.1594 29.5088 19.1594 28.5288V25.3915C19.1594 24.4115 18.3639 23.616 17.3839 23.616ZM18.0776 28.5288C18.0776 28.9106 17.7657 29.2224 17.3839 29.2224H14.2466C13.8648 29.2224 13.553 28.9106 13.553 28.5288V25.3915C13.553 25.0097 13.8648 24.6979 14.2466 24.6979H17.3839C17.7657 24.6979 18.0776 25.0097 18.0776 25.3915V28.5288ZM29.9457 21.8851C24.6003 21.8851 20.2539 26.2315 20.2539 31.5769C20.2539 36.9224 24.6003 41.2688 29.9457 41.2688C35.2912 41.2688 39.6376 36.9224 39.6376 31.5769C39.6376 26.2315 35.2912 21.8851 29.9457 21.8851ZM29.9457 40.1933C25.1985 40.1933 21.3294 36.3306 21.3294 31.5769C21.3294 26.8233 25.1921 22.9606 29.9457 22.9606C34.6994 22.9606 38.5621 26.8233 38.5621 31.5769C38.5621 36.3306 34.693 40.1933 29.9457 40.1933Z" fill="#30353E"/>
<path id="Vector_2" d="M29.944 25.4614C30.0762 25.4614 30.2053 25.4222 30.3152 25.3488C30.4251 25.2753 30.5108 25.171 30.5613 25.0489C30.6119 24.9268 30.6251 24.7924 30.5994 24.6628C30.5736 24.5332 30.5099 24.4142 30.4165 24.3207C30.323 24.2273 30.204 24.1636 30.0744 24.1378C29.9448 24.1121 29.8104 24.1253 29.6883 24.1759C29.5662 24.2264 29.4619 24.3121 29.3884 24.422C29.315 24.5318 29.2758 24.661 29.2758 24.7932C29.2758 25.1686 29.5749 25.4614 29.944 25.4614ZM24.6749 26.3141C24.414 26.575 24.414 26.995 24.6749 27.2559C24.9358 27.5168 25.3558 27.5168 25.6167 27.2559C25.8776 26.995 25.8776 26.575 25.6167 26.3141C25.3558 26.0532 24.9358 26.0532 24.6749 26.3141ZM23.1604 30.915C22.9832 30.915 22.8132 30.9854 22.6879 31.1107C22.5626 31.236 22.4922 31.406 22.4922 31.5832C22.4922 31.7604 22.5626 31.9304 22.6879 32.0557C22.8132 32.181 22.9832 32.2514 23.1604 32.2514C23.3376 32.2514 23.5075 32.181 23.6328 32.0557C23.7582 31.9304 23.8286 31.7604 23.8286 31.5832C23.8286 31.406 23.7582 31.236 23.6328 31.1107C23.5075 30.9854 23.3376 30.915 23.1604 30.915ZM24.6749 35.9041C24.414 36.165 24.414 36.585 24.6749 36.8459C24.9358 37.1068 25.3558 37.1068 25.6167 36.8459C25.8776 36.585 25.8776 36.165 25.6167 35.9041C25.3558 35.6432 24.9358 35.6432 24.6749 35.9041ZM29.944 37.6923C29.8119 37.6923 29.6827 37.7315 29.5728 37.8049C29.4629 37.8783 29.3773 37.9827 29.3267 38.1048C29.2761 38.2268 29.2629 38.3612 29.2887 38.4908C29.3144 38.6204 29.3781 38.7395 29.4715 38.8329C29.565 38.9264 29.684 38.99 29.8137 39.0158C29.9433 39.0416 30.0776 39.0283 30.1997 38.9778C30.3218 38.9272 30.4262 38.8416 30.4996 38.7317C30.573 38.6218 30.6122 38.4926 30.6122 38.3605C30.6058 37.9914 30.3067 37.6923 29.944 37.6923ZM34.2649 35.9041C34.004 36.165 34.004 36.585 34.2649 36.8459C34.5258 37.1068 34.9458 37.1068 35.2067 36.8459C35.4676 36.585 35.4676 36.165 35.2067 35.9041C34.9458 35.6432 34.5258 35.6432 34.2649 35.9041ZM36.7213 30.915C36.5441 30.915 36.3741 30.9854 36.2488 31.1107C36.1235 31.236 36.0531 31.406 36.0531 31.5832C36.0531 31.7604 36.1235 31.9304 36.2488 32.0557C36.3741 32.181 36.5441 32.2514 36.7213 32.2514C36.8985 32.2514 37.0684 32.181 37.1938 32.0557C37.3191 31.9304 37.3895 31.7604 37.3895 31.5832C37.3895 31.406 37.3191 31.236 37.1938 31.1107C37.0684 30.9854 36.8985 30.915 36.7213 30.915ZM34.2649 26.3141C34.004 26.575 34.004 26.995 34.2649 27.2559C34.5258 27.5168 34.9458 27.5168 35.2067 27.2559C35.4676 26.995 35.4676 26.575 35.2067 26.3141C34.9458 26.0532 34.5258 26.0532 34.2649 26.3141ZM30.4849 29.6295V27.2559C30.4849 27.1125 30.4279 26.9749 30.3265 26.8734C30.225 26.772 30.0875 26.715 29.944 26.715C29.8006 26.715 29.663 26.772 29.5615 26.8734C29.4601 26.9749 29.4031 27.1125 29.4031 27.2559V29.6295C28.544 29.865 27.914 30.6477 27.914 31.5768C27.914 31.9395 28.0158 32.2768 28.1876 32.5695L27.3858 33.3714C27.3108 33.4471 27.2597 33.5434 27.2391 33.648C27.2185 33.7527 27.2293 33.8611 27.2701 33.9596C27.3109 34.0582 27.3798 34.1425 27.4684 34.202C27.5569 34.2615 27.661 34.2935 27.7676 34.2941C27.9076 34.2941 28.0413 34.2432 28.1495 34.135L28.9576 33.3268C29.2504 33.4923 29.5876 33.6005 29.9504 33.6005C31.0704 33.6005 31.9804 32.6905 31.9804 31.5705C31.974 30.6477 31.3376 29.8714 30.4849 29.6295ZM29.944 32.5314C29.6895 32.5314 29.454 32.4295 29.2886 32.2641C29.2822 32.2577 29.2822 32.2514 29.2758 32.2514C29.2695 32.245 29.2631 32.245 29.2631 32.2386C29.0976 32.0668 28.9958 31.8377 28.9958 31.5832C28.9958 31.0614 29.4222 30.635 29.944 30.635C30.4658 30.635 30.8922 31.0614 30.8922 31.5832C30.8922 32.105 30.4658 32.5314 29.944 32.5314Z" fill="black"/>
<path id="Vector_3" d="M18.5036 33.0984H4.59901C2.85537 33.0984 1.43628 31.6793 1.43628 29.9357V12.792H29.7799V19.9638C29.7799 20.1073 29.8369 20.2449 29.9383 20.3463C30.0398 20.4478 30.1774 20.5047 30.3208 20.5047C30.4643 20.5047 30.6019 20.4478 30.7033 20.3463C30.8047 20.2449 30.8617 20.1073 30.8617 19.9638V8.82747C30.8617 6.49202 28.959 4.58929 26.6236 4.58929H26.1017V2.90293C26.1017 1.7002 25.1281 0.726562 23.9254 0.726562C22.7226 0.726562 21.749 1.7002 21.749 2.90293V4.58293H17.7908V2.90293C17.7908 1.7002 16.8172 0.726562 15.6145 0.726562C14.4117 0.726562 13.4381 1.7002 13.4381 2.90293V4.58293H9.47992V2.90293C9.47992 1.7002 8.50628 0.726562 7.30355 0.726562C6.10082 0.726562 5.12719 1.70656 5.12719 2.90293V4.58293H4.60537C2.26992 4.58293 0.367188 6.48565 0.367188 8.82111V29.9293C0.367188 32.2647 2.26992 34.1675 4.60537 34.1675H18.5099C18.809 34.1675 19.0508 33.9257 19.0508 33.6266C19.0508 33.3275 18.8026 33.0984 18.5036 33.0984ZM22.8245 2.90293C22.8245 2.61095 22.9404 2.33093 23.1469 2.12447C23.3534 1.91801 23.6334 1.80202 23.9254 1.80202C24.2173 1.80202 24.4974 1.91801 24.7038 2.12447C24.9103 2.33093 25.0263 2.61095 25.0263 2.90293V7.34474C25.0263 7.63672 24.9103 7.91674 24.7038 8.12321C24.4974 8.32967 24.2173 8.44565 23.9254 8.44565C23.6334 8.44565 23.3534 8.32967 23.1469 8.12321C22.9404 7.91674 22.8245 7.63672 22.8245 7.34474V2.90293ZM14.5136 2.90293C14.5136 2.29838 15.0036 1.80202 15.6145 1.80202C16.2254 1.80202 16.709 2.29202 16.709 2.90293V7.34474C16.709 7.94929 16.219 8.44565 15.6145 8.44565C15.0099 8.44565 14.5136 7.95565 14.5136 7.34474V2.90293ZM6.20264 2.90293C6.20264 2.29838 6.69264 1.80202 7.29719 1.80202C7.90173 1.80202 8.3981 2.29202 8.3981 2.90293V7.34474C8.3981 7.94929 7.9081 8.44565 7.29719 8.44565C6.68628 8.44565 6.20264 7.95565 6.20264 7.34474V2.90293ZM1.44264 8.82747C1.44264 7.08384 2.86173 5.66474 4.60537 5.66474H5.12719V7.34474C5.12719 8.54747 6.10082 9.52111 7.30355 9.52111C8.50628 9.52111 9.47992 8.54747 9.47992 7.34474V5.66474H13.4381V7.34474C13.4381 8.54747 14.4117 9.52111 15.6145 9.52111C16.8172 9.52111 17.7908 8.54747 17.7908 7.34474V5.66474H21.749V7.34474C21.749 8.54747 22.7226 9.52111 23.9254 9.52111C25.1281 9.52111 26.1017 8.54747 26.1017 7.34474V5.66474H26.6236C28.3672 5.66474 29.7863 7.08384 29.7863 8.82747V11.7102H1.44264V8.82747Z" fill="black"/>
</g>
</svg>
