<svg width="45" height="62" viewBox="0 0 45 62" fill="none" xmlns="http://www.w3.org/2000/svg">
<g id="Bira 91" clip-path="url(#clip0_8283_11022)">
<path id="Vector" d="M39.2092 61.1106C42.377 61.1106 44.9408 58.3655 44.9408 54.9788C44.9408 51.592 42.377 48.8516 39.2092 48.8516C36.0415 48.8516 33.4766 51.592 33.4766 54.9788C33.4766 58.3655 36.0442 61.1106 39.2092 61.1106ZM39.2092 50.0468C41.7562 50.0468 43.8246 52.2575 43.8246 54.9788C43.8246 57.7 41.7562 59.9188 39.2092 59.9188C36.6623 59.9188 34.5993 57.7 34.5993 54.9788C34.5993 52.2575 36.6645 50.0468 39.2092 50.0468Z" fill="white"/>
<path id="Vector_2" d="M40.6517 55.0602V56.5774H40.0679V57.782H42.3522V56.5774H41.7712V52.3477H40.6517L39.9688 53.0795V53.6704H40.6517V55.0602Z" fill="white"/>
<path id="Vector_3" d="M37.791 56.3241H37.8368L37.1288 57.7826H38.2499L39.3814 55.456L39.4577 55.2988C39.6277 54.992 39.7253 54.6404 39.7253 54.259C39.7253 53.1121 38.856 52.1875 37.791 52.1875C36.726 52.1875 35.8594 53.1121 35.8594 54.259C35.8594 55.3967 36.7265 56.3241 37.791 56.3241ZM37.791 53.2559C38.3066 53.2559 38.7257 53.7047 38.7257 54.259C38.7257 54.8057 38.3066 55.2581 37.791 55.2581C37.2754 55.2581 36.8584 54.8057 36.8584 54.259C36.8584 53.7047 37.2765 53.2559 37.791 53.2559Z" fill="white"/>
<path id="Vector_4" d="M13.3903 49.2891H11.0625V60.5921H13.3903V49.2891Z" fill="white"/>
<path id="Vector_5" d="M4.12813 60.5927H8.99364V49.2891H4.15102C2.40527 49.2891 0.989823 50.8366 0.989823 52.7526C0.989823 53.5788 1.25743 54.3427 1.70055 54.9394C1.25743 55.5333 0.9375 56.2989 0.9375 57.1326C0.9375 59.0464 2.3802 60.5927 4.12813 60.5927ZM4.15102 51.8322H6.67071V53.7232H4.15102C3.68992 53.7232 3.3133 53.2836 3.3133 52.7771C3.3133 52.2735 3.68992 51.8322 4.15102 51.8322ZM4.12813 56.1545H6.67071V58.0479H4.12813C3.66267 58.0479 3.28932 57.6089 3.28932 57.1018C3.28932 56.5947 3.66267 56.1545 4.12813 56.1545Z" fill="white"/>
<path id="Vector_6" d="M30.6303 49.2891H26.1027L23.7188 60.5927H26.0422L26.6505 57.7108H30.0831L30.6919 60.5927H33.017L30.6303 49.2891ZM27.1743 55.2206L27.8915 51.8322H28.8442L29.5571 55.2206H27.1743Z" fill="white"/>
<path id="Vector_7" d="M23.458 53.5276C23.458 51.1853 21.7259 49.2891 19.5861 49.2891H15.4531V60.5927H17.7815V57.7102H19.6428L20.2565 60.5927H22.5767L21.8115 56.9597C22.8084 56.211 23.458 54.9639 23.458 53.5276ZM20.6947 54.678C20.4048 54.993 20.0112 55.1647 19.5861 55.1647H17.7815V51.8322H19.5861C19.9982 51.8322 20.3884 52.0045 20.6827 52.3265C20.9754 52.6513 21.1351 53.0746 21.1351 53.5276C21.1351 54.0929 20.8958 54.4649 20.6947 54.678Z" fill="white"/>
<path id="Vector_8" d="M37.2597 31.2704C37.9524 31.8724 38.8201 32.2473 39.781 32.2473C42.0124 32.2473 43.8142 30.3144 43.8142 27.9407C43.8142 25.567 42.0124 23.6335 39.781 23.6335C38.9618 23.6335 38.1982 23.8996 37.56 24.3496C36.7015 19.1388 33.4581 14.8083 29.0733 12.6966L28.4105 0.883548L25.5251 6.79417L21.7954 0.113281L20.1135 7.69543L16.0213 4.7407L16.7419 12.7904C12.4258 14.9498 9.25149 19.2599 8.42631 24.4358C7.77118 23.9339 6.96726 23.6335 6.09248 23.6335C3.86656 23.6335 2.0625 25.56 2.0625 27.9407C2.0625 30.3214 3.86656 32.2473 6.09248 32.2473C7.10188 32.2473 8.01208 31.8363 8.71572 31.1836C10.4031 37.9338 16.1511 42.9094 22.9967 42.9094C29.8423 42.9094 35.5494 37.9769 37.2597 31.2704ZM39.781 25.6904C40.9506 25.6904 41.8908 26.6971 41.8908 27.9407C41.8908 29.1843 40.9506 30.1863 39.781 30.1863C38.6228 30.1863 37.6761 29.1796 37.6761 27.9407C37.6761 26.7017 38.6228 25.6904 39.781 25.6904ZM6.09248 30.1863C4.93047 30.1863 3.98538 29.1796 3.98538 27.9407C3.98538 26.7017 4.93047 25.6904 6.09248 25.6904C7.25449 25.6904 8.19794 26.6971 8.19794 27.9407C8.19794 29.1843 7.25503 30.1863 6.09248 30.1863ZM23.0354 40.9846C17.1866 40.9846 13.8668 36.6127 13.8668 36.6127L17.2373 33.2714C17.2373 33.2714 11.4654 28.3907 11.9461 25.043C12.4258 21.704 16.0312 20.9361 16.0312 20.9361L22.9983 24.7787L29.9666 20.9367C29.9666 20.9367 33.572 21.7046 34.0532 25.0436C34.5378 28.3913 28.7604 33.272 28.7604 33.272L32.1309 36.6133C32.1309 36.6133 28.8961 40.9852 23.0343 40.9852L23.0354 40.9846Z" fill="white"/>
<path id="Vector_9" d="M23.0067 24.7871L22.9961 24.7812H22.9956H22.995L22.9844 24.7871H23.0067Z" fill="white"/>
<path id="Vector_10" d="M18.0688 25.8203C17.2736 25.8203 16.625 26.5079 16.625 27.3632C16.625 28.2138 17.2736 28.9055 18.0688 28.9055C18.864 28.9055 19.5164 28.2138 19.5164 27.3632C19.5164 26.5079 18.8645 25.8203 18.0688 25.8203Z" fill="white"/>
<path id="Vector_11" d="M30.5763 27.1047C30.5763 25.758 29.5505 24.6641 28.2937 24.6641C27.0281 24.6641 26.0078 25.758 26.0078 27.1047C26.0078 28.4514 27.0281 29.5477 28.2937 29.5477C29.5505 29.5477 30.5763 28.4543 30.5763 27.1047Z" fill="white"/>
<path id="Vector_12" d="M21.6157 32.8867C21.0478 32.8867 20.5938 33.3764 20.5938 33.9784C20.5938 34.5839 21.0478 35.0712 21.6157 35.0712C22.1776 35.0712 22.6382 34.5839 22.6382 33.9784C22.6382 33.3764 22.1776 32.8867 21.6157 32.8867Z" fill="white"/>
<path id="Vector_13" d="M24.378 32.8867C23.8145 32.8867 23.3594 33.3764 23.3594 33.9784C23.3594 34.5839 23.8145 35.0712 24.378 35.0712C24.9416 35.0712 25.3989 34.5839 25.3989 33.9784C25.3989 33.3764 24.9443 32.8867 24.378 32.8867Z" fill="white"/>
</g>
<defs>
<clipPath id="clip0_8283_11022">
<rect width="44" height="61" fill="white" transform="translate(0.9375 0.113281)"/>
</clipPath>
</defs>
</svg>
