<svg width="34" height="35" viewBox="0 0 34 35" fill="none" xmlns="http://www.w3.org/2000/svg">
<g filter="url(#filter0_di_8278_70605)">
<rect x="4" y="2.11328" width="26" height="26" rx="13" fill="url(#paint0_linear_8278_70605)"/>
<path d="M15.25 19.9258C14.9875 19.9258 14.8125 19.8383 14.6375 19.6633L10.2625 15.2883C9.9125 14.9383 9.9125 14.4133 10.2625 14.0633C10.6125 13.7133 11.1375 13.7133 11.4875 14.0633L15.25 17.8258L22.5125 10.5633C22.8625 10.2133 23.3875 10.2133 23.7375 10.5633C24.0875 10.9133 24.0875 11.4383 23.7375 11.7883L15.8625 19.6633C15.6875 19.8383 15.5125 19.9258 15.25 19.9258Z" fill="#30353E"/>
</g>
<defs>
<filter id="filter0_di_8278_70605" x="0" y="0.113281" width="34" height="34" filterUnits="userSpaceOnUse" color-interpolation-filters="sRGB">
<feFlood flood-opacity="0" result="BackgroundImageFix"/>
<feColorMatrix in="SourceAlpha" type="matrix" values="0 0 0 0 0 0 0 0 0 0 0 0 0 0 0 0 0 0 127 0" result="hardAlpha"/>
<feOffset dy="2"/>
<feGaussianBlur stdDeviation="2"/>
<feComposite in2="hardAlpha" operator="out"/>
<feColorMatrix type="matrix" values="0 0 0 0 0 0 0 0 0 0 0 0 0 0 0 0 0 0 0.08 0"/>
<feBlend mode="normal" in2="BackgroundImageFix" result="effect1_dropShadow_8278_70605"/>
<feBlend mode="normal" in="SourceGraphic" in2="effect1_dropShadow_8278_70605" result="shape"/>
<feColorMatrix in="SourceAlpha" type="matrix" values="0 0 0 0 0 0 0 0 0 0 0 0 0 0 0 0 0 0 127 0" result="hardAlpha"/>
<feOffset dy="2"/>
<feGaussianBlur stdDeviation="2"/>
<feComposite in2="hardAlpha" operator="arithmetic" k2="-1" k3="1"/>
<feColorMatrix type="matrix" values="0 0 0 0 0 0 0 0 0 0 0 0 0 0 0 0 0 0 0.08 0"/>
<feBlend mode="normal" in2="shape" result="effect2_innerShadow_8278_70605"/>
</filter>
<linearGradient id="paint0_linear_8278_70605" x1="17" y1="2.11328" x2="17" y2="28.1133" gradientUnits="userSpaceOnUse">
<stop stop-color="#01D18F"/>
<stop offset="1" stop-color="#6CF5B6"/>
</linearGradient>
</defs>
</svg>
