<svg width="18" height="17" viewBox="0 0 18 17" fill="none" xmlns="http://www.w3.org/2000/svg">
<g id="Group">
<path id="Vector" d="M16.4974 14.8034H1.4974C1.27638 14.8034 1.06442 14.8912 0.90814 15.0475C0.75186 15.2037 0.664063 15.4157 0.664062 15.6367C0.664063 15.8577 0.75186 16.0697 0.90814 16.226C1.06442 16.3823 1.27638 16.4701 1.4974 16.4701H16.4974C16.7184 16.4701 16.9304 16.3823 17.0867 16.226C17.2429 16.0697 17.3307 15.8577 17.3307 15.6367C17.3307 15.4157 17.2429 15.2037 17.0867 15.0475C16.9304 14.8912 16.7184 14.8034 16.4974 14.8034ZM8.9974 0.636719C8.77638 0.636719 8.56442 0.724516 8.40814 0.880796C8.25186 1.03708 8.16406 1.24904 8.16406 1.47005V10.2951L5.4224 7.54505C5.26548 7.38813 5.05265 7.29998 4.83073 7.29998C4.60881 7.29998 4.39598 7.38813 4.23906 7.54505C4.08214 7.70197 3.99399 7.9148 3.99399 8.13672C3.99399 8.35864 4.08214 8.57147 4.23906 8.72839L8.40573 12.8951C8.4832 12.9732 8.57537 13.0352 8.67692 13.0775C8.77847 13.1198 8.88739 13.1416 8.9974 13.1416C9.10741 13.1416 9.21633 13.1198 9.31788 13.0775C9.41943 13.0352 9.51159 12.9732 9.58906 12.8951L13.7557 8.72839C13.8334 8.65069 13.8951 8.55845 13.9371 8.45693C13.9792 8.35541 14.0008 8.2466 14.0008 8.13672C14.0008 8.02684 13.9792 7.91803 13.9371 7.81651C13.8951 7.71499 13.8334 7.62275 13.7557 7.54505C13.678 7.46735 13.5858 7.40572 13.4843 7.36367C13.3828 7.32162 13.2739 7.29998 13.1641 7.29998C13.0542 7.29998 12.9454 7.32162 12.8439 7.36367C12.7423 7.40572 12.6501 7.46735 12.5724 7.54505L9.83073 10.2951V1.47005C9.83073 1.24904 9.74293 1.03708 9.58665 0.880796C9.43037 0.724516 9.21841 0.636719 8.9974 0.636719Z" fill="white"/>
</g>
</svg>
