<svg width="66" height="67" viewBox="0 0 66 67" fill="none" xmlns="http://www.w3.org/2000/svg">
<rect y="0.945312" width="66" height="66" rx="10" fill="url(#paint0_linear_11929_9685)"/>
<path d="M52.2082 48.4852C52.2014 48.4668 52.1909 48.4507 52.1834 48.4327C52.1759 48.4147 52.177 48.4072 52.1722 48.3952L46.6889 35.3114C46.4527 34.7506 46.0729 34.262 45.5877 33.8948C45.1025 33.5276 44.529 33.2947 43.9252 33.2197L43.5205 33.1473C42.7745 33.0138 42.0302 32.8816 41.2874 32.7506L40.8037 32.6647C40.1714 32.5522 39.574 32.4483 38.9804 32.3024C38.5776 32.2061 38.1805 32.0867 37.7913 31.9451C37.5565 31.8569 37.5565 31.7883 37.5565 31.7553V30.1953C38.3618 29.4379 38.9545 28.4827 39.2755 27.4248H39.9445C40.4291 27.4249 40.9038 27.2878 41.3137 27.0294C41.7236 26.771 42.052 26.4019 42.261 25.9646C42.4699 25.5274 42.5508 25.04 42.4943 24.5587C42.4378 24.0775 42.2463 23.622 41.9418 23.2451V21.1773C41.9504 18.8097 41.0339 16.5324 39.3877 14.8308C38.5876 13.9969 37.6271 13.3336 36.5639 12.8807C35.5007 12.4277 34.3569 12.1946 33.2013 12.1953C28.3792 12.1953 24.4559 16.2247 24.4559 21.1773V23.2458C24.1514 23.6229 23.9599 24.0785 23.9035 24.5599C23.8471 25.0413 23.9281 25.5289 24.1372 25.9661C24.3463 26.4034 24.6749 26.7726 25.085 27.0309C25.4951 27.2892 25.97 27.4262 26.4547 27.4259H27.1642C27.4933 28.4508 28.0692 29.3792 28.8412 30.1293V31.7328C28.8412 31.8674 28.5325 31.9698 28.0345 32.0917L27.8305 32.1427C27.0982 32.3302 26.3279 32.4659 25.5828 32.5964L22.0788 33.2204C21.4749 33.2946 20.9014 33.5273 20.4165 33.8948C19.9317 34.2623 19.5527 34.7516 19.318 35.3129L13.8412 48.3828C13.8344 48.3986 13.8318 48.4147 13.8265 48.4304C13.8213 48.4462 13.8082 48.4657 13.801 48.4844C13.4793 49.3303 13.5068 50.2692 13.8773 51.0949C14.2478 51.9205 14.9311 52.5651 15.7769 52.8869L22.963 55.6244C23.0617 55.6715 23.1695 55.6962 23.2788 55.6968H42.7293C42.8349 55.6963 42.9391 55.673 43.0349 55.6286L50.2319 52.8888C50.6508 52.7297 51.0343 52.4896 51.3604 52.1822C51.6865 51.8748 51.9488 51.5061 52.1323 51.0973C52.3158 50.6885 52.417 50.2475 52.43 49.7995C52.443 49.3516 52.3676 48.9055 52.2082 48.4867V48.4852ZM41.0129 24.8542C41.0095 25.1368 40.896 25.4069 40.6964 25.6071C40.4969 25.8073 40.2271 25.9217 39.9445 25.9259H39.5365C39.5437 25.8033 39.5545 25.6807 39.5545 25.5592V23.7847H39.9434C40.2256 23.7893 40.495 23.9035 40.6945 24.1031C40.8941 24.3026 41.0083 24.572 41.0129 24.8542ZM26.4558 25.9259C26.1718 25.9259 25.8995 25.8131 25.6987 25.6124C25.498 25.4116 25.3852 25.1393 25.3852 24.8553C25.3852 24.5714 25.498 24.299 25.6987 24.0983C25.8995 23.8975 26.1718 23.7847 26.4558 23.7847H26.8454V25.4002C26.8454 25.5772 26.8604 25.7516 26.8739 25.9252L26.4558 25.9259ZM27.0498 20.7884C26.9464 20.9167 26.8788 21.07 26.8537 21.2328C26.8473 21.2712 26.8442 21.3101 26.8443 21.3491V22.2866H26.4535C26.2864 22.287 26.1198 22.3039 25.9559 22.3368V21.1773C25.9559 17.0523 29.2064 13.6953 33.2013 13.6953C34.1561 13.6951 35.101 13.8881 35.9793 14.2626C36.8575 14.6371 37.6509 15.1853 38.3118 15.8744C39.6861 17.2968 40.4508 19.1995 40.4429 21.1773V22.3349C40.2788 22.302 40.1119 22.2852 39.9445 22.2847H39.5545V21.3472C39.5545 21.2238 39.5239 21.1023 39.4656 20.9935C39.4074 20.8847 39.3231 20.792 39.2204 20.7235C39.1177 20.6551 38.9997 20.613 38.8768 20.6012C38.754 20.5893 38.6301 20.6079 38.5162 20.6553C37.263 21.1757 35.8954 21.3591 34.5494 21.1871C34.0591 21.1011 33.5902 20.9203 33.169 20.6549C32.5743 20.2936 31.9171 20.0471 31.2314 19.9282C29.9267 19.7495 28.5982 19.9553 27.4087 20.5203C27.2691 20.5796 27.1459 20.6719 27.0498 20.7892V20.7884ZM28.4662 26.5102C28.3841 26.1409 28.3434 25.7635 28.345 25.3852V21.7529C29.1856 21.406 30.1031 21.2879 31.0042 21.4106C31.5176 21.5041 32.0087 21.6942 32.4513 21.9708C33.0302 22.3252 33.6727 22.5634 34.3428 22.6721C35.5859 22.8383 36.85 22.7453 38.0553 22.3987V25.5592C38.0547 25.885 38.0231 26.2099 37.9608 26.5297C37.7327 27.6692 37.1018 28.6885 36.1836 29.4009C35.2655 30.1134 34.1214 30.4712 32.9609 30.4091C31.8885 30.3398 30.8684 29.921 30.0567 29.2169C29.2449 28.5127 28.6862 27.562 28.4662 26.5102ZM30.3412 31.7321V31.2153C31.1308 31.6285 32.001 31.8646 32.8912 31.9072C32.9969 31.9124 33.1015 31.9151 33.2062 31.9151C34.1966 31.9153 35.1735 31.6842 36.0588 31.2401V31.7553C36.0638 32.116 36.1843 32.4657 36.4025 32.7529C36.6208 33.0401 36.9253 33.2499 37.2715 33.3513C37.4437 33.4147 37.6214 33.4713 37.8003 33.5276C37.3825 34.3943 36.7278 35.1251 35.9121 35.6354C35.0964 36.1457 34.1529 36.4147 33.1907 36.4114C32.2286 36.408 31.287 36.1324 30.4749 35.6163C29.6628 35.1003 29.0133 34.365 28.6015 33.4953C29.2754 33.3183 30.3412 32.9373 30.3412 31.7328V31.7321ZM16.3083 51.4856C16.0702 51.3983 15.8517 51.2646 15.6657 51.0922C15.4797 50.9198 15.3297 50.7122 15.2245 50.4814C15.1193 50.2506 15.061 50.0013 15.053 49.7478C15.045 49.4943 15.0874 49.2417 15.1777 49.0047C15.2681 48.7677 15.4046 48.5511 15.5793 48.3672C15.7541 48.1834 15.9636 48.0362 16.1957 47.934C16.4278 47.8318 16.678 47.7767 16.9315 47.7719C17.1851 47.7672 17.4371 47.8128 17.6729 47.9062L22.0979 49.5903L22.4354 53.8177L16.3083 51.4856ZM42.0363 54.1953H23.9703L23.0478 42.6221H42.9603L42.0363 54.1953ZM22.2363 41.1221C22.1326 41.122 22.0301 41.1434 21.9351 41.1849C21.8401 41.2265 21.7548 41.2873 21.6845 41.3634C21.6142 41.4396 21.5605 41.5296 21.5267 41.6276C21.4929 41.7256 21.4798 41.8295 21.4882 41.9328L21.9667 47.9362L18.2043 46.5033C17.8175 46.3556 17.4071 46.2794 16.993 46.2783C16.7653 46.2817 16.5385 46.3083 16.3162 46.3578L20.7037 35.8904C20.8372 35.5709 21.0535 35.2928 21.3304 35.0847C21.6072 34.8767 21.9346 34.7463 22.2787 34.7069L22.3237 34.7002L25.8412 34.0732C26.2589 34.0001 26.6849 33.9232 27.1128 33.8392C27.6098 35.0392 28.4502 36.0658 29.5283 36.7902C30.6065 37.5145 31.8746 37.9044 33.1735 37.911C34.4724 37.9175 35.7443 37.5404 36.8297 36.8269C37.9151 36.1134 38.7657 35.0953 39.2748 33.9003L43.681 34.7002L43.7268 34.7069C44.0711 34.7471 44.3986 34.878 44.6758 35.0862C44.9529 35.2944 45.1699 35.5725 45.3044 35.8919L49.6912 46.3578C49.4687 46.3092 49.2419 46.2833 49.0143 46.2806C48.5995 46.2815 48.1883 46.3577 47.8008 46.5056L44.0395 47.9369L44.518 41.9328C44.5263 41.8296 44.513 41.7258 44.4792 41.628C44.4454 41.5302 44.3916 41.4404 44.3214 41.3643C44.2511 41.2883 44.1659 41.2276 44.0711 41.1861C43.9762 41.1446 43.8738 41.1232 43.7703 41.1232L22.2363 41.1221ZM49.699 51.4856L43.5708 53.8203L43.9083 49.5926L48.3333 47.9088C48.8091 47.7327 49.3351 47.7505 49.798 47.9583C50.2609 48.1661 50.6237 48.5473 50.8083 49.0199C50.9872 49.4941 50.9709 50.0199 50.7629 50.482C50.5549 50.9442 50.1722 51.305 49.6987 51.4856H49.699Z" fill="#30353E"/>
<defs>
<linearGradient id="paint0_linear_11929_9685" x1="33" y1="0.945312" x2="33" y2="66.9453" gradientUnits="userSpaceOnUse">
<stop stop-color="#E5F1FF"/>
<stop offset="1" stop-color="white"/>
</linearGradient>
</defs>
</svg>
