<svg width="66" height="67" viewBox="0 0 66 67" fill="none" xmlns="http://www.w3.org/2000/svg">
<rect y="0.945312" width="66" height="66" rx="10" fill="url(#paint0_linear_11929_35583)"/>
<g clip-path="url(#clip0_11929_35583)">
<path d="M13.8726 47.1926H14.8151V48.6257C14.8151 50.4683 16.3141 51.9675 18.1569 51.9675H32.525C32.6861 51.9675 32.8405 51.9035 32.9544 51.7896C33.0683 51.6758 33.1322 51.5213 33.1322 51.3603C33.1322 51.1992 33.0683 51.0448 32.9544 50.9309C32.8405 50.817 32.6861 50.7531 32.525 50.7531H18.1569C16.9838 50.7531 16.0294 49.7987 16.0294 48.6256V47.1925H31.5877C31.9231 47.1925 32.1949 46.9207 32.1949 46.5853C32.1949 46.2499 31.9232 45.9781 31.5877 45.9781H13.8726C12.9756 45.9781 12.2456 45.2481 12.2456 44.3508V13.3416C12.2456 12.4443 12.9756 11.7142 13.8726 11.7142H32.6271V17.1888C32.6271 18.188 33.4401 19.0008 34.4396 19.0008H39.9132V34.5245C39.9132 34.6855 39.9772 34.84 40.091 34.9538C40.2049 35.0677 40.3594 35.1317 40.5204 35.1317C40.6814 35.1317 40.8359 35.0677 40.9498 34.9538C41.0637 34.84 41.1276 34.6855 41.1276 34.5245V18.3932C41.1276 18.0769 40.8833 17.9065 40.7849 17.7986C40.3236 17.3351 39.8923 16.9028 39.4832 16.4939H41.5649C42.7408 16.4939 43.6971 17.4504 43.6971 18.6263V33.9804C43.6971 34.1415 43.7611 34.2959 43.875 34.4098C43.9888 34.5237 44.1433 34.5877 44.3043 34.5877C44.4654 34.5877 44.6198 34.5237 44.7337 34.4098C44.8476 34.2959 44.9116 34.1415 44.9116 33.9804V18.6263C44.9116 16.7809 43.4102 15.2796 41.565 15.2796H38.2656L33.6635 10.6778C33.555 10.5692 33.3724 10.5 33.2342 10.5H13.8726C12.3059 10.5 11.0312 11.7748 11.0312 13.3417V44.3511C11.0312 45.9178 12.3058 47.1926 13.8726 47.1926ZM34.4396 17.7865C34.1099 17.7865 33.8415 17.5185 33.8415 17.1889V12.5729L39.0556 17.7865H34.4396Z" fill="#30353E"/>
<path d="M22.4374 13.832H16.0113C14.8762 13.832 13.9531 14.7554 13.9531 15.8902C13.9531 17.0251 14.8762 17.9484 16.0113 17.9484H22.4374C23.5725 17.9484 24.4956 17.0251 24.4956 15.8902C24.4956 14.7554 23.5725 13.832 22.4374 13.832ZM22.4374 16.7342H16.0113C15.5459 16.7342 15.1675 16.3556 15.1675 15.8903C15.1675 15.425 15.546 15.0465 16.0113 15.0465H22.4374C22.9028 15.0465 23.2812 15.425 23.2812 15.8903C23.2812 16.3556 22.9027 16.7342 22.4374 16.7342ZM54.9818 46.5906C54.9818 40.6427 50.1424 35.8036 44.1945 35.8036C38.2467 35.8036 33.4078 40.6427 33.4078 46.5906C33.4078 52.5386 38.2467 57.3777 44.1945 57.3777C50.1424 57.3777 54.9818 52.5386 54.9818 46.5906ZM44.1945 56.1633C38.9164 56.1633 34.6221 51.869 34.6221 46.5906C34.6221 41.3122 38.9164 37.0179 44.1945 37.0179C49.4731 37.0179 53.7674 41.3122 53.7674 46.5906C53.7674 51.869 49.4731 56.1633 44.1945 56.1633Z" fill="#30353E"/>
<path d="M44.1934 38.1875C39.5859 38.1875 35.7969 41.9341 35.7969 46.5843C35.7969 51.1923 39.5438 54.9808 44.1934 54.9808C48.8019 54.9808 52.5904 51.234 52.5904 46.5843C52.5904 41.9727 48.8399 38.1875 44.1934 38.1875ZM49.5104 47.1914H51.3453C51.2168 48.7159 50.6127 50.1054 49.6787 51.2108L48.3824 49.9145C48.1452 49.6773 47.7611 49.6773 47.5239 49.9145C47.2867 50.1517 47.2867 50.5359 47.5239 50.7731L48.8202 52.0693C47.7147 53.0033 46.325 53.6072 44.8006 53.7358V51.9009C44.8006 51.7398 44.7367 51.5854 44.6228 51.4715C44.5089 51.3576 44.3545 51.2937 44.1934 51.2937C44.0324 51.2937 43.8779 51.3576 43.764 51.4715C43.6502 51.5854 43.5862 51.7398 43.5862 51.9009V53.7358C42.0618 53.6072 40.6724 53.0034 39.567 52.0695L40.8634 50.7732C41.1006 50.536 41.1006 50.1518 40.8634 49.9146C40.6262 49.6774 40.242 49.6774 40.0048 49.9146L38.7084 51.2111C37.7744 50.1057 37.1704 48.7161 37.0419 47.1916H38.8768C39.0378 47.1916 39.1922 47.1277 39.3061 47.0138C39.42 46.8999 39.484 46.7455 39.484 46.5844C39.484 46.4234 39.42 46.2689 39.3061 46.155C39.1922 46.0412 39.0378 45.9772 38.8768 45.9772H37.0419C37.1704 44.4527 37.7744 43.0632 38.7083 41.9577L40.0047 43.2541C40.2419 43.4913 40.6261 43.4913 40.8633 43.2541C41.1005 43.0169 41.1005 42.6328 40.8633 42.3956L39.5668 41.0991C40.6723 40.1652 42.0617 39.5612 43.5861 39.4327V41.2678C43.5861 41.4289 43.6501 41.5833 43.7639 41.6972C43.8778 41.8111 44.0323 41.8751 44.1933 41.8751C44.3544 41.8751 44.5088 41.8111 44.6227 41.6972C44.7366 41.5833 44.8005 41.4289 44.8005 41.2678V39.4327C46.325 39.5612 47.7146 40.1652 48.8202 41.0993L47.5238 42.3957C47.2866 42.6328 47.2866 43.017 47.5238 43.2542C47.761 43.4914 48.1452 43.4914 48.3823 43.2542L49.6787 41.9578C50.6127 43.0633 51.2168 44.4528 51.3453 45.9772H49.5104C49.4298 45.9758 49.3497 45.9904 49.2748 46.0203C49.1999 46.0502 49.1317 46.0947 49.0742 46.1512C49.0167 46.2077 48.971 46.2751 48.9398 46.3495C48.9086 46.4238 48.8925 46.5037 48.8925 46.5843C48.8925 46.665 48.9086 46.7448 48.9398 46.8191C48.971 46.8935 49.0167 46.9609 49.0742 47.0174C49.1317 47.074 49.1999 47.1185 49.2748 47.1483C49.3497 47.1782 49.4298 47.1929 49.5104 47.1914Z" fill="#30353E"/>
<path d="M44.8163 46.3498V43.4467C44.8163 43.2857 44.7523 43.1312 44.6384 43.0174C44.5245 42.9035 44.3701 42.8395 44.2091 42.8395C44.048 42.8395 43.8936 42.9035 43.7797 43.0174C43.6658 43.1312 43.6018 43.2857 43.6018 43.4467V46.5836C43.6018 46.7342 43.6578 46.8794 43.7589 46.991L45.3251 48.7219C45.4337 48.8393 45.5842 48.9091 45.744 48.9161C45.9037 48.9232 46.0598 48.867 46.1783 48.7597C46.2969 48.6524 46.3683 48.5026 46.3771 48.343C46.3859 48.1834 46.3314 48.0267 46.2254 47.907L44.8163 46.3498ZM37.2532 21.8594H14.9353C14.8556 21.8594 14.7766 21.8751 14.703 21.9056C14.6293 21.9361 14.5624 21.9808 14.506 22.0372C14.4496 22.0936 14.4049 22.1606 14.3743 22.2342C14.3438 22.3079 14.3281 22.3869 14.3281 22.4666C14.3281 22.5463 14.3438 22.6253 14.3743 22.699C14.4049 22.7726 14.4496 22.8396 14.506 22.896C14.5624 22.9523 14.6293 22.9971 14.703 23.0276C14.7766 23.0581 14.8556 23.0738 14.9353 23.0738H37.2532C37.4142 23.0738 37.5687 23.0098 37.6826 22.896C37.7964 22.7821 37.8604 22.6276 37.8604 22.4666C37.8604 22.3055 37.7964 22.1511 37.6826 22.0372C37.5687 21.9233 37.4142 21.8594 37.2532 21.8594ZM14.9353 41.7782H29.8761C30.0371 41.7782 30.1916 41.7142 30.3055 41.6003C30.4193 41.4864 30.4833 41.332 30.4833 41.1709C30.4833 41.0099 30.4193 40.8554 30.3055 40.7416C30.1916 40.6277 30.0371 40.5637 29.8761 40.5637H14.9353C14.6 40.5637 14.3281 40.8355 14.3281 41.1709C14.3281 41.5064 14.5999 41.7782 14.9353 41.7782ZM14.9353 27.4762H19.2391C19.5745 27.4762 19.8463 27.2044 19.8463 26.869C19.8463 26.5336 19.5746 26.2618 19.2391 26.2618H14.9353C14.6 26.2618 14.3281 26.5336 14.3281 26.869C14.3281 27.2044 14.5999 27.4762 14.9353 27.4762ZM37.2532 26.2619H22.4994C22.164 26.2619 21.8922 26.5337 21.8922 26.8691C21.8922 27.2045 22.1639 27.4763 22.4994 27.4763H37.2532C37.4142 27.4763 37.5687 27.4123 37.6826 27.2985C37.7964 27.1846 37.8604 27.0301 37.8604 26.8691C37.8604 26.708 37.7964 26.5536 37.6826 26.4397C37.5687 26.3258 37.4142 26.2619 37.2532 26.2619ZM14.9353 35.7966C14.7743 35.7966 14.6199 35.8606 14.506 35.9745C14.3921 36.0883 14.3281 36.2428 14.3281 36.4038C14.3281 36.5649 14.3921 36.7193 14.506 36.8332C14.6199 36.9471 14.7743 37.0111 14.9353 37.0111H19.2391C19.4002 37.0111 19.5546 36.9471 19.6685 36.8332C19.7824 36.7193 19.8463 36.5649 19.8463 36.4038C19.8463 36.2428 19.7824 36.0883 19.6685 35.9745C19.5546 35.8606 19.4002 35.7966 19.2391 35.7966H14.9353ZM37.3879 36.4014C37.3879 36.2404 37.3239 36.0859 37.2101 35.972C37.0962 35.8582 36.9417 35.7942 36.7807 35.7942H22.4998C22.3388 35.7942 22.1843 35.8582 22.0705 35.972C21.9566 36.0859 21.8926 36.2404 21.8926 36.4014C21.8926 36.5625 21.9566 36.7169 22.0705 36.8308C22.1843 36.9447 22.3388 37.0086 22.4998 37.0086H36.7807C36.9417 37.0086 37.0962 36.9446 37.21 36.8307C37.3239 36.7169 37.3879 36.5624 37.3879 36.4014ZM37.2532 31.0291H32.9494C32.6141 31.0291 32.3422 31.3008 32.3422 31.6363C32.3422 31.9717 32.614 32.2435 32.9494 32.2435H37.2532C37.4142 32.2435 37.5687 32.1795 37.6826 32.0656C37.7964 31.9518 37.8604 31.7973 37.8604 31.6363C37.8604 31.4752 37.7964 31.3208 37.6826 31.2069C37.5687 31.093 37.4142 31.0291 37.2532 31.0291ZM30.2967 31.6363C30.2967 31.4752 30.2328 31.3208 30.1189 31.2069C30.005 31.093 29.8506 31.0291 29.6895 31.0291H14.9353C14.6 31.0291 14.3281 31.3008 14.3281 31.6363C14.3281 31.9717 14.5999 32.2435 14.9353 32.2435H29.6896C30.025 32.2435 30.2967 31.9716 30.2967 31.6363Z" fill="#30353E"/>
</g>
<defs>
<linearGradient id="paint0_linear_11929_35583" x1="33" y1="0.945312" x2="33" y2="66.9453" gradientUnits="userSpaceOnUse">
<stop stop-color="#E5F1FF"/>
<stop offset="1" stop-color="white"/>
</linearGradient>
<clipPath id="clip0_11929_35583">
<rect width="48" height="48" fill="white" transform="translate(9 9.94531)"/>
</clipPath>
</defs>
</svg>
