<svg width="66" height="67" viewBox="0 0 66 67" fill="none" xmlns="http://www.w3.org/2000/svg">
<rect y="0.945312" width="66" height="66" rx="10" fill="url(#paint0_linear_11929_21780)"/>
<path d="M43.8532 49.1368V50.1761C43.196 50.3316 42.6103 50.704 42.1908 51.2333C41.7712 51.7625 41.5423 52.4177 41.5409 53.0931C41.5409 54.7491 42.8886 56.0968 44.5455 56.0968C46.2024 56.0968 47.5501 54.7491 47.5501 53.0921C47.5487 52.4168 47.3198 51.7616 46.9003 51.2323C46.4807 50.7031 45.895 50.3307 45.2378 50.1752V49.1377C45.2373 48.4635 44.9694 47.8171 44.4927 47.3403C44.0161 46.8635 43.3698 46.5953 42.6957 46.5946H36.2064V44.6441H39.2729C39.4565 44.6441 39.6326 44.5712 39.7624 44.4414C39.8923 44.3115 39.9652 44.1354 39.9652 43.9518C39.9652 43.7682 39.8923 43.5921 39.7624 43.4623C39.6326 43.3325 39.4565 43.2595 39.2729 43.2595H36.2073V41.3081H45.8572C46.1664 41.3081 46.4572 41.4281 46.676 41.6469L48.092 43.0629C47.8797 43.4746 47.7486 43.9352 47.7486 44.4291C47.7486 46.086 49.0963 47.4337 50.7532 47.4337C52.4101 47.4337 53.7578 46.086 53.7578 44.4291C53.7578 42.7721 52.4101 41.4244 50.7532 41.4244C50.0941 41.4244 49.4886 41.6441 48.9929 42.006L47.6544 40.6675C47.419 40.4307 47.1389 40.2431 46.8304 40.1153C46.5219 39.9876 46.1911 39.9224 45.8572 39.9235H36.2073V37.9712H40.6612C40.8448 37.9712 41.0209 37.8983 41.1507 37.7684C41.2806 37.6386 41.3535 37.4625 41.3535 37.2789C41.3535 37.0953 41.2806 36.9192 41.1507 36.7894C41.0209 36.6595 40.8448 36.5866 40.6612 36.5866H36.2073V34.6352H47.755C47.9105 35.2924 48.2829 35.8781 48.8122 36.2977C49.3414 36.7172 49.9966 36.9461 50.672 36.9475C52.328 36.9475 53.6766 35.5998 53.6766 33.9429C53.6766 32.286 52.3289 30.9383 50.671 30.9383C49.9958 30.9399 49.3409 31.1689 48.8118 31.5884C48.2827 32.008 47.9105 32.5935 47.755 33.2506H36.2073V31.2992H40.6612C40.8448 31.2992 41.0209 31.2263 41.1507 31.0964C41.2806 30.9666 41.3535 30.7905 41.3535 30.6069C41.3535 30.4233 41.2806 30.2472 41.1507 30.1174C41.0209 29.9875 40.8448 29.9146 40.6612 29.9146H36.2073V27.9632H45.8572C46.5255 27.9632 47.1809 27.6928 47.6544 27.2192L48.9929 25.8808C49.4886 26.2417 50.0941 26.4623 50.7532 26.4623C52.4101 26.4623 53.7578 25.1137 53.7578 23.4568C53.7578 21.7998 52.4101 20.4521 50.7532 20.4521C49.0963 20.4521 47.7486 21.7998 47.7486 23.4568C47.7486 23.9515 47.8797 24.4112 48.0929 24.8229L46.676 26.2398C46.46 26.4558 46.1618 26.5786 45.8572 26.5786H36.2073V24.6272H39.2729C39.4565 24.6272 39.6326 24.5543 39.7624 24.4244C39.8923 24.2946 39.9652 24.1185 39.9652 23.9349C39.9652 23.7513 39.8923 23.5752 39.7624 23.4454C39.6326 23.3155 39.4565 23.2426 39.2729 23.2426H36.2073V21.2912H42.6957C43.3697 21.2905 44.0158 21.0224 44.4924 20.5458C44.969 20.0692 45.2371 19.4231 45.2378 18.7491V17.7106C45.8949 17.5548 46.4804 17.1824 46.8999 16.6532C47.3194 16.124 47.5484 15.469 47.5501 14.7937C47.5492 13.1368 46.2015 11.7891 44.5455 11.7891C42.8895 11.7891 41.5409 13.1368 41.5409 14.7937C41.5426 15.469 41.7717 16.124 42.1911 16.6532C42.6106 17.1824 43.1961 17.5548 43.8532 17.7106V18.7491C43.8532 19.3869 43.3335 19.9066 42.6957 19.9066H36.2064V12.4814C36.2064 12.2978 36.1335 12.1217 36.0037 11.9918C35.8738 11.862 35.6977 11.7891 35.5141 11.7891H33.0513C32.0655 11.7891 31.2089 12.4888 31.0169 13.4506L30.3587 16.674C28.497 17.103 26.7181 17.8339 25.0926 18.8377L22.3446 17.022C21.5277 16.4681 20.4246 16.5789 19.724 17.2804L17.7744 19.2189C17.4333 19.5557 17.2196 20.0003 17.1698 20.4771C17.12 20.9538 17.2371 21.4331 17.5012 21.8331L19.2947 24.5681C18.5627 25.6998 17.5843 28.0832 17.144 29.8454L13.9095 30.4952C13.4388 30.5886 13.015 30.8422 12.7101 31.2127C12.4051 31.5833 12.2379 32.048 12.2369 32.5278L12.2277 35.2721C12.2266 35.7518 12.3912 36.2172 12.6936 36.5895C12.996 36.9619 13.4177 37.2184 13.8874 37.3158L17.12 37.9823C17.5457 39.8438 18.2798 41.6209 19.292 43.2401L17.467 45.9743C17.2014 46.3752 17.0822 46.8555 17.1296 47.3342C17.177 47.8128 17.3882 48.2604 17.7274 48.6014L19.676 50.5583C20.0168 50.8939 20.4621 51.1029 20.9381 51.1508C21.414 51.1986 21.892 51.0824 22.2929 50.8214L25.0354 49.0029C26.6523 50.0176 28.4261 50.7575 30.2849 51.1924L30.9421 54.4232C31.0368 54.8941 31.2911 55.3178 31.6622 55.6227C32.0332 55.9277 32.4982 56.0951 32.9784 56.0968H35.515C35.6987 56.0968 35.8747 56.0238 36.0046 55.894C36.1344 55.7641 36.2073 55.5881 36.2073 55.4044V47.9792H42.6957C43.3335 47.9792 43.8532 48.498 43.8532 49.1368ZM46.1655 53.0921C46.1655 53.9857 45.4381 54.7121 44.5455 54.7121C43.6529 54.7121 42.9255 53.9857 42.9255 53.0921C42.9255 52.1986 43.652 51.4721 44.5455 51.4721C45.439 51.4721 46.1655 52.1986 46.1655 53.0921ZM52.3732 44.4291C52.3732 45.3226 51.6458 46.0491 50.7532 46.0491C49.8606 46.0491 49.1332 45.3226 49.1332 44.4291C49.1332 43.5355 49.8597 42.8091 50.7532 42.8091C51.6467 42.8091 52.3732 43.5364 52.3732 44.4291ZM50.671 32.3229C51.5646 32.3229 52.292 33.0494 52.292 33.9429C52.292 34.8364 51.5646 35.5629 50.671 35.5629C49.7775 35.5629 49.051 34.8364 49.051 33.9429C49.051 33.0494 49.7784 32.3229 50.671 32.3229ZM50.7532 21.8368C51.6458 21.8368 52.3732 22.5632 52.3732 23.4568C52.3732 24.3503 51.6458 25.0777 50.7532 25.0777C49.8606 25.0777 49.1332 24.3494 49.1332 23.4568C49.1332 22.5641 49.8597 21.8368 50.7532 21.8368ZM42.9255 14.7937C42.9255 13.9001 43.652 13.1737 44.5455 13.1737C44.9618 13.1936 45.3544 13.3729 45.642 13.6745C45.9296 13.9762 46.09 14.3769 46.09 14.7937C46.09 15.2104 45.9296 15.6112 45.642 15.9128C45.3544 16.2144 44.9618 16.3938 44.5455 16.4137C43.652 16.4137 42.9255 15.6872 42.9255 14.7937ZM34.3907 42.8137C29.8206 42.8137 26.1809 39.4103 25.5874 35.1761C25.4212 34.0212 25.4861 32.8447 25.7783 31.7151C26.0705 30.5854 26.5842 29.5251 27.2895 28.5955C28.1598 27.436 29.3022 26.5086 30.6159 25.8952C31.9296 25.2819 33.3741 25.0014 34.8218 25.0786V42.7906C34.6778 42.7971 34.5357 42.8137 34.3907 42.8137ZM32.9784 54.7121C32.8177 54.711 32.6623 54.6544 32.5387 54.5517C32.415 54.4491 32.3307 54.3068 32.3 54.1491L31.5523 50.4761C31.5253 50.3433 31.4599 50.2214 31.3642 50.1254C31.2686 50.0294 31.1468 49.9636 31.0141 49.9361C29.0147 49.5231 27.1132 48.73 25.4129 47.5998C25.2995 47.5245 25.1664 47.4843 25.0303 47.4843C24.8941 47.4843 24.761 47.5245 24.6477 47.5998L21.5332 49.6638C21.3994 49.7517 21.2396 49.7914 21.0801 49.7763C20.9207 49.7612 20.7712 49.6922 20.6563 49.5808L18.7086 47.6238C18.5933 47.5104 18.5212 47.3603 18.5047 47.1993C18.4881 47.0384 18.5283 46.8768 18.6181 46.7423L20.695 43.6315C20.7711 43.5183 20.8118 43.3851 20.8122 43.2487C20.8125 43.1124 20.7724 42.9789 20.6969 42.8654C19.5691 41.1639 18.7823 39.2598 18.38 37.2586C18.3531 37.1255 18.2876 37.0033 18.1918 36.9071C18.0959 36.8109 17.9739 36.745 17.8409 36.7177L14.1624 35.9598C14.0058 35.9265 13.8655 35.8402 13.7651 35.7154C13.6647 35.5906 13.6104 35.435 13.6114 35.2749L13.6206 32.5389C13.6208 32.3772 13.6768 32.2205 13.7793 32.0953C13.8817 31.9702 14.0242 31.8843 14.1827 31.8521L17.8566 31.1137C17.9896 31.0868 18.1117 31.0215 18.2079 30.9258C18.304 30.8302 18.37 30.7084 18.3975 30.5755C18.8074 28.5872 20.1329 25.6057 20.6406 25.0684C20.7478 24.9553 20.8138 24.8092 20.8277 24.6539C20.8416 24.4986 20.8027 24.3432 20.7172 24.2128L18.6597 21.0761C18.5711 20.9419 18.5319 20.7811 18.5487 20.6211C18.5655 20.4612 18.6374 20.3121 18.752 20.1992L20.7024 18.2608C20.8147 18.1466 20.9634 18.0754 21.1227 18.0593C21.2821 18.0433 21.442 18.0836 21.5747 18.1731L24.704 20.2408C24.817 20.3152 24.9493 20.355 25.0846 20.3552C25.2199 20.3553 25.3523 20.3159 25.4655 20.2417C27.1761 19.1225 29.0838 18.3384 31.087 17.9312C31.2198 17.904 31.3416 17.8384 31.4375 17.7426C31.5333 17.6467 31.5989 17.5249 31.6261 17.3921L32.3738 13.7257C32.4044 13.569 32.489 13.428 32.6128 13.3271C32.7365 13.2263 32.8917 13.172 33.0513 13.1737H34.8227V23.6894C33.1598 23.6131 31.5035 23.9444 29.9978 24.6543C28.4921 25.3643 27.1828 26.4314 26.1837 27.7629C25.3683 28.8372 24.7744 30.0628 24.4366 31.3686C24.0988 32.6743 24.0237 34.0341 24.2157 35.3691C24.5751 37.8928 25.8594 40.193 27.8193 41.8232C29.7792 43.4533 32.2748 44.2972 34.8218 44.1909V54.7121H32.9784Z" fill="#30353E"/>
<defs>
<linearGradient id="paint0_linear_11929_21780" x1="33" y1="0.945312" x2="33" y2="66.9453" gradientUnits="userSpaceOnUse">
<stop stop-color="#E5F1FF"/>
<stop offset="1" stop-color="white"/>
</linearGradient>
</defs>
</svg>
