<svg width="66" height="67" viewBox="0 0 66 67" fill="none" xmlns="http://www.w3.org/2000/svg">
<rect y="0.945312" width="66" height="66" rx="10" fill="url(#paint0_linear_11929_21771)"/>
<path d="M43.9595 14.7358L43.9595 14.7358L49.9595 20.7358L49.9596 20.7358C50.0815 20.8577 50.15 21.023 50.15 21.1953V52.6952C50.1488 53.6629 49.7639 54.5907 49.0796 55.2749C48.3953 55.9592 47.4676 56.3442 46.4999 56.3453H22.5001C21.5324 56.3442 20.6047 55.9592 19.9204 55.2749C19.2361 54.5907 18.8512 53.6629 18.85 52.6952L18.85 35.5453H20.15V52.6953C20.15 53.3186 20.3976 53.9163 20.8383 54.357C21.279 54.7977 21.8767 55.0453 22.5 55.0453H46.5C47.1233 55.0453 47.721 54.7977 48.1617 54.357C48.6024 53.9163 48.85 53.3186 48.85 52.6953V21.9453V21.8453H48.75H45C44.4298 21.8453 43.8829 21.6188 43.4797 21.2156C43.0765 20.8124 42.85 20.2655 42.85 19.6953V15.9453V15.8453H42.75H22.5C22.5 15.8453 22.5 15.8453 22.5 15.8453C21.9788 15.8451 21.4722 16.0183 21.0602 16.3375C20.6745 16.6362 20.392 17.047 20.2507 17.5123L18.9916 17.1871C19.2055 16.4429 19.6508 15.7851 20.2643 15.3099C20.9042 14.8142 21.6906 14.5452 22.5 14.5453H22.5L43.5 14.5453C43.5 14.5453 43.5 14.5453 43.5 14.5453C43.6724 14.5454 43.8377 14.6139 43.9595 14.7358ZM44.3207 16.9351L44.15 16.7644V17.0058V19.6953C44.15 19.9207 44.2396 20.1369 44.399 20.2964C44.5584 20.4558 44.7746 20.5453 45 20.5453H47.6895H47.9309L47.7602 20.3746L44.3207 16.9351Z" fill="#30353E" stroke="white" stroke-width="0.2"/>
<path d="M51.85 49.6952C51.8505 50.2341 51.6652 50.7555 51.3271 51.1725L52.3027 52.0342C52.8496 51.3787 53.1501 50.5512 53.15 49.6953V15.1954C53.1488 14.2277 52.7639 13.3 52.0796 12.6157C51.3954 11.9314 50.4676 11.5465 49.4999 11.5453H25.5H25.5C24.6442 11.5452 23.8166 11.8457 23.1611 12.3926L24.0229 13.3682L25.5 12.8453L25.5001 12.8453L49.5 12.8453C50.1233 12.8453 50.721 13.0929 51.1617 13.5336C51.6024 13.9743 51.85 14.5721 51.85 15.1953V49.6952ZM51.85 49.6952V49.6953H51.75L51.85 49.6952ZM51.2624 51.2488L52.2376 52.1101L51.2624 51.2488ZM52.3776 52.1004C52.9407 51.4266 53.2501 50.5755 53.25 49.6953V15.1953C53.2488 14.2011 52.8533 13.248 52.1503 12.545C51.4473 11.842 50.4942 11.4465 49.5 11.4453L52.3776 52.1004ZM22.5203 23.425C22.8999 23.8046 23.1228 24.3115 23.1477 24.8453H21.8441C21.8218 24.6567 21.7367 24.4799 21.601 24.3443C21.4416 24.1849 21.2254 24.0953 21 24.0953H19.5C19.2746 24.0953 19.0584 24.1849 18.899 24.3443C18.7396 24.5037 18.65 24.7199 18.65 24.9453C18.65 25.1707 18.7396 25.387 18.899 25.5464C19.0584 25.7058 19.2746 25.7953 19.5 25.7953H21C21.5702 25.7953 22.1171 26.0218 22.5203 26.425C22.9235 26.8282 23.15 27.3751 23.15 27.9453C23.15 28.5155 22.9235 29.0624 22.5203 29.4656C22.1171 29.8688 21.5702 30.0953 21 30.0953H20.9V30.1953V30.8453H19.6V30.1953V30.0953H19.5C18.9298 30.0953 18.3829 29.8688 17.9797 29.4656C17.6001 29.086 17.3772 28.5791 17.3523 28.0453H18.6559C18.6782 28.2339 18.7633 28.4107 18.899 28.5464C19.0584 28.7058 19.2746 28.7953 19.5 28.7953H21C21.2254 28.7953 21.4416 28.7058 21.601 28.5464C21.7604 28.3869 21.85 28.1707 21.85 27.9453C21.85 27.7199 21.7604 27.5037 21.601 27.3443C21.4416 27.1849 21.2254 27.0953 21 27.0953H19.5C18.9298 27.0953 18.3829 26.8688 17.9797 26.4656C17.5765 26.0624 17.35 25.5155 17.35 24.9453C17.35 24.3751 17.5765 23.8282 17.9797 23.425C18.3829 23.0218 18.9298 22.7953 19.5 22.7953H19.6V22.6953V22.0453H20.9V22.6953V22.7953H21C21.5702 22.7953 22.1171 23.0218 22.5203 23.425Z" fill="#30353E" stroke="white" stroke-width="0.2"/>
<mask id="path-4-inside-1_11929_21771" fill="white">
<path d="M27.75 26.4453C27.75 24.962 27.3101 23.5119 26.486 22.2785C25.6619 21.0452 24.4906 20.0839 23.1201 19.5162C21.7497 18.9486 20.2417 18.8 18.7868 19.0894C17.332 19.3788 15.9956 20.0931 14.9467 21.142C13.8978 22.1909 13.1835 23.5273 12.8941 24.9821C12.6047 26.437 12.7532 27.945 13.3209 29.3154C13.8886 30.6859 14.8499 31.8572 16.0832 32.6813C17.3166 33.5054 18.7666 33.9453 20.25 33.9453C22.2385 33.9431 24.1448 33.1523 25.5509 31.7462C26.9569 30.3402 27.7478 28.4338 27.75 26.4453ZM14.25 26.4453C14.25 25.2586 14.6019 24.0986 15.2612 23.1119C15.9205 22.1252 16.8575 21.3562 17.9539 20.902C19.0503 20.4479 20.2567 20.3291 21.4205 20.5606C22.5844 20.7921 23.6535 21.3636 24.4926 22.2027C25.3318 23.0418 25.9032 24.1109 26.1347 25.2748C26.3662 26.4387 26.2474 27.6451 25.7933 28.7414C25.3392 29.8378 24.5701 30.7748 23.5834 31.4341C22.5967 32.0934 21.4367 32.4453 20.25 32.4453C18.6593 32.4435 17.1342 31.8108 16.0093 30.686C14.8845 29.5612 14.2518 28.0361 14.25 26.4453ZM30 21.9453H39V23.4453H30V21.9453ZM30 18.9453H31.5V20.4453H30V18.9453ZM33 18.9453H39V20.4453H33V18.9453ZM27 33.1953C26.8011 33.1953 26.6103 33.2743 26.4697 33.415C26.329 33.5556 26.25 33.7464 26.25 33.9453V37.6953H24.75V39.1953H44.25V37.6953H42.75V27.9453C42.75 27.7464 42.671 27.5556 42.5303 27.415C42.3897 27.2743 42.1989 27.1953 42 27.1953H39C38.8011 27.1953 38.6103 27.2743 38.4697 27.415C38.329 27.5556 38.25 27.7464 38.25 27.9453V37.6953H36.75V30.9453C36.75 30.7464 36.671 30.5556 36.5303 30.415C36.3897 30.2743 36.1989 30.1953 36 30.1953H33C32.8011 30.1953 32.6103 30.2743 32.4697 30.415C32.329 30.5556 32.25 30.7464 32.25 30.9453V37.6953H30.75V33.9453C30.75 33.7464 30.671 33.5556 30.5303 33.415C30.3897 33.2743 30.1989 33.1953 30 33.1953H27ZM39.75 28.6953H41.25V37.6953H39.75V28.6953ZM33.75 31.6953H35.25V37.6953H33.75V31.6953ZM27.75 37.6953V34.6953H29.25V37.6953H27.75ZM25.5 42.1953C25.3011 42.1953 25.1103 42.2743 24.9697 42.415C24.829 42.5556 24.75 42.7464 24.75 42.9453V50.4453C24.75 50.6442 24.829 50.835 24.9697 50.9756C25.1103 51.1163 25.3011 51.1953 25.5 51.1953H33C33.1989 51.1953 33.3897 51.1163 33.5303 50.9756C33.671 50.835 33.75 50.6442 33.75 50.4453V42.9453C33.75 42.7464 33.671 42.5556 33.5303 42.415C33.3897 42.2743 33.1989 42.1953 33 42.1953H25.5ZM32.25 49.6953H26.25V43.6953H32.25V49.6953ZM36.75 42.1953H45.75V43.6953H36.75V42.1953ZM36.75 48.1953H45.75V49.6953H36.75V48.1953ZM36.75 45.1953H45.75V46.6953H36.75V45.1953Z"/>
</mask>
<path d="M27.75 26.4453C27.75 24.962 27.3101 23.5119 26.486 22.2785C25.6619 21.0452 24.4906 20.0839 23.1201 19.5162C21.7497 18.9486 20.2417 18.8 18.7868 19.0894C17.332 19.3788 15.9956 20.0931 14.9467 21.142C13.8978 22.1909 13.1835 23.5273 12.8941 24.9821C12.6047 26.437 12.7532 27.945 13.3209 29.3154C13.8886 30.6859 14.8499 31.8572 16.0832 32.6813C17.3166 33.5054 18.7666 33.9453 20.25 33.9453C22.2385 33.9431 24.1448 33.1523 25.5509 31.7462C26.9569 30.3402 27.7478 28.4338 27.75 26.4453ZM14.25 26.4453C14.25 25.2586 14.6019 24.0986 15.2612 23.1119C15.9205 22.1252 16.8575 21.3562 17.9539 20.902C19.0503 20.4479 20.2567 20.3291 21.4205 20.5606C22.5844 20.7921 23.6535 21.3636 24.4926 22.2027C25.3318 23.0418 25.9032 24.1109 26.1347 25.2748C26.3662 26.4387 26.2474 27.6451 25.7933 28.7414C25.3392 29.8378 24.5701 30.7748 23.5834 31.4341C22.5967 32.0934 21.4367 32.4453 20.25 32.4453C18.6593 32.4435 17.1342 31.8108 16.0093 30.686C14.8845 29.5612 14.2518 28.0361 14.25 26.4453ZM30 21.9453H39V23.4453H30V21.9453ZM30 18.9453H31.5V20.4453H30V18.9453ZM33 18.9453H39V20.4453H33V18.9453ZM27 33.1953C26.8011 33.1953 26.6103 33.2743 26.4697 33.415C26.329 33.5556 26.25 33.7464 26.25 33.9453V37.6953H24.75V39.1953H44.25V37.6953H42.75V27.9453C42.75 27.7464 42.671 27.5556 42.5303 27.415C42.3897 27.2743 42.1989 27.1953 42 27.1953H39C38.8011 27.1953 38.6103 27.2743 38.4697 27.415C38.329 27.5556 38.25 27.7464 38.25 27.9453V37.6953H36.75V30.9453C36.75 30.7464 36.671 30.5556 36.5303 30.415C36.3897 30.2743 36.1989 30.1953 36 30.1953H33C32.8011 30.1953 32.6103 30.2743 32.4697 30.415C32.329 30.5556 32.25 30.7464 32.25 30.9453V37.6953H30.75V33.9453C30.75 33.7464 30.671 33.5556 30.5303 33.415C30.3897 33.2743 30.1989 33.1953 30 33.1953H27ZM39.75 28.6953H41.25V37.6953H39.75V28.6953ZM33.75 31.6953H35.25V37.6953H33.75V31.6953ZM27.75 37.6953V34.6953H29.25V37.6953H27.75ZM25.5 42.1953C25.3011 42.1953 25.1103 42.2743 24.9697 42.415C24.829 42.5556 24.75 42.7464 24.75 42.9453V50.4453C24.75 50.6442 24.829 50.835 24.9697 50.9756C25.1103 51.1163 25.3011 51.1953 25.5 51.1953H33C33.1989 51.1953 33.3897 51.1163 33.5303 50.9756C33.671 50.835 33.75 50.6442 33.75 50.4453V42.9453C33.75 42.7464 33.671 42.5556 33.5303 42.415C33.3897 42.2743 33.1989 42.1953 33 42.1953H25.5ZM32.25 49.6953H26.25V43.6953H32.25V49.6953ZM36.75 42.1953H45.75V43.6953H36.75V42.1953ZM36.75 48.1953H45.75V49.6953H36.75V48.1953ZM36.75 45.1953H45.75V46.6953H36.75V45.1953Z" fill="#30353E" stroke="white" stroke-width="0.4" mask="url(#path-4-inside-1_11929_21771)"/>
<defs>
<linearGradient id="paint0_linear_11929_21771" x1="33" y1="0.945312" x2="33" y2="66.9453" gradientUnits="userSpaceOnUse">
<stop stop-color="#E5F1FF"/>
<stop offset="1" stop-color="white"/>
</linearGradient>
</defs>
</svg>
