<svg width="66" height="67" viewBox="0 0 66 67" fill="none" xmlns="http://www.w3.org/2000/svg">
<rect y="0.945312" width="66" height="66" rx="10" fill="url(#paint0_linear_11929_23994)"/>
<path fill-rule="evenodd" clip-rule="evenodd" d="M20.0368 38.0321H17.5712V39.2175H20.0368V38.0321ZM35.6384 38.0321H33.1727V39.2175H35.6384V38.0321ZM32.8566 37.0051C32.7433 36.4205 32.3278 35.7846 31.7297 35.7846H21.4798C20.8817 35.7846 20.4662 36.4205 20.3529 37.0051H20.5498C20.686 37.0051 20.8166 37.0592 20.9129 37.1555C21.0092 37.2517 21.0632 37.3823 21.0632 37.5185V38.1068H32.1461V37.5182C32.1461 37.4507 32.1594 37.3839 32.1852 37.3216C32.211 37.2593 32.2488 37.2027 32.2965 37.155C32.3442 37.1074 32.4008 37.0695 32.4631 37.0437C32.5254 37.0179 32.5922 37.0047 32.6597 37.0047L32.8566 37.0051ZM25.8222 48.2432L26.605 48.8119L28.1697 47.675L27.5724 45.8367H25.6375L25.0402 47.675L25.8222 48.2432ZM24.454 46.1619L14.9439 44.8524C14.8791 44.8479 14.7536 44.8 14.7536 44.7242V39.2559C14.7541 39.2237 14.7671 39.193 14.7898 39.1703C14.8126 39.1475 14.8433 39.1345 14.8755 39.134H16.5442V39.7307C16.5442 39.8668 16.5983 39.9975 16.6946 40.0938C16.7909 40.1901 16.9215 40.2442 17.0577 40.2442H20.5501C20.6863 40.2442 20.8169 40.1901 20.9131 40.0938C21.0094 39.9975 21.0635 39.8668 21.0635 39.7307V39.1336H32.1461V39.7307C32.1461 39.7981 32.1594 39.8649 32.1852 39.9272C32.211 39.9895 32.2488 40.0461 32.2965 40.0938C32.3442 40.1415 32.4008 40.1793 32.4631 40.2051C32.5254 40.2309 32.5922 40.2442 32.6597 40.2442H36.1517C36.2878 40.2442 36.4184 40.1901 36.5147 40.0938C36.611 39.9975 36.6651 39.8668 36.6651 39.7307V39.1336H38.3339C38.366 39.1341 38.3967 39.1471 38.4195 39.1698C38.4422 39.1926 38.4552 39.2233 38.4557 39.2554V44.7237C38.4557 44.7987 38.3386 44.8419 38.2653 44.8519L28.7496 46.1425L28.4422 45.1963C28.414 45.0857 28.3497 44.9877 28.2596 44.9176C28.1695 44.8476 28.0586 44.8096 27.9445 44.8096H25.2655V44.8104C25.1573 44.8105 25.0518 44.8447 24.9643 44.9084C24.8767 44.972 24.8115 45.0617 24.778 45.1646L24.454 46.1619ZM26.2952 49.8545C26.3828 49.9209 26.4895 49.9574 26.5994 49.9585C26.7094 49.9597 26.8168 49.9255 26.9058 49.861L29.0732 48.286C29.1609 48.2224 29.2262 48.1326 29.2597 48.0295C29.2932 47.9264 29.2932 47.8154 29.2597 47.7123L29.0713 47.1321L37.4957 45.9901V54.8588C37.495 54.9867 37.4439 55.1092 37.3534 55.1996C37.2629 55.2901 37.1405 55.3412 37.0126 55.3419H16.1973C16.0693 55.3415 15.9467 55.2905 15.8561 55.2C15.7656 55.1095 15.7146 54.9868 15.7142 54.8588V45.9921L24.1329 47.1512L23.9563 47.695C23.918 47.7998 23.915 47.9143 23.9476 48.021C23.9802 48.1277 24.0468 48.2209 24.1371 48.2864L26.2955 49.8545H26.2952ZM43.3568 13.2763V17.2177H47.2985L43.3568 13.2763ZM38.5228 52.7544V50.4425H48.5377C48.6739 50.4425 48.8045 50.3884 48.9008 50.2921C48.9971 50.1959 49.0513 50.0653 49.0513 49.9291V17.7312C49.0514 17.6638 49.0382 17.597 49.0125 17.5347C48.9868 17.4724 48.949 17.4158 48.9013 17.3681L47.4217 15.8891H51.2497V52.754L38.5228 52.7544ZM46.3948 14.8621H51.7633C51.8995 14.8621 52.0301 14.9162 52.1264 15.0125C52.2226 15.1087 52.2767 15.2394 52.2767 15.3755V53.2675C52.2767 53.4037 52.2227 53.5343 52.1264 53.6306C52.0301 53.7269 51.8995 53.781 51.7633 53.7811H38.5228V54.8592C38.5219 55.2595 38.3626 55.6431 38.0795 55.9261C37.7965 56.2091 37.4128 56.3685 37.0126 56.3693H16.1973C15.7972 56.3682 15.4137 56.2087 15.1307 55.9258C14.8478 55.6428 14.6883 55.2594 14.6871 54.8592V45.8456C14.1474 45.7253 13.7266 45.3014 13.7266 44.7242V39.2559C13.7271 38.9513 13.8484 38.6593 14.0638 38.444C14.2792 38.2286 14.5712 38.1074 14.8758 38.1068H16.5445V37.5182C16.5445 37.382 16.5986 37.2514 16.6949 37.1551C16.7912 37.0588 16.9218 37.0047 17.058 37.0047H17.2872C17.3997 35.755 17.932 34.6097 18.7697 33.8325V12.0369C18.7698 11.9007 18.8239 11.7701 18.9202 11.6738C19.0165 11.5775 19.1471 11.5234 19.2833 11.5234H42.8433C42.9119 11.5234 42.9797 11.5371 43.0429 11.5637C43.1061 11.5903 43.1632 11.6294 43.211 11.6785L46.3948 14.8622V14.8621ZM43.8823 21.6902H23.9386C23.8036 21.692 23.6747 21.7469 23.5799 21.843C23.4851 21.9391 23.4319 22.0687 23.4319 22.2037C23.4319 22.3387 23.4851 22.4682 23.5799 22.5644C23.6747 22.6605 23.8036 22.7154 23.9386 22.7172H43.8824C43.9504 22.7181 44.0179 22.7055 44.081 22.6801C44.1441 22.6547 44.2016 22.617 44.25 22.5693C44.2984 22.5215 44.3369 22.4646 44.3631 22.4018C44.3894 22.339 44.4029 22.2717 44.4029 22.2037C44.4029 22.1356 44.3894 22.0683 44.3631 22.0055C44.3369 21.9428 44.2984 21.8859 44.25 21.8381C44.2016 21.7903 44.1441 21.7526 44.081 21.7272C44.0179 21.7018 43.9504 21.6892 43.8824 21.6902H43.8823ZM43.8823 26.0734H23.9386C23.8024 26.0734 23.6718 26.1275 23.5755 26.2238C23.4792 26.3201 23.4251 26.4507 23.4251 26.5869C23.4251 26.7231 23.4792 26.8537 23.5755 26.95C23.6718 27.0463 23.8024 27.1004 23.9386 27.1004H43.8824C43.9498 27.1004 44.0166 27.0871 44.0789 27.0613C44.1412 27.0355 44.1978 26.9977 44.2454 26.95C44.2931 26.9023 44.331 26.8457 44.3568 26.7834C44.3826 26.7211 44.3958 26.6543 44.3958 26.5869C44.3958 26.5195 44.3826 26.4527 44.3568 26.3904C44.331 26.3281 44.2931 26.2715 44.2454 26.2238C44.1978 26.1761 44.1412 26.1383 44.0789 26.1125C44.0166 26.0867 43.9498 26.0734 43.8824 26.0734H43.8823ZM43.8823 30.4566H23.9386C23.8036 30.4584 23.6747 30.5134 23.5799 30.6095C23.4851 30.7056 23.4319 30.8351 23.4319 30.9701C23.4319 31.1051 23.4851 31.2347 23.5799 31.3308C23.6747 31.4269 23.8036 31.4818 23.9386 31.4837H43.8824C43.9504 31.4846 44.0179 31.472 44.081 31.4466C44.1441 31.4212 44.2016 31.3835 44.25 31.3357C44.2984 31.288 44.3369 31.231 44.3631 31.1683C44.3894 31.1055 44.4029 31.0382 44.4029 30.9701C44.4029 30.9021 44.3894 30.8348 44.3631 30.772C44.3369 30.7092 44.2984 30.6523 44.25 30.6046C44.2016 30.5568 44.1441 30.5191 44.081 30.4937C44.0179 30.4683 43.9504 30.4557 43.8824 30.4566H43.8823ZM34.4966 35.615C34.7079 36.0522 34.8424 36.5225 34.8941 37.0052H33.8929C33.7417 35.8405 32.9148 34.7578 31.7297 34.7578H21.4798C20.2947 34.7578 19.4678 35.8405 19.3166 37.0052H18.3158C18.3933 36.2167 18.7033 35.4688 19.2064 34.8567C19.6918 34.2857 20.3678 33.8936 21.1309 33.8936H32.0792C32.8182 33.8936 33.497 34.2605 34.0037 34.8567C34.1833 35.0693 34.3378 35.3019 34.464 35.55C34.4733 35.5724 34.4842 35.5942 34.4966 35.615ZM43.8824 43.6066H39.4833V40.2503H43.8824C43.9504 40.2512 44.0179 40.2386 44.081 40.2132C44.1441 40.1878 44.2016 40.1502 44.25 40.1024C44.2984 40.0546 44.3369 39.9977 44.3631 39.9349C44.3894 39.8722 44.4029 39.8048 44.4029 39.7368C44.4029 39.6688 44.3894 39.6014 44.3631 39.5387C44.3369 39.4759 44.2984 39.419 44.25 39.3712C44.2016 39.3234 44.1441 39.2858 44.081 39.2604C44.0179 39.235 43.9504 39.2224 43.8824 39.2233H39.4829C39.4738 38.9245 39.3489 38.6409 39.1345 38.4326C38.9201 38.2242 38.6331 38.1074 38.3342 38.1069H36.6654V37.5182C36.6654 37.382 36.6113 37.2514 36.515 37.1551C36.4187 37.0588 36.2881 37.0047 36.1519 37.0047H35.9227C35.8882 36.6183 35.8122 36.2367 35.696 35.8666H43.8824C43.9504 35.8675 44.0179 35.8549 44.081 35.8295C44.1441 35.8041 44.2016 35.7664 44.25 35.7186C44.2984 35.6709 44.3369 35.6139 44.3631 35.5512C44.3894 35.4884 44.4029 35.4211 44.4029 35.353C44.4029 35.285 44.3894 35.2177 44.3631 35.1549C44.3369 35.0922 44.2984 35.0352 44.25 34.9875C44.2016 34.9397 44.1441 34.902 44.081 34.8766C44.0179 34.8512 43.9504 34.8386 43.8824 34.8395H35.2423C34.5666 33.6864 33.4249 32.866 32.0791 32.866H21.1307C20.6711 32.8663 20.2167 32.963 19.7968 33.1499V12.5503H42.3298V17.7312C42.3298 17.8674 42.3839 17.998 42.4802 18.0943C42.5765 18.1906 42.7071 18.2447 42.8432 18.2447H48.0242V49.415H38.5228V45.8456C38.7624 45.7943 38.9827 45.6764 39.1583 45.5055C39.4114 45.2523 39.4833 44.9956 39.4833 44.6336H43.8824C43.9504 44.6345 44.0179 44.6219 44.081 44.5965C44.1441 44.5711 44.2016 44.5334 44.25 44.4857C44.2984 44.4379 44.3369 44.381 44.3631 44.3182C44.3894 44.2554 44.4029 44.1881 44.4029 44.1201C44.4029 44.0521 44.3894 43.9847 44.3631 43.9219C44.3369 43.8592 44.2984 43.8023 44.25 43.7545C44.2016 43.7067 44.1441 43.669 44.081 43.6436C44.0179 43.6182 43.9504 43.6056 43.8824 43.6066Z" fill="#30353E"/>
<defs>
<linearGradient id="paint0_linear_11929_23994" x1="33" y1="0.945312" x2="33" y2="66.9453" gradientUnits="userSpaceOnUse">
<stop stop-color="#E5F1FF"/>
<stop offset="1" stop-color="white"/>
</linearGradient>
</defs>
</svg>
