<svg width="66" height="67" viewBox="0 0 66 67" fill="none" xmlns="http://www.w3.org/2000/svg">
<rect y="0.945312" width="66" height="66" rx="10" fill="url(#paint0_linear_11929_20784)"/>
<path d="M17.2969 38.75C17.4459 38.75 17.595 38.6909 17.7056 38.5737L20.4947 35.6272C20.7937 35.7875 21.135 35.8784 21.4978 35.8784C21.9862 35.8784 22.4372 35.7125 22.7972 35.435L23.4037 35.8934C23.3062 36.1372 23.2519 36.4034 23.2519 36.6819C23.2519 37.8556 24.2072 38.8109 25.3809 38.8109C26.5547 38.8109 27.51 37.8556 27.51 36.6819C27.51 36.0725 27.2531 35.5231 26.8416 35.135L28.1616 32.6562C28.3125 32.69 28.4691 32.7087 28.6303 32.7087C28.92 32.7087 29.1956 32.6506 29.4469 32.5456L30.2541 33.5834C29.9869 33.9387 29.8294 34.3803 29.8294 34.8584C29.8294 36.0322 30.7847 36.9875 31.9584 36.9875C33.1322 36.9875 34.0875 36.0322 34.0875 34.8584C34.0875 34.2931 33.8653 33.7784 33.5044 33.3969L36.4866 28.4909C37.4531 29.0403 38.5687 29.3563 39.7575 29.3563C43.4175 29.3563 46.3959 26.3778 46.3959 22.7178C46.3959 19.0578 43.4175 16.0794 39.7575 16.0794C36.0975 16.0794 33.1191 19.0578 33.1191 22.7178C33.1191 24.7859 34.0697 26.6356 35.5566 27.8534L32.5434 32.8109C32.3569 32.7575 32.1609 32.7284 31.9575 32.7284C31.6687 32.7284 31.3922 32.7866 31.1409 32.8916L30.3337 31.8538C30.6009 31.4984 30.7584 31.0569 30.7584 30.5788C30.7584 29.405 29.8031 28.4497 28.6294 28.4497C27.4556 28.4497 26.5003 29.405 26.5003 30.5788C26.5003 31.1881 26.7581 31.7375 27.1687 32.1256L25.8487 34.6044C25.5434 34.5351 25.2266 34.5342 24.9209 34.6018C24.6152 34.6694 24.3283 34.8038 24.0806 34.9953L23.4741 34.5369C23.5716 34.2931 23.6259 34.0269 23.6259 33.7484C23.6259 32.5747 22.6706 31.6194 21.4969 31.6194C20.3231 31.6194 19.3678 32.5747 19.3678 33.7484C19.3678 34.1525 19.4812 34.5312 19.6772 34.8528L16.8881 37.7994C16.7856 37.9077 16.7303 38.0523 16.7344 38.2013C16.7384 38.3504 16.8015 38.4918 16.9097 38.5944C17.0137 38.6945 17.1525 38.7503 17.2969 38.75ZM34.2459 22.7188C34.2459 19.6784 36.7191 17.2053 39.7594 17.2053C42.7997 17.2053 45.2728 19.6784 45.2728 22.7188C45.2728 25.7591 42.7997 28.2322 39.7594 28.2322C36.7191 28.2322 34.2459 25.7591 34.2459 22.7188ZM32.9634 34.8594C32.9634 35.4134 32.5125 35.8634 31.9594 35.8634C31.4062 35.8634 30.9553 35.4125 30.9553 34.8594C30.9553 34.3062 31.4062 33.8553 31.9594 33.8553C32.5125 33.8553 32.9634 34.3053 32.9634 34.8594ZM28.6303 29.5756C29.1844 29.5756 29.6344 30.0266 29.6344 30.5797C29.6344 31.1328 29.1834 31.5837 28.6303 31.5837C28.0762 31.5837 27.6262 31.1328 27.6262 30.5797C27.6262 30.0266 28.0762 29.5756 28.6303 29.5756ZM26.385 36.6819C26.385 37.2359 25.9341 37.6859 25.3809 37.6859C24.8278 37.6859 24.3769 37.235 24.3769 36.6819C24.3769 36.1287 24.8278 35.6778 25.3809 35.6778C25.9341 35.6778 26.385 36.1287 26.385 36.6819ZM21.4978 32.7453C22.0519 32.7453 22.5019 33.1963 22.5019 33.7494C22.5019 34.3025 22.0509 34.7534 21.4978 34.7534C20.9447 34.7534 20.4937 34.3025 20.4937 33.7494C20.4937 33.1963 20.9437 32.7453 21.4978 32.7453ZM18.6028 19.4084C18.6028 19.0981 18.855 18.8459 19.1653 18.8459H25.7119C26.0222 18.8459 26.2744 19.0981 26.2744 19.4084C26.2744 19.7188 26.0222 19.9709 25.7119 19.9709H19.1653C18.855 19.9709 18.6028 19.7188 18.6028 19.4084ZM18.6028 22.7609C18.6028 22.4506 18.855 22.1984 19.1653 22.1984H25.7119C26.0222 22.1984 26.2744 22.4506 26.2744 22.7609C26.2744 23.0712 26.0222 23.3234 25.7119 23.3234H19.1653C18.855 23.3234 18.6028 23.0722 18.6028 22.7609ZM52.5947 46.5491C52.6812 46.245 52.725 45.9305 52.725 45.6144V43.4769C55.1194 41.5475 56.2172 38.2747 55.2291 35.1725C54.7547 33.6809 53.8631 32.4369 52.725 31.5247V21.6584C52.725 19.7647 51.1847 18.2244 49.2909 18.2244H48.3394V14.9178C48.3394 12.9509 46.74 11.3516 44.7731 11.3516H18.3581C16.3922 11.3516 14.7919 12.9509 14.7919 14.9178V18.2234H13.8403C11.9466 18.2234 10.4062 19.7647 10.4062 21.6584V45.6144C10.4062 47.5081 11.9466 49.0484 13.8403 49.0484H26.4609L24.6816 55.4141H22.1606C21.8503 55.4141 21.5981 55.6662 21.5981 55.9766C21.5981 56.2869 21.8503 56.5391 22.1606 56.5391H40.9706C41.2809 56.5391 41.5331 56.2869 41.5331 55.9766C41.5331 55.6662 41.2809 55.4141 40.9706 55.4141H38.4497L36.6703 49.0484H49.2909C49.4597 49.0484 49.6275 49.0353 49.7934 49.01L51.8119 55.3494C51.9497 55.7825 52.2497 56.1369 52.6556 56.3469C52.898 56.4729 53.1671 56.5388 53.4403 56.5391C53.6137 56.5391 53.7881 56.5119 53.9578 56.4584C54.3909 56.3206 54.7453 56.0206 54.9553 55.6147C55.1653 55.2088 55.2047 54.7466 55.0669 54.3125L52.5947 46.5491ZM51.6009 45.6144C51.6009 45.74 51.5906 45.8638 51.57 45.9866L51.2466 46.0897L50.7778 44.6159C51.0628 44.5016 51.3375 44.3731 51.6009 44.2288V45.6144ZM54.1584 35.5138C55.2534 38.9525 53.3466 42.6416 49.9069 43.7366C46.4672 44.8316 42.7791 42.9247 41.6841 39.485C40.5891 36.0462 42.4959 32.3572 45.9356 31.2622C46.5938 31.0531 47.2603 30.9528 47.9175 30.9528C50.6916 30.9528 53.2725 32.7322 54.1584 35.5138ZM49.2919 19.3484C50.565 19.3484 51.6009 20.3844 51.6009 21.6575V30.7747C50.6053 30.23 49.4925 29.9047 48.3403 29.8409V19.3484H49.2919ZM15.9178 14.9178C15.9178 13.5716 17.0128 12.4766 18.3581 12.4766H44.7731C46.1194 12.4766 47.2144 13.5716 47.2144 14.9178V29.8625C46.6638 29.9128 46.1203 30.0228 45.5934 30.1906C41.5631 31.4741 39.3281 35.7969 40.6116 39.8272C40.9125 40.7749 41.396 41.6545 42.0347 42.4166H18.3581C17.0119 42.4166 15.9169 41.3216 15.9169 39.9753V14.9178H15.9178ZM13.8403 19.3484H14.7919V39.9734C14.7919 40.9175 15.1612 41.7762 15.7622 42.4147H11.5312V21.6584C11.5312 20.3844 12.5672 19.3484 13.8403 19.3484ZM37.2825 55.4141H25.8497L27.6291 49.0484H35.5031L37.2825 55.4141ZM49.2919 47.9234H13.8403C12.5672 47.9234 11.5312 46.8875 11.5312 45.6144V43.5406H43.1991C44.535 44.5812 46.1991 45.1709 47.9269 45.1709C48.5156 45.1709 49.1128 45.1016 49.7062 44.9591L50.175 46.4309L49.6191 46.6081C49.4769 46.6535 49.3586 46.7534 49.29 46.8859C49.2215 47.0185 49.2083 47.1728 49.2534 47.315L49.4456 47.9178C49.3941 47.9206 49.3434 47.9234 49.2919 47.9234ZM53.9559 55.0981C53.8837 55.2369 53.7637 55.34 53.6156 55.3869C53.4684 55.4338 53.3109 55.4197 53.1712 55.3484C53.0325 55.2762 52.9294 55.1562 52.8825 55.0091L50.4947 47.51L51.6056 47.1566L53.9934 54.6556C54.0422 54.8019 54.0281 54.9594 53.9559 55.0981ZM52.5844 34.3991C53.4122 35.645 53.7056 37.1384 53.4112 38.6047C53.3818 38.751 53.2954 38.8796 53.1711 38.9622C53.0468 39.0449 52.8948 39.0748 52.7484 39.0453C52.4437 38.9844 52.2469 38.6872 52.3078 38.3825C52.5441 37.2106 52.3087 36.0172 51.6478 35.0216C50.9859 34.0259 49.9762 33.3481 48.8044 33.1119C48.4997 33.0509 48.3028 32.7537 48.3637 32.4491C48.4247 32.1444 48.7209 31.9475 49.0266 32.0084C50.4928 32.3047 51.7566 33.1531 52.5844 34.3991ZM40.6603 24.0022C40.6603 23.7716 40.4212 23.6253 39.7491 23.33C39.6759 23.2981 39.6019 23.2653 39.5278 23.2316C39.4575 23.1997 39.3862 23.1687 39.3159 23.1378C38.6109 22.8275 37.7334 22.4412 37.7334 21.4362C37.7334 20.5962 38.3522 19.8866 39.1969 19.6634V18.8441C39.1969 18.5338 39.4491 18.2816 39.7594 18.2816C40.0697 18.2816 40.3219 18.5338 40.3219 18.8441V19.6634C41.1656 19.8866 41.7853 20.5962 41.7853 21.4362C41.7853 21.7466 41.5331 21.9988 41.2228 21.9988C40.9125 21.9988 40.6603 21.7466 40.6603 21.4362C40.6603 21.0387 40.2562 20.7153 39.7594 20.7153C39.2625 20.7153 38.8584 21.0387 38.8584 21.4362C38.8584 21.6669 39.0975 21.8131 39.7687 22.1084C39.8419 22.1403 39.9159 22.1731 39.99 22.2069C40.0603 22.2387 40.1316 22.2697 40.2019 22.3006C40.9069 22.6109 41.7844 22.9972 41.7844 24.0022C41.7844 24.8422 41.1656 25.5519 40.3209 25.775V26.5944C40.3209 26.9047 40.0687 27.1569 39.7584 27.1569C39.4481 27.1569 39.1959 26.9047 39.1959 26.5944V25.775C38.3522 25.5519 37.7325 24.8422 37.7325 24.0022C37.7325 23.6919 37.9847 23.4397 38.295 23.4397C38.6053 23.4397 38.8575 23.6919 38.8575 24.0022C38.8575 24.3997 39.2616 24.7231 39.7584 24.7231C40.2553 24.7231 40.6603 24.3997 40.6603 24.0022Z" fill="#30353E"/>
<defs>
<linearGradient id="paint0_linear_11929_20784" x1="33" y1="0.945312" x2="33" y2="66.9453" gradientUnits="userSpaceOnUse">
<stop stop-color="#E5F1FF"/>
<stop offset="1" stop-color="white"/>
</linearGradient>
</defs>
</svg>
