<svg width="40" height="41" viewBox="0 0 40 41" fill="none" xmlns="http://www.w3.org/2000/svg">
<g id="fb" clip-path="url(#clip0_1381_613)">
<path id="Vector" d="M9.1 0.101074H30.9C35.9 0.101074 40 4.10107 40 9.20107V31.0011C40 36.0011 36 40.1011 30.9 40.1011H9.1C4.1 40.1011 0 36.1011 0 31.0011V9.20107C0 4.30107 4 0.101074 9.1 0.101074Z" fill="black"/>
<g id="Group">
<path id="Vector_2" d="M23.7996 11.7011H25.8996V8.10106C24.8996 8.00106 23.7996 7.90106 22.7996 7.90106C19.6996 7.90106 17.5996 9.80106 17.5996 13.2011V16.2011H14.0996V20.2011H17.5996V32.2011H21.7996V20.2011H25.2996L25.7996 16.2011H21.7996V13.6011C21.7996 12.5011 22.0996 11.7011 23.7996 11.7011Z" fill="white"/>
</g>
</g>
<defs>
<clipPath id="clip0_1381_613">
<rect width="40" height="40" fill="white" transform="translate(0 0.101074)"/>
</clipPath>
</defs>
</svg>
