<svg width="92" height="26" viewBox="0 0 92 26" fill="none" xmlns="http://www.w3.org/2000/svg">
<g id="Forbes" clip-path="url(#clip0_8283_10997)">
<path id="Vector" d="M53.4802 25.1133C59.0646 25.1133 62.4358 21.3292 62.4358 15.3655C62.4358 10.6638 59.6966 7.22316 56.1144 7.22316C54.6393 7.22316 53.4802 7.56712 52.3211 8.25502C52.3211 4.58581 52.3211 1.26055 52.4261 0.113281L45.3672 1.48966V2.17757L46.1047 2.29298C47.0533 2.52152 47.3693 3.09459 47.5798 4.47154C47.7909 7.22316 47.6853 21.9017 47.5798 24.31C49.4765 24.7693 51.4781 25.1133 53.4802 25.1133ZM52.3211 9.40229C52.9532 9.17318 53.3747 9.05834 53.9017 9.05834C56.2194 9.05834 57.484 12.0396 57.484 15.7094C57.484 20.2968 55.9034 23.8512 53.6912 23.8512C53.2697 23.8512 52.7432 23.8512 52.4261 23.7375C52.3211 22.132 52.2161 15.3655 52.3211 9.40229Z" fill="white"/>
<path id="Vector_2" d="M1.327 23.5049L0.273438 23.7351V24.6522H12.1792V23.7351L10.9146 23.5049C9.54501 23.3912 9.01797 22.3588 8.80799 20.1796C8.70195 18.6884 8.59696 16.2802 8.59696 13.2994L11.1256 13.4137C12.7062 13.4137 13.4433 14.7901 13.7598 16.739H14.7078V8.59778H13.7598C13.4433 10.5478 12.7062 11.923 11.1256 11.923L8.59696 12.0373C8.59696 8.13899 8.70195 4.46921 8.80799 2.29065H12.4947C15.3404 2.29065 16.815 4.23952 17.8685 7.68019L18.9221 7.33624L18.8166 0.570312H0.273438V1.60217L1.327 1.71758C2.69658 1.9467 3.22363 2.86371 3.43361 5.04284C3.75067 9.17085 3.64516 16.6253 3.43361 20.1796C3.22363 22.3588 2.69658 23.3912 1.327 23.5049Z" fill="white"/>
<path id="Vector_3" d="M16.6016 16.0509C16.6016 21.212 19.2357 25.1114 24.5036 25.1114C29.7714 25.1114 32.7221 20.9828 32.7221 16.0509C32.7221 10.8911 30.0879 6.99219 24.8196 6.99219C19.5512 6.99219 16.6016 11.1208 16.6016 16.0509ZM27.7698 16.0509C27.7698 20.5235 27.1377 23.9641 24.7151 23.9641C22.6075 23.9641 21.5539 20.4086 21.5539 16.0509C21.5539 11.579 22.1854 8.13946 24.5036 8.13946C26.7167 8.13946 27.7698 11.6938 27.7698 16.0509Z" fill="white"/>
<path id="Vector_4" d="M71.9177 6.99219C66.5438 6.99219 63.8047 11.4647 63.8047 16.1664C63.8047 21.4422 67.1759 25.1114 71.9177 25.1114C74.8674 25.1114 77.185 23.5054 78.2391 21.8999L77.8176 21.3268C76.764 22.1301 75.9209 22.5883 74.2353 22.5883C70.4421 22.5883 68.5455 19.4916 68.651 15.2493H78.4496C78.4496 10.5477 76.3425 6.99219 71.9177 6.99219ZM68.651 13.9884C68.756 11.3499 69.7051 8.13946 71.4962 8.13946C73.2873 8.13946 73.6033 11.5796 73.6033 13.873L68.651 13.9884Z" fill="white"/>
<path id="Vector_5" d="M84.8817 23.5048C82.8801 23.5048 81.4044 22.2438 80.2454 18.8031L79.5078 19.0334L79.6128 24.079C80.8774 24.6521 83.1955 25.1114 85.1977 25.1114C89.3064 25.1114 91.9411 22.8169 91.9411 19.2625C91.9411 16.8543 90.7815 15.4779 88.0418 14.3306C85.0916 13.0696 84.0386 12.268 84.0386 10.7762C84.0386 9.28444 84.9872 8.25316 86.2513 8.25316C88.1479 8.25316 89.4119 9.51413 90.3605 12.6108L91.0981 12.3817L90.992 7.91035C89.7274 7.33614 88.0418 6.99219 86.1457 6.99219C82.2475 6.99219 79.8238 9.51413 79.8238 12.4966C79.8238 15.479 81.6149 16.7389 84.1441 17.6576C86.7778 18.6883 87.5153 19.4916 87.5153 20.8674C87.5153 22.2432 86.5673 23.5048 84.8817 23.5048Z" fill="white"/>
<path id="Vector_6" d="M44.7339 12.1548L46.42 7.45256C44.6294 6.30586 41.4677 6.87893 39.7821 11.0075L39.8876 6.99377L32.8281 8.48556V9.1729L33.5657 9.28717C34.5142 9.40258 34.9353 9.97507 35.0408 11.4669C35.2518 14.2191 35.1463 19.0355 35.0408 21.4438C34.9353 22.819 34.5142 23.5069 33.5657 23.6218L32.8281 23.7372V24.6542H42.6267V23.7372L41.3622 23.6218C40.3091 23.5069 39.9926 22.819 39.8876 21.4438C39.6771 19.2647 39.6771 14.907 39.7821 12.1548C40.3091 11.3515 42.6267 10.6636 44.7339 12.1548Z" fill="white"/>
</g>
<defs>
<clipPath id="clip0_8283_10997">
<rect width="91.6667" height="25" fill="white" transform="translate(0.273438 0.113281)"/>
</clipPath>
</defs>
</svg>
