<svg width="99" height="30" viewBox="0 0 99 30" fill="none" xmlns="http://www.w3.org/2000/svg">
<g id="Google" clip-path="url(#clip0_8283_10990)">
<path id="Vector" d="M12.5132 3.22879C15.1274 3.22879 17.0445 4.20041 18.4521 5.44873L20.7716 3.26681C18.8141 1.47566 16.1864 0.113281 12.5132 0.113281C5.8638 0.113281 0.273438 5.20952 0.273438 11.4659C0.273438 17.7223 5.8638 22.8185 12.5132 22.8185C16.1062 22.8185 18.8141 21.7085 20.9321 19.6396C23.1041 17.5961 23.7882 14.7076 23.7882 12.3868C23.7882 11.6676 23.7343 10.9991 23.6137 10.4441H12.5132V13.5469H20.3962C20.1548 15.2879 19.538 16.5621 18.5997 17.4577C17.4469 18.5423 15.6504 19.7278 12.5132 19.7278C7.66028 19.7278 3.86584 16.0446 3.86584 11.4786C3.86584 6.91249 7.66028 3.22879 12.5132 3.22879Z" fill="white"/>
<path id="Vector_2" d="M25.8281 15.2507C25.8281 19.4635 29.3408 22.579 33.6443 22.579C37.9478 22.579 41.4599 19.4762 41.4599 15.2507C41.4599 10.9999 37.9478 7.92188 33.6443 7.92188C29.3408 7.92188 25.8281 10.9999 25.8281 15.2507ZM33.6443 10.8103C36.0037 10.8103 38.0415 12.6142 38.0415 15.2507C38.0415 17.8619 36.0037 19.6906 33.6443 19.6906C31.2849 19.6906 29.2471 17.8619 29.2471 15.2507C29.2471 12.6142 31.2849 10.8103 33.6443 10.8103Z" fill="white"/>
<path id="Vector_3" d="M75.2004 21.4817V8.29996H71.956V9.56148H71.8353C71.0709 8.70392 69.5966 7.92188 67.7328 7.92188C63.8452 7.92188 60.4531 11.1129 60.4531 15.2502C60.4531 19.3627 63.8452 22.579 67.7328 22.579C69.5966 22.579 71.0709 21.797 71.8353 20.9141H71.956V21.9359C71.956 24.7361 70.3604 26.2369 67.8001 26.2369C65.7084 26.2369 64.4081 24.8243 63.8721 23.6262L60.8959 24.7863C61.7535 26.729 64.0191 29.1132 67.8001 29.1132C71.8084 29.1132 75.2004 26.8932 75.2004 21.4817ZM68.028 19.6906C65.6686 19.6906 63.8721 17.7986 63.8721 15.2502C63.8721 12.6643 65.6686 10.8103 68.028 10.8103C70.3604 10.8103 72.1838 12.7023 72.1838 15.2755C72.1973 17.8361 70.3604 19.6906 68.028 19.6906Z" fill="white"/>
<path id="Vector_4" d="M51.0662 22.579C55.3697 22.579 58.8818 19.4762 58.8818 15.2507C58.8818 10.9999 55.3697 7.92188 51.0662 7.92188C46.7627 7.92188 43.25 10.9999 43.25 15.2507C43.25 19.4635 46.7627 22.579 51.0662 22.579ZM51.0662 10.8103C53.4256 10.8103 55.4634 12.6142 55.4634 15.2507C55.4634 17.8619 53.4256 19.6906 51.0662 19.6906C48.7068 19.6906 46.669 17.8619 46.669 15.2507C46.669 12.6142 48.7068 10.8103 51.0662 10.8103Z" fill="white"/>
<path id="Vector_5" d="M81.2479 0.414062H77.8828V22.577H81.2479V0.414062Z" fill="white"/>
<path id="Vector_6" d="M97.9234 12.5888C97.2802 10.9492 95.2957 7.92188 91.2605 7.92188C87.2522 7.92188 83.9141 10.8858 83.9141 15.2502C83.9141 19.3627 87.2118 22.579 91.636 22.579C95.202 22.579 97.2667 20.5233 98.1248 19.3373L95.4702 17.6724C94.5852 18.8832 93.3786 19.6906 91.636 19.6906C89.8934 19.6906 88.6598 18.9466 87.8555 17.4707L98.2719 13.4215L97.9234 12.5888ZM87.3055 15.0237C87.3055 11.9456 89.6251 10.6714 91.3946 10.6714C92.7752 10.6714 93.9555 11.34 94.3439 12.2862L87.3055 15.0237Z" fill="white"/>
</g>
<defs>
<clipPath id="clip0_8283_10990">
<rect width="98" height="29" fill="white" transform="translate(0.273438 0.113281)"/>
</clipPath>
</defs>
</svg>
