<svg width="56" height="56" viewBox="0 0 56 56" fill="none" xmlns="http://www.w3.org/2000/svg">
<mask id="mask0_8450_20007" style="mask-type:alpha" maskUnits="userSpaceOnUse" x="0" y="0" width="56" height="56">
<path d="M52.9332 50.8673L49.7561 28.6388C49.7098 28.3204 49.6008 28.0145 49.4354 27.7386C49.2701 27.4627 49.0516 27.2223 48.7927 27.0314L40.9641 21.3456C41.4786 19.7181 41.7831 18.1239 41.7831 16.625C41.7831 9.0265 35.6012 2.84375 28.0019 2.84375C20.4025 2.84375 14.2206 9.0265 14.2206 16.625C14.2206 18.1239 14.5251 19.7181 15.0396 21.3456L7.20574 27.0358C6.94769 27.2269 6.73008 27.4673 6.56548 27.743C6.40087 28.0188 6.29254 28.3244 6.24674 28.6423L3.07049 50.8673C2.99174 51.4229 3.21049 51.9575 3.65761 52.2996C4.10386 52.6409 4.68136 52.7126 5.19586 52.4904L15.7519 47.964L27.7437 53.1038C27.8253 53.1388 27.9131 53.1568 28.0019 53.1568C28.0906 53.1568 28.1784 53.1388 28.26 53.1038L40.2519 47.964L50.807 52.4904C51.0569 52.5995 51.3316 52.6394 51.6023 52.6058C51.8729 52.5723 52.1295 52.4665 52.3452 52.2996C52.5631 52.1359 52.7327 51.9164 52.8362 51.6643C52.9397 51.4122 52.9732 51.1368 52.9332 50.8673ZM39.5807 46.8239L28.6581 51.5051V39.9263C29.107 39.8022 29.51 39.5498 29.8175 39.2C32.054 36.6144 36.1306 31.5683 38.8982 26.2255L39.5807 46.8239ZM17.1055 26.2264C19.8731 31.5683 23.9497 36.6144 26.1862 39.1991C26.4951 39.5561 26.9011 39.7994 27.3456 39.9263V51.5051L16.4221 46.8239L17.1055 26.2264ZM28.0019 4.15625C34.8767 4.15625 40.4706 9.75013 40.4706 16.625C40.4706 24.2813 31.557 35.182 28.8244 38.3408C28.4114 38.8194 27.5924 38.8194 27.1794 38.3408C24.4459 35.182 15.5331 24.2813 15.5331 16.625C15.5331 9.75013 21.1261 4.15625 28.0019 4.15625ZM4.67786 51.2838C4.6419 51.3005 4.60198 51.307 4.56257 51.3023C4.52315 51.2977 4.48581 51.2822 4.45474 51.2575C4.42314 51.2345 4.39855 51.2032 4.38372 51.167C4.36888 51.1309 4.36439 51.0913 4.37074 51.0528L7.54611 28.8313C7.58986 28.532 7.74736 28.2686 7.98361 28.0936L15.4937 22.638C15.6136 22.9565 15.7466 23.275 15.8796 23.5935L15.1096 46.8108L4.67786 51.2838ZM51.549 51.2575C51.5178 51.2824 51.4803 51.298 51.4407 51.3026C51.4011 51.3073 51.361 51.3007 51.325 51.2838L40.8941 46.8108L40.1241 23.5935C40.2571 23.275 40.3901 22.9565 40.5091 22.638L48.0157 28.0893C48.2564 28.2686 48.4139 28.532 48.4576 28.8278L51.6339 51.0528C51.6399 51.0913 51.6352 51.1307 51.6202 51.1667C51.6053 51.2027 51.5806 51.2338 51.549 51.2566V51.2575ZM33.9081 16.625C33.9081 13.3683 31.2577 10.7188 28.0019 10.7188C24.746 10.7188 22.0956 13.3683 22.0956 16.625C22.0956 19.8818 24.7442 22.5313 28.0019 22.5313C31.2595 22.5313 33.9081 19.8818 33.9081 16.625ZM23.4081 16.625C23.4081 14.0919 25.4679 12.0313 28.0019 12.0313C30.5359 12.0313 32.5956 14.0919 32.5956 16.625C32.5956 19.1581 30.5341 21.2188 28.0019 21.2188C25.4696 21.2188 23.4081 19.1581 23.4081 16.625Z" fill="black" stroke="black" stroke-width="0.5"/>
</mask>
<g mask="url(#mask0_8450_20007)">
<rect width="56" height="56" fill="url(#paint0_linear_8450_20007)"/>
</g>
<defs>
<linearGradient id="paint0_linear_8450_20007" x1="-3.59515e-07" y1="1.86667" x2="62.6203" y2="12.2182" gradientUnits="userSpaceOnUse">
<stop stop-color="#01D18F"/>
<stop offset="1" stop-color="#005AFF"/>
</linearGradient>
</defs>
</svg>
