<svg width="40" height="38" viewBox="0 0 40 38" fill="none" xmlns="http://www.w3.org/2000/svg">
<g id="Group">
<path id="Vector" d="M37.3867 4.80859H29.4297V1.11719C29.4297 1.04177 29.4149 0.96708 29.3861 0.897393C29.3572 0.827706 29.3149 0.764387 29.2616 0.711057C29.2083 0.657728 29.145 0.615433 29.0753 0.586591C29.0056 0.557749 28.9309 0.542926 28.8555 0.542969H11.1367C11.0613 0.542926 10.9866 0.557749 10.9169 0.586591C10.8472 0.615433 10.7839 0.657728 10.7306 0.711057C10.6773 0.764387 10.635 0.827706 10.6061 0.897393C10.5773 0.96708 10.5625 1.04177 10.5625 1.11719V4.80859H2.60547C2.10524 4.80911 1.62565 5.00806 1.27193 5.36178C0.918217 5.71549 0.719271 6.19508 0.71875 6.69531V30.9766C0.719271 31.4768 0.918217 31.9564 1.27193 32.3101C1.62565 32.6638 2.10524 32.8628 2.60547 32.8633H15.4844V36.3086H12.1418C11.9895 36.3086 11.8434 36.3691 11.7357 36.4768C11.628 36.5845 11.5675 36.7305 11.5675 36.8828C11.5675 37.0351 11.628 37.1812 11.7357 37.2888C11.8434 37.3965 11.9895 37.457 12.1418 37.457H27.8501C28.0024 37.457 28.1484 37.3965 28.2561 37.2888C28.3638 37.1812 28.4243 37.0351 28.4243 36.8828C28.4243 36.7305 28.3638 36.5845 28.2561 36.4768C28.1484 36.3691 28.0024 36.3086 27.8501 36.3086H24.5078V32.8633H37.3867C37.8869 32.8628 38.3665 32.6638 38.7203 32.3101C39.074 31.9564 39.2729 31.4768 39.2734 30.9766V6.69531C39.2729 6.19508 39.074 5.71549 38.7203 5.36178C38.3665 5.00806 37.8869 4.80911 37.3867 4.80859ZM11.1367 12.1914H14.9922V14.9805H11.1367C11.0613 14.9804 10.9866 14.9952 10.9169 15.0241C10.8472 15.0529 10.7839 15.0952 10.7306 15.1486C10.6773 15.2019 10.635 15.2652 10.6061 15.3349C10.5773 15.4046 10.5625 15.4793 10.5625 15.5547V18.9961C10.0436 19.1353 9.59305 19.4585 9.29472 19.9053C8.99639 20.3521 8.87064 20.8921 8.94089 21.4248C9.01114 21.9574 9.27259 22.4464 9.67656 22.8005C10.0805 23.1547 10.5995 23.35 11.1367 23.35C11.674 23.35 12.1929 23.1547 12.5969 22.8005C13.0008 22.4464 13.2623 21.9574 13.3325 21.4248C13.4028 20.8921 13.277 20.3521 12.9787 19.9053C12.6804 19.4585 12.2298 19.1353 11.7109 18.9961V16.1289H15.5664C15.6418 16.1289 15.7165 16.1141 15.7862 16.0853C15.8559 16.0564 15.9192 16.0141 15.9725 15.9608C16.0259 15.9075 16.0682 15.8442 16.097 15.7745C16.1258 15.7048 16.1407 15.6301 16.1406 15.5547V12.1914H19.4219V18.9961C18.903 19.1353 18.4524 19.4585 18.1541 19.9053C17.8558 20.3521 17.73 20.8921 17.8003 21.4248C17.8705 21.9574 18.132 22.4464 18.5359 22.8005C18.9399 23.1547 19.4588 23.35 19.9961 23.35C20.5333 23.35 21.0523 23.1547 21.4563 22.8005C21.8602 22.4464 22.1217 21.9574 22.1919 21.4248C22.2622 20.8921 22.1364 20.3521 21.8381 19.9053C21.5398 19.4585 21.0892 19.1353 20.5703 18.9961V12.1914H23.8516V15.5547C23.8515 15.6301 23.8663 15.7048 23.8952 15.7745C23.924 15.8442 23.9663 15.9075 24.0197 15.9608C24.073 16.0141 24.1363 16.0564 24.206 16.0853C24.2757 16.1141 24.3504 16.1289 24.4258 16.1289H28.2812V18.9961C27.7624 19.1353 27.3118 19.4585 27.0135 19.9053C26.7151 20.3521 26.5894 20.8921 26.6596 21.4248C26.7299 21.9574 26.9913 22.4464 27.3953 22.8005C27.7993 23.1547 28.3182 23.35 28.8555 23.35C29.3927 23.35 29.9117 23.1547 30.3156 22.8005C30.7196 22.4464 30.9811 21.9574 31.0513 21.4248C31.1215 20.8921 30.9958 20.3521 30.6975 19.9053C30.3991 19.4585 29.9486 19.1353 29.4297 18.9961V15.5547C29.4297 15.4793 29.4149 15.4046 29.3861 15.3349C29.3572 15.2652 29.3149 15.2019 29.2616 15.1486C29.2083 15.0952 29.145 15.0529 29.0753 15.0241C29.0056 14.9952 28.9309 14.9804 28.8555 14.9805H25V12.1914H28.8555C28.9309 12.1914 29.0056 12.1766 29.0753 12.1478C29.145 12.1189 29.2083 12.0766 29.2616 12.0233C29.3149 11.97 29.3572 11.9067 29.3861 11.837C29.4149 11.7673 29.4297 11.6926 29.4297 11.6172V7.92578H36.1562V27.1211H3.83594V7.92578H10.5625V11.6172C10.5625 11.6926 10.5773 11.7673 10.6061 11.837C10.635 11.9067 10.6773 11.97 10.7306 12.0233C10.7839 12.0766 10.8472 12.1189 10.9169 12.1478C10.9866 12.1766 11.0613 12.1914 11.1367 12.1914ZM11.1367 20.0664C11.3476 20.0664 11.5538 20.1289 11.7292 20.2461C11.9046 20.3633 12.0412 20.5299 12.1219 20.7247C12.2027 20.9196 12.2238 21.134 12.1826 21.3409C12.1415 21.5477 12.0399 21.7377 11.8908 21.8869C11.7416 22.036 11.5516 22.1376 11.3448 22.1787C11.1379 22.2199 10.9235 22.1988 10.7286 22.118C10.5338 22.0373 10.3672 21.9006 10.25 21.7253C10.1329 21.5499 10.0703 21.3437 10.0703 21.1328C10.0707 20.8501 10.1831 20.579 10.383 20.3791C10.583 20.1792 10.854 20.0668 11.1367 20.0664ZM19.9961 20.0664C20.207 20.0664 20.4132 20.1289 20.5886 20.2461C20.7639 20.3633 20.9006 20.5299 20.9813 20.7247C21.062 20.9196 21.0832 21.134 21.042 21.3409C21.0009 21.5477 20.8993 21.7377 20.7502 21.8869C20.601 22.036 20.411 22.1376 20.2041 22.1787C19.9973 22.2199 19.7829 22.1988 19.588 22.118C19.3931 22.0373 19.2266 21.9006 19.1094 21.7253C18.9922 21.5499 18.9297 21.3437 18.9297 21.1328C18.93 20.8501 19.0425 20.579 19.2424 20.3791C19.4423 20.1792 19.7134 20.0668 19.9961 20.0664ZM28.8555 20.0664C29.0664 20.0664 29.2726 20.1289 29.4479 20.2461C29.6233 20.3633 29.76 20.5299 29.8407 20.7247C29.9214 20.9196 29.9425 21.134 29.9014 21.3409C29.8602 21.5477 29.7587 21.7377 29.6095 21.8869C29.4604 22.036 29.2704 22.1376 29.0635 22.1787C28.8567 22.2199 28.6422 22.1988 28.4474 22.118C28.2525 22.0373 28.086 21.9006 27.9688 21.7253C27.8516 21.5499 27.7891 21.3437 27.7891 21.1328C27.7894 20.8501 27.9019 20.579 28.1018 20.3791C28.3017 20.1792 28.5727 20.0668 28.8555 20.0664ZM11.7109 1.69141H28.2812V11.043H11.7109V1.69141ZM23.3594 36.3086H16.6328V32.8633H23.3594V36.3086ZM38.125 30.9766C38.1247 31.1723 38.0469 31.3599 37.9085 31.4983C37.7701 31.6367 37.5824 31.7146 37.3867 31.7148H2.60547C2.40974 31.7146 2.22211 31.6367 2.08371 31.4983C1.94531 31.3599 1.86745 31.1723 1.86719 30.9766V6.69531C1.86745 6.49959 1.94531 6.31195 2.08371 6.17356C2.22211 6.03516 2.40974 5.95729 2.60547 5.95703H10.5625V6.77734H3.26172C3.1863 6.7773 3.11161 6.79212 3.04192 6.82097C2.97224 6.84981 2.90892 6.8921 2.85559 6.94543C2.80226 6.99876 2.75996 7.06208 2.73112 7.13177C2.70228 7.20145 2.68746 7.27614 2.6875 7.35156V27.6953C2.68746 27.7707 2.70228 27.8454 2.73112 27.9151C2.75996 27.9848 2.80226 28.0481 2.85559 28.1014C2.90892 28.1548 2.97224 28.1971 3.04192 28.2259C3.11161 28.2548 3.1863 28.2696 3.26172 28.2695H36.7305C36.8059 28.2696 36.8806 28.2548 36.9503 28.2259C37.02 28.1971 37.0833 28.1548 37.1366 28.1014C37.1899 28.0481 37.2322 27.9848 37.2611 27.9151C37.2899 27.8454 37.3047 27.7707 37.3047 27.6953V7.35156C37.3047 7.27614 37.2899 7.20145 37.2611 7.13177C37.2322 7.06208 37.1899 6.99876 37.1366 6.94543C37.0833 6.8921 37.02 6.84981 36.9503 6.82097C36.8806 6.79212 36.8059 6.7773 36.7305 6.77734H29.4297V5.95703H37.3867C37.5824 5.95729 37.7701 6.03516 37.9085 6.17356C38.0469 6.31195 38.1247 6.49959 38.125 6.69531V30.9766Z" fill="#30353E"/>
<path id="Vector_2" d="M14.668 8.91016C14.7434 8.9102 14.8181 8.89538 14.8878 8.86653C14.9575 8.83769 15.0208 8.7954 15.0741 8.74207C15.1274 8.68874 15.1697 8.62542 15.1986 8.55573C15.2274 8.48605 15.2422 8.41136 15.2422 8.33594V6.94141H17.0469V8.33594C17.0469 8.48823 17.1074 8.63428 17.2151 8.74197C17.3227 8.84966 17.4688 8.91016 17.6211 8.91016C17.7734 8.91016 17.9194 8.84966 18.0271 8.74197C18.1348 8.63428 18.1953 8.48823 18.1953 8.33594V5.38281C18.1948 4.96961 18.0304 4.57348 17.7382 4.2813C17.4461 3.98912 17.0499 3.82474 16.6367 3.82422H15.6523C15.2391 3.82474 14.843 3.98912 14.5508 4.2813C14.2586 4.57348 14.0943 4.96961 14.0938 5.38281V8.33594C14.0937 8.41136 14.1085 8.48605 14.1374 8.55573C14.1662 8.62542 14.2085 8.68874 14.2618 8.74207C14.3152 8.7954 14.3785 8.83769 14.4482 8.86653C14.5179 8.89538 14.5925 8.9102 14.668 8.91016ZM15.6523 4.97266H16.6367C16.7455 4.97274 16.8497 5.01598 16.9266 5.09288C17.0035 5.16978 17.0468 5.27406 17.0469 5.38281V5.79297H15.2422V5.38281C15.2422 5.27403 15.2854 5.16971 15.3623 5.09279C15.4392 5.01587 15.5436 4.97266 15.6523 4.97266ZM25.332 8.91016C25.4075 8.9102 25.4821 8.89538 25.5518 8.86653C25.6215 8.83769 25.6848 8.7954 25.7382 8.74207C25.7915 8.68874 25.8338 8.62542 25.8626 8.55573C25.8915 8.48605 25.9063 8.41136 25.9062 8.33594V4.39844C25.9062 4.24615 25.8458 4.10009 25.7381 3.9924C25.6304 3.88472 25.4843 3.82422 25.332 3.82422C25.1797 3.82422 25.0337 3.88472 24.926 3.9924C24.8183 4.10009 24.7578 4.24615 24.7578 4.39844V8.33594C24.7578 8.41136 24.7726 8.48605 24.8014 8.55573C24.8303 8.62542 24.8726 8.68874 24.9259 8.74207C24.9792 8.7954 25.0425 8.83769 25.1122 8.86653C25.1819 8.89538 25.2566 8.9102 25.332 8.91016ZM20.2461 8.91016C20.3215 8.9102 20.3962 8.89538 20.4659 8.86653C20.5356 8.83769 20.5989 8.7954 20.6522 8.74207C20.7056 8.68874 20.7478 8.62542 20.7767 8.55573C20.8055 8.48605 20.8204 8.41136 20.8203 8.33594V6.94141H21.7227C22.136 6.94141 22.5325 6.7772 22.8247 6.4849C23.117 6.19261 23.2812 5.79618 23.2812 5.38281C23.2812 4.96945 23.117 4.57301 22.8247 4.28072C22.5325 3.98843 22.136 3.82422 21.7227 3.82422H20.2461C20.1707 3.82418 20.096 3.839 20.0263 3.86784C19.9566 3.89668 19.8933 3.93898 19.84 3.99231C19.7866 4.04564 19.7443 4.10896 19.7155 4.17864C19.6867 4.24833 19.6718 4.32302 19.6719 4.39844V8.33594C19.6718 8.41136 19.6867 8.48605 19.7155 8.55573C19.7443 8.62542 19.7866 8.68874 19.84 8.74207C19.8933 8.7954 19.9566 8.83769 20.0263 8.86653C20.096 8.89538 20.1707 8.9102 20.2461 8.91016ZM20.8203 4.97266H21.7227C21.8314 4.97266 21.9358 5.01587 22.0127 5.09279C22.0896 5.16971 22.1328 5.27403 22.1328 5.38281C22.1328 5.49159 22.0896 5.59592 22.0127 5.67284C21.9358 5.74976 21.8314 5.79297 21.7227 5.79297H20.8203V4.97266Z" fill="#30353E"/>
</g>
</svg>
