<svg width="40" height="40" viewBox="0 0 40 40" fill="none" xmlns="http://www.w3.org/2000/svg">
<g id="Group">
<path id="Vector" d="M6.26367 24.2041C6.3941 24.2041 6.52453 24.1524 6.62133 24.0499L9.06176 21.4716C9.32344 21.6119 9.62203 21.6915 9.93949 21.6915C10.3669 21.6915 10.7614 21.5463 11.0764 21.3035L11.6072 21.7046C11.5219 21.9179 11.4743 22.1509 11.4743 22.3945C11.4743 23.4215 12.3102 24.2574 13.3372 24.2574C14.3643 24.2574 15.2002 23.4215 15.2002 22.3945C15.2002 21.8613 14.9754 21.3806 14.6153 21.041L15.7703 18.8721C15.9023 18.9016 16.0393 18.918 16.1804 18.918C16.4339 18.918 16.6751 18.8671 16.8949 18.7753L17.6012 19.6834C17.3674 19.9943 17.2296 20.3806 17.2296 20.799C17.2296 21.826 18.0655 22.6619 19.0925 22.6619C20.1196 22.6619 20.9555 21.826 20.9555 20.799C20.9555 20.3043 20.7611 19.854 20.4452 19.5201L23.0546 15.2274C23.9004 15.7081 24.8766 15.9846 25.9167 15.9846C29.1192 15.9846 31.7254 13.3784 31.7254 10.1759C31.7254 6.97344 29.1192 4.3673 25.9167 4.3673C22.7142 4.3673 20.1081 6.97344 20.1081 10.1759C20.1081 11.9855 20.9399 13.604 22.2409 14.6696L19.6044 19.0074C19.4412 18.9607 19.2697 18.9352 19.0917 18.9352C18.8391 18.9352 18.5971 18.9861 18.3772 19.078L17.6709 18.1699C17.9047 17.859 18.0425 17.4726 18.0425 17.0543C18.0425 16.0272 17.2066 15.1913 16.1796 15.1913C15.1526 15.1913 14.3167 16.0272 14.3167 17.0543C14.3167 17.5875 14.5423 18.0682 14.9016 18.4078L13.7466 20.5767C13.4794 20.5161 13.2022 20.5153 12.9347 20.5744C12.6672 20.6336 12.4161 20.7512 12.1995 20.9188L11.6687 20.5176C11.754 20.3043 11.8016 20.0714 11.8016 19.8277C11.8016 18.8007 10.9657 17.9648 9.93867 17.9648C8.91164 17.9648 8.07574 18.8007 8.07574 19.8277C8.07574 20.1813 8.175 20.5127 8.34645 20.7941L5.90602 23.3723C5.81632 23.4671 5.76793 23.5936 5.77147 23.724C5.775 23.8545 5.83019 23.9782 5.92488 24.0679C6.01586 24.1556 6.13735 24.2044 6.26367 24.2041ZM21.0941 10.1768C21.0941 7.51648 23.2581 5.3525 25.9184 5.3525C28.5786 5.3525 30.7426 7.51648 30.7426 10.1768C30.7426 12.837 28.5786 15.001 25.9184 15.001C23.2581 15.001 21.0941 12.837 21.0941 10.1768ZM19.9719 20.7998C19.9719 21.2846 19.5773 21.6784 19.0934 21.6784C18.6094 21.6784 18.2148 21.2838 18.2148 20.7998C18.2148 20.3158 18.6094 19.9212 19.0934 19.9212C19.5773 19.9212 19.9719 20.315 19.9719 20.7998ZM16.1804 16.1765C16.6652 16.1765 17.059 16.5711 17.059 17.0551C17.059 17.5391 16.6644 17.9336 16.1804 17.9336C15.6956 17.9336 15.3019 17.5391 15.3019 17.0551C15.3019 16.5711 15.6956 16.1765 16.1804 16.1765ZM14.2158 22.3945C14.2158 22.8793 13.8212 23.273 13.3372 23.273C12.8532 23.273 12.4587 22.8785 12.4587 22.3945C12.4587 21.9105 12.8532 21.5159 13.3372 21.5159C13.8212 21.5159 14.2158 21.9105 14.2158 22.3945ZM9.93949 18.95C10.4243 18.95 10.818 19.3446 10.818 19.8286C10.818 20.3125 10.4235 20.7071 9.93949 20.7071C9.45551 20.7071 9.06094 20.3125 9.06094 19.8286C9.06094 19.3446 9.45469 18.95 9.93949 18.95ZM7.40637 7.28023C7.40637 7.00871 7.62703 6.78805 7.89855 6.78805H13.6268C13.8983 6.78805 14.119 7.00871 14.119 7.28023C14.119 7.55176 13.8983 7.77242 13.6268 7.77242H7.89855C7.62703 7.77242 7.40637 7.55176 7.40637 7.28023ZM7.40637 10.2137C7.40637 9.94215 7.62703 9.72148 7.89855 9.72148H13.6268C13.8983 9.72148 14.119 9.94215 14.119 10.2137C14.119 10.4852 13.8983 10.7059 13.6268 10.7059H7.89855C7.62703 10.7059 7.40637 10.486 7.40637 10.2137ZM37.1493 31.0283C37.2249 30.7623 37.2633 30.487 37.2633 30.2104V28.3401C39.3584 26.6519 40.3189 23.7882 39.4543 21.0738C39.0393 19.7687 38.2591 18.6801 37.2633 17.882V9.24898C37.2633 7.59195 35.9155 6.24418 34.2585 6.24418H33.4259V3.35094C33.4259 1.62992 32.0264 0.230469 30.3054 0.230469H7.19227C5.47207 0.230469 4.0718 1.62992 4.0718 3.35094V6.24336H3.23918C1.58215 6.24336 0.234375 7.59195 0.234375 9.24898V30.2104C0.234375 31.8675 1.58215 33.2152 3.23918 33.2152H14.2822L12.7253 38.7852H10.5195C10.2479 38.7852 10.0273 39.0058 10.0273 39.2773C10.0273 39.5489 10.2479 39.7695 10.5195 39.7695H26.9782C27.2497 39.7695 27.4704 39.5489 27.4704 39.2773C27.4704 39.0058 27.2497 38.7852 26.9782 38.7852H24.7724L23.2154 33.2152H34.2585C34.4061 33.2152 34.553 33.2038 34.6982 33.1816L36.4643 38.7286C36.5849 39.1075 36.8474 39.4176 37.2026 39.6014C37.4147 39.7116 37.6501 39.7693 37.8892 39.7695C38.0409 39.7695 38.1935 39.7457 38.342 39.699C38.721 39.5784 39.0311 39.3159 39.2148 38.9607C39.3986 38.6055 39.433 38.2011 39.3124 37.8213L37.1493 31.0283ZM36.2797 30.2104C36.2797 30.3204 36.2707 30.4286 36.2527 30.5361L35.9696 30.6263L35.5595 29.3368C35.8089 29.2367 36.0492 29.1243 36.2797 28.998V30.2104ZM38.5175 21.3724C39.4757 24.3813 37.8071 27.6092 34.7974 28.5673C31.7877 29.5255 28.5606 27.857 27.6025 24.8472C26.6443 21.8383 28.3129 18.6104 31.3226 17.6523C31.8984 17.4693 32.4817 17.3816 33.0567 17.3816C35.484 17.3816 37.7423 18.9385 38.5175 21.3724ZM34.2593 7.22773C35.3733 7.22773 36.2797 8.13418 36.2797 9.24816V17.2257C35.4086 16.7491 34.4348 16.4645 33.4267 16.4087V7.22773H34.2593ZM5.05699 3.35094C5.05699 2.17297 6.01512 1.21484 7.19227 1.21484H30.3054C31.4834 1.21484 32.4415 2.17297 32.4415 3.35094V16.4275C31.9597 16.4716 31.4841 16.5678 31.0232 16.7146C27.4966 17.8377 25.541 21.6201 26.664 25.1466C26.9274 25.9759 27.3504 26.7455 27.9093 27.4123H7.19227C6.0143 27.4123 5.05617 26.4542 5.05617 25.2763V3.35094H5.05699ZM3.23918 7.22773H4.0718V25.2746C4.0718 26.1007 4.395 26.8521 4.92082 27.4107H1.21875V9.24898C1.21875 8.13418 2.1252 7.22773 3.23918 7.22773ZM23.7511 38.7852H13.7474L15.3043 33.2152H22.1941L23.7511 38.7852ZM34.2593 32.2309H3.23918C2.1252 32.2309 1.21875 31.3244 1.21875 30.2104V28.3959H28.9281C30.097 29.3064 31.5531 29.8224 33.0649 29.8224C33.5801 29.8224 34.1026 29.7617 34.6219 29.637L35.032 30.9249L34.5456 31.08C34.4212 31.1197 34.3177 31.2071 34.2577 31.323C34.1977 31.439 34.1862 31.574 34.2257 31.6985L34.3938 32.2259C34.3487 32.2284 34.3044 32.2309 34.2593 32.2309ZM38.3404 38.5087C38.2772 38.6301 38.1722 38.7204 38.0426 38.7614C37.9138 38.8024 37.776 38.7901 37.6538 38.7277C37.5323 38.6646 37.4421 38.5596 37.4011 38.4308L35.3118 31.8691L36.2838 31.5598L38.3732 38.1215C38.4158 38.2495 38.4035 38.3873 38.3404 38.5087ZM37.1402 20.397C37.8646 21.4872 38.1213 22.794 37.8638 24.077C37.838 24.205 37.7624 24.3175 37.6536 24.3898C37.5448 24.4621 37.4118 24.4883 37.2838 24.4625C37.0172 24.4092 36.8449 24.1491 36.8982 23.8825C37.105 22.8571 36.8991 21.8129 36.3207 20.9417C35.7416 20.0705 34.8581 19.4775 33.8327 19.2707C33.5661 19.2174 33.3939 18.9574 33.4472 18.6908C33.5005 18.4242 33.7597 18.2519 34.0271 18.3052C35.3101 18.5645 36.4159 19.3068 37.1402 20.397ZM26.7067 11.2998C26.7067 11.098 26.4975 10.97 25.9093 10.7116C25.8454 10.6837 25.7805 10.655 25.7157 10.6255C25.6542 10.5976 25.5919 10.5705 25.5304 10.5434C24.9135 10.2719 24.1457 9.93395 24.1457 9.05457C24.1457 8.31957 24.6871 7.69859 25.4262 7.50336V6.78641C25.4262 6.51488 25.6468 6.29422 25.9184 6.29422C26.1899 6.29422 26.4105 6.51488 26.4105 6.78641V7.50336C27.1488 7.69859 27.6911 8.31957 27.6911 9.05457C27.6911 9.32609 27.4704 9.54676 27.1989 9.54676C26.9273 9.54676 26.7067 9.32609 26.7067 9.05457C26.7067 8.70676 26.3531 8.42375 25.9184 8.42375C25.4836 8.42375 25.13 8.70676 25.13 9.05457C25.13 9.25637 25.3392 9.38434 25.9266 9.64273C25.9905 9.67063 26.0554 9.69934 26.1202 9.72887C26.1817 9.75676 26.244 9.78383 26.3055 9.8109C26.9224 10.0824 27.6902 10.4204 27.6902 11.2998C27.6902 12.0348 27.1488 12.6557 26.4097 12.851V13.5679C26.4097 13.8395 26.1891 14.0601 25.9175 14.0601C25.646 14.0601 25.4254 13.8395 25.4254 13.5679V12.851C24.6871 12.6557 24.1448 12.0348 24.1448 11.2998C24.1448 11.0282 24.3655 10.8076 24.637 10.8076C24.9086 10.8076 25.1292 11.0282 25.1292 11.2998C25.1292 11.6476 25.4828 11.9306 25.9175 11.9306C26.3523 11.9306 26.7067 11.6476 26.7067 11.2998Z" fill="#30353E"/>
</g>
</svg>
