<svg width="40" height="36" viewBox="0 0 40 36" fill="none" xmlns="http://www.w3.org/2000/svg">
<g id="Group">
<path id="Vector" d="M20 10.125C19.0914 10.125 18.2033 9.85558 17.4479 9.35081C16.6924 8.84605 16.1036 8.1286 15.7559 7.2892C15.4082 6.44981 15.3173 5.52616 15.4945 4.63506C15.6718 3.74396 16.1093 2.92543 16.7517 2.28298C17.3942 1.64053 18.2127 1.20302 19.1038 1.02577C19.9949 0.848519 20.9186 0.93949 21.758 1.28718C22.5974 1.63487 23.3148 2.22366 23.8196 2.9791C24.3243 3.73454 24.5938 4.62269 24.5938 5.53125C24.5924 6.74916 24.1079 7.91679 23.2467 8.77799C22.3855 9.63918 21.2179 10.1236 20 10.125ZM20 2.25C19.351 2.25 18.7166 2.44244 18.177 2.80299C17.6374 3.16354 17.2169 3.676 16.9685 4.27557C16.7202 4.87514 16.6552 5.53489 16.7818 6.17139C16.9084 6.80789 17.2209 7.39255 17.6798 7.85145C18.1387 8.31034 18.7234 8.62285 19.3599 8.74945C19.9964 8.87606 20.6561 8.81108 21.2557 8.56273C21.8553 8.31438 22.3677 7.89381 22.7283 7.35422C23.0888 6.81462 23.2813 6.18022 23.2813 5.53125C23.2802 4.66133 22.9342 3.82734 22.319 3.21221C21.7039 2.59708 20.8699 2.25104 20 2.25Z" fill="#30353E"/>
<path id="Vector_2" d="M25.2527 17.3423H23.9402V14.061C23.9411 13.8888 24.0097 13.7238 24.1312 13.6016L32.8954 4.77968C33.0439 4.63018 33.1273 4.428 33.1273 4.21727C33.1273 4.00654 33.0439 3.80437 32.8954 3.65487C32.7557 3.51554 32.5688 3.43371 32.3717 3.42557C32.1746 3.41743 31.9816 3.48357 31.8309 3.6109L27.3383 7.4283C25.2901 9.16826 22.6901 10.1235 20.0027 10.1235C17.3152 10.1235 14.7153 9.16826 12.6671 7.4283L8.17445 3.6109C8.01834 3.47709 7.81625 3.40934 7.61103 3.42203C7.40581 3.43471 7.2136 3.52683 7.07516 3.67884C6.93671 3.83086 6.86292 4.03082 6.86943 4.23633C6.87593 4.44183 6.96223 4.63672 7.11001 4.77968L15.8742 13.6016C15.9957 13.7238 16.0643 13.8888 16.0652 14.061V17.3423H14.7527V14.3321L6.17945 5.70565C5.79543 5.322 5.57456 4.80478 5.56298 4.26209C5.5514 3.7194 5.75002 3.19323 6.11733 2.79356C6.48463 2.39389 6.99219 2.15165 7.53393 2.11746C8.07567 2.08327 8.60966 2.25979 9.02429 2.61012L13.517 6.42818C15.3279 7.96653 17.6266 8.81112 20.0027 8.81112C22.3788 8.81112 24.6775 7.96653 26.4884 6.42818L30.9811 2.61012C31.3957 2.25979 31.9297 2.08327 32.4715 2.11746C33.0132 2.15165 33.5208 2.39389 33.8881 2.79356C34.2554 3.19323 34.454 3.7194 34.4424 4.26209C34.4308 4.80478 34.21 5.322 33.8259 5.70565L25.2527 14.3321V17.3423ZM20.0027 35.061C14.6359 35.061 13.1298 33.7105 12.9762 33.5562C12.8531 33.4332 12.784 33.2663 12.7839 33.0923V30.4673C12.7853 29.2494 13.2698 28.0817 14.131 27.2205C14.9922 26.3593 16.1598 25.8749 17.3777 25.8735H22.6277C23.8456 25.8749 25.0132 26.3593 25.8744 27.2205C26.7356 28.0817 27.2201 29.2494 27.2214 30.4673V33.0923C27.2214 33.2663 27.1522 33.4332 27.0292 33.5562C26.8756 33.7105 25.3695 35.061 20.0027 35.061ZM14.0964 32.7543C14.6064 33.047 16.2214 33.7485 20.0027 33.7485C23.7669 33.7485 25.3839 33.0529 25.9089 32.751V30.4673C25.9079 29.5973 25.5619 28.7634 24.9467 28.1482C24.3316 27.5331 23.4976 27.1871 22.6277 27.186H17.3777C16.5078 27.1871 15.6738 27.5331 15.0587 28.1482C14.4435 28.7634 14.0975 29.5973 14.0964 30.4673V32.7543Z" fill="#30353E"/>
<path id="Vector_3" d="M20 27.1875C19.0914 27.1875 18.2033 26.9181 17.4479 26.4133C16.6924 25.9085 16.1036 25.1911 15.7559 24.3517C15.4082 23.5123 15.3173 22.5887 15.4945 21.6976C15.6718 20.8065 16.1093 19.9879 16.7517 19.3455C17.3942 18.703 18.2127 18.2655 19.1038 18.0883C19.9949 17.911 20.9186 18.002 21.758 18.3497C22.5974 18.6974 23.3148 19.2862 23.8196 20.0416C24.3243 20.797 24.5938 21.6852 24.5938 22.5938C24.5924 23.8117 24.1079 24.9793 23.2467 25.8405C22.3855 26.7017 21.2179 27.1861 20 27.1875ZM20 19.3125C19.351 19.3125 18.7166 19.5049 18.177 19.8655C17.6374 20.226 17.2169 20.7385 16.9685 21.3381C16.7202 21.9376 16.6552 22.5974 16.7818 23.2339C16.9084 23.8704 17.2209 24.4551 17.6798 24.9139C18.1387 25.3728 18.7234 25.6853 19.3599 25.812C19.9964 25.9386 20.6561 25.8736 21.2557 25.6252C21.8553 25.3769 22.3677 24.9563 22.7283 24.4167C23.0888 23.8771 23.2813 23.2427 23.2813 22.5938C23.2802 21.7238 22.9342 20.8898 22.319 20.2747C21.7039 19.6596 20.8699 19.3135 20 19.3125ZM32.4688 33.0938C31.1077 33.1096 29.7482 32.9982 28.4079 32.761L28.6546 31.4722C29.9137 31.6931 31.1906 31.7966 32.4688 31.7813C36.233 31.7813 37.85 31.0856 38.375 30.7838V28.5C38.374 27.6301 38.0279 26.7961 37.4128 26.181C36.7977 25.5658 35.9637 25.2198 35.0938 25.2188H29.8438C29.3022 25.2184 28.769 25.3522 28.2918 25.6082C27.8146 25.8643 27.4082 26.2346 27.1092 26.6861L26.0158 25.9597C26.4345 25.3277 27.0033 24.8094 27.6713 24.4511C28.3393 24.0927 29.0857 23.9055 29.8438 23.9063H35.0938C36.3117 23.9076 37.4793 24.3921 38.3405 25.2533C39.2017 26.1145 39.6861 27.2821 39.6875 28.5V31.125C39.6875 31.299 39.6183 31.4659 39.4952 31.589C39.3417 31.7432 37.8356 33.0938 32.4688 33.0938Z" fill="#30353E"/>
<path id="Vector_4" d="M32.4688 25.2188C31.5602 25.2188 30.672 24.9493 29.9166 24.4446C29.1612 23.9398 28.5724 23.2224 28.2247 22.383C27.877 21.5436 27.786 20.6199 27.9633 19.7288C28.1405 18.8377 28.578 18.0192 29.2205 17.3767C29.8629 16.7343 30.6815 16.2968 31.5726 16.1195C32.4637 15.9423 33.3873 16.0332 34.2267 16.3809C35.0661 16.7286 35.7835 17.3174 36.2883 18.0729C36.7931 18.8283 37.0625 19.7164 37.0625 20.625C37.0611 21.8429 36.5767 23.0105 35.7155 23.8717C34.8543 24.7329 33.6867 25.2174 32.4688 25.2188ZM32.4688 17.3438C31.8198 17.3438 31.1854 17.5362 30.6458 17.8967C30.1062 18.2573 29.6856 18.7698 29.4373 19.3693C29.1889 19.9689 29.1239 20.6286 29.2505 21.2651C29.3772 21.9016 29.6897 22.4863 30.1486 22.9452C30.6074 23.4041 31.1921 23.7166 31.8286 23.8432C32.4651 23.9698 33.1249 23.9048 33.7244 23.6565C34.324 23.4081 34.8365 22.9876 35.197 22.448C35.5576 21.9084 35.75 21.274 35.75 20.625C35.749 19.7551 35.4029 18.9211 34.7878 18.306C34.1727 17.6908 33.3387 17.3448 32.4688 17.3438ZM7.53125 33.0938C2.16444 33.0938 0.658344 31.7432 0.504781 31.589C0.381702 31.4659 0.312537 31.299 0.3125 31.125V28.5C0.31389 27.2821 0.798319 26.1145 1.65951 25.2533C2.52071 24.3921 3.68834 23.9076 4.90625 23.9063H10.1562C10.9143 23.9055 11.6607 24.0927 12.3287 24.4511C12.9967 24.8094 13.5655 25.3277 13.9842 25.9597L12.8908 26.6861C12.5918 26.2346 12.1854 25.8643 11.7082 25.6082C11.231 25.3522 10.6978 25.2184 10.1562 25.2188H4.90625C4.03633 25.2198 3.20233 25.5658 2.58721 26.181C1.97208 26.7961 1.62604 27.6301 1.625 28.5V30.787C2.13491 31.0797 3.74994 31.7813 7.53125 31.7813C8.80945 31.7966 10.0863 31.6931 11.3454 31.4722L11.5921 32.761C10.2518 32.9982 8.89228 33.1096 7.53125 33.0938Z" fill="#30353E"/>
<path id="Vector_5" d="M7.53125 25.2188C6.62269 25.2188 5.73454 24.9493 4.9791 24.4446C4.22366 23.9398 3.63487 23.2224 3.28718 22.383C2.93949 21.5436 2.84852 20.6199 3.02577 19.7288C3.20302 18.8377 3.64053 18.0192 4.28298 17.3767C4.92543 16.7343 5.74396 16.2968 6.63506 16.1195C7.52616 15.9423 8.44981 16.0332 9.2892 16.3809C10.1286 16.7286 10.846 17.3174 11.3508 18.0729C11.8556 18.8283 12.125 19.7164 12.125 20.625C12.1236 21.8429 11.6392 23.0105 10.778 23.8717C9.91679 24.7329 8.74916 25.2174 7.53125 25.2188ZM7.53125 17.3438C6.88228 17.3438 6.24789 17.5362 5.70829 17.8967C5.16869 18.2573 4.74812 18.7698 4.49977 19.3693C4.25142 19.9689 4.18644 20.6286 4.31305 21.2651C4.43966 21.9016 4.75217 22.4863 5.21106 22.9452C5.66995 23.4041 6.25461 23.7166 6.89111 23.8432C7.52761 23.9698 8.18736 23.9048 8.78693 23.6565C9.3865 23.4081 9.89896 22.9876 10.2595 22.448C10.6201 21.9084 10.8125 21.274 10.8125 20.625C10.8115 19.7551 10.4654 18.9211 9.8503 18.306C9.23517 17.6908 8.40117 17.3448 7.53125 17.3438Z" fill="#30353E"/>
</g>
</svg>
