<svg width="28" height="36" viewBox="0 0 28 36" fill="none" xmlns="http://www.w3.org/2000/svg">
<g id="Group">
<path id="Vector" d="M21.875 13.4062H19.8406C19.5125 10.65 17.3469 8.48438 14.6562 8.22188V6.1875C14.6562 5.79375 14.3938 5.53125 14 5.53125C13.6062 5.53125 13.3438 5.79375 13.3438 6.1875V8.22188C10.5875 8.55 8.42188 10.7156 8.15938 13.4062H6.125C5.73125 13.4062 5.46875 13.6687 5.46875 14.0625C5.46875 14.4563 5.73125 14.7188 6.125 14.7188H8.15938C8.4875 17.475 10.6531 19.6406 13.3438 19.9031V21.9375C13.3438 22.3313 13.6062 22.5938 14 22.5938C14.3938 22.5938 14.6562 22.3313 14.6562 21.9375V19.9031C17.4125 19.575 19.5781 17.4094 19.8406 14.7188H21.875C22.2688 14.7188 22.5312 14.4563 22.5312 14.0625C22.5312 13.6687 22.2688 13.4062 21.875 13.4062ZM16.625 14.7188H18.5281C18.2656 16.7531 16.625 18.3281 14.6562 18.5906V16.6875C14.6562 16.2937 14.3938 16.0312 14 16.0312C13.6062 16.0312 13.3438 16.2937 13.3438 16.6875V18.5906C11.3094 18.3281 9.73438 16.6875 9.47188 14.7188H11.375C11.7688 14.7188 12.0312 14.4563 12.0312 14.0625C12.0312 13.6687 11.7688 13.4062 11.375 13.4062H9.47188C9.73438 11.3719 11.375 9.79688 13.3438 9.53438V11.4375C13.3438 11.8313 13.6062 12.0938 14 12.0938C14.3938 12.0938 14.6562 11.8313 14.6562 11.4375V9.53438C16.6906 9.79688 18.2656 11.4375 18.5281 13.4062H16.625C16.2312 13.4062 15.9688 13.6687 15.9688 14.0625C15.9688 14.4563 16.2312 14.7188 16.625 14.7188Z" fill="#30353E"/>
<path id="Vector_2" d="M14 24.5625C8.225 24.5625 3.5 19.8375 3.5 14.0625C3.5 8.2875 8.225 3.5625 14 3.5625C19.775 3.5625 24.5 8.2875 24.5 14.0625C24.5 19.8375 19.775 24.5625 14 24.5625ZM14 4.875C8.94688 4.875 4.8125 9.00938 4.8125 14.0625C4.8125 19.1156 8.94688 23.25 14 23.25C19.0531 23.25 23.1875 19.1156 23.1875 14.0625C23.1875 9.00938 19.0531 4.875 14 4.875Z" fill="#30353E"/>
<path id="Vector_3" d="M14 33.225C13.475 33.225 12.95 33.0281 12.6219 32.6344C9.07812 28.9594 0.875 19.9031 0.875 14.0625C0.875 6.84375 6.78125 0.9375 14 0.9375C21.2188 0.9375 27.125 6.84375 27.125 14.0625C27.125 19.9031 18.9219 28.9594 15.3781 32.6344C15.05 32.9625 14.525 33.225 14 33.225ZM14 2.25C7.50313 2.25 2.1875 7.56563 2.1875 14.0625C2.1875 19.575 10.85 28.9594 13.5406 31.7156C13.8031 31.9781 14.1969 31.9781 14.4594 31.7156C17.15 28.9594 25.8125 19.575 25.8125 14.0625C25.8125 7.56563 20.4969 2.25 14 2.25Z" fill="#30353E"/>
<path id="Vector_4" d="M19.3156 30.0078C18.9219 30.4672 18.5938 30.8609 18.2 31.2547C21.875 31.5172 23.7781 32.1078 24.3031 32.4359C23.5813 32.8953 20.7594 33.5516 15.9031 33.7484H11.9656C7.10937 33.6172 4.2875 32.8953 3.56563 32.4359C4.15625 32.1078 6.05938 31.5172 9.73438 31.2547C9.40625 30.8609 9.0125 30.4672 8.68437 30.0078C5.27187 30.3359 2.1875 30.9922 2.1875 32.4359C2.1875 34.9297 12.0312 35.0609 14 35.0609C15.9688 35.0609 25.8125 34.9297 25.8125 32.4359C25.8125 30.9922 22.7281 30.3359 19.3156 30.0078Z" fill="#30353E"/>
<path id="Vector_5" d="M14 33.225C13.475 33.225 12.95 33.0281 12.6219 32.6344C9.07812 28.9594 0.875 19.9031 0.875 14.0625C0.875 6.84375 6.78125 0.9375 14 0.9375C21.2188 0.9375 27.125 6.84375 27.125 14.0625C27.125 19.9031 18.9219 28.9594 15.3781 32.6344C15.05 32.9625 14.525 33.225 14 33.225ZM14 2.25C7.50313 2.25 2.1875 7.56563 2.1875 14.0625C2.1875 19.575 10.85 28.9594 13.5406 31.7156C13.8031 31.9781 14.1969 31.9781 14.4594 31.7156C17.15 28.9594 25.8125 19.575 25.8125 14.0625C25.8125 7.56563 20.4969 2.25 14 2.25Z" fill="#30353E"/>
</g>
</svg>
