<svg width="36" height="36" viewBox="0 0 36 36" fill="none" xmlns="http://www.w3.org/2000/svg">
<g id="Group">
<path id="Vector" d="M7.69251 6.85186H1.05874C0.473942 6.85186 0 6.3776 0 5.79312C0 5.20863 0.473942 4.73438 1.05874 4.73438H7.69251C8.27731 4.73438 8.75125 5.20863 8.75125 5.79312C8.75125 6.3776 8.27731 6.85186 7.69251 6.85186Z" fill="#30353E"/>
<path id="Vector_2" d="M11.4833 10.6445C8.8092 10.6445 6.63377 8.46909 6.63377 5.79519C6.63377 3.12075 8.8092 0.945312 11.4833 0.945312C14.1575 0.945312 16.3329 3.12075 16.3329 5.79519C16.3329 8.46917 14.1575 10.6445 11.4833 10.6445ZM11.4833 3.06287C9.97683 3.06287 8.75125 4.28869 8.75125 5.79519C8.75125 7.3017 9.97683 8.52696 11.4833 8.52696C12.9898 8.52696 14.2154 7.3017 14.2154 5.79519C14.2154 4.28869 12.9898 3.06287 11.4833 3.06287ZM34.9388 6.85401H19.1148C18.53 6.85401 18.0561 6.37976 18.0561 5.79527C18.0561 5.21079 18.53 4.73653 19.1148 4.73653H34.9387C35.5235 4.73653 35.9974 5.21079 35.9974 5.79527C35.9974 6.37976 35.5236 6.85401 34.9388 6.85401ZM25.6987 23.4384C23.0245 23.4384 20.8491 21.2629 20.8491 18.589C20.8491 15.9151 23.0245 13.7397 25.6987 13.7397C28.3728 13.7397 30.5482 15.9151 30.5482 18.589C30.5482 21.2629 28.3729 23.4384 25.6987 23.4384ZM25.6987 15.8573C24.1922 15.8573 22.9666 17.0825 22.9666 18.589C22.9666 20.0955 24.1922 21.3208 25.6987 21.3208C27.2052 21.3208 28.4308 20.0955 28.4308 18.589C28.4308 17.0825 27.2052 15.8573 25.6987 15.8573ZM18.0674 19.6478H1.05874C0.473942 19.6478 0 19.1735 0 18.589C0 18.0045 0.473942 17.5303 1.05874 17.5303H18.0674C18.6522 17.5303 19.1262 18.0045 19.1262 18.589C19.1262 19.1735 18.6522 19.6478 18.0674 19.6478Z" fill="#30353E"/>
<path id="Vector_3" d="M11.4824 10.6445C8.80825 10.6445 6.63281 8.46909 6.63281 5.79519C6.63281 3.12075 8.80825 0.945312 11.4824 0.945312C14.1565 0.945312 16.3319 3.12075 16.3319 5.79519C16.3319 8.46917 14.1565 10.6445 11.4824 10.6445ZM11.4824 3.06287C9.97587 3.06287 8.75029 4.28869 8.75029 5.79519C8.75029 7.3017 9.97587 8.52696 11.4824 8.52696C12.9889 8.52696 14.2145 7.3017 14.2145 5.79519C14.2145 4.28869 12.9889 3.06287 11.4824 3.06287Z" fill="#0066FF"/>
<path id="Vector_4" d="M6.50801 32.4418H1.05874C0.473942 32.4418 0 31.9675 0 31.383C0 30.7985 0.473942 30.3242 1.05874 30.3242H6.50801C7.09281 30.3242 7.56675 30.7985 7.56675 31.383C7.56675 31.9675 7.09281 32.4418 6.50801 32.4418Z" fill="#30353E"/>
<path id="Vector_5" d="M10.8574 35.7846C8.18317 35.7846 6.00781 33.6092 6.00781 30.9353C6.00781 28.2614 8.18325 26.0859 10.8574 26.0859C13.5315 26.0859 15.7069 28.2614 15.7069 30.9353C15.7069 33.6092 13.5316 35.7846 10.8574 35.7846ZM10.8574 28.2035C9.35087 28.2035 8.1253 29.4288 8.1253 30.9353C8.1253 32.4418 9.35087 33.667 10.8574 33.667C12.3639 33.667 13.5895 32.4418 13.5895 30.9353C13.5895 29.4288 12.3639 28.2035 10.8574 28.2035Z" fill="#0066FF"/>
<path id="Vector_6" d="M34.9424 19.6448H29.4932C28.9084 19.6448 28.4344 19.1706 28.4344 18.5861C28.4344 18.0016 28.9084 17.5273 29.4932 17.5273H34.9424C35.5272 17.5273 36.0012 18.0016 36.0012 18.5861C36.0012 19.1706 35.5272 19.6448 34.9424 19.6448ZM34.9424 32.4387H17.9337C17.3489 32.4387 16.875 31.9644 16.875 31.3799C16.875 30.7954 17.3489 30.3212 17.9337 30.3212H34.9424C35.5272 30.3212 36.0012 30.7954 36.0012 31.3799C36.0012 31.9644 35.5272 32.4387 34.9424 32.4387Z" fill="#30353E"/>
<path id="Vector_7" d="M25.6933 23.4369C23.0191 23.4369 20.8438 21.2615 20.8438 18.5876C20.8438 15.9137 23.0192 13.7383 25.6933 13.7383C28.3675 13.7383 30.5429 15.9137 30.5429 18.5876C30.5429 21.2615 28.3675 23.4369 25.6933 23.4369ZM25.6933 15.8558C24.1868 15.8558 22.9612 17.0811 22.9612 18.5876C22.9612 20.0941 24.1868 21.3194 25.6933 21.3194C27.1998 21.3194 28.4254 20.0941 28.4254 18.5876C28.4254 17.0811 27.1998 15.8558 25.6933 15.8558Z" fill="#0066FF"/>
</g>
</svg>
