<svg width="42" height="39" viewBox="0 0 42 39" fill="none" xmlns="http://www.w3.org/2000/svg">
<g id="Group">
<path id="Vector" d="M41.4 38.0382H0.6C0.44087 38.0382 0.288258 37.975 0.175736 37.8625C0.0632141 37.7499 0 37.5973 0 37.4382C0 37.2791 0.0632141 37.1264 0.175736 37.0139C0.288258 36.9014 0.44087 36.8382 0.6 36.8382H41.4C41.5591 36.8382 41.7117 36.9014 41.8243 37.0139C41.9368 37.1264 42 37.2791 42 37.4382C42 37.5973 41.9368 37.7499 41.8243 37.8625C41.7117 37.975 41.5591 38.0382 41.4 38.0382ZM9.798 34.3962H4.8C4.64087 34.3962 4.48826 34.333 4.37574 34.2205C4.26321 34.1079 4.2 33.9553 4.2 33.7962V26.9502C4.2 26.7911 4.26321 26.6384 4.37574 26.5259C4.48826 26.4134 4.64087 26.3502 4.8 26.3502H9.822C9.98113 26.3502 10.1337 26.4134 10.2463 26.5259C10.3588 26.6384 10.422 26.7911 10.422 26.9502V33.7962C10.4221 33.877 10.4058 33.9571 10.3741 34.0315C10.3425 34.1059 10.2961 34.1731 10.2379 34.2292C10.1796 34.2852 10.1106 34.3289 10.035 34.3576C9.9594 34.3863 9.87879 34.3994 9.798 34.3962ZM5.4 33.1962H9.222V27.5502H5.4V33.1962ZM18.942 34.3962H13.914C13.7549 34.3962 13.6023 34.333 13.4897 34.2205C13.3772 34.1079 13.314 33.9553 13.314 33.7962V17.8482C13.314 17.6891 13.3772 17.5364 13.4897 17.4239C13.6023 17.3114 13.7549 17.2482 13.914 17.2482H18.942C19.1011 17.2482 19.2537 17.3114 19.3663 17.4239C19.4788 17.5364 19.542 17.6891 19.542 17.8482V33.7962C19.542 33.9553 19.4788 34.1079 19.3663 34.2205C19.2537 34.333 19.1011 34.3962 18.942 34.3962ZM14.514 33.1962H18.342V18.4482H14.514V33.1962ZM28.086 34.3962H23.058C22.8989 34.3962 22.7463 34.333 22.6337 34.2205C22.5212 34.1079 22.458 33.9553 22.458 33.7962V20.5242C22.458 20.3651 22.5212 20.2124 22.6337 20.0999C22.7463 19.9874 22.8989 19.9242 23.058 19.9242H28.086C28.2451 19.9242 28.3977 19.9874 28.5103 20.0999C28.6228 20.2124 28.686 20.3651 28.686 20.5242V33.7962C28.686 33.9553 28.6228 34.1079 28.5103 34.2205C28.3977 34.333 28.2451 34.3962 28.086 34.3962ZM23.658 33.1962H27.486V21.1242H23.658V33.1962ZM37.2 34.3962H32.202C32.0429 34.3962 31.8903 34.333 31.7777 34.2205C31.6652 34.1079 31.602 33.9553 31.602 33.7962V9.88619C31.602 9.72706 31.6652 9.57445 31.7777 9.46193C31.8903 9.3494 32.0429 9.28619 32.202 9.28619H37.2C37.3591 9.28619 37.5117 9.3494 37.6243 9.46193C37.7368 9.57445 37.8 9.72706 37.8 9.88619V33.7962C37.8 33.9553 37.7368 34.1079 37.6243 34.2205C37.5117 34.333 37.3591 34.3962 37.2 34.3962ZM32.778 33.1962H36.6V10.4862H32.802L32.778 33.1962ZM7.284 18.4482C6.70871 18.447 6.14669 18.2753 5.66893 17.9549C5.19117 17.6344 4.81912 17.1795 4.59979 16.6476C4.38046 16.1158 4.32369 15.5309 4.43665 14.9668C4.54961 14.4027 4.82723 13.8848 5.23444 13.4784C5.64165 13.072 6.16017 12.7955 6.72449 12.6837C7.28881 12.5719 7.87361 12.6299 8.40499 12.8503C8.93637 13.0707 9.3905 13.4437 9.70999 13.9221C10.0295 14.4005 10.2 14.9629 10.2 15.5382C10.2 15.9208 10.1245 16.2997 9.97792 16.6532C9.8313 17.0066 9.61642 17.3277 9.34556 17.598C9.07471 17.8683 8.7532 18.0825 8.39945 18.2284C8.0457 18.3743 7.66665 18.449 7.284 18.4482ZM7.284 13.8342C6.9458 13.8354 6.61554 13.9368 6.335 14.1257C6.05445 14.3146 5.83622 14.5824 5.70789 14.8953C5.57956 15.2083 5.5469 15.5522 5.61405 15.8837C5.68119 16.2151 5.84512 16.5193 6.08511 16.7576C6.32509 16.9959 6.63035 17.1577 6.96229 17.2225C7.29423 17.2873 7.63793 17.2522 7.94993 17.1217C8.26194 16.9912 8.52823 16.7711 8.71514 16.4892C8.90205 16.2074 9.00118 15.8764 9 15.5382C8.99921 15.3136 8.9542 15.0914 8.86754 14.8843C8.78088 14.6771 8.65426 14.489 8.49491 14.3308C8.33557 14.1726 8.14662 14.0473 7.93885 13.9621C7.73108 13.8768 7.50856 13.8334 7.284 13.8342ZM16.428 8.67419C15.8509 8.67415 15.2869 8.50253 14.8076 8.18115C14.3283 7.85978 13.9554 7.40316 13.7362 6.86932C13.5171 6.33549 13.4616 5.74855 13.5768 5.18311C13.6921 4.61766 13.9728 4.09924 14.3834 3.69374C14.794 3.28824 15.3158 3.01397 15.8827 2.90578C16.4495 2.7976 17.0357 2.86039 17.5668 3.08617C18.0978 3.31195 18.5498 3.69053 18.8652 4.17379C19.1806 4.65705 19.3451 5.22317 19.338 5.80019C19.3301 6.56621 19.0198 7.29807 18.4748 7.83637C17.9297 8.37468 17.1941 8.67581 16.428 8.67419ZM16.428 4.06019C16.0911 4.06024 15.7617 4.15982 15.4812 4.34642C15.2006 4.53303 14.9815 4.79834 14.8512 5.10906C14.721 5.41978 14.6854 5.76205 14.749 6.09291C14.8126 6.42378 14.9725 6.72848 15.2086 6.96878C15.4448 7.20908 15.7467 7.37426 16.0764 7.44359C16.4061 7.51292 16.7489 7.48331 17.0619 7.35847C17.3748 7.23363 17.6439 7.01914 17.8353 6.7419C18.0268 6.46467 18.1321 6.13705 18.138 5.80019C18.142 5.57312 18.1007 5.34753 18.0165 5.13658C17.9324 4.92564 17.8071 4.73358 17.6479 4.5716C17.4887 4.40962 17.2988 4.28097 17.0894 4.19316C16.8799 4.10536 16.6551 4.06015 16.428 4.06019ZM25.572 16.4382C24.9959 16.4394 24.4325 16.2696 23.953 15.9503C23.4736 15.631 23.0997 15.1765 22.8787 14.6446C22.6577 14.1126 22.5995 13.527 22.7116 12.962C22.8237 12.3969 23.101 11.8778 23.5083 11.4705C23.9157 11.0632 24.4347 10.7859 24.9998 10.6738C25.5648 10.5617 26.1504 10.6199 26.6824 10.8409C27.2144 11.0618 27.6688 11.4358 27.9881 11.9152C28.3074 12.3947 28.4772 12.9581 28.476 13.5342C28.4744 14.3039 28.168 15.0416 27.6237 15.5859C27.0794 16.1301 26.3417 16.4366 25.572 16.4382ZM25.572 11.8242C25.2335 11.823 24.9023 11.9223 24.6203 12.1095C24.3384 12.2966 24.1182 12.5633 23.9879 12.8756C23.8575 13.188 23.8228 13.532 23.8881 13.8641C23.9534 14.1962 24.1158 14.5015 24.3547 14.7412C24.5936 14.981 24.8983 15.1444 25.2302 15.2109C25.5621 15.2773 25.9062 15.2438 26.219 15.1146C26.5318 14.9853 26.7992 14.7662 26.9874 14.4848C27.1756 14.2035 27.276 13.8727 27.276 13.5342C27.2784 13.3083 27.2361 13.0842 27.1517 12.8747C27.0673 12.6653 26.9423 12.4745 26.784 12.3134C26.6257 12.1523 26.4372 12.024 26.2292 11.936C26.0212 11.8479 25.7979 11.8018 25.572 11.8002V11.8242ZM34.716 5.80019C34.1429 5.80016 33.5827 5.63057 33.1058 5.31278C32.6289 4.99499 32.2567 4.54321 32.036 4.01432C31.8154 3.48543 31.7562 2.90308 31.8658 2.34059C31.9754 1.7781 32.2491 1.26063 32.6522 0.85333C33.0553 0.446029 33.57 0.16711 34.1313 0.0516939C34.6926 -0.0637226 35.2756 -0.0104767 35.8067 0.204727C36.3378 0.419931 36.7934 0.787471 37.1161 1.26107C37.4387 1.73467 37.6141 2.29315 37.62 2.86619C37.6232 3.24985 37.5504 3.63034 37.406 3.98578C37.2615 4.34122 37.0482 4.66459 36.7783 4.93727C36.5084 5.20996 36.1873 5.42658 35.8333 5.57468C35.4794 5.72277 35.0997 5.79941 34.716 5.80019ZM34.716 1.19219C34.3777 1.19224 34.0471 1.29298 33.7663 1.48158C33.4854 1.67018 33.2671 1.9381 33.139 2.25122C33.011 2.56433 32.9791 2.90848 33.0473 3.23981C33.1155 3.57115 33.2808 3.87468 33.5221 4.11175C33.7634 4.34882 34.0698 4.5087 34.4023 4.57102C34.7348 4.63334 35.0784 4.59529 35.3892 4.46171C35.6999 4.32812 35.9639 4.10505 36.1475 3.82091C36.3311 3.53677 36.426 3.20442 36.42 2.86619C36.4184 2.41475 36.2384 1.98225 35.9192 1.66303C35.5999 1.34381 35.1674 1.16377 34.716 1.16219V1.19219Z" fill="#30353E"/>
<path id="Vector_2" d="M27.0742 12.4018C26.9595 12.4018 26.8472 12.3689 26.7506 12.3071C26.654 12.2452 26.5772 12.157 26.5292 12.0528C26.4812 11.9486 26.4641 11.8329 26.4798 11.7193C26.4956 11.6057 26.5436 11.4989 26.6182 11.4118L32.7622 4.22978C32.8108 4.1623 32.8729 4.10566 32.9446 4.06346C33.0162 4.02126 33.0959 3.99441 33.1785 3.98463C33.2611 3.97485 33.3448 3.98235 33.4243 4.00664C33.5038 4.03094 33.5775 4.07151 33.6405 4.12577C33.7035 4.18003 33.7546 4.2468 33.7904 4.32184C33.8263 4.39688 33.8461 4.47856 33.8487 4.56168C33.8513 4.64481 33.8366 4.72757 33.8056 4.80471C33.7745 4.88185 33.7277 4.95168 33.6682 5.00978L27.5302 12.1738C27.4756 12.2429 27.4064 12.2992 27.3276 12.3386C27.2488 12.378 27.1623 12.3996 27.0742 12.4018ZM23.8162 12.6418C23.6732 12.6418 23.5349 12.5907 23.4262 12.4978L17.7982 7.69778C17.7383 7.64657 17.6891 7.58406 17.6534 7.51383C17.6176 7.44359 17.5961 7.36701 17.59 7.28845C17.5838 7.20989 17.5932 7.13089 17.6176 7.05597C17.642 6.98105 17.681 6.91166 17.7322 6.85178C17.7849 6.78957 17.8498 6.73876 17.9228 6.70246C17.9958 6.66615 18.0754 6.64511 18.1569 6.64062C18.2383 6.63613 18.3198 6.64828 18.3963 6.67633C18.4729 6.70438 18.5429 6.74775 18.6022 6.80378L24.2302 11.6038C24.3234 11.6835 24.39 11.7899 24.4209 11.9086C24.4518 12.0273 24.4456 12.1526 24.4031 12.2676C24.3606 12.3827 24.2838 12.482 24.1832 12.5521C24.0826 12.6222 23.9628 12.6598 23.8402 12.6598L23.8162 12.6418ZM8.86419 14.4598C8.71261 14.4593 8.56684 14.4014 8.45619 14.2978C8.39627 14.2457 8.3473 14.1822 8.31212 14.111C8.27693 14.0398 8.25622 13.9623 8.2512 13.8831C8.24618 13.8038 8.25694 13.7243 8.28286 13.6493C8.30877 13.5742 8.34933 13.5051 8.40219 13.4458L14.4022 7.04378C14.5112 6.92682 14.6622 6.85795 14.822 6.85233C14.9818 6.8467 15.1372 6.90478 15.2542 7.01378C15.3711 7.12279 15.44 7.27379 15.4456 7.43357C15.4513 7.59335 15.3932 7.74882 15.2842 7.86578L9.28419 14.2678C9.23033 14.3259 9.16549 14.3729 9.0934 14.4058C9.02131 14.4388 8.94341 14.4571 8.86419 14.4598Z" fill="#30353E"/>
</g>
</svg>
