<svg width="40" height="40" viewBox="0 0 40 40" fill="none" xmlns="http://www.w3.org/2000/svg">
<g id="Group">
<path id="Vector" d="M20 10.1562C19.826 10.1562 19.659 10.2254 19.536 10.3485C19.4129 10.4715 19.3438 10.6385 19.3438 10.8125V18.152C19.0693 18.25 18.82 18.4078 18.6139 18.6139C18.4078 18.82 18.25 19.0693 18.152 19.3438H13.4375C13.2635 19.3438 13.0965 19.4129 12.9735 19.536C12.8504 19.659 12.7812 19.826 12.7812 20C12.7812 20.174 12.8504 20.341 12.9735 20.464C13.0965 20.5871 13.2635 20.6562 13.4375 20.6562H18.152C18.2621 20.9696 18.4499 21.2499 18.6977 21.4709C18.9456 21.692 19.2454 21.8466 19.5693 21.9203C19.8931 21.994 20.2303 21.9843 20.5494 21.8923C20.8685 21.8002 21.1591 21.6288 21.3939 21.3939C21.6288 21.1591 21.8002 20.8685 21.8923 20.5494C21.9843 20.2303 21.994 19.8931 21.9203 19.5693C21.8466 19.2454 21.692 18.9456 21.4709 18.6977C21.2499 18.4499 20.9696 18.2621 20.6562 18.152V10.8125C20.6562 10.6385 20.5871 10.4715 20.464 10.3485C20.341 10.2254 20.174 10.1562 20 10.1562ZM29.4795 26.0624L31.9562 24.412C32.3156 24.1729 32.6103 23.8487 32.8142 23.4682C33.0181 23.0878 33.1249 22.6629 33.125 22.2313V21.9688C33.125 21.2726 32.8484 20.6049 32.3562 20.1126C31.8639 19.6203 31.1962 19.3438 30.5 19.3438C29.8038 19.3438 29.1361 19.6203 28.6438 20.1126C28.1516 20.6049 27.875 21.2726 27.875 21.9688C27.875 22.1428 27.9441 22.3097 28.0672 22.4328C28.1903 22.5559 28.3572 22.625 28.5312 22.625C28.7053 22.625 28.8722 22.5559 28.9953 22.4328C29.1184 22.3097 29.1875 22.1428 29.1875 21.9688C29.1875 21.6207 29.3258 21.2868 29.5719 21.0407C29.8181 20.7945 30.1519 20.6562 30.5 20.6562C30.8481 20.6562 31.1819 20.7945 31.4281 21.0407C31.6742 21.2868 31.8125 21.6207 31.8125 21.9688V22.2313C31.8125 22.4473 31.7591 22.6601 31.6571 22.8506C31.5551 23.0411 31.4076 23.2034 31.2278 23.3232L28.7517 24.9737C28.4822 25.1529 28.2612 25.3959 28.1082 25.6811C27.9553 25.9662 27.8752 26.2848 27.875 26.6084V27.875C27.875 28.049 27.9441 28.216 28.0672 28.339C28.1903 28.4621 28.3572 28.5312 28.5312 28.5312H32.4688C32.6428 28.5312 32.8097 28.4621 32.9328 28.339C33.0559 28.216 33.125 28.049 33.125 27.875C33.125 27.701 33.0559 27.534 32.9328 27.411C32.8097 27.2879 32.6428 27.2188 32.4688 27.2188H29.1875V26.6084C29.1875 26.5004 29.2141 26.3941 29.2651 26.2988C29.316 26.2036 29.3897 26.1224 29.4795 26.0624Z" fill="#30353E"/>
<path id="Vector_2" d="M39.0311 25.9061H38.3749V19.9998C38.3748 19.856 38.3276 19.7162 38.2404 19.6019C38.1532 19.4876 38.0308 19.4051 37.8922 19.3671C37.7535 19.3291 37.6062 19.3377 37.4729 19.3915C37.3396 19.4453 37.2276 19.5415 37.1543 19.6651L33.2168 26.2276C33.1577 26.3273 33.126 26.4408 33.125 26.5566C33.124 26.6724 33.1537 26.7864 33.211 26.8871C33.2683 26.9877 33.3513 27.0714 33.4514 27.1296C33.5515 27.1879 33.6653 27.2185 33.7811 27.2186H37.0624V27.8748C37.0624 28.0489 37.1315 28.2158 37.2546 28.3388C37.3777 28.4619 37.5446 28.5311 37.7186 28.5311C37.8927 28.5311 38.0596 28.4619 38.1827 28.3388C38.3057 28.2158 38.3749 28.0489 38.3749 27.8748V27.2186H39.0311C39.2052 27.2186 39.3721 27.1494 39.4952 27.0263C39.6182 26.9033 39.6874 26.7364 39.6874 26.5623C39.6874 26.3883 39.6182 26.2213 39.4952 26.0983C39.3721 25.9752 39.2052 25.9061 39.0311 25.9061ZM37.0624 25.9061H34.9427L37.0624 22.3689V25.9061Z" fill="#30353E"/>
<path id="Vector_3" d="M29.7992 33.586L30.1333 33.3451L29.8416 33.0543L28.182 31.3996L34.4971 30.6573L33.666 36.8851L31.7189 34.9381L31.5035 34.7227L31.2605 34.9063C27.9872 37.3784 23.9915 38.7048 19.8897 38.6811C15.7879 38.6573 11.8079 37.2846 8.56358 34.7747C5.31924 32.2648 2.99085 28.7571 1.93755 24.7928C0.884253 20.8285 1.16457 16.6277 2.73527 12.8385C4.30597 9.04925 7.07979 5.88208 10.6288 3.82551C14.1779 1.76894 18.305 0.937228 22.3736 1.45866C26.4422 1.9801 30.2262 3.82571 33.142 6.71082C35.9622 9.50145 37.8186 13.1146 38.4478 17.0249H36.4798C35.8892 13.6623 34.2733 10.5615 31.8499 8.14968C29.588 5.88664 26.7255 4.3185 23.6007 3.63062C20.4758 2.94271 17.2192 3.16392 14.2161 4.26809C11.2129 5.37226 8.58859 7.31323 6.65351 9.86154C4.71843 12.4098 3.55345 15.4589 3.29628 18.6483C3.03911 21.8377 3.70051 25.0341 5.2023 27.8595C6.70408 30.6849 8.98345 33.0213 11.7709 34.5924C14.5584 36.1635 17.7375 36.9036 20.9322 36.7253C24.127 36.5469 27.2039 35.4576 29.7992 33.586Z" fill="#30353E" stroke="white" stroke-width="0.7"/>
<path id="Vector_4" d="M33.6533 18.0207C33.8241 17.9877 33.9748 17.8882 34.0722 17.7441C34.1697 17.6 34.206 17.4231 34.173 17.2522C33.6047 14.3312 32.1471 11.6573 30 9.5968C27.8529 7.53633 25.1213 6.19004 22.1793 5.74236C19.2373 5.29468 16.2289 5.7675 13.5661 7.09606C10.9033 8.42461 8.7163 10.5439 7.30477 13.1637C5.89324 15.7835 5.32616 18.7756 5.68122 21.7301C6.03628 24.6847 7.2961 27.4573 9.28812 29.668C11.2801 31.8788 13.9069 33.4196 16.8087 34.0795C19.7105 34.7393 22.7453 34.4859 25.4974 33.354C25.5781 33.3218 25.6516 33.274 25.7136 33.2133C25.7757 33.1525 25.825 33.0801 25.8589 33.0001C25.8927 32.9202 25.9104 32.8343 25.9108 32.7474C25.9112 32.6606 25.8944 32.5746 25.8613 32.4943C25.8282 32.414 25.7795 32.3411 25.718 32.2798C25.6566 32.2184 25.5835 32.1699 25.5032 32.137C25.4228 32.1041 25.3367 32.0875 25.2499 32.0881C25.1631 32.0887 25.0772 32.1065 24.9973 32.1406C23.6149 32.7055 22.1456 33.0283 20.6536 33.0948V32.47C20.6536 32.296 20.5845 32.129 20.4614 32.006C20.3383 31.8829 20.1714 31.8138 19.9974 31.8138C19.8233 31.8138 19.6564 31.8829 19.5333 32.006C19.4103 32.129 19.3411 32.296 19.3411 32.47V33.0928C17.4855 33.0039 15.6704 32.519 14.0176 31.6707L14.3313 31.128C14.3751 31.0533 14.4037 30.9707 14.4154 30.885C14.4271 30.7992 14.4218 30.712 14.3996 30.6283C14.3775 30.5447 14.3391 30.4662 14.2865 30.3975C14.2339 30.3287 14.1683 30.271 14.0933 30.2278C14.0184 30.1845 13.9356 30.1565 13.8498 30.1453C13.7639 30.1342 13.6768 30.1401 13.5932 30.1628C13.5097 30.1854 13.4315 30.2244 13.3631 30.2774C13.2947 30.3305 13.2375 30.3965 13.1947 30.4717L12.8817 31.0138C11.3232 30.0033 9.99536 28.6754 8.98485 27.117L9.52691 26.804C9.60215 26.7612 9.66818 26.7039 9.72121 26.6355C9.77423 26.5671 9.81321 26.4889 9.83588 26.4054C9.85856 26.3219 9.86449 26.2347 9.85333 26.1489C9.84218 26.0631 9.81416 25.9803 9.77088 25.9053C9.72761 25.8304 9.66994 25.7647 9.60119 25.7122C9.53244 25.6596 9.45397 25.6211 9.3703 25.599C9.28663 25.5769 9.1994 25.5715 9.11366 25.5833C9.02791 25.595 8.94533 25.6236 8.87066 25.6673L8.32795 25.981C7.47965 24.3283 6.99476 22.5131 6.90585 20.6575H7.52863C7.70268 20.6575 7.8696 20.5884 7.99267 20.4653C8.11574 20.3422 8.18488 20.1753 8.18488 20.0013C8.18488 19.8272 8.11574 19.6603 7.99267 19.5372C7.8696 19.4142 7.70268 19.345 7.52863 19.345H6.90585C6.99476 17.4894 7.47965 15.6743 8.32795 14.0215L8.87066 14.3352C8.94533 14.379 9.02791 14.4075 9.11366 14.4193C9.1994 14.431 9.28663 14.4256 9.3703 14.4035C9.45397 14.3814 9.53244 14.3429 9.60119 14.2904C9.66994 14.2378 9.72761 14.1721 9.77088 14.0972C9.81416 14.0222 9.84218 13.9395 9.85333 13.8537C9.86449 13.7678 9.85856 13.6806 9.83588 13.5971C9.81321 13.5136 9.77423 13.4354 9.72121 13.367C9.66818 13.2986 9.60215 13.2414 9.52691 13.1986L8.98485 12.8855C9.99536 11.3271 11.3232 9.99924 12.8817 8.98873L13.1947 9.53079C13.2375 9.60603 13.2947 9.67206 13.3631 9.72509C13.4315 9.77811 13.5097 9.81709 13.5932 9.83976C13.6768 9.86244 13.7639 9.86837 13.8498 9.85721C13.9356 9.84606 14.0184 9.81804 14.0933 9.77476C14.1683 9.73149 14.2339 9.67382 14.2865 9.60507C14.3391 9.53632 14.3775 9.45785 14.3996 9.37418C14.4218 9.2905 14.4271 9.20328 14.4154 9.11754C14.4037 9.03179 14.3751 8.9492 14.3313 8.87454L14.0176 8.33182C15.6704 7.48352 17.4855 6.99864 19.3411 6.90973V7.53251C19.3411 7.70656 19.4103 7.87348 19.5333 7.99655C19.6564 8.11962 19.8233 8.18876 19.9974 8.18876C20.1714 8.18876 20.3383 8.11962 20.4614 7.99655C20.5845 7.87348 20.6536 7.70656 20.6536 7.53251V6.90514C22.5092 6.99689 24.3238 7.48327 25.9765 8.33182L25.6634 8.87454C25.6197 8.9492 25.5911 9.03179 25.5794 9.11754C25.5677 9.20328 25.573 9.2905 25.5951 9.37418C25.6172 9.45785 25.6557 9.53632 25.7083 9.60507C25.7608 9.67382 25.8265 9.73149 25.9014 9.77476C25.9764 9.81804 26.0592 9.84606 26.145 9.85721C26.2308 9.86837 26.318 9.86244 26.4015 9.83976C26.485 9.81709 26.5633 9.77811 26.6317 9.72509C26.7001 9.67206 26.7573 9.60603 26.8001 9.53079L27.1138 8.98807C28.6743 9.99622 30.0037 11.3234 31.0145 12.8823L30.4672 13.1986C30.392 13.2414 30.3259 13.2986 30.2729 13.367C30.2199 13.4354 30.1809 13.5136 30.1582 13.5971C30.1355 13.6806 30.1296 13.7678 30.1408 13.8537C30.1519 13.9395 30.1799 14.0222 30.2232 14.0972C30.2665 14.1721 30.3242 14.2378 30.3929 14.2904C30.4617 14.3429 30.5401 14.3814 30.6238 14.4035C30.7075 14.4256 30.7947 14.431 30.8804 14.4193C30.9662 14.4075 31.0488 14.379 31.1234 14.3352L31.6747 14.0169C32.2412 15.1148 32.6487 16.2877 32.8848 17.5003C32.9011 17.5849 32.9339 17.6655 32.9813 17.7375C33.0288 17.8094 33.0899 17.8713 33.1613 17.9197C33.2326 17.968 33.3128 18.0018 33.3972 18.0191C33.4816 18.0365 33.5687 18.037 33.6533 18.0207Z" fill="#30353E"/>
</g>
</svg>
