<svg width="28" height="36" viewBox="0 0 28 36" fill="none" xmlns="http://www.w3.org/2000/svg">
<g id="Group">
<path id="Vector" d="M26.3773 33.3727H3.58906C3.10508 33.3727 2.70312 32.9789 2.70312 32.4867V1.54453C2.70312 0.896484 3.22812 0.363281 3.88437 0.363281H21.9805C22.0871 0.363281 22.1855 0.404297 22.2676 0.478125L27.4437 5.6543C27.5176 5.72812 27.5586 5.83477 27.5586 5.94141V32.1996C27.5586 32.8477 27.0254 33.3727 26.3773 33.3727ZM3.88437 1.16719C3.67109 1.16719 3.50703 1.33125 3.50703 1.54453V32.4949C3.50703 32.5359 3.53984 32.577 3.58906 32.577H26.3773C26.5906 32.577 26.7547 32.4129 26.7547 32.1996V6.10547L21.8082 1.15898H3.88437V1.16719Z" fill="#30353E"/>
<path id="Vector_2" d="M24.1117 35.6367H1.61875C0.970703 35.6367 0.4375 35.1117 0.4375 34.4555V3.80039C0.4375 3.15234 0.9625 2.61914 1.61875 2.61914H3.10352C3.325 2.61914 3.50547 2.79961 3.50547 3.02109C3.50547 3.24258 3.325 3.42305 3.10352 3.42305H1.61875C1.40547 3.42305 1.24141 3.58711 1.24141 3.80039V34.4555C1.24141 34.6688 1.40547 34.8328 1.61875 34.8328H24.1117C24.325 34.8328 24.4891 34.6688 24.4891 34.4555V32.9707C24.4891 32.7492 24.6695 32.5688 24.891 32.5688C25.1125 32.5688 25.293 32.7492 25.293 32.9707V34.4555C25.293 35.1117 24.768 35.6367 24.1117 35.6367ZM27.1551 6.34336H22.3316C21.9215 6.34336 21.5852 6.00703 21.5852 5.59688V0.765235C21.5852 0.54375 21.7656 0.363281 21.9871 0.363281C22.2086 0.363281 22.3891 0.54375 22.3891 0.765235V5.53945H27.1551C27.3766 5.53945 27.557 5.71992 27.557 5.94141C27.557 6.16289 27.3766 6.34336 27.1551 6.34336ZM24.3414 13.6934H17.057C16.8355 13.6934 16.6551 13.5129 16.6551 13.2914C16.6551 13.0699 16.8355 12.8895 17.057 12.8895H24.3414C24.5629 12.8895 24.7434 13.0699 24.7434 13.2914C24.7434 13.5129 24.5629 13.6934 24.3414 13.6934ZM24.3414 17.0484H17.057C16.8355 17.0484 16.6551 16.868 16.6551 16.6465C16.6551 16.425 16.8355 16.2445 17.057 16.2445H24.3414C24.5629 16.2445 24.7434 16.425 24.7434 16.6465C24.7434 16.868 24.5629 17.0484 24.3414 17.0484ZM24.3414 10.3301H17.057C16.8355 10.3301 16.6551 10.1496 16.6551 9.92813C16.6551 9.70664 16.8355 9.52617 17.057 9.52617H24.3414C24.5629 9.52617 24.7434 9.70664 24.7434 9.92813C24.7434 10.1496 24.5629 10.3301 24.3414 10.3301Z" fill="#30353E"/>
<path id="Vector_3" d="M10.2812 18.059C7.65625 18.059 5.52344 15.9262 5.52344 13.293C5.52344 10.6598 7.65625 8.53516 10.2812 8.53516C12.9062 8.53516 15.0391 10.668 15.0391 13.293C15.0391 15.918 12.9062 18.059 10.2812 18.059ZM10.2812 9.33906C8.09922 9.33906 6.31914 11.1191 6.31914 13.3012C6.31914 15.4832 8.09922 17.2633 10.2812 17.2633C12.4633 17.2633 14.2434 15.4832 14.2434 13.3012C14.2434 11.1191 12.4633 9.33906 10.2812 9.33906Z" fill="#30353E"/>
<path id="Vector_4" d="M14.6387 13.6918H10.2746C10.0531 13.6918 9.87266 13.5113 9.87266 13.2898V8.91758C9.87266 8.69609 10.0531 8.51562 10.2746 8.51562C10.4961 8.51562 10.6766 8.69609 10.6766 8.91758V12.8879H14.6387C14.8602 12.8879 15.0406 13.0684 15.0406 13.2898C15.0406 13.5113 14.8602 13.6918 14.6387 13.6918ZM7.69883 30.3934H6.01719C5.73008 30.3934 5.49219 30.1637 5.49219 29.8684V21.0418C5.49219 20.7547 5.72187 20.5168 6.01719 20.5168H7.69883C7.84648 20.5168 7.99414 20.5824 8.09258 20.6973C8.18281 20.7957 8.22383 20.927 8.21562 21.05V29.8602C8.21562 30.1555 7.98594 30.3934 7.69883 30.3934ZM6.29609 29.5895H7.41992V21.3289H6.29609V29.5895ZM11.8332 30.3934H10.1516C9.86445 30.3934 9.62656 30.1637 9.62656 29.8684V23.8965C9.62656 23.6094 9.85625 23.3715 10.1516 23.3715H11.8332C12.1285 23.3715 12.3582 23.6012 12.3582 23.8965V29.8684C12.3582 30.1555 12.1203 30.3934 11.8332 30.3934ZM10.4305 29.5895H11.5543V24.1754H10.4305V29.5895ZM15.9676 30.3934H14.2859C13.9988 30.3934 13.7609 30.1637 13.7609 29.8684V21.0418C13.7609 20.7547 13.9906 20.5168 14.2859 20.5168H15.9676C16.1152 20.5168 16.2629 20.5824 16.3613 20.7055C16.4516 20.8039 16.4926 20.9352 16.4844 21.0582V29.8684C16.4926 30.1555 16.2547 30.3934 15.9676 30.3934ZM14.5648 29.5895H15.6887V21.3289H14.5648V29.5895ZM20.1184 30.3934H18.4285C18.1414 30.3934 17.9035 30.1637 17.9035 29.8684V23.8965C17.9035 23.6094 18.1332 23.3715 18.4285 23.3715H20.1102C20.3809 23.3715 20.5941 23.5684 20.627 23.8473V29.8602C20.6352 30.1555 20.4055 30.3934 20.1184 30.3934ZM18.7156 29.5895H19.8395V24.1754H18.7156V29.5895ZM24.2445 30.3934H22.5629C22.2758 30.3934 22.0379 30.1637 22.0379 29.8684V21.0418C22.0379 20.7547 22.2676 20.5168 22.5629 20.5168H24.2445C24.4004 20.5168 24.5398 20.5824 24.6383 20.6973C24.7285 20.7957 24.7695 20.927 24.7613 21.05V29.8602C24.7613 30.1555 24.5316 30.3934 24.2445 30.3934ZM22.8418 29.5895H23.9656V21.3289H22.8418V29.5895Z" fill="#30353E"/>
</g>
</svg>
