<svg width="38" height="38" viewBox="0 0 38 38" fill="none" xmlns="http://www.w3.org/2000/svg">
<g id="Group">
<g id="Vector">
<mask id="path-1-inside-1_11513_18184" fill="white">
<path d="M33.4375 3.25H32.125V1.9375C32.125 1.5894 31.9867 1.25556 31.7406 1.00942C31.4944 0.763281 31.1606 0.625 30.8125 0.625C30.4644 0.625 30.1306 0.763281 29.8844 1.00942C29.6383 1.25556 29.5 1.5894 29.5 1.9375V3.25H8.5V1.9375C8.5 1.5894 8.36172 1.25556 8.11558 1.00942C7.86944 0.763281 7.5356 0.625 7.1875 0.625C6.8394 0.625 6.50556 0.763281 6.25942 1.00942C6.01328 1.25556 5.875 1.5894 5.875 1.9375V3.25H4.5625C3.51821 3.25 2.51669 3.66484 1.77827 4.40327C1.03984 5.14169 0.625 6.14321 0.625 7.1875V33.4375C0.625 34.4818 1.03984 35.4833 1.77827 36.2217C2.51669 36.9602 3.51821 37.375 4.5625 37.375H33.4375C34.4818 37.375 35.4833 36.9602 36.2217 36.2217C36.9602 35.4833 37.375 34.4818 37.375 33.4375V7.1875C37.375 6.14321 36.9602 5.14169 36.2217 4.40327C35.4833 3.66484 34.4818 3.25 33.4375 3.25ZM34.75 33.4375C34.75 33.7856 34.6117 34.1194 34.3656 34.3656C34.1194 34.6117 33.7856 34.75 33.4375 34.75H4.5625C4.2144 34.75 3.88056 34.6117 3.63442 34.3656C3.38828 34.1194 3.25 33.7856 3.25 33.4375V13.75H34.75V33.4375ZM34.75 11.125H3.25V7.1875C3.25 6.8394 3.38828 6.50556 3.63442 6.25942C3.88056 6.01328 4.2144 5.875 4.5625 5.875H33.4375C33.7856 5.875 34.1194 6.01328 34.3656 6.25942C34.6117 6.50556 34.75 6.8394 34.75 7.1875V11.125ZM25.5625 29.5C25.5625 29.1519 25.7008 28.8181 25.9469 28.5719C26.1931 28.3258 26.5269 28.1875 26.875 28.1875H29.5C29.8481 28.1875 30.1819 28.3258 30.4281 28.5719C30.6742 28.8181 30.8125 29.1519 30.8125 29.5C30.8125 29.8481 30.6742 30.1819 30.4281 30.4281C30.1819 30.6742 29.8481 30.8125 29.5 30.8125H26.875C26.5269 30.8125 26.1931 30.6742 25.9469 30.4281C25.7008 30.1819 25.5625 29.8481 25.5625 29.5ZM16.375 19C16.375 18.6519 16.5133 18.3181 16.7594 18.0719C17.0056 17.8258 17.3394 17.6875 17.6875 17.6875H20.3125C20.6606 17.6875 20.9944 17.8258 21.2406 18.0719C21.4867 18.3181 21.625 18.6519 21.625 19C21.625 19.3481 21.4867 19.6819 21.2406 19.9281C20.9944 20.1742 20.6606 20.3125 20.3125 20.3125H17.6875C17.3394 20.3125 17.0056 20.1742 16.7594 19.9281C16.5133 19.6819 16.375 19.3481 16.375 19ZM25.5625 19C25.5625 18.6519 25.7008 18.3181 25.9469 18.0719C26.1931 17.8258 26.5269 17.6875 26.875 17.6875H29.5C29.8481 17.6875 30.1819 17.8258 30.4281 18.0719C30.6742 18.3181 30.8125 18.6519 30.8125 19C30.8125 19.3481 30.6742 19.6819 30.4281 19.9281C30.1819 20.1742 29.8481 20.3125 29.5 20.3125H26.875C26.5269 20.3125 26.1931 20.1742 25.9469 19.9281C25.7008 19.6819 25.5625 19.3481 25.5625 19ZM16.375 24.25C16.375 23.9019 16.5133 23.5681 16.7594 23.3219C17.0056 23.0758 17.3394 22.9375 17.6875 22.9375H20.3125C20.6606 22.9375 20.9944 23.0758 21.2406 23.3219C21.4867 23.5681 21.625 23.9019 21.625 24.25C21.625 24.5981 21.4867 24.9319 21.2406 25.1781C20.9944 25.4242 20.6606 25.5625 20.3125 25.5625H17.6875C17.3394 25.5625 17.0056 25.4242 16.7594 25.1781C16.5133 24.9319 16.375 24.5981 16.375 24.25ZM25.5625 24.25C25.5625 23.9019 25.7008 23.5681 25.9469 23.3219C26.1931 23.0758 26.5269 22.9375 26.875 22.9375H29.5C29.8481 22.9375 30.1819 23.0758 30.4281 23.3219C30.6742 23.5681 30.8125 23.9019 30.8125 24.25C30.8125 24.5981 30.6742 24.9319 30.4281 25.1781C30.1819 25.4242 29.8481 25.5625 29.5 25.5625H26.875C26.5269 25.5625 26.1931 25.4242 25.9469 25.1781C25.7008 24.9319 25.5625 24.5981 25.5625 24.25ZM7.1875 24.25C7.1875 23.9019 7.32578 23.5681 7.57192 23.3219C7.81806 23.0758 8.1519 22.9375 8.5 22.9375H11.125C11.4731 22.9375 11.8069 23.0758 12.0531 23.3219C12.2992 23.5681 12.4375 23.9019 12.4375 24.25C12.4375 24.5981 12.2992 24.9319 12.0531 25.1781C11.8069 25.4242 11.4731 25.5625 11.125 25.5625H8.5C8.1519 25.5625 7.81806 25.4242 7.57192 25.1781C7.32578 24.9319 7.1875 24.5981 7.1875 24.25ZM7.1875 29.5C7.1875 29.1519 7.32578 28.8181 7.57192 28.5719C7.81806 28.3258 8.1519 28.1875 8.5 28.1875H11.125C11.4731 28.1875 11.8069 28.3258 12.0531 28.5719C12.2992 28.8181 12.4375 29.1519 12.4375 29.5C12.4375 29.8481 12.2992 30.1819 12.0531 30.4281C11.8069 30.6742 11.4731 30.8125 11.125 30.8125H8.5C8.1519 30.8125 7.81806 30.6742 7.57192 30.4281C7.32578 30.1819 7.1875 29.8481 7.1875 29.5ZM7.1875 19C7.1875 18.6519 7.32578 18.3181 7.57192 18.0719C7.81806 17.8258 8.1519 17.6875 8.5 17.6875H11.125C11.4731 17.6875 11.8069 17.8258 12.0531 18.0719C12.2992 18.3181 12.4375 18.6519 12.4375 19C12.4375 19.3481 12.2992 19.6819 12.0531 19.9281C11.8069 20.1742 11.4731 20.3125 11.125 20.3125H8.5C8.1519 20.3125 7.81806 20.1742 7.57192 19.9281C7.32578 19.6819 7.1875 19.3481 7.1875 19ZM16.375 29.5C16.375 29.1519 16.5133 28.8181 16.7594 28.5719C17.0056 28.3258 17.3394 28.1875 17.6875 28.1875H20.3125C20.6606 28.1875 20.9944 28.3258 21.2406 28.5719C21.4867 28.8181 21.625 29.1519 21.625 29.5C21.625 29.8481 21.4867 30.1819 21.2406 30.4281C20.9944 30.6742 20.6606 30.8125 20.3125 30.8125H17.6875C17.3394 30.8125 17.0056 30.6742 16.7594 30.4281C16.5133 30.1819 16.375 29.8481 16.375 29.5Z"/>
</mask>
<path d="M33.4375 3.25H32.125V1.9375C32.125 1.5894 31.9867 1.25556 31.7406 1.00942C31.4944 0.763281 31.1606 0.625 30.8125 0.625C30.4644 0.625 30.1306 0.763281 29.8844 1.00942C29.6383 1.25556 29.5 1.5894 29.5 1.9375V3.25H8.5V1.9375C8.5 1.5894 8.36172 1.25556 8.11558 1.00942C7.86944 0.763281 7.5356 0.625 7.1875 0.625C6.8394 0.625 6.50556 0.763281 6.25942 1.00942C6.01328 1.25556 5.875 1.5894 5.875 1.9375V3.25H4.5625C3.51821 3.25 2.51669 3.66484 1.77827 4.40327C1.03984 5.14169 0.625 6.14321 0.625 7.1875V33.4375C0.625 34.4818 1.03984 35.4833 1.77827 36.2217C2.51669 36.9602 3.51821 37.375 4.5625 37.375H33.4375C34.4818 37.375 35.4833 36.9602 36.2217 36.2217C36.9602 35.4833 37.375 34.4818 37.375 33.4375V7.1875C37.375 6.14321 36.9602 5.14169 36.2217 4.40327C35.4833 3.66484 34.4818 3.25 33.4375 3.25ZM34.75 33.4375C34.75 33.7856 34.6117 34.1194 34.3656 34.3656C34.1194 34.6117 33.7856 34.75 33.4375 34.75H4.5625C4.2144 34.75 3.88056 34.6117 3.63442 34.3656C3.38828 34.1194 3.25 33.7856 3.25 33.4375V13.75H34.75V33.4375ZM34.75 11.125H3.25V7.1875C3.25 6.8394 3.38828 6.50556 3.63442 6.25942C3.88056 6.01328 4.2144 5.875 4.5625 5.875H33.4375C33.7856 5.875 34.1194 6.01328 34.3656 6.25942C34.6117 6.50556 34.75 6.8394 34.75 7.1875V11.125ZM25.5625 29.5C25.5625 29.1519 25.7008 28.8181 25.9469 28.5719C26.1931 28.3258 26.5269 28.1875 26.875 28.1875H29.5C29.8481 28.1875 30.1819 28.3258 30.4281 28.5719C30.6742 28.8181 30.8125 29.1519 30.8125 29.5C30.8125 29.8481 30.6742 30.1819 30.4281 30.4281C30.1819 30.6742 29.8481 30.8125 29.5 30.8125H26.875C26.5269 30.8125 26.1931 30.6742 25.9469 30.4281C25.7008 30.1819 25.5625 29.8481 25.5625 29.5ZM16.375 19C16.375 18.6519 16.5133 18.3181 16.7594 18.0719C17.0056 17.8258 17.3394 17.6875 17.6875 17.6875H20.3125C20.6606 17.6875 20.9944 17.8258 21.2406 18.0719C21.4867 18.3181 21.625 18.6519 21.625 19C21.625 19.3481 21.4867 19.6819 21.2406 19.9281C20.9944 20.1742 20.6606 20.3125 20.3125 20.3125H17.6875C17.3394 20.3125 17.0056 20.1742 16.7594 19.9281C16.5133 19.6819 16.375 19.3481 16.375 19ZM25.5625 19C25.5625 18.6519 25.7008 18.3181 25.9469 18.0719C26.1931 17.8258 26.5269 17.6875 26.875 17.6875H29.5C29.8481 17.6875 30.1819 17.8258 30.4281 18.0719C30.6742 18.3181 30.8125 18.6519 30.8125 19C30.8125 19.3481 30.6742 19.6819 30.4281 19.9281C30.1819 20.1742 29.8481 20.3125 29.5 20.3125H26.875C26.5269 20.3125 26.1931 20.1742 25.9469 19.9281C25.7008 19.6819 25.5625 19.3481 25.5625 19ZM16.375 24.25C16.375 23.9019 16.5133 23.5681 16.7594 23.3219C17.0056 23.0758 17.3394 22.9375 17.6875 22.9375H20.3125C20.6606 22.9375 20.9944 23.0758 21.2406 23.3219C21.4867 23.5681 21.625 23.9019 21.625 24.25C21.625 24.5981 21.4867 24.9319 21.2406 25.1781C20.9944 25.4242 20.6606 25.5625 20.3125 25.5625H17.6875C17.3394 25.5625 17.0056 25.4242 16.7594 25.1781C16.5133 24.9319 16.375 24.5981 16.375 24.25ZM25.5625 24.25C25.5625 23.9019 25.7008 23.5681 25.9469 23.3219C26.1931 23.0758 26.5269 22.9375 26.875 22.9375H29.5C29.8481 22.9375 30.1819 23.0758 30.4281 23.3219C30.6742 23.5681 30.8125 23.9019 30.8125 24.25C30.8125 24.5981 30.6742 24.9319 30.4281 25.1781C30.1819 25.4242 29.8481 25.5625 29.5 25.5625H26.875C26.5269 25.5625 26.1931 25.4242 25.9469 25.1781C25.7008 24.9319 25.5625 24.5981 25.5625 24.25ZM7.1875 24.25C7.1875 23.9019 7.32578 23.5681 7.57192 23.3219C7.81806 23.0758 8.1519 22.9375 8.5 22.9375H11.125C11.4731 22.9375 11.8069 23.0758 12.0531 23.3219C12.2992 23.5681 12.4375 23.9019 12.4375 24.25C12.4375 24.5981 12.2992 24.9319 12.0531 25.1781C11.8069 25.4242 11.4731 25.5625 11.125 25.5625H8.5C8.1519 25.5625 7.81806 25.4242 7.57192 25.1781C7.32578 24.9319 7.1875 24.5981 7.1875 24.25ZM7.1875 29.5C7.1875 29.1519 7.32578 28.8181 7.57192 28.5719C7.81806 28.3258 8.1519 28.1875 8.5 28.1875H11.125C11.4731 28.1875 11.8069 28.3258 12.0531 28.5719C12.2992 28.8181 12.4375 29.1519 12.4375 29.5C12.4375 29.8481 12.2992 30.1819 12.0531 30.4281C11.8069 30.6742 11.4731 30.8125 11.125 30.8125H8.5C8.1519 30.8125 7.81806 30.6742 7.57192 30.4281C7.32578 30.1819 7.1875 29.8481 7.1875 29.5ZM7.1875 19C7.1875 18.6519 7.32578 18.3181 7.57192 18.0719C7.81806 17.8258 8.1519 17.6875 8.5 17.6875H11.125C11.4731 17.6875 11.8069 17.8258 12.0531 18.0719C12.2992 18.3181 12.4375 18.6519 12.4375 19C12.4375 19.3481 12.2992 19.6819 12.0531 19.9281C11.8069 20.1742 11.4731 20.3125 11.125 20.3125H8.5C8.1519 20.3125 7.81806 20.1742 7.57192 19.9281C7.32578 19.6819 7.1875 19.3481 7.1875 19ZM16.375 29.5C16.375 29.1519 16.5133 28.8181 16.7594 28.5719C17.0056 28.3258 17.3394 28.1875 17.6875 28.1875H20.3125C20.6606 28.1875 20.9944 28.3258 21.2406 28.5719C21.4867 28.8181 21.625 29.1519 21.625 29.5C21.625 29.8481 21.4867 30.1819 21.2406 30.4281C20.9944 30.6742 20.6606 30.8125 20.3125 30.8125H17.6875C17.3394 30.8125 17.0056 30.6742 16.7594 30.4281C16.5133 30.1819 16.375 29.8481 16.375 29.5Z" fill="#30353E" stroke="white" mask="url(#path-1-inside-1_11513_18184)"/>
</g>
</g>
</svg>
