<svg width="38" height="30" viewBox="0 0 38 30" fill="none" xmlns="http://www.w3.org/2000/svg">
<g id="Group">
<path id="Vector" d="M20.1937 23.4121H3.90559C3.38361 23.4116 2.88315 23.204 2.51405 22.8349C2.14495 22.4658 1.93737 21.9654 1.93684 21.4434V8.76331H32.2149V11.7053C32.2149 11.8793 32.284 12.0462 32.4071 12.1693C32.5302 12.2924 32.6971 12.3615 32.8712 12.3615C33.0452 12.3615 33.2121 12.2924 33.3352 12.1693C33.4583 12.0462 33.5274 11.8793 33.5274 11.7053V4.13216C33.5262 3.26235 33.1801 2.42852 32.565 1.81354C31.9499 1.19855 31.116 0.852604 30.2462 0.851562H3.90625C3.03633 0.852605 2.20233 1.19864 1.58721 1.81377C0.972079 2.4289 0.626042 3.26289 0.625 4.13281V21.4434C0.626042 22.3133 0.972079 23.1473 1.58721 23.7624C2.20233 24.3775 3.03633 24.7236 3.90625 24.7246H20.1937C20.3678 24.7246 20.5347 24.6555 20.6578 24.5324C20.7808 24.4093 20.85 24.2424 20.85 24.0684C20.85 23.8943 20.7808 23.7274 20.6578 23.6043C20.5347 23.4813 20.3678 23.4121 20.1937 23.4121ZM1.93684 4.13347C1.93737 3.61148 2.14495 3.11103 2.51405 2.74193C2.88315 2.37283 3.38361 2.16524 3.90559 2.16472H30.2462C30.7681 2.16524 31.2686 2.37283 31.6377 2.74193C32.0068 3.11103 32.2144 3.61148 32.2149 4.13347V5.11128H1.9375L1.93684 4.13347ZM1.93684 6.42378H32.2149V7.45147H1.9375L1.93684 6.42378Z" fill="#30353E"/>
<path id="Vector_2" d="M5.375 19.1485C5.20095 19.1485 5.03403 19.2176 4.91096 19.3407C4.78789 19.4638 4.71875 19.6307 4.71875 19.8047C4.71875 19.9788 4.78789 20.1457 4.91096 20.2688C5.03403 20.3918 5.20095 20.461 5.375 20.461H10.0541C10.2281 20.461 10.395 20.3918 10.5181 20.2688C10.6412 20.1457 10.7103 19.9788 10.7103 19.8047C10.7103 19.6307 10.6412 19.4638 10.5181 19.3407C10.395 19.2176 10.2281 19.1485 10.0541 19.1485H5.375ZM37.1021 15.9493C37.0233 15.5739 36.9839 15.083 36.5488 14.9577L29.4088 12.6601C29.278 12.6185 29.1374 12.6185 29.0066 12.6601L21.8679 14.9577C21.4348 15.085 21.3954 15.5719 21.314 15.9486C20.2633 21.2032 22.3128 25.9092 26.5345 27.937L28.9239 29.0854C29.0125 29.1281 29.1096 29.1503 29.208 29.1503C29.3064 29.1503 29.4035 29.1281 29.4922 29.0854L31.8822 27.937C36.1039 25.9092 38.1527 21.2038 37.1021 15.9493ZM31.3139 26.7544L29.208 27.765L27.1021 26.7544C23.4048 24.9891 21.6402 20.7471 22.6245 16.093L29.208 13.9739L35.7922 16.093C36.7746 20.7484 35.0106 24.9898 31.3139 26.7544Z" fill="#30353E"/>
<path id="Vector_3" d="M32.3869 18.6448L28.9101 21.7423L27.3778 20.2106C27.254 20.091 27.0882 20.0249 26.9162 20.0264C26.7441 20.0279 26.5795 20.0969 26.4578 20.2186C26.3362 20.3402 26.2671 20.5048 26.2656 20.6769C26.2642 20.849 26.3303 21.0147 26.4498 21.1385L28.4199 23.1086C28.5383 23.227 28.6975 23.2957 28.8649 23.3006C29.0323 23.3054 29.1952 23.2461 29.3203 23.1348L33.2597 19.6245C33.3852 19.5076 33.4598 19.3462 33.4678 19.1749C33.4757 19.0036 33.4163 18.8361 33.3023 18.708C33.1882 18.58 33.0286 18.5017 32.8575 18.4898C32.6864 18.478 32.5175 18.5336 32.3869 18.6448Z" fill="#30353E"/>
</g>
</svg>
