<svg width="40" height="40" viewBox="0 0 40 40" fill="none" xmlns="http://www.w3.org/2000/svg">
<g id="Group">
<path id="Vector" d="M36.4062 4.25H33.125V2.9375C33.125 2.24131 32.8484 1.57363 32.3562 1.08134C31.8639 0.589062 31.1962 0.3125 30.5 0.3125C29.8038 0.3125 29.1361 0.589062 28.6438 1.08134C28.1516 1.57363 27.875 2.24131 27.875 2.9375V4.25H22.625V2.9375C22.625 2.24131 22.3484 1.57363 21.8562 1.08134C21.3639 0.589062 20.6962 0.3125 20 0.3125C19.3038 0.3125 18.6361 0.589062 18.1438 1.08134C17.6516 1.57363 17.375 2.24131 17.375 2.9375V4.25H12.125V2.9375C12.125 2.24131 11.8484 1.57363 11.3562 1.08134C10.8639 0.589062 10.1962 0.3125 9.5 0.3125C8.80381 0.3125 8.13613 0.589062 7.64384 1.08134C7.15156 1.57363 6.875 2.24131 6.875 2.9375V4.25H3.59375C2.72351 4.25 1.88891 4.5957 1.27356 5.21106C0.658202 5.82641 0.3125 6.66101 0.3125 7.53125V33.7812C0.3125 34.6515 0.658202 35.4861 1.27356 36.1014C1.88891 36.7168 2.72351 37.0625 3.59375 37.0625H21.9688C22.1428 37.0625 22.3097 36.9934 22.4328 36.8703C22.5559 36.7472 22.625 36.5803 22.625 36.4062C22.625 36.2322 22.5559 36.0653 22.4328 35.9422C22.3097 35.8191 22.1428 35.75 21.9688 35.75H3.59375C3.07208 35.7484 2.57223 35.5405 2.20335 35.1716C1.83448 34.8028 1.62656 34.3029 1.625 33.7812V13.4375H38.375V24.5938C38.375 24.7678 38.4441 24.9347 38.5672 25.0578C38.6903 25.1809 38.8572 25.25 39.0312 25.25C39.2053 25.25 39.3722 25.1809 39.4953 25.0578C39.6184 24.9347 39.6875 24.7678 39.6875 24.5938V7.53125C39.6875 6.66101 39.3418 5.82641 38.7264 5.21106C38.1111 4.5957 37.2765 4.25 36.4062 4.25ZM29.1875 2.9375C29.1875 2.5894 29.3258 2.25556 29.5719 2.00942C29.8181 1.76328 30.1519 1.625 30.5 1.625C30.8481 1.625 31.1819 1.76328 31.4281 2.00942C31.6742 2.25556 31.8125 2.5894 31.8125 2.9375V6.875C31.8125 7.2231 31.6742 7.55694 31.4281 7.80308C31.1819 8.04922 30.8481 8.1875 30.5 8.1875C30.1519 8.1875 29.8181 8.04922 29.5719 7.80308C29.3258 7.55694 29.1875 7.2231 29.1875 6.875V2.9375ZM18.6875 2.9375C18.6875 2.5894 18.8258 2.25556 19.0719 2.00942C19.3181 1.76328 19.6519 1.625 20 1.625C20.3481 1.625 20.6819 1.76328 20.9281 2.00942C21.1742 2.25556 21.3125 2.5894 21.3125 2.9375V6.875C21.3125 7.2231 21.1742 7.55694 20.9281 7.80308C20.6819 8.04922 20.3481 8.1875 20 8.1875C19.6519 8.1875 19.3181 8.04922 19.0719 7.80308C18.8258 7.55694 18.6875 7.2231 18.6875 6.875V2.9375ZM8.1875 2.9375C8.1875 2.5894 8.32578 2.25556 8.57192 2.00942C8.81806 1.76328 9.1519 1.625 9.5 1.625C9.8481 1.625 10.1819 1.76328 10.4281 2.00942C10.6742 2.25556 10.8125 2.5894 10.8125 2.9375V6.875C10.8125 7.2231 10.6742 7.55694 10.4281 7.80308C10.1819 8.04922 9.8481 8.1875 9.5 8.1875C9.1519 8.1875 8.81806 8.04922 8.57192 7.80308C8.32578 7.55694 8.1875 7.2231 8.1875 6.875V2.9375ZM38.375 12.125H1.625V7.53125C1.62656 7.00958 1.83448 6.50973 2.20335 6.14085C2.57223 5.77198 3.07208 5.56406 3.59375 5.5625H6.875V6.875C6.875 7.57119 7.15156 8.23887 7.64384 8.73116C8.13613 9.22344 8.80381 9.5 9.5 9.5C10.1962 9.5 10.8639 9.22344 11.3562 8.73116C11.8484 8.23887 12.125 7.57119 12.125 6.875V5.5625H17.375V6.875C17.375 7.57119 17.6516 8.23887 18.1438 8.73116C18.6361 9.22344 19.3038 9.5 20 9.5C20.6962 9.5 21.3639 9.22344 21.8562 8.73116C22.3484 8.23887 22.625 7.57119 22.625 6.875V5.5625H27.875V6.875C27.875 7.57119 28.1516 8.23887 28.6438 8.73116C29.1361 9.22344 29.8038 9.5 30.5 9.5C31.1962 9.5 31.8639 9.22344 32.3562 8.73116C32.8484 8.23887 33.125 7.57119 33.125 6.875V5.5625H36.4062C36.9279 5.56406 37.4278 5.77198 37.7966 6.14085C38.1655 6.50973 38.3734 7.00958 38.375 7.53125V12.125Z" fill="#30353E"/>
<path id="Vector_2" d="M18.6875 18.0312C18.6875 17.6832 18.5492 17.3493 18.3031 17.1032C18.0569 16.857 17.7231 16.7188 17.375 16.7188H14.75C14.4019 16.7188 14.0681 16.857 13.8219 17.1032C13.5758 17.3493 13.4375 17.6832 13.4375 18.0312V20C13.4375 20.3481 13.5758 20.6819 13.8219 20.9281C14.0681 21.1742 14.4019 21.3125 14.75 21.3125H17.375C17.7231 21.3125 18.0569 21.1742 18.3031 20.9281C18.5492 20.6819 18.6875 20.3481 18.6875 20V18.0312ZM14.75 20V18.0312H17.375V20H14.75ZM10.8125 18.0312C10.8125 17.6832 10.6742 17.3493 10.4281 17.1032C10.1819 16.857 9.8481 16.7188 9.5 16.7188H6.875C6.5269 16.7188 6.19306 16.857 5.94692 17.1032C5.70078 17.3493 5.5625 17.6832 5.5625 18.0312V20C5.5625 20.3481 5.70078 20.6819 5.94692 20.9281C6.19306 21.1742 6.5269 21.3125 6.875 21.3125H9.5C9.8481 21.3125 10.1819 21.1742 10.4281 20.9281C10.6742 20.6819 10.8125 20.3481 10.8125 20V18.0312ZM6.875 20V18.0312H9.5V20H6.875ZM33.125 21.3125C33.4731 21.3125 33.8069 21.1742 34.0531 20.9281C34.2992 20.6819 34.4375 20.3481 34.4375 20V18.0312C34.4375 17.6832 34.2992 17.3493 34.0531 17.1032C33.8069 16.857 33.4731 16.7188 33.125 16.7188H30.5C30.1519 16.7188 29.8181 16.857 29.5719 17.1032C29.3258 17.3493 29.1875 17.6832 29.1875 18.0312V20C29.1875 20.3481 29.3258 20.6819 29.5719 20.9281C29.8181 21.1742 30.1519 21.3125 30.5 21.3125H33.125ZM30.5 18.0312H33.125V20H30.5V18.0312ZM18.6875 23.9375C18.6875 23.5894 18.5492 23.2556 18.3031 23.0094C18.0569 22.7633 17.7231 22.625 17.375 22.625H14.75C14.4019 22.625 14.0681 22.7633 13.8219 23.0094C13.5758 23.2556 13.4375 23.5894 13.4375 23.9375V25.9062C13.4375 26.2543 13.5758 26.5882 13.8219 26.8343C14.0681 27.0805 14.4019 27.2188 14.75 27.2188H17.375C17.7231 27.2188 18.0569 27.0805 18.3031 26.8343C18.5492 26.5882 18.6875 26.2543 18.6875 25.9062V23.9375ZM14.75 25.9062V23.9375H17.375V25.9062H14.75ZM10.8125 23.9375C10.8125 23.5894 10.6742 23.2556 10.4281 23.0094C10.1819 22.7633 9.8481 22.625 9.5 22.625H6.875C6.5269 22.625 6.19306 22.7633 5.94692 23.0094C5.70078 23.2556 5.5625 23.5894 5.5625 23.9375V25.9062C5.5625 26.2543 5.70078 26.5882 5.94692 26.8343C6.19306 27.0805 6.5269 27.2188 6.875 27.2188H9.5C9.8481 27.2188 10.1819 27.0805 10.4281 26.8343C10.6742 26.5882 10.8125 26.2543 10.8125 25.9062V23.9375ZM6.875 25.9062V23.9375H9.5V25.9062H6.875ZM17.375 28.5312H14.75C14.4019 28.5312 14.0681 28.6695 13.8219 28.9157C13.5758 29.1618 13.4375 29.4957 13.4375 29.8438V31.8125C13.4375 32.1606 13.5758 32.4944 13.8219 32.7406C14.0681 32.9867 14.4019 33.125 14.75 33.125H17.375C17.7231 33.125 18.0569 32.9867 18.3031 32.7406C18.5492 32.4944 18.6875 32.1606 18.6875 31.8125V29.8438C18.6875 29.4957 18.5492 29.1618 18.3031 28.9157C18.0569 28.6695 17.7231 28.5312 17.375 28.5312ZM14.75 31.8125V29.8438H17.375V31.8125H14.75ZM22.625 21.3125H25.25C25.5981 21.3125 25.9319 21.1742 26.1781 20.9281C26.4242 20.6819 26.5625 20.3481 26.5625 20V18.0312C26.5625 17.6832 26.4242 17.3493 26.1781 17.1032C25.9319 16.857 25.5981 16.7188 25.25 16.7188H22.625C22.2769 16.7188 21.9431 16.857 21.6969 17.1032C21.4508 17.3493 21.3125 17.6832 21.3125 18.0312V20C21.3125 20.3481 21.4508 20.6819 21.6969 20.9281C21.9431 21.1742 22.2769 21.3125 22.625 21.3125ZM22.625 18.0312H25.25V20H22.625V18.0312ZM21.3125 25.9062C21.3125 26.2543 21.4508 26.5882 21.6969 26.8343C21.9431 27.0805 22.2769 27.2188 22.625 27.2188C22.799 27.2188 22.966 27.1496 23.089 27.0265C23.2121 26.9035 23.2812 26.7365 23.2812 26.5625C23.2812 26.3885 23.2121 26.2215 23.089 26.0985C22.966 25.9754 22.799 25.9062 22.625 25.9062V23.9375H25.25C25.424 23.9375 25.591 23.8684 25.714 23.7453C25.8371 23.6222 25.9062 23.4553 25.9062 23.2812C25.9062 23.1072 25.8371 22.9403 25.714 22.8172C25.591 22.6941 25.424 22.625 25.25 22.625H22.625C22.2769 22.625 21.9431 22.7633 21.6969 23.0094C21.4508 23.2556 21.3125 23.5894 21.3125 23.9375V25.9062ZM9.5 28.5312H6.875C6.5269 28.5312 6.19306 28.6695 5.94692 28.9157C5.70078 29.1618 5.5625 29.4957 5.5625 29.8438V31.8125C5.5625 32.1606 5.70078 32.4944 5.94692 32.7406C6.19306 32.9867 6.5269 33.125 6.875 33.125H9.5C9.8481 33.125 10.1819 32.9867 10.4281 32.7406C10.6742 32.4944 10.8125 32.1606 10.8125 31.8125V29.8438C10.8125 29.4957 10.6742 29.1618 10.4281 28.9157C10.1819 28.6695 9.8481 28.5312 9.5 28.5312ZM6.875 31.8125V29.8438H9.5V31.8125H6.875Z" fill="#30353E"/>
<path id="Vector_3" d="M31.1563 22.625C29.4689 22.625 27.8195 23.1253 26.4165 24.0628C25.0136 25.0002 23.9201 26.3326 23.2744 27.8915C22.6287 29.4504 22.4597 31.1657 22.7889 32.8206C23.1181 34.4755 23.9306 35.9956 25.1238 37.1888C26.3169 38.3819 27.837 39.1944 29.4919 39.5236C31.1468 39.8528 32.8621 39.6838 34.421 39.0381C35.9799 38.3924 37.3123 37.2989 38.2497 35.896C39.1872 34.493 39.6875 32.8436 39.6875 31.1562C39.6849 28.8944 38.7852 26.726 37.1859 25.1266C35.5865 23.5273 33.4181 22.6276 31.1563 22.625ZM31.1563 38.375C29.7285 38.375 28.3329 37.9516 27.1457 37.1584C25.9586 36.3652 25.0334 35.2378 24.487 33.9187C23.9406 32.5997 23.7977 31.1482 24.0762 29.7479C24.3547 28.3476 25.0423 27.0614 26.0518 26.0518C27.0614 25.0423 28.3476 24.3547 29.7479 24.0762C31.1482 23.7977 32.5997 23.9406 33.9188 24.487C35.2378 25.0334 36.3652 25.9586 37.1584 27.1457C37.9516 28.3328 38.375 29.7285 38.375 31.1562C38.3727 33.0701 37.6115 34.9049 36.2582 36.2582C34.9049 37.6115 33.0701 38.3727 31.1563 38.375Z" fill="#30353E"/>
<path id="Vector_4" d="M34.9504 28.4069L29.8461 33.5112L27.5262 31.1907C27.4024 31.0711 27.2367 31.005 27.0646 31.0065C26.8925 31.008 26.7279 31.077 26.6063 31.1987C26.4846 31.3204 26.4156 31.4849 26.4141 31.657C26.4126 31.8291 26.4787 31.9949 26.5983 32.1186L29.3821 34.9031C29.5052 35.0261 29.672 35.0952 29.8461 35.0952C30.0201 35.0952 30.187 35.0261 30.31 34.9031L35.8783 29.3348C35.9979 29.211 36.064 29.0453 36.0625 28.8732C36.061 28.7011 35.992 28.5365 35.8703 28.4149C35.7486 28.2932 35.584 28.2242 35.412 28.2227C35.2399 28.2212 35.0741 28.2873 34.9504 28.4069Z" fill="#30353E"/>
</g>
</svg>
