<svg width="30" height="40" viewBox="0 0 30 40" fill="none" xmlns="http://www.w3.org/2000/svg">
<g id="Group">
<path id="Vector" d="M29.6767 6.97663V6.97499C29.6676 6.93368 29.6534 6.89367 29.6344 6.85588C29.6296 6.84619 29.6244 6.83667 29.619 6.82733C29.5981 6.7893 29.5722 6.75431 29.5419 6.72332L23.8653 1.04675C23.8339 1.01607 23.7986 0.989602 23.7603 0.968004C23.7512 0.962759 23.7419 0.957834 23.7324 0.953238C23.6945 0.93385 23.6543 0.919509 23.6127 0.910582C23.5813 0.904744 23.5494 0.901997 23.5175 0.902379H2.82988C2.16247 0.90316 1.52262 1.16863 1.05069 1.64056C0.578755 2.11249 0.313282 2.75234 0.3125 3.41975V36.5788C0.313282 37.2462 0.578755 37.886 1.05069 38.3579C1.52262 38.8299 2.16247 39.0953 2.82988 39.0961H27.1689C27.8363 39.0953 28.4761 38.8299 28.9481 38.3579C29.42 37.886 29.6855 37.2462 29.6862 36.5788V7.07113C29.6862 7.03939 29.683 7.00773 29.6767 6.97663ZM28.0059 6.57894H24.0097V2.58271L28.0059 6.57894ZM27.1689 38.1118H2.82988C2.42343 38.1113 2.03376 37.9497 1.74636 37.6623C1.45896 37.3749 1.29731 36.9852 1.29687 36.5788V3.41975C1.29731 3.01331 1.45896 2.62364 1.74636 2.33624C2.03376 2.04884 2.42343 1.88719 2.82988 1.88675H23.0253V7.07113C23.0253 7.20166 23.0772 7.32685 23.1695 7.41916C23.2618 7.51146 23.387 7.56332 23.5175 7.56332H28.7019V36.5788C28.7014 36.9852 28.5398 37.3749 28.2524 37.6623C27.965 37.9497 27.5753 38.1113 27.1689 38.1118Z" fill="#30353E"/>
<path id="Vector_2" d="M9.99472 4.70495L9.2758 5.4242C9.18517 5.33844 9.06522 5.29056 8.94045 5.29032H4.34375C4.21321 5.29032 4.08802 5.34218 3.99572 5.43448C3.90342 5.52678 3.85156 5.65197 3.85156 5.78251V10.3792C3.85156 10.5097 3.90342 10.6349 3.99572 10.7272C4.08802 10.8195 4.21321 10.8714 4.34375 10.8714H8.94045C9.07099 10.8714 9.19618 10.8195 9.28848 10.7272C9.38079 10.6349 9.43264 10.5097 9.43264 10.3792V6.65926L10.6907 5.4009C10.7377 5.3555 10.7752 5.30119 10.801 5.24114C10.8268 5.18109 10.8403 5.1165 10.8409 5.05115C10.8415 4.9858 10.829 4.92099 10.8043 4.8605C10.7795 4.80001 10.743 4.74506 10.6968 4.69885C10.6506 4.65263 10.5956 4.61609 10.5351 4.59134C10.4746 4.56659 10.4098 4.55414 10.3445 4.55471C10.2791 4.55527 10.2145 4.56885 10.1545 4.59465C10.0944 4.62044 10.0401 4.65794 9.99472 4.70495ZM8.44827 9.88702H4.83594V6.2747H8.42497L6.92938 7.77062L6.46081 7.30173C6.36798 7.21207 6.24366 7.16246 6.11461 7.16358C5.98556 7.1647 5.86211 7.21647 5.77085 7.30772C5.6796 7.39898 5.62784 7.52243 5.62671 7.65148C5.62559 7.78053 5.6752 7.90485 5.76486 7.99768L6.58156 8.81406C6.67386 8.90633 6.79903 8.95816 6.92954 8.95816C7.06005 8.95816 7.18522 8.90633 7.27751 8.81406L8.44827 7.64331V9.88702ZM9.99472 12.8943L9.2758 13.6135C9.18517 13.5278 9.06522 13.4799 8.94045 13.4797H4.34375C4.21321 13.4797 4.08802 13.5315 3.99572 13.6238C3.90342 13.7161 3.85156 13.8413 3.85156 13.9719V18.5686C3.85156 18.6991 3.90342 18.8243 3.99572 18.9166C4.08802 19.0089 4.21321 19.0607 4.34375 19.0607H8.94045C9.07099 19.0607 9.19618 19.0089 9.28848 18.9166C9.38079 18.8243 9.43264 18.6991 9.43264 18.5686V14.8486L10.6907 13.5902C10.7377 13.5448 10.7752 13.4905 10.801 13.4305C10.8268 13.3704 10.8403 13.3058 10.8409 13.2405C10.8415 13.1751 10.829 13.1103 10.8043 13.0498C10.7795 12.9894 10.743 12.9344 10.6968 12.8882C10.6506 12.842 10.5956 12.8054 10.5351 12.7807C10.4746 12.7559 10.4098 12.7435 10.3445 12.744C10.2791 12.7446 10.2145 12.7582 10.1545 12.784C10.0944 12.8098 10.0401 12.8473 9.99472 12.8943ZM8.44827 18.0764H4.83594V14.464H8.42497L6.92938 15.96L6.46081 15.4914C6.36798 15.4017 6.24366 15.3521 6.11461 15.3533C5.98556 15.3544 5.86211 15.4061 5.77085 15.4974C5.6796 15.5886 5.62784 15.7121 5.62671 15.8411C5.62559 15.9702 5.6752 16.0945 5.76486 16.1874L6.58156 17.0037C6.67386 17.096 6.79903 17.1478 6.92954 17.1478C7.06005 17.1478 7.18522 17.096 7.27751 17.0037L8.44827 15.833V18.0764ZM9.99472 21.083L9.2758 21.8019C9.18514 21.7162 9.06518 21.6685 8.94045 21.6684H4.34375C4.21321 21.6684 4.08802 21.7202 3.99572 21.8125C3.90342 21.9048 3.85156 22.03 3.85156 22.1605V26.7595C3.85156 26.8901 3.90342 27.0153 3.99572 27.1076C4.08802 27.1999 4.21321 27.2517 4.34375 27.2517H8.94045C9.07099 27.2517 9.19618 27.1999 9.28848 27.1076C9.38079 27.0153 9.43264 26.8901 9.43264 26.7595V23.0379L10.6907 21.7799C10.7831 21.6876 10.8351 21.5624 10.8352 21.4318C10.8352 21.3012 10.7835 21.1759 10.6912 21.0835C10.5989 20.991 10.4737 20.9391 10.343 20.939C10.2124 20.9389 10.0871 20.9907 9.99472 21.083ZM8.44827 26.2673H4.83594V22.6537H8.42497L6.92938 24.1493L6.46081 23.6807C6.36798 23.5911 6.24366 23.5415 6.11461 23.5426C5.98556 23.5437 5.86211 23.5955 5.77085 23.6867C5.6796 23.778 5.62784 23.9014 5.62671 24.0305C5.62559 24.1595 5.6752 24.2839 5.76486 24.3767L6.58156 25.1931C6.67386 25.2853 6.79903 25.3372 6.92954 25.3372C7.06005 25.3372 7.18522 25.2853 7.27751 25.1931L8.44827 24.0223V26.2673ZM8.94045 29.8587H4.34375C4.21321 29.8587 4.08802 29.9105 3.99572 30.0028C3.90342 30.0951 3.85156 30.2203 3.85156 30.3509V34.9472C3.85156 35.0778 3.90342 35.203 3.99572 35.2953C4.08802 35.3876 4.21321 35.4394 4.34375 35.4394H8.94045C9.07099 35.4394 9.19618 35.3876 9.28848 35.2953C9.38079 35.203 9.43264 35.0778 9.43264 34.9472V30.3509C9.43264 30.2203 9.38079 30.0951 9.28848 30.0028C9.19618 29.9105 9.07099 29.8587 8.94045 29.8587ZM8.44827 34.4551H4.83594V30.8431H8.44827V34.4551ZM12.9511 7.48384H18.6477C18.7782 7.48384 18.9034 7.43198 18.9957 7.33968C19.088 7.24738 19.1399 7.12219 19.1399 6.99165C19.1399 6.86111 19.088 6.73592 18.9957 6.64362C18.9034 6.55132 18.7782 6.49946 18.6477 6.49946H12.9511C12.8206 6.49946 12.6954 6.55132 12.6031 6.64362C12.5108 6.73592 12.4589 6.86111 12.4589 6.99165C12.4589 7.12219 12.5108 7.24738 12.6031 7.33968C12.6954 7.43198 12.8206 7.48384 12.9511 7.48384ZM22.5019 8.67788H12.9511C12.8206 8.67788 12.6954 8.72974 12.6031 8.82204C12.5108 8.91435 12.4589 9.03953 12.4589 9.17007C12.4589 9.30061 12.5108 9.4258 12.6031 9.5181C12.6954 9.6104 12.8206 9.66226 12.9511 9.66226H22.5019C22.6324 9.66226 22.7576 9.6104 22.8499 9.5181C22.9422 9.4258 22.994 9.30061 22.994 9.17007C22.994 9.03953 22.9422 8.91435 22.8499 8.82204C22.7576 8.72974 22.6324 8.67788 22.5019 8.67788ZM12.9511 15.6732H18.6477C18.7782 15.6732 18.9034 15.6213 18.9957 15.529C19.088 15.4367 19.1399 15.3115 19.1399 15.181C19.1399 15.0505 19.088 14.9253 18.9957 14.833C18.9034 14.7407 18.7782 14.6888 18.6477 14.6888H12.9511C12.8206 14.6888 12.6954 14.7407 12.6031 14.833C12.5108 14.9253 12.4589 15.0505 12.4589 15.181C12.4589 15.3115 12.5108 15.4367 12.6031 15.529C12.6954 15.6213 12.8206 15.6732 12.9511 15.6732ZM22.5019 16.8672H12.9511C12.8206 16.8672 12.6954 16.9191 12.6031 17.0114C12.5108 17.1037 12.4589 17.2289 12.4589 17.3594C12.4589 17.49 12.5108 17.6151 12.6031 17.7074C12.6954 17.7997 12.8206 17.8516 12.9511 17.8516H22.5019C22.6324 17.8516 22.7576 17.7997 22.8499 17.7074C22.9422 17.6151 22.994 17.49 22.994 17.3594C22.994 17.2289 22.9422 17.1037 22.8499 17.0114C22.7576 16.9191 22.6324 16.8672 22.5019 16.8672ZM12.9511 23.8625H18.6477C18.7782 23.8625 18.9034 23.8107 18.9957 23.7184C19.088 23.6261 19.1399 23.5009 19.1399 23.3703C19.1399 23.2398 19.088 23.1146 18.9957 23.0223C18.9034 22.93 18.7782 22.8781 18.6477 22.8781H12.9511C12.8206 22.8781 12.6954 22.93 12.6031 23.0223C12.5108 23.1146 12.4589 23.2398 12.4589 23.3703C12.4589 23.5009 12.5108 23.6261 12.6031 23.7184C12.6954 23.8107 12.8206 23.8625 12.9511 23.8625ZM22.5019 25.0566H12.9511C12.8206 25.0566 12.6954 25.1084 12.6031 25.2007C12.5108 25.293 12.4589 25.4182 12.4589 25.5488C12.4589 25.6793 12.5108 25.8045 12.6031 25.8968C12.6954 25.9891 12.8206 26.0409 12.9511 26.0409H22.5019C22.6324 26.0409 22.7576 25.9891 22.8499 25.8968C22.9422 25.8045 22.994 25.6793 22.994 25.5488C22.994 25.4182 22.9422 25.293 22.8499 25.2007C22.7576 25.1084 22.6324 25.0566 22.5019 25.0566ZM12.9511 32.0519H18.6477C18.7782 32.0519 18.9034 32 18.9957 31.9077C19.088 31.8154 19.1399 31.6902 19.1399 31.5597C19.1399 31.4291 19.088 31.304 18.9957 31.2116C18.9034 31.1193 18.7782 31.0675 18.6477 31.0675H12.9511C12.8206 31.0675 12.6954 31.1193 12.6031 31.2116C12.5108 31.304 12.4589 31.4291 12.4589 31.5597C12.4589 31.6902 12.5108 31.8154 12.6031 31.9077C12.6954 32 12.8206 32.0519 12.9511 32.0519ZM22.5019 33.2459H12.9511C12.8206 33.2459 12.6954 33.2978 12.6031 33.3901C12.5108 33.4824 12.4589 33.6076 12.4589 33.7381C12.4589 33.8686 12.5108 33.9938 12.6031 34.0861C12.6954 34.1784 12.8206 34.2303 12.9511 34.2303H22.5019C22.6324 34.2303 22.7576 34.1784 22.8499 34.0861C22.9422 33.9938 22.994 33.8686 22.994 33.7381C22.994 33.6076 22.9422 33.4824 22.8499 33.3901C22.7576 33.2978 22.6324 33.2459 22.5019 33.2459Z" fill="#30353E"/>
</g>
</svg>
