<svg width="36" height="36" viewBox="0 0 36 36" fill="none" xmlns="http://www.w3.org/2000/svg">
<g id="Group">
<g id="Group_2">
<path id="Vector" d="M4 0.65H12.0173V2.1H4C3.49609 2.1 3.01282 2.30018 2.6565 2.6565C2.30018 3.01282 2.1 3.49609 2.1 4V12.0173H0.65V4C0.65 3.11152 1.00295 2.25944 1.63119 1.63119C2.25944 1.00295 3.11152 0.65 4 0.65ZM0.65 32V23.9827H2.1V32C2.1 32.5039 2.30018 32.9872 2.6565 33.3435C3.01282 33.6998 3.49609 33.9 4 33.9H12.0173V35.35H4C3.11152 35.35 2.25944 34.9971 1.63119 34.3688C1.00295 33.7406 0.65 32.8885 0.65 32ZM33.9 32V23.9827H35.35V32C35.35 32.8885 34.9971 33.7406 34.3688 34.3688C33.7406 34.9971 32.8885 35.35 32 35.35H23.9827V33.9H32C32.5039 33.9 32.9872 33.6998 33.3435 33.3435C33.6998 32.9872 33.9 32.5039 33.9 32ZM35.35 4V12.0173H33.9V4C33.9 3.49609 33.6998 3.01282 33.3435 2.6565C32.9872 2.30018 32.5039 2.1 32 2.1H23.9827V0.65H32C32.8885 0.65 33.7406 1.00295 34.3688 1.63119C34.9971 2.25944 35.35 3.11152 35.35 4Z" fill="#30353E" stroke="white" stroke-width="0.3"/>
<path id="Vector_2" d="M26.6 10.125C26.6 10.7814 26.3392 11.4109 25.8751 11.8751C25.4109 12.3392 24.7814 12.6 24.125 12.6C23.4686 12.6 22.8391 12.3392 22.3749 11.8751C21.9108 11.4109 21.65 10.7814 21.65 10.125C21.65 9.46859 21.9108 8.83906 22.3749 8.37491C22.8391 7.91076 23.4686 7.65 24.125 7.65C24.7814 7.65 25.4109 7.91076 25.8751 8.37491C26.3392 8.83906 26.6 9.46859 26.6 10.125ZM24.8498 10.8498C25.042 10.6576 25.15 10.3968 25.15 10.125C25.15 9.85315 25.042 9.59244 24.8498 9.40022C24.6576 9.20799 24.3968 9.1 24.125 9.1C23.8532 9.1 23.5924 9.20799 23.4002 9.40022C23.208 9.59244 23.1 9.85315 23.1 10.125C23.1 10.3968 23.208 10.6576 23.4002 10.8498C23.5924 11.042 23.8532 11.15 24.125 11.15C24.3968 11.15 24.6576 11.042 24.8498 10.8498Z" fill="#30353E" stroke="white" stroke-width="0.3"/>
<path id="Vector_3" d="M10.275 25.875C10.275 25.6827 10.3514 25.4983 10.4873 25.3623C10.6233 25.2264 10.8077 25.15 11 25.15H25C25.1923 25.15 25.3767 25.2264 25.5127 25.3623C25.6486 25.4983 25.725 25.6827 25.725 25.875C25.725 26.0673 25.6486 26.2517 25.5127 26.3877C25.3767 26.5236 25.1923 26.6 25 26.6H11C10.8077 26.6 10.6233 26.5236 10.4873 26.3877C10.3514 26.2517 10.275 26.0673 10.275 25.875ZM10.4873 20.1123C10.6233 19.9764 10.8077 19.9 11 19.9H25C25.1923 19.9 25.3767 19.9764 25.5127 20.1123C25.6486 20.2483 25.725 20.4327 25.725 20.625C25.725 20.8173 25.6486 21.0017 25.5127 21.1377C25.3767 21.2736 25.1923 21.35 25 21.35H11C10.8077 21.35 10.6233 21.2736 10.4873 21.1377C10.3514 21.0017 10.275 20.8173 10.275 20.625C10.275 20.4327 10.3514 20.2483 10.4873 20.1123ZM10.275 15.375C10.275 15.1827 10.3514 14.9983 10.4873 14.8623C10.6233 14.7264 10.8077 14.65 11 14.65H25C25.1923 14.65 25.3767 14.7264 25.5127 14.8623C25.6486 14.9983 25.725 15.1827 25.725 15.375C25.725 15.5673 25.6486 15.7517 25.5127 15.8877C25.3767 16.0236 25.1923 16.1 25 16.1H11C10.8077 16.1 10.6233 16.0236 10.4873 15.8877C10.3514 15.7517 10.275 15.5673 10.275 15.375ZM10.4873 9.61235C10.6233 9.47638 10.8077 9.4 11 9.4H18.875C19.0673 9.4 19.2517 9.47638 19.3877 9.61235C19.5236 9.74831 19.6 9.93272 19.6 10.125C19.6 10.3173 19.5236 10.5017 19.3877 10.6377C19.2517 10.7736 19.0673 10.85 18.875 10.85H11C10.8077 10.85 10.6233 10.7736 10.4873 10.6377C10.3514 10.5017 10.275 10.3173 10.275 10.125C10.275 9.93272 10.3514 9.74831 10.4873 9.61235Z" fill="#30353E" stroke="white" stroke-width="0.3"/>
<path id="Vector_4" d="M6.88119 5.13119C7.50944 4.50295 8.36152 4.15 9.25 4.15H26.75C27.6385 4.15 28.4906 4.50295 29.1188 5.13119C29.7471 5.75944 30.1 6.61152 30.1 7.5V28.5C30.1 29.3885 29.7471 30.2406 29.1188 30.8688C28.4906 31.4971 27.6385 31.85 26.75 31.85H9.25C8.36152 31.85 7.50944 31.4971 6.88119 30.8688C6.25295 30.2406 5.9 29.3885 5.9 28.5V7.5C5.9 6.61152 6.25295 5.75944 6.88119 5.13119ZM26.75 5.6H9.25C8.74609 5.6 8.26282 5.80018 7.9065 6.1565C7.55018 6.51282 7.35 6.99609 7.35 7.5V28.5C7.35 29.0039 7.55018 29.4872 7.9065 29.8435C8.26282 30.1998 8.74609 30.4 9.25 30.4H26.75C27.2539 30.4 27.7372 30.1998 28.0935 29.8435C28.4498 29.4872 28.65 29.0039 28.65 28.5V7.5C28.65 6.99609 28.4498 6.51282 28.0935 6.1565C27.7372 5.80018 27.2539 5.6 26.75 5.6Z" fill="#30353E" stroke="white" stroke-width="0.3"/>
</g>
</g>
</svg>
