<svg width="41" height="42" viewBox="0 0 41 42" fill="none" xmlns="http://www.w3.org/2000/svg">
<path d="M30.3197 41.3464H6.40557C4.7074 41.3441 3.07943 40.6685 1.87865 39.4677C0.677856 38.2669 0.00225971 36.639 0 34.9408V11.0267C0.00225971 9.3285 0.677856 7.70053 1.87865 6.49974C3.07943 5.29895 4.7074 4.62335 6.40557 4.62109H16.6545C16.9943 4.62109 17.3201 4.75607 17.5604 4.99632C17.8006 5.23658 17.9356 5.56244 17.9356 5.90221C17.9356 6.24198 17.8006 6.56784 17.5604 6.80809C17.3201 7.04835 16.9943 7.18332 16.6545 7.18332H6.40557C5.38667 7.18468 4.40989 7.59004 3.68942 8.31051C2.96894 9.03098 2.56359 10.0078 2.56223 11.0267V34.9408C2.56359 35.9597 2.96894 36.9365 3.68942 37.657C4.40989 38.3774 5.38667 38.7828 6.40557 38.7842H30.3197C31.3386 38.7828 32.3154 38.3774 33.0359 37.657C33.7563 36.9365 34.1617 35.9597 34.1631 34.9408V24.6919C34.1631 24.3521 34.298 24.0263 34.5383 23.786C34.7785 23.5457 35.1044 23.4108 35.4442 23.4108C35.784 23.4108 36.1098 23.5457 36.3501 23.786C36.5903 24.0263 36.7253 24.3521 36.7253 24.6919V34.9408C36.723 36.639 36.0474 38.2669 34.8466 39.4677C33.6459 40.6685 32.0179 41.3441 30.3197 41.3464Z" fill="#29B3FF"/>
<path d="M6.40557 6.98332L6.40531 6.98332C5.33346 6.98475 4.30591 7.41117 3.548 8.16909C2.79008 8.927 2.36366 9.95455 2.36223 11.0264V11.0267L2.36223 34.9408L2.36223 34.9411C2.36366 36.0129 2.79008 37.0405 3.548 37.7984C4.30591 38.5563 5.33346 38.9827 6.40531 38.9842H6.40557H30.3197H30.32C31.3918 38.9827 32.4194 38.5563 33.1773 37.7984C33.9352 37.0405 34.3616 36.0129 34.3631 34.9411V34.9408V24.6919C34.3631 24.4052 34.477 24.1302 34.6797 23.9274C34.8825 23.7247 35.1575 23.6108 35.4442 23.6108C35.7309 23.6108 36.0059 23.7247 36.2086 23.9274C36.4114 24.1302 36.5253 24.4052 36.5253 24.6919V34.9405C36.5231 36.5858 35.8686 38.163 34.7052 39.3263C33.5419 40.4897 31.9647 41.1442 30.3195 41.1464H6.40584C4.76062 41.1442 3.18341 40.4897 2.02007 39.3263C0.856751 38.163 0.202224 36.5858 0.2 34.9407V11.0268C0.202224 9.38163 0.856751 7.80447 2.02007 6.64116C3.18338 5.47784 4.76054 4.82332 6.40571 4.82109H16.6545C16.9412 4.82109 17.2162 4.935 17.419 5.13774C17.6217 5.34049 17.7356 5.61548 17.7356 5.90221C17.7356 6.18894 17.6217 6.46392 17.419 6.66667C17.2162 6.86942 16.9412 6.98332 16.6545 6.98332L6.40557 6.98332Z" fill="#30353E" stroke="#F4F8FF" stroke-width="0.4"/>
<path d="M15.343 24.0503C16.6632 22.3881 18.3392 21.0428 20.2478 20.1134C22.1564 19.184 24.2491 18.6941 26.372 18.6798L26.5734 18.6784V18.8798V24.4313V24.4317C26.5729 24.6386 26.6319 24.8413 26.7434 25.0156C26.8548 25.1899 27.014 25.3285 27.202 25.4149C27.39 25.5013 27.5988 25.5319 27.8037 25.5029C28.0086 25.474 28.2008 25.3868 28.3575 25.2517L28.3579 25.2514L40.3149 15.0026L15.343 24.0503ZM15.343 24.0503C15.3429 24.0504 15.3428 24.0506 15.3427 24.0507L13.1234 26.8196C13.1233 26.8198 13.1232 26.8199 13.123 26.8201C13.0214 26.9452 12.8931 27.046 12.7476 27.1153C12.6019 27.1846 12.4425 27.2206 12.2812 27.2206C12.1593 27.2203 12.0383 27.1999 11.9232 27.1599C11.7118 27.0858 11.5287 26.9478 11.3992 26.7651C11.2696 26.5823 11.1999 26.3636 11.2 26.1395V26.1394V24.4314C11.2052 20.2878 12.7712 16.2983 15.586 13.2576C18.4009 10.2169 22.2581 8.34824 26.389 8.02401L26.5734 8.00955V7.82463V2.22548C26.5736 2.01179 26.6371 1.80295 26.7559 1.62534C26.8747 1.44773 27.0435 1.3093 27.2409 1.22755C27.4383 1.14581 27.6556 1.1244 27.8652 1.16603C28.0747 1.20766 28.2672 1.31044 28.4184 1.4614L15.343 24.0503ZM28.4185 1.46149L40.3755 13.4185L40.376 13.419C40.4814 13.5236 40.5639 13.649 40.6181 13.7873C40.6724 13.9255 40.6973 14.0736 40.6911 14.222L40.6911 14.2227C40.6855 14.3716 40.6492 14.5177 40.5845 14.6519L40.7646 14.7388L40.5845 14.6519C40.5198 14.7861 40.428 14.9054 40.315 15.0025L28.4185 1.46149ZM29.077 5.17731L28.7356 4.83612V5.31877V9.05791C28.7356 9.34464 28.6217 9.61963 28.419 9.82238C28.2162 10.0251 27.9412 10.139 27.6545 10.139H27.6543C24.2401 10.1432 20.94 11.3676 18.3494 13.5913C15.7587 15.815 14.0483 18.8915 13.5269 22.2656L13.4165 22.9796L13.8783 22.4239C15.4181 20.5713 17.3478 19.0813 19.5297 18.0603C21.7117 17.0394 24.0921 16.5126 26.5011 16.5176H26.5015H27.6545C27.9412 16.5176 28.2162 16.6315 28.419 16.8342C28.6217 17.037 28.7356 17.312 28.7356 17.5987V21.6453V22.0799L29.0657 21.7972L37.8627 14.2625L38.0268 14.1219L37.874 13.9692L29.077 5.17731Z" fill="#005AFF" stroke="#F4F8FF" stroke-width="0.4"/>
</svg>
