<svg width="34" height="42" viewBox="0 0 34 42" fill="none" xmlns="http://www.w3.org/2000/svg">
<g id="Group">
<g id="Outline">
<path id="Vector" d="M10.5123 1.56174e-05C10.0595 -0.00135206 9.61096 0.0871231 9.19259 0.260318C8.77422 0.433512 8.39436 0.687985 8.07502 1.009L1.27496 7.80939C0.953749 8.12861 0.699129 8.50843 0.525869 8.92683C0.352608 9.34522 0.264155 9.79385 0.265643 10.2467V38.5547C0.266686 39.4681 0.630007 40.3439 1.2759 40.9898C1.9218 41.6356 2.79752 41.999 3.71096 42H30.2891C31.2025 41.999 32.0782 41.6356 32.7241 40.9898C33.37 40.3439 33.7334 39.4681 33.7344 38.5547V3.44533C33.7334 2.53189 33.37 1.65617 32.7241 1.01028C32.0782 0.36438 31.2025 0.00105776 30.2891 1.56174e-05H10.5123ZM1.97189 8.50666L8.77196 1.70627C8.78016 1.69839 8.78869 1.69183 8.79689 1.68395V7.0547C8.79646 7.44618 8.64075 7.8215 8.36394 8.09831C8.08712 8.37513 7.71181 8.53083 7.32033 8.53126H1.9486C1.95614 8.52339 1.96303 8.51453 1.97189 8.50666ZM32.75 3.44533V38.5547C32.7493 39.2072 32.4898 39.8327 32.0285 40.2941C31.5671 40.7554 30.9416 41.0149 30.2891 41.0156H3.71096C3.05849 41.0149 2.43294 40.7554 1.97158 40.2941C1.51021 39.8327 1.25071 39.2072 1.25002 38.5547V10.2467C1.24989 9.99884 1.28717 9.75238 1.3606 9.51564H7.32033C7.9728 9.51494 8.59834 9.25545 9.05971 8.79408C9.52107 8.33272 9.78057 7.70717 9.78127 7.0547V1.09497C10.018 1.02154 10.2645 0.984258 10.5123 0.984391H30.2891C30.9416 0.985085 31.5671 1.24459 32.0285 1.70595C32.4898 2.16731 32.7493 2.79286 32.75 3.44533Z" fill="#30353E"/>
<path id="Vector_2" d="M28.6484 21H5.35156C4.96009 21.0004 4.58477 21.1561 4.30795 21.433C4.03114 21.7098 3.87543 22.0851 3.875 22.4766V37.2422C3.87543 37.6337 4.03114 38.009 4.30795 38.2858C4.58477 38.5626 4.96009 38.7183 5.35156 38.7188H28.6484C29.0399 38.7183 29.4152 38.5626 29.692 38.2858C29.9689 38.009 30.1246 37.6337 30.125 37.2422V22.4766C30.1246 22.0851 29.9689 21.7098 29.692 21.433C29.4152 21.1561 29.0399 21.0004 28.6484 21ZM9.125 37.7344H5.35156C5.22103 37.7344 5.09584 37.6825 5.00353 37.5902C4.91123 37.4979 4.85938 37.3727 4.85938 37.2422V34.4531H9.125V37.7344ZM9.125 33.4688H4.85938V30.1875H9.125V33.4688ZM9.125 29.2031H4.85938V26.25H9.125V29.2031ZM9.125 25.2656H4.85938V22.4766C4.85938 22.346 4.91123 22.2208 5.00353 22.1285C5.09584 22.0362 5.22103 21.9844 5.35156 21.9844H9.125V25.2656ZM21.9219 37.7344H10.1094V34.4531H21.9219V37.7344ZM21.9219 33.4688H10.1094V30.1875H21.9219V33.4688ZM21.9219 29.2031H10.1094V26.25H21.9219V29.2031ZM21.9219 25.2656H10.1094V21.9844H21.9219V25.2656ZM25.5312 37.7344H22.9062V34.4531H25.5312V37.7344ZM25.5312 33.4688H22.9062V30.1875H25.5312V33.4688ZM25.5312 29.2031H22.9062V26.25H25.5312V29.2031ZM25.5312 25.2656H22.9062V21.9844H25.5312V25.2656ZM29.1406 37.2422C29.1406 37.3727 29.0888 37.4979 28.9965 37.5902C28.9042 37.6825 28.779 37.7344 28.6484 37.7344H26.5156V34.4531H29.1406V37.2422ZM29.1406 33.4688H26.5156V30.1875H29.1406V33.4688ZM29.1406 29.2031H26.5156V26.25H29.1406V29.2031ZM29.1406 25.2656H26.5156V21.9844H28.6484C28.779 21.9844 28.9042 22.0362 28.9965 22.1285C29.0888 22.2208 29.1406 22.346 29.1406 22.4766V25.2656ZM23.3984 2.625C23.2679 2.625 23.1427 2.67686 23.0504 2.76916C22.9581 2.86146 22.9062 2.98665 22.9062 3.11719C22.9062 3.24772 22.9581 3.37291 23.0504 3.46522C23.1427 3.55752 23.2679 3.60938 23.3984 3.60938H30.2891C30.4196 3.60937 30.5448 3.55752 30.6371 3.46522C30.7294 3.37291 30.7812 3.24772 30.7812 3.11719C30.7812 2.98665 30.7294 2.86146 30.6371 2.76916C30.5448 2.67686 30.4196 2.625 30.2891 2.625H23.3984ZM30.2891 6.23438C30.4196 6.23438 30.5448 6.18252 30.6371 6.09022C30.7294 5.99791 30.7812 5.87272 30.7812 5.74219C30.7812 5.61165 30.7294 5.48646 30.6371 5.39416C30.5448 5.30186 30.4196 5.25 30.2891 5.25H26.0234C25.8929 5.25 25.7677 5.30186 25.6754 5.39416C25.5831 5.48646 25.5312 5.61165 25.5312 5.74219C25.5312 5.87272 25.5831 5.99791 25.6754 6.09022C25.7677 6.18252 25.8929 6.23438 26.0234 6.23438H30.2891ZM23.7266 13.8797V14.6672C23.7272 15.2153 23.9452 15.7407 24.3327 16.1282C24.7202 16.5158 25.2457 16.7338 25.7938 16.7344H26.5156C26.6462 16.7344 26.7714 16.6825 26.8637 16.5902C26.956 16.4979 27.0078 16.3727 27.0078 16.2422C27.0078 16.1117 26.956 15.9865 26.8637 15.8942C26.7714 15.8019 26.6462 15.75 26.5156 15.75H25.7938C25.5066 15.75 25.2312 15.6359 25.0281 15.4329C24.825 15.2298 24.7109 14.9544 24.7109 14.6672V13.8797C24.7109 13.5925 24.825 13.3171 25.0281 13.114C25.2312 12.911 25.5066 12.7969 25.7938 12.7969H26.5156C26.6462 12.7969 26.7714 12.745 26.8637 12.6527C26.956 12.5604 27.0078 12.4352 27.0078 12.3047C27.0078 12.1742 26.956 12.049 26.8637 11.9567C26.7714 11.8644 26.6462 11.8125 26.5156 11.8125H25.7938C25.2457 11.8131 24.7202 12.0311 24.3327 12.4186C23.9452 12.8062 23.7272 13.3316 23.7266 13.8797ZM28.9438 11.8125C28.6045 11.8129 28.2792 11.9479 28.0394 12.1878C27.7995 12.4277 27.6645 12.7529 27.6641 13.0922V15.4547C27.6645 15.7939 27.7995 16.1192 28.0394 16.3591C28.2792 16.599 28.6045 16.7339 28.9438 16.7344H30.4531C30.5837 16.7344 30.7089 16.6825 30.8012 16.5902C30.8935 16.4979 30.9453 16.3727 30.9453 16.2422C30.9453 16.1117 30.8935 15.9865 30.8012 15.8942C30.7089 15.8019 30.5837 15.75 30.4531 15.75H28.9438C28.8654 15.75 28.7903 15.7189 28.7349 15.6635C28.6796 15.6081 28.6484 15.533 28.6484 15.4547V14.7656H30.4531C30.5837 14.7656 30.7089 14.7138 30.8012 14.6215C30.8935 14.5292 30.9453 14.404 30.9453 14.2734C30.9453 14.1429 30.8935 14.0177 30.8012 13.9254C30.7089 13.8331 30.5837 13.7812 30.4531 13.7812H28.6484V13.0922C28.6484 13.0139 28.6796 12.9388 28.7349 12.8834C28.7903 12.828 28.8654 12.7969 28.9438 12.7969H30.4531C30.5837 12.7969 30.7089 12.745 30.8012 12.6527C30.8935 12.5604 30.9453 12.4352 30.9453 12.3047C30.9453 12.1742 30.8935 12.049 30.8012 11.9567C30.7089 11.8644 30.5837 11.8125 30.4531 11.8125H28.9438ZM20.2812 15.75C20.1507 15.75 20.0255 15.8019 19.9332 15.8942C19.8409 15.9865 19.7891 16.1117 19.7891 16.2422C19.7891 16.3727 19.8409 16.4979 19.9332 16.5902C20.0255 16.6825 20.1507 16.7344 20.2812 16.7344H22.5781C22.7087 16.7344 22.8339 16.6825 22.9262 16.5902C23.0185 16.4979 23.0703 16.3727 23.0703 16.2422C23.0703 16.1117 23.0185 15.9865 22.9262 15.8942C22.8339 15.8019 22.7087 15.75 22.5781 15.75H21.9219V12.7969H22.5781C22.7087 12.7969 22.8339 12.745 22.9262 12.6527C23.0185 12.5604 23.0703 12.4352 23.0703 12.3047C23.0703 12.1742 23.0185 12.049 22.9262 11.9567C22.8339 11.8644 22.7087 11.8125 22.5781 11.8125H20.2812C20.1507 11.8125 20.0255 11.8644 19.9332 11.9567C19.8409 12.049 19.7891 12.1742 19.7891 12.3047C19.7891 12.4352 19.8409 12.5604 19.9332 12.6527C20.0255 12.745 20.1507 12.7969 20.2812 12.7969H20.9375V15.75H20.2812ZM17.4922 16.7344C17.9271 16.7339 18.3441 16.5608 18.6517 16.2533C18.9593 15.9457 19.1323 15.5287 19.1328 15.0938V13.4531C19.1328 13.018 18.96 12.6007 18.6523 12.293C18.3446 11.9854 17.9273 11.8125 17.4922 11.8125C17.0571 11.8125 16.6398 11.9854 16.3321 12.293C16.0244 12.6007 15.8516 13.018 15.8516 13.4531V15.0938C15.8521 15.5287 16.0251 15.9457 16.3327 16.2533C16.6402 16.5608 17.0572 16.7339 17.4922 16.7344ZM16.8359 13.4531C16.8359 13.2791 16.9051 13.1122 17.0281 12.9891C17.1512 12.866 17.3181 12.7969 17.4922 12.7969C17.6662 12.7969 17.8332 12.866 17.9562 12.9891C18.0793 13.1122 18.1484 13.2791 18.1484 13.4531V15.0938C18.1484 15.2678 18.0793 15.4347 17.9562 15.5578C17.8332 15.6809 17.6662 15.75 17.4922 15.75C17.3181 15.75 17.1512 15.6809 17.0281 15.5578C16.9051 15.4347 16.8359 15.2678 16.8359 15.0938V13.4531ZM12.4693 16.2625C12.5315 16.4121 12.6367 16.5399 12.7714 16.6297C12.9062 16.7196 13.0646 16.7676 13.2266 16.7676C13.3886 16.7676 13.5469 16.7196 13.6817 16.6297C13.8165 16.5399 13.9216 16.4121 13.9839 16.2625L14.7533 14.4149C14.8286 14.235 14.8673 14.0419 14.8672 13.8469V12.3047C14.8672 12.1742 14.8153 12.049 14.723 11.9567C14.6307 11.8644 14.5055 11.8125 14.375 11.8125C14.2445 11.8125 14.1193 11.8644 14.027 11.9567C13.9347 12.049 13.8828 12.1742 13.8828 12.3047V13.8469C13.8829 13.9118 13.8699 13.976 13.8447 14.0359L13.2266 15.5203L12.608 14.0362C12.5831 13.9762 12.5703 13.9119 12.5703 13.8469V12.3047C12.5703 12.1742 12.5185 12.049 12.4262 11.9567C12.3339 11.8644 12.2087 11.8125 12.0781 11.8125C11.9476 11.8125 11.8224 11.8644 11.7301 11.9567C11.6378 12.049 11.5859 12.1742 11.5859 12.3047V13.8469C11.5858 14.0418 11.6244 14.2349 11.6995 14.4149L12.4693 16.2625ZM6.33594 16.2422C6.33594 16.1117 6.28408 15.9865 6.19178 15.8942C6.09948 15.8019 5.97429 15.75 5.84375 15.75H5.1875V12.7969H5.84375C5.97429 12.7969 6.09948 12.745 6.19178 12.6527C6.28408 12.5604 6.33594 12.4352 6.33594 12.3047C6.33594 12.1742 6.28408 12.049 6.19178 11.9567C6.09948 11.8644 5.97429 11.8125 5.84375 11.8125H3.54688C3.41634 11.8125 3.29115 11.8644 3.19885 11.9567C3.10654 12.049 3.05469 12.1742 3.05469 12.3047C3.05469 12.4352 3.10654 12.5604 3.19885 12.6527C3.29115 12.745 3.41634 12.7969 3.54688 12.7969H4.20312V15.75H3.54688C3.41634 15.75 3.29115 15.8019 3.19885 15.8942C3.10654 15.9865 3.05469 16.1117 3.05469 16.2422C3.05469 16.3727 3.10654 16.4979 3.19885 16.5902C3.29115 16.6825 3.41634 16.7344 3.54688 16.7344H5.84375C5.97429 16.7344 6.09948 16.6825 6.19178 16.5902C6.28408 16.4979 6.33594 16.3727 6.33594 16.2422ZM7.8125 16.7344C7.94304 16.7344 8.06823 16.6825 8.16053 16.5902C8.25283 16.4979 8.30469 16.3727 8.30469 16.2422V14.0109L9.34517 16.3462C9.40595 16.4836 9.51202 16.596 9.64568 16.6646C9.77933 16.7332 9.93248 16.7538 10.0795 16.7231C10.2266 16.6924 10.3586 16.6121 10.4537 16.4957C10.5487 16.3794 10.6009 16.2339 10.6016 16.0837V12.3047C10.6016 12.1742 10.5497 12.049 10.4574 11.9567C10.3651 11.8644 10.2399 11.8125 10.1094 11.8125C9.97884 11.8125 9.85365 11.8644 9.76135 11.9567C9.66904 12.049 9.61719 12.1742 9.61719 12.3047V14.5359L8.5767 12.2007C8.51593 12.0633 8.40985 11.9509 8.2762 11.8823C8.14254 11.8137 7.9894 11.7931 7.84234 11.8238C7.69529 11.8545 7.56323 11.9348 7.46822 12.0511C7.37321 12.1675 7.321 12.3129 7.32031 12.4632V16.2422C7.32031 16.3727 7.37217 16.4979 7.46447 16.5902C7.55677 16.6825 7.68196 16.7344 7.8125 16.7344Z" fill="#30353E"/>
</g>
</g>
</svg>
