<svg width="38" height="44" viewBox="0 0 38 44" fill="none" xmlns="http://www.w3.org/2000/svg">
<g id="Group">
<path id="Vector" d="M0.156262 24.8437C0.152944 27.8319 0.864832 30.7774 2.23244 33.4343C3.60005 36.0911 5.58366 38.382 8.01752 40.1156C10.4514 41.8493 13.2648 42.9752 16.2227 43.3994C19.1806 43.8236 22.1971 43.5337 25.0201 42.5539C27.843 41.5742 30.3905 39.9331 32.4497 37.7676C34.5088 35.6022 36.0198 32.9755 36.8564 30.1068C37.693 27.2381 37.8309 24.2109 37.2586 21.2781C36.6862 18.3452 35.4203 15.592 33.5665 13.2483L34.6765 12.1383C35.0911 12.4249 35.5979 12.546 36.0972 12.4777C36.5965 12.4094 37.0523 12.1568 37.3747 11.7694C37.6971 11.3821 37.863 10.8882 37.8396 10.3847C37.8162 9.88129 37.6052 9.40484 37.2483 9.04909L34.9821 6.78334C34.6264 6.42698 34.1502 6.21652 33.6472 6.1933C33.1441 6.17008 32.6506 6.33578 32.2635 6.65785C31.8764 6.97992 31.6237 7.43509 31.5551 7.93395C31.4864 8.43281 31.6068 8.93931 31.8925 9.35397L30.8174 10.4291C27.9839 8.07282 24.5156 6.60941 20.8506 6.22384V4.66909C21.2985 4.63738 21.7177 4.43744 22.0243 4.10941C22.3308 3.78139 22.5019 3.34955 22.5033 2.90059V1.80859C22.5027 1.33636 22.3148 0.883638 21.9809 0.549717C21.647 0.215797 21.1942 0.0279391 20.722 0.0273438H17.0399C16.5677 0.0279391 16.1149 0.215797 15.781 0.549717C15.4471 0.883638 15.2592 1.33636 15.2586 1.80859V2.89947C15.2599 3.34875 15.4313 3.78089 15.7382 4.10899C16.0452 4.43708 16.4649 4.63679 16.9131 4.66797V6.22234C12.3155 6.71386 8.06156 8.88689 4.9686 12.324C1.87564 15.7611 0.161783 20.2199 0.156262 24.8437ZM33.0535 7.71147C33.1191 7.64566 33.1971 7.59345 33.283 7.55782C33.3688 7.5222 33.4608 7.50386 33.5538 7.50386C33.6467 7.50386 33.7387 7.5222 33.8246 7.55782C33.9104 7.59345 33.9884 7.64566 34.054 7.71147L36.3201 9.97722C36.4527 10.11 36.5271 10.2899 36.5271 10.4775C36.5271 10.6651 36.4527 10.845 36.3201 10.9777C36.1853 11.1063 36.0062 11.178 35.8199 11.178C35.6336 11.178 35.4545 11.1063 35.3196 10.9777L33.0535 8.71159C32.9212 8.57882 32.8469 8.399 32.8469 8.21153C32.8469 8.02407 32.9212 7.84425 33.0535 7.71147ZM32.794 10.3083L33.7225 11.2365L32.7171 12.2415C32.4206 11.9188 32.1135 11.6062 31.7961 11.304L32.794 10.3083ZM16.5711 2.90059V1.80859C16.5713 1.68433 16.6208 1.56522 16.7086 1.47736C16.7965 1.38949 16.9156 1.34004 17.0399 1.33984H20.7231C20.8474 1.34004 20.9665 1.38949 21.0544 1.47736C21.1422 1.56522 21.1917 1.68433 21.1919 1.80859V2.89947C21.1918 3.02376 21.1424 3.14293 21.0545 3.23082C20.9666 3.3187 20.8474 3.36812 20.7231 3.36822H17.0399C16.9158 3.36812 16.7968 3.31886 16.7089 3.23121C16.6211 3.14357 16.5715 3.02469 16.5711 2.90059ZM18.2256 4.68184H19.5381V6.13609C19.1009 6.11378 18.6629 6.11378 18.2256 6.13609V4.68184ZM18.8808 7.43359C22.3246 7.43359 25.6911 8.45484 28.5545 10.3682C31.418 12.2815 33.6497 15.001 34.9675 18.1827C36.2854 21.3645 36.6301 24.8655 35.9581 28.2432C35.2861 31.6208 33.6275 34.7234 31.1922 37.1584C28.7569 39.5934 25.6542 41.2516 22.2765 41.9233C18.8988 42.5949 15.3978 42.2498 12.2162 40.9316C9.03458 39.6135 6.31533 37.3815 4.4023 34.5178C2.48927 31.6542 1.46839 28.2876 1.46876 24.8437C1.47452 20.2277 3.3109 15.8024 6.57509 12.5386C9.83928 9.27476 14.2648 7.43885 18.8808 7.43359Z" fill="#30353E"/>
<path id="Vector_2" d="M18.8841 27.4083C19.5069 27.4085 20.1083 27.1821 20.5763 26.7713C21.0443 26.3605 21.3468 25.7934 21.4273 25.1759C21.5078 24.5584 21.3608 23.9327 21.0138 23.4157C20.6668 22.8986 20.1435 22.5255 19.5415 22.3661V16.3203C19.5415 16.1463 19.4724 15.9793 19.3493 15.8563C19.2262 15.7332 19.0593 15.6641 18.8853 15.6641C18.7112 15.6641 18.5443 15.7332 18.4212 15.8563C18.2982 15.9793 18.229 16.1463 18.229 16.3203V22.3657C17.6269 22.5248 17.1034 22.8977 16.756 23.4146C16.4087 23.9315 16.2615 24.5572 16.3417 25.1748C16.4219 25.7923 16.7242 26.3596 17.1921 26.7706C17.6599 27.1816 18.2614 27.4083 18.8841 27.4083ZM18.8778 23.5908H18.892C19.2238 23.5927 19.5413 23.7261 19.7748 23.9616C20.0084 24.1972 20.1391 24.5158 20.1381 24.8476C20.1372 25.1794 20.0047 25.4972 19.7698 25.7315C19.5349 25.9657 19.2167 26.0973 18.8849 26.0973C18.5531 26.0973 18.2349 25.9657 18 25.7315C17.765 25.4972 17.6326 25.1794 17.6316 24.8476C17.6307 24.5158 17.7614 24.1972 17.9949 23.9616C18.2285 23.7261 18.546 23.5927 18.8778 23.5908Z" fill="#30353E"/>
<path id="Vector_3" d="M3.90644 24.8424C3.89657 26.8152 4.2766 28.7704 5.02471 30.5959C5.77281 32.4213 6.87424 34.0809 8.26572 35.4794C9.65719 36.8778 11.3113 37.9876 13.133 38.7448C14.9546 39.502 16.908 39.8918 18.8807 39.8918C20.8535 39.8918 22.8069 39.502 24.6285 38.7448C26.4502 37.9876 28.1043 36.8778 29.4958 35.4794C30.8873 34.0809 31.9887 32.4213 32.7368 30.5959C33.4849 28.7704 33.8649 26.8152 33.8551 24.8424C33.8649 22.8696 33.4849 20.9144 32.7368 19.0889C31.9887 17.2635 30.8873 15.6039 29.4958 14.2054C28.1043 12.807 26.4502 11.6972 24.6285 10.94C22.8069 10.1828 20.8535 9.79297 18.8807 9.79297C16.908 9.79297 14.9546 10.1828 13.133 10.94C11.3113 11.6972 9.65719 12.807 8.26572 14.2054C6.87424 15.6039 5.77281 17.2635 5.02471 19.0889C4.2766 20.9144 3.89657 22.8696 3.90644 24.8424ZM6.60644 24.1862H5.23544C5.38543 21.0195 6.63612 18.0046 8.77169 15.6617L9.73881 16.6284C9.86261 16.7479 10.0284 16.814 10.2005 16.8125C10.3725 16.811 10.5371 16.7419 10.6588 16.6202C10.7804 16.4985 10.8494 16.3339 10.8508 16.1618C10.8523 15.9898 10.7861 15.824 10.6666 15.7003L9.69981 14.7335C12.0427 12.5979 15.0577 11.3472 18.2243 11.1973V12.5698C18.2243 12.7438 18.2935 12.9107 18.4165 13.0338C18.5396 13.1569 18.7065 13.226 18.8806 13.226C19.0546 13.226 19.2215 13.1569 19.3446 13.0338C19.4677 12.9107 19.5368 12.7438 19.5368 12.5698V11.1973C22.7036 11.3472 25.7186 12.5979 28.0617 14.7335L27.0949 15.7003C26.9754 15.824 26.9092 15.9898 26.9107 16.1618C26.9121 16.3339 26.9811 16.4985 27.1027 16.6202C27.2244 16.7419 27.389 16.811 27.561 16.8125C27.7331 16.814 27.8989 16.7479 28.0227 16.6284L28.9894 15.6617C31.1253 18.0044 32.3762 21.0194 32.5261 24.1862H31.1532C30.9791 24.1862 30.8122 24.2553 30.6891 24.3784C30.5661 24.5014 30.4969 24.6684 30.4969 24.8424C30.4969 25.0165 30.5661 25.1834 30.6891 25.3064C30.8122 25.4295 30.9791 25.4987 31.1532 25.4987H32.5261C32.3762 28.6655 31.1253 31.6806 28.9894 34.0235L28.0227 33.0564C27.8989 32.9369 27.7331 32.8708 27.561 32.8723C27.389 32.8738 27.2244 32.9429 27.1027 33.0646C26.9811 33.1863 26.9121 33.3509 26.9107 33.523C26.9092 33.695 26.9754 33.8608 27.0949 33.9845L28.0617 34.9517C25.7186 37.0873 22.7036 38.338 19.5368 38.4879V37.1154C19.5368 36.9414 19.4677 36.7744 19.3446 36.6514C19.2215 36.5283 19.0546 36.4592 18.8806 36.4592C18.7065 36.4592 18.5396 36.5283 18.4165 36.6514C18.2935 36.7744 18.2243 36.9414 18.2243 37.1154V38.4879C15.0576 38.338 12.0426 37.0872 9.69981 34.9513L10.6666 33.9845C10.7861 33.8608 10.8523 33.695 10.8508 33.523C10.8494 33.3509 10.7804 33.1863 10.6588 33.0646C10.5371 32.9429 10.3725 32.8738 10.2005 32.8723C10.0284 32.8708 9.86261 32.9369 9.73881 33.0564L8.77169 34.0232C6.63607 31.6802 5.38536 28.6653 5.23544 25.4987H6.60794C6.78199 25.4987 6.94891 25.4295 7.07198 25.3064C7.19505 25.1834 7.26419 25.0165 7.26419 24.8424C7.26419 24.6684 7.19505 24.5014 7.07198 24.3784C6.94891 24.2553 6.78199 24.1862 6.60794 24.1862H6.60644Z" fill="#005AFF"/>
</g>
</svg>
