<svg width="38" height="42" viewBox="0 0 38 42" fill="none" xmlns="http://www.w3.org/2000/svg">
<g id="Group">
<path id="Vector" d="M19.054 22.923C18.9765 22.906 18.8964 22.9033 18.8179 22.9149C18.0291 22.8231 17.434 22.1557 17.4327 21.3618C17.4327 21.1791 17.3601 21.0039 17.2309 20.8747C17.1017 20.7455 16.9264 20.6729 16.7437 20.6729C16.561 20.6729 16.3858 20.7455 16.2566 20.8747C16.1274 21.0039 16.0548 21.1791 16.0548 21.3618C16.0569 22.6875 16.9435 23.8488 18.2218 24.1996V24.8885C18.2218 25.0712 18.2944 25.2465 18.4236 25.3757C18.5528 25.5048 18.728 25.5774 18.9107 25.5774C19.0934 25.5774 19.2687 25.5048 19.3979 25.3757C19.5271 25.2465 19.5997 25.0712 19.5997 24.8885V24.2413C21.0751 23.9325 22.0778 22.5583 21.9228 21.0591C21.7673 19.5598 20.5042 18.4205 18.9968 18.4201C18.133 18.4201 17.4327 17.7198 17.4327 16.8559C17.4327 15.9921 18.133 15.2917 18.9968 15.2917C19.8607 15.2917 20.561 15.992 20.561 16.8559C20.561 17.0387 20.6336 17.2139 20.7628 17.3431C20.892 17.4723 21.0673 17.5449 21.25 17.5449C21.4327 17.5449 21.6079 17.4723 21.7371 17.3431C21.8663 17.2139 21.9389 17.0387 21.9389 16.8559C21.9369 15.464 20.9617 14.2634 19.5997 13.9761V13.3491C19.5997 13.1664 19.5271 12.9911 19.3979 12.8619C19.2687 12.7327 19.0934 12.6602 18.9107 12.6602C18.728 12.6602 18.5528 12.7327 18.4236 12.8619C18.2944 12.9911 18.2218 13.1664 18.2218 13.3491V14.0182C16.8002 14.4063 15.8852 15.7866 16.081 17.2472C16.2767 18.7078 17.5232 19.7979 18.9968 19.7976C19.8493 19.7976 20.5446 20.4802 20.56 21.3322C20.5759 22.1843 19.9058 22.892 19.054 22.923Z" fill="#30353E"/>
<path id="Vector_2" d="M9.00781 19.1619C9.00781 24.6793 13.4805 29.152 18.9979 29.152C24.5153 29.152 28.9879 24.6793 28.9879 19.1619C28.9879 13.6445 24.5153 9.17188 18.9979 9.17188C13.4831 9.1779 9.01427 13.6472 9.00781 19.1619ZM18.9979 10.5497C23.7543 10.5497 27.6101 14.4054 27.6101 19.1619C27.6101 23.9184 23.7543 27.7741 18.9979 27.7741C14.2414 27.7741 10.3857 23.9184 10.3857 19.1619C10.3911 14.4078 14.2437 10.5551 18.9979 10.5497Z" fill="#30353E"/>
<path id="Vector_3" d="M32.3805 30.849L26.9838 33.3989C26.6177 32.718 26.0785 32.1456 25.4206 31.7397C24.7627 31.3337 24.0093 31.1084 23.2365 31.0865L18.2546 30.9496C17.4656 30.927 16.6917 30.7272 15.9904 30.365L15.4835 30.1023C14.2046 29.4358 12.7835 29.0884 11.3413 29.0899C9.89916 29.0915 8.47876 29.4418 7.20128 30.111L7.23289 28.9626C7.2354 28.8721 7.22007 28.7821 7.18777 28.6976C7.15547 28.613 7.10683 28.5357 7.04464 28.47C6.98245 28.4042 6.90792 28.3514 6.82531 28.3145C6.7427 28.2776 6.65362 28.2573 6.56317 28.2548L1.1002 28.1045C1.00976 28.102 0.919715 28.1174 0.83521 28.1497C0.750704 28.182 0.673394 28.2307 0.607697 28.2929C0.542 28.3551 0.489203 28.4296 0.452323 28.5122C0.415444 28.5948 0.395204 28.6839 0.392761 28.7743L0.0627677 40.7624C0.0602451 40.8528 0.0755714 40.9429 0.107871 41.0274C0.140171 41.112 0.188811 41.1893 0.251012 41.2551C0.313214 41.3208 0.387758 41.3736 0.470386 41.4105C0.553013 41.4475 0.642105 41.4677 0.732571 41.4702L6.19546 41.6206H6.21432C6.39382 41.6206 6.56627 41.5506 6.69494 41.4255C6.82361 41.3003 6.89835 41.1299 6.90324 40.9504L6.919 40.3769L8.33818 39.617C8.89501 39.3173 9.54663 39.2459 10.1551 39.4182L18.6301 41.7968C18.6449 41.8012 18.6596 41.8045 18.6748 41.808C19.2874 41.936 19.9115 42.0004 20.5373 42C21.8627 42.0008 23.1726 41.715 24.3772 41.1621C24.4068 41.1486 24.4354 41.1328 24.4626 41.1149L36.7506 33.1668C36.898 33.0714 37.0035 32.9233 37.0454 32.7527C37.0874 32.5822 37.0626 32.402 36.9762 32.2491C36.064 30.6304 34.0405 30.0138 32.3805 30.849ZM1.45912 40.1118L1.75106 29.5008L5.83653 29.6132L5.5446 40.2246L1.45912 40.1118ZM23.7566 39.9315C22.26 40.6069 20.5886 40.7935 18.9799 40.4647L10.5278 38.0922C9.57679 37.8234 8.5585 37.9347 7.68801 38.4026L6.96274 38.7912L7.15685 31.7361C8.28517 30.9856 9.59418 30.5517 10.9474 30.4795C12.3005 30.4073 13.6483 30.6996 14.85 31.3258L15.357 31.5884C16.2429 32.0458 17.2203 32.2983 18.2169 32.3272L23.1992 32.4641C24.5985 32.5044 25.787 33.5008 26.0709 34.8719L18.6499 34.667C18.2694 34.6567 17.9528 34.9567 17.9421 35.3368C17.9371 35.5195 18.0048 35.6967 18.1304 35.8294C18.256 35.9621 18.4292 36.0395 18.6119 36.0446L26.8015 36.27H26.8207C27.0001 36.2699 27.1724 36.1998 27.3009 36.0746C27.4294 35.9495 27.5041 35.7792 27.509 35.5998C27.5174 35.3004 27.4951 35.001 27.4424 34.7061L32.9776 32.0906C32.983 32.0883 32.9884 32.0856 32.9938 32.0829C33.3772 31.8889 33.8107 31.8169 34.2362 31.8765C34.6617 31.9361 35.0587 32.1245 35.374 32.4163L23.7566 39.9315ZM19.6832 7.23367V0.688921C19.6832 0.506208 19.6107 0.330978 19.4815 0.20178C19.3523 0.0725826 19.177 0 18.9943 0C18.8116 0 18.6364 0.0725826 18.5072 0.20178C18.378 0.330978 18.3054 0.506208 18.3054 0.688921V7.23367C18.3054 7.41639 18.378 7.59162 18.5072 7.72081C18.6364 7.85001 18.8116 7.92259 18.9943 7.92259C19.177 7.92259 19.3523 7.85001 19.4815 7.72081C19.6107 7.59162 19.6832 7.41639 19.6832 7.23367ZM24.8502 7.23367V4.13353C24.8502 3.95081 24.7776 3.77558 24.6484 3.64639C24.5192 3.51719 24.3439 3.44461 24.1612 3.44461C23.9785 3.44461 23.8033 3.51719 23.6741 3.64639C23.5449 3.77558 23.4723 3.95081 23.4723 4.13353V7.23367C23.4723 7.41639 23.5449 7.59162 23.6741 7.72081C23.8033 7.85001 23.9785 7.92259 24.1612 7.92259C24.3439 7.92259 24.5192 7.85001 24.6484 7.72081C24.7776 7.59162 24.8502 7.41639 24.8502 7.23367ZM14.5163 7.23367V4.13353C14.5163 3.95081 14.4438 3.77558 14.3146 3.64639C14.1854 3.51719 14.0101 3.44461 13.8274 3.44461C13.6447 3.44461 13.4695 3.51719 13.3403 3.64639C13.2111 3.77558 13.1385 3.95081 13.1385 4.13353V7.23367C13.1385 7.41639 13.2111 7.59162 13.3403 7.72081C13.4695 7.85001 13.6447 7.92259 13.8274 7.92259C14.0101 7.92259 14.1854 7.85001 14.3146 7.72081C14.4438 7.59162 14.5163 7.41639 14.5163 7.23367Z" fill="#30353E"/>
</g>
</svg>
