<svg width="40" height="40" viewBox="0 0 40 40" fill="none" xmlns="http://www.w3.org/2000/svg">
<g id="Group">
<path id="Vector" d="M6.76996 31.9948L6.87606 32.1011L6.9822 31.9949L9.86267 29.1127C9.86268 29.1127 9.86269 29.1126 9.8627 29.1126C9.99887 28.9765 10.1835 28.9 10.3761 28.9C10.5687 28.9 10.7534 28.9765 10.8895 29.1127C11.0257 29.2488 11.1022 29.4335 11.1022 29.6261C11.1022 29.8187 11.0257 30.0034 10.8895 30.1395L7.38954 33.6395L7.38941 33.6397C7.32206 33.7072 7.24205 33.7608 7.15397 33.7973C7.06589 33.8339 6.97147 33.8527 6.87611 33.8527C6.78074 33.8527 6.68632 33.8339 6.59824 33.7973C6.51016 33.7608 6.43015 33.7072 6.36281 33.6397L6.36267 33.6395L4.61267 31.8895C4.4765 31.7534 4.4 31.5687 4.4 31.3761C4.4 31.1835 4.4765 30.9988 4.61267 30.8627C4.74884 30.7265 4.93353 30.65 5.12611 30.65C5.31868 30.65 5.50337 30.7265 5.63954 30.8627L6.76996 31.9948ZM6.76996 23.2448L6.87606 23.3511L6.9822 23.2449L9.86267 20.3627C9.86268 20.3627 9.86269 20.3626 9.8627 20.3626C9.99887 20.2265 10.1835 20.15 10.3761 20.15C10.5687 20.15 10.7534 20.2265 10.8895 20.3627C11.0257 20.4988 11.1022 20.6835 11.1022 20.8761C11.1022 21.0687 11.0257 21.2534 10.8895 21.3895L7.38954 24.8895L7.38941 24.8897C7.32206 24.9572 7.24205 25.0108 7.15397 25.0473C7.06589 25.0839 6.97147 25.1027 6.87611 25.1027C6.78074 25.1027 6.68632 25.0839 6.59824 25.0473C6.51016 25.0108 6.43015 24.9572 6.36281 24.8897L6.36267 24.8895L4.61267 23.1395C4.54525 23.0721 4.49176 22.9921 4.45527 22.904C4.41878 22.8159 4.4 22.7215 4.4 22.6261C4.4 22.5308 4.41878 22.4363 4.45527 22.3482C4.49176 22.2601 4.54525 22.1801 4.61267 22.1127C4.6801 22.0452 4.76014 21.9918 4.84824 21.9553C4.93633 21.9188 5.03075 21.9 5.12611 21.9C5.22146 21.9 5.31588 21.9188 5.40397 21.9553C5.49203 21.9917 5.57205 22.0452 5.63946 22.1126C5.63948 22.1126 5.63951 22.1126 5.63954 22.1127L6.76996 23.2448ZM6.76996 14.4948L6.87606 14.6011L6.9822 14.4949L9.86267 11.6127C9.86268 11.6127 9.86269 11.6127 9.8627 11.6126C9.99887 11.4765 10.1835 11.4 10.3761 11.4C10.5687 11.4 10.7534 11.4765 10.8895 11.6127C11.0257 11.7488 11.1022 11.9335 11.1022 12.1261C11.1022 12.3187 11.0257 12.5034 10.8895 12.6395L7.38954 16.1395L7.38941 16.1397C7.32206 16.2072 7.24205 16.2608 7.15397 16.2973C7.06589 16.3339 6.97147 16.3527 6.87611 16.3527C6.78074 16.3527 6.68632 16.3339 6.59824 16.2973C6.51016 16.2608 6.43015 16.2072 6.36281 16.1397L6.36267 16.1395L4.61267 14.3895C4.54525 14.3221 4.49176 14.2421 4.45527 14.154C4.41878 14.0659 4.4 13.9715 4.4 13.8761C4.4 13.7808 4.41878 13.6863 4.45527 13.5982C4.49176 13.5101 4.54525 13.4301 4.61267 13.3627C4.6801 13.2952 4.76014 13.2418 4.84824 13.2053C4.93633 13.1688 5.03075 13.15 5.12611 13.15C5.22146 13.15 5.31588 13.1688 5.40397 13.2053C5.49207 13.2418 5.57211 13.2952 5.63954 13.3627L6.76996 14.4948ZM20.8761 21.6011H13.8761C13.6838 21.6011 13.4994 21.5247 13.3635 21.3888C13.2275 21.2528 13.1511 21.0684 13.1511 20.8761C13.1511 20.6838 13.2275 20.4994 13.3635 20.3635C13.4994 20.2275 13.6838 20.1511 13.8761 20.1511H20.8761C21.0684 20.1511 21.2528 20.2275 21.3888 20.3635C21.5247 20.4994 21.6011 20.6838 21.6011 20.8761C21.6011 21.0684 21.5247 21.2528 21.3888 21.3888C21.2528 21.5247 21.0684 21.6011 20.8761 21.6011ZM27.8761 12.8511H13.8761C13.6838 12.8511 13.4994 12.7747 13.3635 12.6388C13.2275 12.5028 13.1511 12.3184 13.1511 12.1261C13.1511 11.9338 13.2275 11.7494 13.3635 11.6135C13.4994 11.4775 13.6838 11.4011 13.8761 11.4011H27.8761C28.0684 11.4011 28.2528 11.4775 28.3888 11.6135C28.5247 11.7494 28.6011 11.9338 28.6011 12.1261C28.6011 12.3184 28.5247 12.5028 28.3888 12.6388C28.2528 12.7747 28.0684 12.8511 27.8761 12.8511ZM27.8761 16.3511H13.8761C13.6838 16.3511 13.4994 16.2747 13.3635 16.1388C13.2275 16.0028 13.1511 15.8184 13.1511 15.6261C13.1511 15.4338 13.2275 15.2494 13.3635 15.1135C13.4994 14.9775 13.6838 14.9011 13.8761 14.9011H27.8761C28.0684 14.9011 28.2528 14.9775 28.3888 15.1135C28.5247 15.2494 28.6011 15.4338 28.6011 15.6261C28.6011 15.8184 28.5247 16.0028 28.3888 16.1388C28.2528 16.2747 28.0684 16.3511 27.8761 16.3511Z" fill="#30353E" stroke="white" stroke-width="0.3"/>
<path id="Vector_2" d="M32.1 22.0475V21.925V7.64698C32.0987 6.78624 31.7562 5.96112 31.1475 5.35248C30.5389 4.74388 29.7139 4.40137 28.8532 4.4C28.8531 4.4 28.8531 4.4 28.853 4.4L25.25 4.4H25.1V4.25V2.99051C25.096 2.43731 24.8745 1.90789 24.4833 1.51671C24.0921 1.12551 23.5627 0.903984 23.0095 0.9H9.99053C9.43733 0.903984 8.9079 1.12551 8.51671 1.51671C8.12552 1.90789 7.90399 2.43731 7.9 2.99051V4.25V4.4H7.75L4.14515 4.4L4.145 4.4M32.1 22.0475L0.75 7.645C0.750927 6.74487 1.10891 5.88188 1.7454 5.2454C2.38188 4.60891 3.24487 4.25093 4.145 4.25V4.4M32.1 22.0475L32.22 22.072C33.8444 22.4032 35.3383 23.1968 36.5222 24.3572C37.706 25.5177 38.5292 26.9956 38.8926 28.613C39.2561 30.2304 39.1443 31.9184 38.5708 33.4738C37.9973 35.0292 36.9865 36.3857 35.66 37.38L35.6595 37.3804C34.1747 38.5032 32.3622 39.1074 30.5006 39.1H30.5H4.14515C3.28476 39.0991 2.45985 38.7569 1.85146 38.1485C1.24307 37.5401 0.900886 36.7152 0.9 35.8548L0.9 7.64508M32.1 22.0475L0.9 7.64508M4.145 4.4C3.28466 4.40093 2.45982 4.74311 1.85146 5.35146C1.24309 5.95984 0.900905 6.78471 0.9 7.64508M4.145 4.4L0.9 7.64508M23.01 7.75H9.99C9.48267 7.75058 8.99049 7.57716 8.59557 7.25869C8.20066 6.94021 7.92691 6.49594 7.82 6H4.145M23.01 7.75L2.5 35.855C2.49977 36.0711 2.54216 36.2851 2.62475 36.4848C2.70734 36.6845 2.8285 36.8659 2.9813 37.0187C3.13409 37.1715 3.31553 37.2927 3.51521 37.3752C3.7149 37.4578 3.92891 37.5002 4.145 37.5V37.65H4.14516H25.25H25.7L25.34 37.38C23.896 36.297 22.8294 34.7871 22.2912 33.0642C21.753 31.3414 21.7705 29.4928 22.3413 27.7804C22.9121 26.0681 24.0072 24.5787 25.4715 23.5233C26.9358 22.4679 28.695 21.9 30.5 21.9H30.65V21.75V7.64675V7.64659C30.6495 7.17059 30.4603 6.7142 30.1239 6.37744C29.7875 6.04068 29.3313 5.85101 28.8553 5.85H28.855H25.18H25.0589L25.0334 5.96839C24.9337 6.43078 24.6785 6.84499 24.3103 7.14193C23.9421 7.43886 23.4832 7.60054 23.0102 7.6H23.01H9.99H9.98983C9.51682 7.60054 9.05793 7.43886 8.68974 7.14193C8.32154 6.84499 8.06631 6.43078 7.96663 5.96839L7.94111 5.85H7.82L4.14516 5.85M23.01 7.75C23.5173 7.75058 24.0095 7.57716 24.4044 7.25869M23.01 7.75L24.4044 7.25869M4.145 6L4.14516 5.85M4.145 6C3.92891 5.99977 3.7149 6.04216 3.51521 6.12475C3.31553 6.20734 3.13409 6.3285 2.9813 6.4813C2.8285 6.63409 2.70734 6.81553 2.62475 7.01521C2.54216 7.2149 2.49977 7.42891 2.5 7.645H2.35V7.64516V35.8548L4.14516 5.85M4.145 6V5.85L4.14516 5.85M24.4044 7.25869C24.7993 6.94021 25.0731 6.49594 25.18 6L24.4044 7.25869ZM9.35003 2.98689L9.35 2.98688V2.99V5.51H9.34997L9.35003 5.51311C9.35352 5.68093 9.42173 5.84089 9.54042 5.95958C9.65911 6.07827 9.81907 6.14648 9.98689 6.14997L9.98689 6.15H9.99H23.01V6.15003L23.0131 6.14997C23.1809 6.14648 23.3409 6.07827 23.4596 5.95958C23.5783 5.84089 23.6465 5.68093 23.65 5.51311L23.65 5.51311V5.51V2.99H23.65L23.65 2.98689C23.6465 2.81907 23.5783 2.65911 23.4596 2.54042C23.3409 2.42173 23.1809 2.35352 23.0131 2.35003V2.35H23.01H9.99V2.34997L9.98689 2.35003C9.81907 2.35352 9.65911 2.42173 9.54042 2.54042C9.42173 2.65911 9.35352 2.81907 9.35003 2.98689ZM26.5277 36.445C27.7035 37.2307 29.0859 37.65 30.5 37.65C32.3963 37.65 34.2149 36.8967 35.5558 35.5558C36.8967 34.2149 37.65 32.3963 37.65 30.5C37.65 29.0859 37.2307 27.7035 36.445 26.5277C35.6594 25.3519 34.5427 24.4354 33.2362 23.8943C31.9297 23.3531 30.4921 23.2115 29.1051 23.4874C27.7181 23.7633 26.4441 24.4442 25.4442 25.4442C24.4442 26.4441 23.7633 27.7181 23.4874 29.1051C23.2115 30.4921 23.3531 31.9297 23.8943 33.2362C24.4354 34.5427 25.3519 35.6594 26.5277 36.445Z" fill="#30353E" stroke="white" stroke-width="0.3"/>
<path id="Vector_3" d="M31.225 30.1377V30.1999L31.269 30.2439L32.7634 31.7366C32.8996 31.8727 32.9761 32.0574 32.9761 32.25C32.9761 32.4426 32.8996 32.6273 32.7634 32.7634C32.6273 32.8996 32.4426 32.9761 32.25 32.9761C32.0574 32.9761 31.8727 32.8996 31.7366 32.7634L29.9867 31.0136C29.9194 30.9461 29.8661 30.8661 29.8298 30.778C29.7934 30.6899 29.7748 30.5955 29.775 30.5003V30.5V27C29.775 26.8077 29.8514 26.6233 29.9873 26.4873C30.1233 26.3514 30.3077 26.275 30.5 26.275C30.6923 26.275 30.8767 26.3514 31.0127 26.4873C31.1486 26.6233 31.225 26.8077 31.225 27V30.1377ZM13.875 23.65H20.875C21.0673 23.65 21.2517 23.7264 21.3877 23.8623C21.5236 23.9983 21.6 24.1827 21.6 24.375C21.6 24.5673 21.5236 24.7517 21.3877 24.8877C21.2517 25.0236 21.0673 25.1 20.875 25.1H13.875C13.6827 25.1 13.4983 25.0236 13.3623 24.8877C13.2264 24.7517 13.15 24.5673 13.15 24.375C13.15 24.1827 13.2264 23.9983 13.3623 23.8623C13.4983 23.7264 13.6827 23.65 13.875 23.65ZM13.875 32.4H19.125C19.3173 32.4 19.5017 32.4764 19.6377 32.6123C19.7736 32.7483 19.85 32.9327 19.85 33.125C19.85 33.3173 19.7736 33.5017 19.6377 33.6377C19.5017 33.7736 19.3173 33.85 19.125 33.85H13.875C13.6827 33.85 13.4983 33.7736 13.3623 33.6377C13.2264 33.5017 13.15 33.3173 13.15 33.125C13.15 32.9327 13.2264 32.7483 13.3623 32.6123C13.4983 32.4764 13.6827 32.4 13.875 32.4ZM13.875 28.9H19.125C19.3173 28.9 19.5017 28.9764 19.6377 29.1123C19.7736 29.2483 19.85 29.4327 19.85 29.625C19.85 29.8173 19.7736 30.0017 19.6377 30.1377C19.5017 30.2736 19.3173 30.35 19.125 30.35H13.875C13.6827 30.35 13.4983 30.2736 13.3623 30.1377C13.2264 30.0017 13.15 29.8173 13.15 29.625C13.15 29.4327 13.2264 29.2483 13.3623 29.1123C13.4983 28.9764 13.6827 28.9 13.875 28.9Z" fill="#30353E" stroke="white" stroke-width="0.3"/>
</g>
</svg>
