<svg width="40" height="42" viewBox="0 0 40 42" fill="none" xmlns="http://www.w3.org/2000/svg">
<g id="Group">
<path id="Vector" d="M23.1526 15.2919C23.1526 15.4659 23.0835 15.6328 22.9604 15.7559C22.8373 15.879 22.6704 15.9481 22.4964 15.9481H14.1367C13.9627 15.9481 13.7958 15.879 13.6727 15.7559C13.5496 15.6328 13.4805 15.4659 13.4805 15.2919C13.4805 15.1178 13.5496 14.9509 13.6727 14.8278C13.7958 14.7047 13.9627 14.6356 14.1367 14.6356H22.4964C22.6704 14.6356 22.8373 14.7047 22.9604 14.8278C23.0835 14.9509 23.1526 15.1178 23.1526 15.2919ZM21.1477 19.1905H14.1366C13.9626 19.1905 13.7957 19.2596 13.6726 19.3827C13.5495 19.5058 13.4804 19.6727 13.4804 19.8467C13.4804 20.0208 13.5495 20.1877 13.6726 20.3108C13.7957 20.4338 13.9626 20.503 14.1366 20.503H21.1477C21.3217 20.503 21.4887 20.4338 21.6117 20.3108C21.7348 20.1877 21.8039 20.0208 21.8039 19.8467C21.8039 19.6727 21.7348 19.5058 21.6117 19.3827C21.4887 19.2596 21.3217 19.1905 21.1477 19.1905ZM10.304 34.2471L8.07298 36.4991L7.03905 35.4912C6.97735 35.4311 6.9044 35.3837 6.82437 35.3517C6.74434 35.3197 6.65879 35.3038 6.57262 35.3049C6.48645 35.306 6.40134 35.3241 6.32215 35.3581C6.24297 35.3921 6.17126 35.4414 6.11112 35.5031C6.05095 35.5648 6.00354 35.6378 5.97157 35.7178C5.93961 35.7978 5.92373 35.8834 5.92483 35.9696C5.92594 36.0557 5.94401 36.1408 5.97801 36.22C6.01202 36.2992 6.06129 36.3709 6.12301 36.4311L7.62303 37.8933C7.74545 38.0129 7.90991 38.0798 8.0811 38.0796C8.16782 38.0797 8.2537 38.0625 8.33375 38.0292C8.4138 37.9958 8.48641 37.9468 8.54736 37.8851L11.2365 35.1707C11.2972 35.1095 11.3452 35.0369 11.3778 34.9572C11.4104 34.8774 11.4269 34.792 11.4265 34.7058C11.4261 34.6196 11.4087 34.5344 11.3754 34.4549C11.342 34.3755 11.2933 34.3034 11.2321 34.2427C11.1084 34.1203 10.9412 34.0519 10.7671 34.0528C10.5931 34.0536 10.4265 34.1235 10.304 34.2471ZM25.8793 11.7917H14.1367C13.9627 11.7917 13.7958 11.8609 13.6727 11.984C13.5496 12.107 13.4805 12.2739 13.4805 12.448C13.4805 12.622 13.5496 12.789 13.6727 12.912C13.7958 13.0351 13.9627 13.1042 14.1367 13.1042H25.8793C26.0534 13.1042 26.2203 13.0351 26.3434 12.912C26.4664 12.789 26.5356 12.622 26.5356 12.448C26.5356 12.2739 26.4664 12.107 26.3434 11.984C26.2203 11.8609 26.0534 11.7917 25.8793 11.7917ZM13.4805 30.0894C13.4805 30.2634 13.5496 30.4304 13.6727 30.5534C13.7958 30.6765 13.9627 30.7456 14.1367 30.7456H21.6761C21.8501 30.7456 22.017 30.6765 22.1401 30.5534C22.2632 30.4304 22.3323 30.2634 22.3323 30.0894C22.3323 29.9153 22.2632 29.7484 22.1401 29.6254C22.017 29.5023 21.8501 29.4331 21.6761 29.4331H14.1367C13.9627 29.4331 13.7958 29.5023 13.6727 29.6254C13.5496 29.7484 13.4805 29.9153 13.4805 30.0894ZM14.1367 23.3468H20.0354C20.2095 23.3468 20.3764 23.2777 20.4995 23.1546C20.6225 23.0316 20.6917 22.8646 20.6917 22.6906C20.6917 22.5165 20.6225 22.3496 20.4995 22.2265C20.3764 22.1035 20.2095 22.0343 20.0354 22.0343H14.1367C13.9627 22.0343 13.7958 22.1035 13.6727 22.2265C13.5496 22.3496 13.4805 22.5165 13.4805 22.6906C13.4805 22.8646 13.5496 23.0316 13.6727 23.1546C13.7958 23.2777 13.9627 23.3468 14.1367 23.3468ZM14.1367 27.9017H20.3864C20.5604 27.9017 20.7273 27.8326 20.8504 27.7095C20.9735 27.5864 21.0426 27.4195 21.0426 27.2455C21.0426 27.0714 20.9735 26.9045 20.8504 26.7814C20.7273 26.6583 20.5604 26.5892 20.3864 26.5892H14.1367C13.9627 26.5892 13.7958 26.6583 13.6727 26.7814C13.5496 26.9045 13.4805 27.0714 13.4805 27.2455C13.4805 27.4195 13.5496 27.5864 13.6727 27.7095C13.7958 27.8326 13.9627 27.9017 14.1367 27.9017ZM22.4508 36.8319H14.1367C13.9627 36.8319 13.7958 36.901 13.6727 37.0241C13.5496 37.1471 13.4805 37.3141 13.4805 37.4881C13.4805 37.6622 13.5496 37.8291 13.6727 37.9522C13.7958 38.0752 13.9627 38.1444 14.1367 38.1444H22.4508C22.537 38.1444 22.6224 38.1274 22.702 38.0944C22.7816 38.0614 22.8539 38.0131 22.9149 37.9521C22.9758 37.8912 23.0241 37.8188 23.0571 37.7392C23.0901 37.6596 23.1071 37.5743 23.107 37.4881C23.107 37.4019 23.0901 37.3166 23.0571 37.2369C23.0241 37.1573 22.9758 37.085 22.9148 37.024C22.8539 36.9631 22.7815 36.9148 22.7019 36.8818C22.6223 36.8488 22.5369 36.8319 22.4508 36.8319ZM25.8793 33.9879H14.1367C13.9627 33.9879 13.7958 34.0571 13.6727 34.1801C13.5496 34.3032 13.4805 34.4701 13.4805 34.6442C13.4805 34.8182 13.5496 34.9851 13.6727 35.1082C13.7958 35.2313 13.9627 35.3004 14.1367 35.3004H25.8793C26.0534 35.3004 26.2203 35.2313 26.3434 35.1082C26.4664 34.9851 26.5356 34.8182 26.5356 34.6442C26.5356 34.4701 26.4664 34.3032 26.3434 34.1801C26.2203 34.0571 26.0534 33.9879 25.8793 33.9879ZM10.304 26.8484L8.07298 29.1003L7.03905 28.0925C6.97735 28.0323 6.9044 27.9849 6.82437 27.953C6.74434 27.921 6.65879 27.9051 6.57262 27.9062C6.48645 27.9073 6.40134 27.9254 6.32215 27.9594C6.24297 27.9934 6.17126 28.0427 6.11112 28.1044C6.05095 28.1661 6.00354 28.2391 5.97157 28.3191C5.93961 28.3991 5.92373 28.4847 5.92483 28.5708C5.92594 28.657 5.94401 28.7421 5.97801 28.8213C6.01202 28.9005 6.06129 28.9722 6.12301 29.0323L7.62303 30.4945C7.74545 30.6142 7.90991 30.6811 8.0811 30.6808C8.16782 30.6809 8.2537 30.6638 8.33375 30.6304C8.4138 30.5971 8.48641 30.5481 8.54736 30.4864L11.2365 27.772C11.3582 27.6482 11.4259 27.4812 11.4248 27.3076C11.4236 27.1339 11.3537 26.9678 11.2303 26.8457C11.107 26.7235 10.9402 26.6552 10.7666 26.6557C10.593 26.6562 10.4266 26.7255 10.304 26.8484ZM10.304 12.0509L8.07298 14.3028L7.03905 13.295C6.97735 13.2348 6.9044 13.1874 6.82437 13.1554C6.74434 13.1235 6.65879 13.1076 6.57262 13.1087C6.48645 13.1098 6.40134 13.1279 6.32215 13.1619C6.24297 13.1959 6.17126 13.2451 6.11112 13.3069C6.05095 13.3686 6.00354 13.4415 5.97157 13.5215C5.93961 13.6016 5.92373 13.6871 5.92483 13.7733C5.92594 13.8595 5.94401 13.9446 5.97801 14.0238C6.01202 14.1029 6.06129 14.1747 6.12301 14.2348L7.62303 15.697C7.74545 15.8167 7.90991 15.8836 8.0811 15.8833C8.16782 15.8834 8.2537 15.8663 8.33375 15.8329C8.4138 15.7995 8.48641 15.7506 8.54736 15.6889L11.2365 12.9745C11.2972 12.9132 11.3452 12.8407 11.3778 12.7609C11.4104 12.6811 11.4269 12.5957 11.4265 12.5095C11.4261 12.4234 11.4087 12.3381 11.3754 12.2587C11.342 12.1792 11.2933 12.1071 11.2321 12.0465C11.1084 11.924 10.9412 11.8557 10.7671 11.8565C10.5931 11.8573 10.4265 11.9273 10.304 12.0509ZM10.304 19.4497L8.07298 21.7016L7.03905 20.6938C6.97735 20.6336 6.9044 20.5862 6.82437 20.5542C6.74434 20.5223 6.65879 20.5064 6.57262 20.5075C6.48645 20.5086 6.40134 20.5267 6.32215 20.5607C6.24297 20.5947 6.17126 20.6439 6.11112 20.7057C6.05095 20.7674 6.00354 20.8403 5.97157 20.9204C5.93961 21.0004 5.92373 21.0859 5.92483 21.1721C5.92594 21.2583 5.94401 21.3434 5.97801 21.4226C6.01202 21.5018 6.06129 21.5735 6.12301 21.6336L7.62303 23.0958C7.74545 23.2155 7.90991 23.2824 8.0811 23.2821C8.16782 23.2822 8.2537 23.2651 8.33375 23.2317C8.4138 23.1983 8.48641 23.1494 8.54736 23.0877L11.2365 20.3733C11.2975 20.3121 11.3459 20.2395 11.3788 20.1597C11.4117 20.0798 11.4285 19.9942 11.4282 19.9078C11.4279 19.8214 11.4106 19.7359 11.3773 19.6563C11.3439 19.5766 11.2951 19.5043 11.2338 19.4435C11.1724 19.3827 11.0996 19.3346 11.0196 19.302C10.9396 19.2694 10.854 19.253 10.7676 19.2535C10.6812 19.2541 10.5958 19.2717 10.5162 19.3054C10.4367 19.3391 10.3645 19.3881 10.304 19.4497ZM13.6947 9.33073C13.0306 9.33073 12.4904 8.79047 12.4904 8.12643V4.63928C12.4904 3.97523 13.0306 3.43506 13.6947 3.43506H26.263C26.927 3.43506 27.4672 3.97523 27.4672 4.63928V8.12643C27.4672 8.79047 26.927 9.33073 26.263 9.33073H13.6947ZM13.8029 8.01823H26.1546V4.74764H13.8029V8.01823ZM31.5931 32.9507V39.8157C31.5931 40.9749 30.65 41.918 29.4908 41.918H2.96948C1.8103 41.918 0.867188 40.9749 0.867188 39.8157V8.8346C0.867188 8.26489 1.08014 7.7508 1.483 7.34811L8.13319 0.697676C8.53596 0.294984 9.05005 0.0820312 9.61968 0.0820312H29.4908C30.65 0.0820312 31.5931 1.02506 31.5931 2.18425V15.6118C35.8497 16.2022 39.1379 19.8647 39.1379 24.2812C39.1379 28.6978 35.8498 32.3603 31.5931 32.9507ZM3.10771 7.57944H7.71516C8.07314 7.57944 8.36443 7.28815 8.36443 6.93008V2.32263L3.10771 7.57944ZM30.2806 39.8157V33.0332C25.5017 32.9772 21.6313 29.0731 21.6313 24.2812C21.6313 19.4894 25.5017 15.5853 30.2806 15.5293V2.18425C30.2806 1.74874 29.9263 1.39453 29.4908 1.39453H9.67693V6.93008C9.67693 8.01191 8.79682 8.89194 7.71516 8.89194H2.17969V39.8157C2.17969 40.2512 2.53398 40.6055 2.96948 40.6055H29.4909C29.9263 40.6055 30.2806 40.2512 30.2806 39.8157ZM37.8254 24.2812C37.8254 20.1784 34.4875 16.8404 30.3846 16.8404C26.2817 16.8404 22.9438 20.1784 22.9438 24.2812C22.9438 28.3841 26.2817 31.7221 30.3846 31.7221C34.4875 31.7221 37.8254 28.3841 37.8254 24.2812ZM36.6925 24.2812C36.6925 27.7594 33.8627 30.5891 30.3846 30.5891C26.9065 30.5891 24.0768 27.7594 24.0768 24.2812C24.0768 20.8031 26.9064 17.9734 30.3847 17.9734C33.8629 17.9734 36.6925 20.8031 36.6925 24.2812ZM35.38 24.2812C35.38 21.5268 33.139 19.2859 30.3846 19.2859C27.6301 19.2859 25.3893 21.5268 25.3893 24.2812C25.3893 27.0357 27.6301 29.2766 30.3847 29.2766C33.1392 29.2766 35.38 27.0357 35.38 24.2812ZM30.5162 23.625H30.2531C30.1151 23.6248 29.9827 23.57 29.8851 23.4724C29.7876 23.3748 29.7327 23.2424 29.7325 23.1044C29.7325 22.8173 29.9661 22.5838 30.2531 22.5838H30.6236C30.7892 22.5838 30.9471 22.6653 31.0458 22.802C31.1481 22.9423 31.3018 23.0364 31.4732 23.0636C31.6447 23.0909 31.8199 23.0491 31.9606 22.9474C32.1013 22.8456 32.196 22.6923 32.2239 22.521C32.2518 22.3496 32.2107 22.1742 32.1095 22.0331C31.8503 21.675 31.4711 21.4219 31.0409 21.32V20.9221C31.0409 20.748 30.9718 20.5811 30.8487 20.458C30.7256 20.335 30.5587 20.2658 30.3847 20.2658C30.2106 20.2658 30.0437 20.335 29.9206 20.458C29.7975 20.5811 29.7284 20.748 29.7284 20.9221V21.3477C28.9726 21.574 28.4201 22.2758 28.4201 23.1043C28.4201 24.1151 29.2424 24.9374 30.2532 24.9374H30.5162C30.6543 24.9376 30.7866 24.9925 30.8842 25.0901C30.9818 25.1876 31.0367 25.32 31.0368 25.458C31.0368 25.7451 30.8033 25.9786 30.5162 25.9786H30.1457C29.9801 25.9786 29.8223 25.897 29.7233 25.7604C29.6728 25.6905 29.6091 25.6313 29.5357 25.5862C29.4623 25.541 29.3807 25.5107 29.2956 25.497C29.2106 25.4834 29.1236 25.4866 29.0398 25.5066C28.9559 25.5265 28.8769 25.5628 28.807 25.6133C28.7372 25.6638 28.678 25.7275 28.6328 25.8009C28.5876 25.8743 28.5574 25.9559 28.5437 26.041C28.53 26.126 28.5333 26.213 28.5532 26.2968C28.5732 26.3807 28.6094 26.4597 28.6599 26.5296C28.9192 26.8875 29.2984 27.1405 29.7284 27.2424V27.6403C29.7284 27.8144 29.7975 27.9813 29.9206 28.1044C30.0437 28.2275 30.2106 28.2966 30.3847 28.2966C30.5587 28.2966 30.7256 28.2275 30.8487 28.1044C30.9718 27.9813 31.0409 27.8144 31.0409 27.6403V27.2147C31.7967 26.9884 32.3492 26.2866 32.3492 25.4581C32.3491 24.4473 31.5269 23.625 30.5162 23.625Z" fill="#30353E"/>
</g>
</svg>
