<svg width="40" height="41" viewBox="0 0 40 41" fill="none" xmlns="http://www.w3.org/2000/svg">
<g id="insta" clip-path="url(#clip0_1381_617)">
<path id="Vector" d="M9.1 0.101074H30.9C35.9 0.101074 40 4.10107 40 9.20107V31.0011C40 36.0011 36 40.1011 30.9 40.1011H9.1C4.1 40.1011 0 36.1011 0 31.0011V9.20107C0 4.30107 4 0.101074 9.1 0.101074Z" fill="black"/>
<g id="Group">
<path id="Vector_2" d="M26.1002 12.6011C25.3002 12.6011 24.7002 13.2011 24.7002 14.0011C24.7002 14.8011 25.3002 15.4011 26.1002 15.4011C26.9002 15.4011 27.5002 14.8011 27.5002 14.0011C27.5002 13.2011 26.9002 12.6011 26.1002 12.6011Z" fill="white"/>
<path id="Vector_3" d="M19.9996 14.201C16.6996 14.201 14.0996 16.801 14.0996 20.101C14.0996 23.401 16.6996 26.001 19.9996 26.001C23.2996 26.001 25.8996 23.401 25.8996 20.101C25.8996 16.801 23.2996 14.201 19.9996 14.201ZM19.9996 23.901C17.8996 23.901 16.1996 22.201 16.1996 20.101C16.1996 18.001 17.8996 16.3011 19.9996 16.3011C22.0996 16.3011 23.7996 18.001 23.7996 20.101C23.7996 22.201 22.0996 23.901 19.9996 23.901Z" fill="white"/>
<path id="Vector_4" d="M31.4 15.4011C31.4 14.4011 31.2 13.5011 30.9 12.6011C30.3 11.1011 29.1 9.80107 27.5 9.20107C26.6 8.90107 25.7 8.70107 24.7 8.70107C23.5 8.60107 23.1 8.60107 20 8.60107C16.9 8.60107 16.5 8.60107 15.3 8.70107C14.3 8.70107 13.4 8.90107 12.5 9.20107C11 9.80107 9.7 11.0011 9.1 12.6011C8.8 13.5011 8.6 14.4011 8.6 15.4011C8.5 16.6011 8.5 17.0011 8.5 20.1011C8.5 23.2011 8.5 23.6011 8.6 24.8011C8.6 25.8011 8.8 26.7011 9.1 27.6011C9.7 29.1011 10.9 30.4011 12.5 31.0011C13.4 31.3011 14.3 31.5011 15.3 31.5011C16.5 31.6011 16.9 31.6011 20 31.6011C23.1 31.6011 23.5 31.6011 24.7 31.5011C25.7 31.5011 26.6 31.3011 27.5 31.0011C29 30.4011 30.3 29.2011 30.9 27.6011C31.2 26.7011 31.4 25.8011 31.4 24.8011C31.5 23.6011 31.5 23.2011 31.5 20.1011C31.5 17.0011 31.5 16.6011 31.4 15.4011ZM29.4 24.7011C29.4 25.4011 29.3 26.1011 29 26.8011C28.6 27.8011 27.8 28.6011 26.8 29.0011C26.1 29.3011 25.4 29.4011 24.7 29.4011C23.5 29.5011 23.1 29.5011 20.1 29.5011C17.1 29.5011 16.7 29.5011 15.5 29.4011C14.8 29.4011 14.1 29.3011 13.4 29.0011C12.4 28.6011 11.6 27.8011 11.2 26.8011C10.9 26.1011 10.8 25.4011 10.8 24.7011C10.7 23.5011 10.7 23.1011 10.7 20.1011C10.7 17.0011 10.7 16.7011 10.8 15.5011C10.8 14.8011 10.9 14.1011 11.2 13.4011C11.6 12.4011 12.4 11.6011 13.4 11.2011C14.1 10.9011 14.8 10.8011 15.5 10.8011C16.7 10.7011 17.1 10.7011 20.1 10.7011C23.2 10.7011 23.5 10.7011 24.7 10.8011C25.4 10.8011 26.1 10.9011 26.8 11.2011C27.8 11.6011 28.6 12.4011 29 13.4011C29.3 14.1011 29.4 14.8011 29.4 15.5011C29.5 16.7011 29.5 17.1011 29.5 20.1011C29.4 23.2011 29.4 23.5011 29.4 24.7011Z" fill="white"/>
</g>
</g>
<defs>
<clipPath id="clip0_1381_617">
<rect width="40" height="40" fill="white" transform="translate(0 0.101074)"/>
</clipPath>
</defs>
</svg>
