<svg width="21" height="24" viewBox="0 0 21 24" fill="none" xmlns="http://www.w3.org/2000/svg">
<g id="XMLID_22_">
<g id="XMLID_23_">
<path id="XMLID_25_" d="M17.0421 12.7628C17.0145 9.73104 19.5239 8.25647 19.6396 8.18704C18.218 6.11405 16.0149 5.83081 15.2413 5.80877C13.3909 5.61481 11.5967 6.91635 10.6534 6.91635C9.69235 6.91635 8.23982 5.82861 6.67598 5.86057C4.6636 5.89143 2.77906 7.05742 1.74642 8.86702C-0.38499 12.5568 1.2053 17.98 3.24634 20.9634C4.26796 22.4236 5.4615 24.0558 7.02424 23.9974C8.55281 23.9334 9.12368 23.0231 10.9685 23.0231C12.7969 23.0231 13.3325 23.9974 14.9261 23.961C16.566 23.9345 17.5997 22.4941 18.5861 21.0196C19.7664 19.3444 20.2403 17.6957 20.259 17.6109C20.2204 17.5976 17.0729 16.3975 17.0421 12.7628Z" fill="#525966"/>
<path id="XMLID_24_" d="M14.0247 3.84733C14.8469 2.8191 15.4089 1.42057 15.2535 0C14.0633 0.0528994 12.5755 0.822145 11.7181 1.82944C10.9598 2.7155 10.2832 4.16803 10.4573 5.5335C11.7941 5.63269 13.1673 4.85903 14.0247 3.84733Z" fill="#525966"/>
</g>
</g>
</svg>
