<svg width="30" height="40" viewBox="0 0 30 40" fill="none" xmlns="http://www.w3.org/2000/svg">
<g id="Group">
<path id="Vector" d="M28.9484 0.507812H6.99687C6.8 0.507812 6.66875 0.60625 6.60313 0.671875L0.664062 6.57812C0.565625 6.67656 0.5 6.84062 0.5 6.97187V38.8984C0.5 39.2266 0.7625 39.4563 1.05781 39.4891H28.9156C29.2438 39.4891 29.4734 39.2266 29.5062 38.9312V1.06563C29.5062 0.7375 29.2437 0.507812 28.9484 0.507812ZM6.43906 2.44375V6.41406H2.46875L6.43906 2.44375ZM28.3578 38.3406H1.64844V7.5625H6.99687C7.325 7.5625 7.55469 7.3 7.5875 7.00469V1.65625H28.3578V38.3406Z" fill="#30353E"/>
<path id="Vector_2" d="M10.8031 7.56406H19.2031C19.5313 7.56406 19.7937 7.30156 19.7937 6.97344C19.7937 6.64531 19.5313 6.38281 19.2031 6.38281H10.8031C10.475 6.38281 10.2125 6.64531 10.2125 6.97344C10.2125 7.30156 10.475 7.56406 10.8031 7.56406ZM13.6906 21.1484H11.2625C10.9344 21.1484 10.6719 21.4109 10.6719 21.7391V32.9938C10.6719 33.3219 10.9344 33.5516 11.2297 33.5844H13.6906C14.0188 33.5844 14.2484 33.3219 14.2812 33.0266V21.7391C14.2812 21.4109 14.0188 21.1484 13.6906 21.1484ZM13.1328 32.4359H11.8203V22.2969H13.1L13.1328 32.4359ZM18.7438 25.4797H16.3156C15.9875 25.4797 15.725 25.7422 15.725 26.0703V32.9938C15.725 33.3219 15.9875 33.5516 16.2828 33.5844H18.7109C19.0391 33.5844 19.2687 33.3219 19.3016 33.0266V26.0703C19.3344 25.7422 19.0719 25.4797 18.7438 25.4797ZM18.1859 32.4359H16.9063V26.6281H18.1859V32.4359ZM8.60469 25.4797H6.17656C5.84844 25.4797 5.58594 25.7422 5.58594 26.0703V32.9938C5.58594 33.3219 5.84844 33.5516 6.14375 33.5844H8.57188C8.9 33.5844 9.12969 33.3219 9.1625 33.0266V26.0703C9.19531 25.7422 8.93281 25.4797 8.60469 25.4797ZM8.04688 32.4359H6.76719V26.6281H8.04688V32.4359ZM23.8297 21.1484H21.4016C21.0734 21.1484 20.8109 21.4109 20.8109 21.7391V32.9938C20.8109 33.3219 21.0734 33.5516 21.3688 33.5844H23.7969C24.125 33.5844 24.3547 33.3219 24.3875 33.0266V21.7391C24.4203 21.4109 24.1578 21.1484 23.8297 21.1484ZM23.2719 32.4359H21.9922V22.2969H23.2719V32.4359ZM23.8297 17.9328H6.17656C5.84844 17.9328 5.58594 18.1953 5.58594 18.5234C5.58594 18.8516 5.84844 19.1141 6.17656 19.1141H23.8297C24.1578 19.1141 24.4203 18.8516 24.4203 18.5234C24.4203 18.1953 24.1578 17.9328 23.8297 17.9328ZM23.8297 14.0938H6.17656C5.84844 14.0938 5.58594 14.3563 5.58594 14.6844C5.58594 15.0125 5.84844 15.275 6.17656 15.275H23.8297C24.1578 15.275 24.4203 15.0125 24.4203 14.6844C24.4203 14.3563 24.1578 14.0938 23.8297 14.0938ZM5.61875 10.8453C5.61875 11.1734 5.88125 11.4031 6.17656 11.4359H23.8297C24.1578 11.4359 24.4203 11.1734 24.4203 10.8453C24.4203 10.5172 24.1578 10.2547 23.8297 10.2547H6.17656C5.84844 10.2547 5.61875 10.5172 5.61875 10.8453Z" fill="#30353E"/>
</g>
</svg>
