<svg width="40" height="41" viewBox="0 0 40 41" fill="none" xmlns="http://www.w3.org/2000/svg">
<g id="linkedin" clip-path="url(#clip0_1381_623)">
<path id="Vector" d="M9.1 0.101074H30.9C35.9 0.101074 40 4.10107 40 9.20107V31.0011C40 36.0011 36 40.1011 30.9 40.1011H9.1C4.1 40.1011 0 36.1011 0 31.0011V9.20107C0 4.30107 4 0.101074 9.1 0.101074Z" fill="black"/>
<path id="Vector_2" d="M15.1 15.1011H10.5V28.8011H15.1V15.1011Z" fill="white"/>
<path id="Vector_3" d="M12.7 12.4011C14.1912 12.4011 15.4 11.1923 15.4 9.7011C15.4 8.20993 14.1912 7.0011 12.7 7.0011C11.2088 7.0011 10 8.20993 10 9.7011C10 11.1923 11.2088 12.4011 12.7 12.4011Z" fill="white"/>
<path id="Vector_4" d="M31.8 28.7011H27.2V20.6011C27.2 19.4011 26.1 18.3011 24.9 18.3011C23.7 18.3011 22.6 19.4011 22.6 20.6011V28.7011H18V15.1011H22.6V16.9011C23.4 15.7011 25 14.8011 26.4 14.8011C29.3 14.8011 31.7 17.2011 31.7 20.1011V28.7011H31.8Z" fill="white"/>
</g>
<defs>
<clipPath id="clip0_1381_623">
<rect width="40" height="40" fill="white" transform="translate(0 0.101074)"/>
</clipPath>
</defs>
</svg>
