<svg width="136" height="28" viewBox="0 0 136 28" fill="none" xmlns="http://www.w3.org/2000/svg">
<g id="Mercedes-Benz" clip-path="url(#clip0_8283_11004)">
<path id="Vector" d="M15.7317 13.1953L15.1094 13.541L23.5061 18.3784L15.7317 13.1953Z" fill="white"/>
<path id="Vector_2" d="M14.7299 3.04688L14.0859 12.938L14.6635 13.2619L14.7299 3.04688Z" fill="white"/>
<path id="Vector_3" d="M14.4784 13.5287L13.9674 13.2266L11.3906 15.2995L14.4784 13.5287Z" fill="white"/>
<path id="Vector_4" d="M0.9375 13.6167C0.9375 21.0726 7.15486 27.1162 14.8234 27.1162C22.4919 27.1162 28.7092 21.0726 28.7092 13.6167C28.7092 6.16082 22.4919 0.117188 14.8234 0.117188C7.15486 0.117188 0.9375 6.16157 0.9375 13.6167ZM14.8249 26.3962C11.6513 26.3962 8.68253 25.368 6.47066 23.4792C4.31754 21.6416 2.64608 18.7208 2.23324 15.6175C3.21122 21.5205 8.47688 26.0294 14.8249 26.0294C21.8687 26.0294 27.5797 20.4781 27.5797 13.6295C27.5797 10.7884 26.4873 8.00675 24.8344 5.91579C26.5097 7.17247 27.957 10.7508 27.957 13.6295C27.957 20.6803 22.0775 26.3962 14.8249 26.3962ZM13.6189 12.6547L14.7414 1.4618C14.7685 1.4618 14.7963 1.4618 14.8234 1.4618C14.8326 1.4618 14.8427 1.4618 14.852 1.4618L14.9617 13.2394L16.8945 12.1165L14.9501 1.46255C21.7968 1.52869 27.3269 6.94474 27.3269 13.6167C27.3269 15.7603 26.7556 17.7738 25.7544 19.522L17.0762 12.463L16.2536 12.9162L25.6956 19.6235C25.6717 19.6633 25.6477 19.7039 25.6237 19.7438L15.0066 13.8054V15.9008L25.5511 19.8633C23.3655 23.4033 19.3793 25.7724 14.8234 25.7724C10.2674 25.7724 6.28898 23.4078 4.10185 19.8738L14.6401 15.879V13.7843L4.00985 19.7227C3.98665 19.6836 3.96346 19.6445 3.94027 19.6047L13.3483 12.9162L12.5264 12.463L3.87146 19.4852C2.88342 17.7452 2.31982 15.7452 2.31982 13.6167C2.31982 6.99735 7.7633 1.61363 14.535 1.46481L12.8411 12.2014L13.6189 12.6547ZM28.3505 13.6092C28.1619 6.7185 21.9569 0.843235 14.8234 0.843235C7.5708 0.843235 1.69128 6.55916 1.69128 13.6092C1.69128 16.4728 2.7605 19.1808 4.39022 21.5213C4.94299 22.5262 5.54138 23.1485 6.33923 23.97C3.21277 21.5416 1.18876 17.8031 1.18876 13.6092C1.18876 6.28859 7.29325 0.353942 14.8234 0.353942C22.3535 0.353942 28.5739 6.54789 28.3505 13.6092Z" fill="white"/>
<path id="Vector_5" d="M75.819 14.5059C75.819 12.1383 74.7428 10.2188 72.3778 10.2188C70.1853 10.2188 68.9375 12.1383 68.9375 14.5059C68.9375 16.8734 69.9797 18.793 72.3778 18.793C74.708 18.793 75.3938 17.6709 75.7509 15.8753L74.9484 15.8715C74.8796 16.5382 74.4343 18.0369 72.7211 18.0707C70.7682 18.1083 70.6306 15.6716 70.6646 14.5059H75.819ZM72.4467 10.941C73.8862 10.941 74.0918 12.7404 74.0918 13.8392H70.6986C70.6986 13.1064 70.6306 10.941 72.4467 10.941Z" fill="white"/>
<path id="Vector_6" d="M44.5391 18.0302H43.8194V18.5631H48.1712V18.0302H47.6571C47.2798 18.0302 46.8345 17.8303 46.8345 17.3635L46.6637 8.43602C46.6637 8.13538 47.0061 7.80242 47.3486 7.80242H47.9996V7.26953H44.8816L41.6601 15.465L38.4393 7.26953H35.2865L35.2525 7.80242H35.7659C36.1431 7.80242 36.6225 7.83624 36.6225 8.30223L36.4516 17.3305C36.4516 17.6634 36.28 18.0302 35.595 18.0302H35.0809L35.0469 18.5631H38.5081V18.0302H37.9252C37.4799 18.0302 37.1714 17.8972 37.1714 17.3305L37.3422 8.66901L41.0431 17.9964H41.4204L45.1553 8.56905L45.3269 17.3305C45.3269 17.6304 45.0185 18.0302 44.5391 18.0302Z" fill="white"/>
<path id="Vector_7" d="M60.7629 12.6405C61.1402 12.6075 61.6195 12.5406 61.5507 11.6078C61.4827 10.6751 60.9345 10.2422 59.9751 10.2422C59.2205 10.2422 58.6044 10.7089 58.4327 10.9419C58.2333 11.2125 57.9874 11.108 57.9526 10.8081C57.9186 10.509 57.7818 10.2091 57.4393 10.3083C56.6847 10.5421 55.9998 10.642 55.4168 10.6751V11.0081C56.8564 10.9419 56.7195 11.6417 56.7195 11.9746V17.438C56.7195 18.0378 56.1714 18.1378 55.8629 18.1378H55.3828V18.5707H59.3922V18.1378H59.0497C58.7412 18.1378 58.1931 18.0378 58.1931 17.438V13.0742C58.1931 11.7078 58.9121 11.208 59.6318 11.208C59.9063 11.208 60.0771 11.3418 60.0091 11.8416C59.9403 12.3407 60.3856 12.6744 60.7629 12.6405Z" fill="white"/>
<path id="Vector_8" d="M65.147 10.8109C66.5518 10.8109 67.4084 11.7775 67.4084 12.8771H67.8537V10.0781H67.4772L67.0257 10.7523C66.5208 10.3938 65.8853 10.1886 65.1122 10.1886C62.9197 10.1886 61.6719 12.1082 61.6719 14.4757C61.6719 16.8433 62.714 18.7516 65.1122 18.7629C67.2375 18.7734 67.7509 17.6077 68.1088 15.8121L67.3055 15.8083C67.2375 16.475 66.9971 18.0068 65.4555 18.0406C63.5026 18.0827 63.365 15.6415 63.399 14.4757C63.399 13.7429 63.5018 10.8109 65.147 10.8109Z" fill="white"/>
<path id="Vector_9" d="M119.694 14.5059C119.694 12.1383 118.618 10.2188 116.254 10.2188C114.06 10.2188 112.812 12.1383 112.812 14.5059C112.812 16.8734 113.855 18.7938 116.254 18.7938C118.583 18.7938 119.269 17.6709 119.627 15.8761L118.823 15.8723C118.755 16.5382 118.309 18.0377 116.596 18.0707C114.643 18.1091 114.506 15.6724 114.54 14.5059H119.694ZM116.322 10.9418C117.761 10.9418 117.967 12.7404 117.967 13.84H114.574C114.574 13.1072 114.506 10.9418 116.322 10.9418Z" fill="white"/>
<path id="Vector_10" d="M91.5221 14.5059C91.5221 12.1383 90.4459 10.2188 88.0817 10.2188C85.8884 10.2188 84.6406 12.1383 84.6406 14.5059C84.6406 16.8734 85.6828 18.7938 88.0817 18.7938C90.4119 18.7938 91.0969 17.6709 91.4548 15.8761L90.6516 15.8723C90.5828 16.5382 90.1375 18.0377 88.4242 18.0707C86.4714 18.1091 86.3337 15.6724 86.3678 14.5059H91.5221ZM88.1498 10.9418C89.5893 10.9418 89.795 12.7404 89.795 13.84H86.4026C86.4026 13.1072 86.3337 10.9418 88.1498 10.9418Z" fill="white"/>
<path id="Vector_11" d="M55.1557 14.5059C55.1557 12.1383 54.0787 10.2188 51.7146 10.2188C49.5212 10.2188 48.2734 12.1383 48.2734 14.5059C48.2734 16.8734 49.3156 18.7938 51.7146 18.7938C54.0447 18.7938 54.7305 17.6709 55.0876 15.8761L54.2844 15.8723C54.2163 16.5382 53.7703 18.0377 52.057 18.0707C50.1042 18.1091 49.9666 15.6724 50.0013 14.5059H55.1557ZM51.7834 10.9418C53.2221 10.9418 53.4278 12.7404 53.4278 13.84H50.0354C50.0354 13.1072 49.9666 10.9418 51.7834 10.9418Z" fill="white"/>
<path id="Vector_12" d="M79.9252 10.2677C78.7601 10.2677 76.6016 11.1674 76.6016 14.3324C76.6016 18.4963 79.1034 18.7631 79.8571 18.7631C80.6109 18.7631 81.6044 18.1633 81.81 17.8469C81.827 17.78 81.9299 17.6966 81.9646 17.8469C81.9987 18.1468 82.2213 18.5962 82.5638 18.4963C83.3176 18.2633 84.0033 18.1633 84.5863 18.1302V17.7965C83.1467 17.8634 83.2836 17.1637 83.2836 16.8307V7.5364C83.2836 7.15308 83.0779 6.83666 82.7354 6.93662C81.9817 7.16962 81.2959 7.26958 80.7137 7.30265V7.63561C81.7072 7.56947 81.81 7.86936 81.81 8.20232V11.0674C81.3647 10.6676 80.8506 10.2677 79.9252 10.2677ZM81.81 15.8311C81.776 17.6635 80.7826 18.2302 79.96 18.2302C78.1091 18.1964 78.246 15.465 78.246 14.2986C78.246 13.1321 78.3148 10.8344 79.994 11.0344C81.6732 11.2343 81.81 12.966 81.81 13.9994V15.8311Z" fill="white"/>
<path id="Vector_13" d="M103.398 13.0352H98.875V13.801H103.398V13.0352Z" fill="white"/>
<path id="Vector_14" d="M95.4161 18.0033C94.5935 18.0033 93.2916 17.4374 92.9831 15.738H92.6406V18.5701H93.0179L93.3604 17.8372C93.7029 18.1364 94.4226 18.6362 95.3481 18.6362C96.2735 18.6362 97.5754 18.1364 98.0887 17.2036C98.6029 16.2709 98.3632 14.7384 97.1981 14.2724C96.1776 13.8635 95.2823 13.3742 94.5935 13.0398C94.0454 12.773 93.9124 12.2408 93.9766 11.9071C94.0794 11.3742 94.5595 10.8075 95.6558 10.7744C96.7528 10.7414 97.3009 11.6403 97.4378 12.673H97.8151V10.0078H97.4726L97.0953 10.6407C96.3755 10.1747 96.0671 10.1078 95.4161 10.1078C94.7651 10.1078 93.6689 10.4407 93.0519 11.3742C92.435 12.307 92.6058 13.7726 94.0794 14.3724C95.5537 14.9721 96.2387 15.3382 96.65 15.5381C97.0613 15.738 97.3009 16.5377 97.0265 17.0045C96.7528 17.4705 96.2387 18.0033 95.4161 18.0033Z" fill="white"/>
<path id="Vector_15" d="M103.57 18.0971V18.5631H107.785C109.053 18.5631 111.966 18.4631 112.034 15.1989C112.034 14.0993 111.486 12.7998 109.841 12.4669C110.664 12.2669 111.486 10.8344 111.486 9.86857C111.486 8.90276 111.109 7.26953 108.71 7.26953H103.57V7.70321C104.084 7.70321 104.975 7.80317 104.975 8.63594V16.8645C104.975 17.3312 104.941 18.0971 103.57 18.0971ZM106.449 7.80317H108.162C109.43 7.80317 109.944 8.70208 109.944 9.86857C109.944 11.3011 109.499 12.4 108.162 12.4H106.449V7.80317ZM106.449 12.9336H108.401C109.533 12.9336 110.527 13.6995 110.527 15.365C110.527 17.0306 109.499 18.0302 108.196 18.0302H106.449V12.9336Z" fill="white"/>
<path id="Vector_16" d="M125.168 18.1378H124.962V18.5707H128.697V18.1378H128.355C128.046 18.1378 127.498 18.0378 127.498 17.438V12.5406C127.464 10.3091 125.408 10.2422 124.688 10.2422C123.934 10.2422 123.111 10.7089 122.941 10.9419C122.741 11.2133 122.495 11.1088 122.46 10.8089C122.426 10.509 122.29 10.2091 121.946 10.3091C121.193 10.5421 120.508 10.642 119.925 10.6751V11.0088C121.364 10.9419 121.227 11.6417 121.227 11.9746V17.438C121.227 18.0378 120.678 18.1378 120.37 18.1378H119.891V18.5707H123.9V18.1378H123.557C123.249 18.1378 122.7 18.0378 122.7 17.438V13.0742C122.7 12.3414 122.975 11.1749 124.379 11.075C125.785 10.975 126.024 11.8747 126.024 12.5075V17.438C126.024 18.0378 125.476 18.1378 125.168 18.1378Z" fill="white"/>
<path id="Vector_17" d="M130.111 10.4102L129.494 12.6755H129.837C130.694 10.8769 131.31 10.8769 131.859 10.8769H134.086L129.117 18.5718H135.08L135.628 16.3403H135.355C134.703 17.8728 134.224 18.1058 133.607 18.1058H130.933L135.937 10.4102H130.111Z" fill="white"/>
</g>
<defs>
<clipPath id="clip0_8283_11004">
<rect width="135" height="27" fill="white" transform="translate(0.9375 0.113281)"/>
</clipPath>
</defs>
</svg>
