<svg width="24" height="24" viewBox="0 0 24 24" fill="none" xmlns="http://www.w3.org/2000/svg">
<path d="M12.0004 23C9.82483 23.0001 7.69805 22.355 5.88906 21.1464C4.08006 19.9377 2.67009 18.2198 1.83746 16.2098C1.00483 14.1998 0.786925 11.9881 1.21131 9.85428C1.6357 7.72046 2.68331 5.76041 4.22167 4.22199C5.76003 2.68357 7.72004 1.63587 9.85385 1.2114C11.9876 0.786926 14.1994 1.00474 16.2094 1.83729C18.2194 2.66984 19.9374 4.07974 21.1461 5.88869C22.3548 7.69764 23 9.82439 23 12C22.9966 14.9163 21.8366 17.7121 19.7746 19.7742C17.7125 21.8364 14.9167 22.9965 12.0004 23ZM12.0004 2.33409C10.0887 2.334 8.21984 2.90083 6.63023 3.96288C5.04063 5.02493 3.80165 6.5345 3.06999 8.30071C2.33834 10.0669 2.14686 12.0104 2.51977 13.8855C2.89268 15.7605 3.81323 17.4828 5.16501 18.8347C6.5168 20.1865 8.2391 21.1072 10.1141 21.4802C11.9891 21.8531 13.9326 21.6618 15.6989 20.9302C17.4651 20.1986 18.9748 18.9597 20.0369 17.3701C21.099 15.7806 21.6659 13.9118 21.6659 12C21.663 9.43742 20.6437 6.98064 18.8317 5.16858C17.0198 3.35652 14.563 2.33715 12.0004 2.33409Z" fill="#30353E"/>
<path d="M15.5988 12.6856H8.40142C8.22451 12.6856 8.05484 12.6154 7.92975 12.4903C7.80465 12.3652 7.73438 12.1955 7.73438 12.0186C7.73438 11.8417 7.80465 11.672 7.92975 11.5469C8.05484 11.4218 8.22451 11.3516 8.40142 11.3516H15.5988C15.7757 11.3516 15.9454 11.4218 16.0705 11.5469C16.1956 11.672 16.2659 11.8417 16.2659 12.0186C16.2659 12.1955 16.1956 12.3652 16.0705 12.4903C15.9454 12.6154 15.7757 12.6856 15.5988 12.6856Z" fill="#30353E"/>
</svg>
