<svg width="22" height="22" viewBox="0 0 22 22" fill="none" xmlns="http://www.w3.org/2000/svg">
<g id="Group">
<g id="Group_2">
<path id="Vector" d="M11.0004 22C8.82483 22.0001 6.69805 21.355 4.88906 20.1464C3.08006 18.9377 1.67009 17.2198 0.837458 15.2098C0.00482562 13.1998 -0.213075 10.9881 0.211313 8.85428C0.6357 6.72046 1.68331 4.76041 3.22167 3.22199C4.76003 1.68357 6.72004 0.635873 8.85385 0.211399C10.9876 -0.213074 13.1994 0.00473661 15.2094 0.837287C17.2194 1.66984 18.9374 3.07974 20.1461 4.88869C21.3548 6.69764 22 8.82439 22 11C21.9966 13.9163 20.8366 16.7121 18.7746 18.7742C16.7125 20.8364 13.9167 21.9965 11.0004 22ZM11.0004 1.33409C9.08869 1.334 7.21984 1.90083 5.63023 2.96288C4.04063 4.02493 2.80165 5.5345 2.06999 7.30071C1.33834 9.06692 1.14686 11.0104 1.51977 12.8855C1.89268 14.7605 2.81323 16.4828 4.16501 17.8347C5.5168 19.1865 7.2391 20.1072 9.11411 20.4802C10.9891 20.8531 12.9326 20.6618 14.6989 19.9302C16.4651 19.1986 17.9748 17.9597 19.0369 16.3701C20.099 14.7806 20.6659 12.9118 20.6659 11C20.663 8.43742 19.6437 5.98064 17.8317 4.16858C16.0198 2.35652 13.563 1.33715 11.0004 1.33409Z" fill="#005AFF"/>
<path id="Vector_2" d="M14.5988 11.6856H7.40142C7.22451 11.6856 7.05484 11.6154 6.92975 11.4903C6.80465 11.3652 6.73438 11.1955 6.73438 11.0186C6.73438 10.8417 6.80465 10.672 6.92975 10.5469C7.05484 10.4218 7.22451 10.3516 7.40142 10.3516H14.5988C14.7757 10.3516 14.9454 10.4218 15.0705 10.5469C15.1956 10.672 15.2659 10.8417 15.2659 11.0186C15.2659 11.1955 15.1956 11.3652 15.0705 11.4903C14.9454 11.6154 14.7757 11.6856 14.5988 11.6856Z" fill="#005AFF"/>
</g>
</g>
</svg>
