<svg width="49" height="54" viewBox="0 0 49 54" fill="none" xmlns="http://www.w3.org/2000/svg">
<g id="NHl" clip-path="url(#clip0_8283_11068)">
<path id="Vector" d="M46.5903 13.5081L48.4396 9.43819L44.0811 8.19165C42.752 7.81131 41.7754 6.8127 41.1776 5.22414L39.2524 0.113567L34.9561 3.56351C33.8173 4.47833 32.6629 4.94246 31.5255 4.94246C30.0047 4.94246 28.2731 4.22353 27.1169 3.11282L24.3481 0.457017L21.5829 3.11282C20.4232 4.22381 18.6933 4.94246 17.1725 4.94246C16.0355 4.94246 14.881 4.47833 13.7419 3.56351L9.44679 0.113281L7.52163 5.22385C6.92199 6.81242 5.9454 7.81102 4.61634 8.19136L0.257812 9.43791L2.10717 13.5078C2.96076 15.3878 3.39464 17.3501 3.39464 19.3373C3.39464 24.8417 0.499969 26.0934 0.499969 32.2043C0.499969 41.0096 7.52192 46.7719 14.0442 48.4008C17.34 49.18 18.3355 49.2318 21.3116 49.9424C21.5552 50.1955 24.3481 53.1127 24.3481 53.1127C24.3481 53.1127 27.1428 50.1955 27.3864 49.9424C30.3625 49.2321 31.358 49.18 34.6538 48.4008C41.1761 46.7722 48.1981 41.0096 48.1981 32.2043C48.1981 26.0934 45.3049 24.8417 45.3049 19.3373C45.3049 17.3501 45.737 15.3878 46.5906 13.5078L46.5903 13.5081ZM46.1151 25.854C46.8115 27.5464 47.484 29.3091 47.484 32.2046C47.484 40.2475 41.3106 46.0249 34.4753 47.7324C31.0967 48.56 29.5222 48.6407 27.0042 49.3242C26.6759 49.6593 24.3478 52.0989 24.3478 52.0989C24.3478 52.0989 22.0215 49.6593 21.6933 49.3242C19.1752 48.6404 17.6008 48.56 14.2221 47.7324C8.94419 46.4138 4.06183 42.6688 2.11071 37.3269C1.53526 35.7517 1.21376 34.0376 1.21376 32.2046C1.21376 26.1975 4.10695 25.0616 4.10695 19.3376C4.10695 16.9918 3.52619 14.9174 2.76079 13.2302L1.23824 9.87887L4.8175 8.8551C6.37632 8.40927 7.51189 7.26654 8.19117 5.46207L9.76917 1.27146L13.288 4.09656C14.446 5.02482 15.7679 5.63308 17.1731 5.63308C19.0552 5.63308 20.9199 4.7214 22.0847 3.60383L24.3487 1.43046L26.6145 3.60383C27.7811 4.7214 29.6443 5.63308 31.5261 5.63308C32.9313 5.63308 34.255 5.02482 35.4112 4.09656L38.93 1.27146L40.508 5.46207C41.1891 7.26682 42.3226 8.40956 43.8817 8.8551L47.461 9.87887L45.9402 13.2302C45.1727 14.9174 44.5923 16.9918 44.5923 19.3376C44.5923 22.3017 45.3683 24.0361 46.1166 25.854H46.1151Z" fill="white"/>
<path id="Vector_2" d="M15.125 42.7983C15.2459 42.8317 15.3669 42.8635 15.4863 42.8938C18.6765 43.6813 22.5791 44.0868 23.7577 44.7386C24.022 44.9262 24.347 45.2613 24.347 45.2613C24.347 45.2613 24.6721 44.9262 24.9381 44.7386C26.1167 44.0868 30.0193 43.6813 33.2095 42.8938C37.6302 41.8031 42.3881 37.996 42.3881 32.2034C42.3881 29.3162 41.0815 27.4162 40.2261 24.5156L15.125 42.7983Z" fill="white"/>
<path id="Vector_3" d="M31.5241 10.6237C28.3026 10.6237 25.7863 9.25986 24.3467 8.23438C22.907 9.25986 20.3925 10.6237 17.1711 10.6237C15.0453 10.6237 13.2358 9.92503 11.9586 9.23298C10.7714 11.155 9.28164 12.2726 8.09592 12.9043C8.60413 14.3856 9.19846 16.6759 9.19846 19.3269C9.19846 24.4326 7.39925 26.8253 6.64062 29.7156L33.0086 10.5098C32.5334 10.5819 32.0391 10.6237 31.5241 10.6237Z" fill="white"/>
<path id="Vector_4" d="M39.4965 19.3263C39.4965 16.6754 40.0876 14.3851 40.5991 12.9037C39.5812 12.3624 38.3438 11.4644 37.2634 10.0117L6.3125 32.555C6.46116 36.9887 9.41305 40.2176 12.7882 41.8982L39.7177 22.2836C39.5794 21.4022 39.4965 20.4273 39.4965 19.3263ZM20.0727 34.6029L17.6791 36.3456L15.0953 32.5101V38.229L12.8295 39.8779V31.7898C12.8295 30.6487 11.7042 30.6167 11.7042 30.6167L14.9154 28.2792L17.8068 32.5739V26.173L20.0727 24.5227V34.6031V34.6029ZM29.21 27.9458L26.9943 29.5609V25.8745L24.4383 27.7361V31.4226L22.1102 33.1184V25.0303C22.1102 23.8876 20.9853 23.8572 20.9853 23.8572L24.4383 21.3421V25.0669L26.9943 23.2052V19.4819L29.21 17.8667V27.9458ZM37.5714 21.8566L31.144 26.5382V18.4501C31.144 17.3074 30.0188 17.2771 30.0188 17.2771L33.4718 14.762V22.2704L37.5711 19.2846C37.5711 19.2846 37.433 20.2446 37.5714 21.8566Z" fill="white"/>
<path id="Vector_5" d="M45.2125 10.9028C45.2125 10.9028 39.6889 10.437 38.1923 3.92401C38.1923 3.92401 34.8794 7.23326 31.5213 7.23326C27.1938 7.23326 24.3439 3.66406 24.3439 3.66406C24.3439 3.66406 21.4959 7.23326 17.1683 7.23326C13.8103 7.23326 10.4974 3.92401 10.4974 3.92401C9.00076 10.437 3.47717 10.9028 3.47717 10.9028C3.47717 10.9028 5.7256 14.7617 5.7256 19.3278C5.7256 19.9278 5.69286 20.4805 5.63917 21.0001C5.16224 25.5628 2.83594 27.3927 2.83594 32.2067C2.83594 38.1149 7.00805 44.3147 14.6226 46.1829C18.2431 47.0709 20.7405 47.2957 22.5795 47.9391C22.8146 48.1536 24.3439 49.7621 24.3439 49.7621C24.3439 49.7621 25.875 48.1536 26.1101 47.9391C27.9489 47.2957 30.4462 47.0712 34.0653 46.1829C41.6816 44.3147 45.8537 38.1149 45.8537 32.2067C45.8537 26.8448 42.9658 25.1876 42.9658 19.3281C42.9658 14.762 45.2125 10.9028 45.2125 10.9028ZM44.2309 32.2064C44.2309 39.0346 38.7453 43.381 33.6609 44.6327C29.6325 45.6247 26.9985 45.7368 25.2323 46.5647C25.2323 46.5647 24.5893 47.1361 24.3439 47.3975C24.1003 47.1361 23.4591 46.5647 23.4591 46.5647C21.6894 45.7368 19.0572 45.6247 15.0287 44.6327C9.94431 43.381 4.45877 39.0346 4.45877 32.2064C4.45877 27.3221 7.3502 25.5308 7.3502 19.3278C7.3502 15.1472 5.72058 11.9266 5.72058 11.9266C5.72058 11.9266 9.47947 11.1911 11.2303 6.57467C11.2303 6.57467 13.7259 8.83326 17.1686 8.83326C21.4805 8.83326 24.3442 5.89606 24.3442 5.89606C24.3442 5.89606 27.2097 8.83326 31.5216 8.83326C34.9643 8.83326 37.4599 6.57467 37.4599 6.57467C39.2108 11.1911 42.9697 11.9266 42.9697 11.9266C42.9697 11.9266 41.34 15.1472 41.34 19.3278C41.34 25.5308 44.2315 27.3221 44.2315 32.2064H44.2309Z" fill="white"/>
<path id="Vector_6" d="M43.6271 46.1602C42.5989 46.1602 41.7656 46.9695 41.7656 47.9663C41.7656 48.9632 42.5986 49.7725 43.6271 49.7725C44.6556 49.7725 45.49 48.965 45.49 47.9663C45.49 46.9677 44.6571 46.1602 43.6271 46.1602ZM43.6271 49.3839C42.8201 49.3839 42.165 48.7522 42.165 47.9663C42.165 47.1805 42.8201 46.5488 43.6271 46.5488C44.4341 46.5488 45.0909 47.1822 45.0909 47.9663C45.0909 48.7505 44.4358 49.3839 43.6271 49.3839Z" fill="white"/>
<path id="Vector_7" d="M44.3968 47.5492C44.3968 47.2106 44.1151 46.9375 43.7641 46.9375H42.8672V49.0002H43.2663V48.1623H43.5533L43.9559 49.0002H44.3965L43.9765 48.1257C44.2201 48.0419 44.3965 47.8157 44.3965 47.5492H44.3968ZM43.7641 47.7737H43.2663V47.3247H43.7641C43.8939 47.3247 43.9974 47.4254 43.9974 47.5492C43.9974 47.673 43.8936 47.7737 43.7641 47.7737Z" fill="white"/>
</g>
<defs>
<clipPath id="clip0_8283_11068">
<rect width="48.1818" height="53" fill="white" transform="translate(0.257812 0.113281)"/>
</clipPath>
</defs>
</svg>
