<svg width="20" height="20" viewBox="0 0 20 20" fill="none" xmlns="http://www.w3.org/2000/svg">
<g clip-path="url(#clip0_8334_13027)">
<path fill-rule="evenodd" clip-rule="evenodd" d="M10 19C14.9706 19 19 14.9707 19 10C19 5.02944 14.9707 0.999979 10 0.999979C5.02944 0.999979 0.999979 5.02944 0.999979 10C0.999979 14.9706 5.02944 19 10 19ZM10 20C15.5228 20 20 15.5228 20 10C20 4.47711 15.5228 0 10 0C4.47711 0 0 4.47711 0 10C0 15.5228 4.47711 20 10 20Z" fill="#525966"/>
<path fill-rule="evenodd" clip-rule="evenodd" d="M13.4177 9.96045L8.14638 6.4463V13.4747L13.4177 9.96045ZM14.4826 9.29284C14.9591 9.61049 14.9591 10.3105 14.4826 10.6282L8.24751 14.785C7.7143 15.1405 7 14.7582 7 14.1173V5.80373C7 5.16286 7.7143 4.78061 8.24751 5.13613L14.4826 9.29284Z" fill="#525966"/>
</g>
<defs>
<clipPath id="clip0_8334_13027">
<rect width="20" height="20" fill="white"/>
</clipPath>
</defs>
</svg>
