<svg width="22" height="23" viewBox="0 0 22 23" fill="none" xmlns="http://www.w3.org/2000/svg">
<g id="Group">
<g id="Group_2">
<path id="Vector" d="M11.0004 22.1133C8.82483 22.1134 6.69805 21.4683 4.88906 20.2597C3.08006 19.051 1.67009 17.3331 0.837458 15.3231C0.00482562 13.3131 -0.213075 11.1014 0.211313 8.96756C0.6357 6.83374 1.68331 4.87369 3.22167 3.33527C4.76003 1.79685 6.72004 0.749154 8.85385 0.324681C10.9876 -0.0997928 13.1994 0.118018 15.2094 0.950569C17.2194 1.78312 18.9374 3.19302 20.1461 5.00197C21.3548 6.81092 22 8.93767 22 11.1133C21.9966 14.0295 20.8366 16.8254 18.7746 18.8875C16.7125 20.9497 13.9167 22.1098 11.0004 22.1133ZM11.0004 1.44737C9.08869 1.44729 7.21984 2.01411 5.63023 3.07616C4.04063 4.13821 2.80165 5.64779 2.06999 7.41399C1.33834 9.1802 1.14686 11.1237 1.51977 12.9987C1.89268 14.8738 2.81323 16.5961 4.16501 17.948C5.5168 19.2998 7.2391 20.2204 9.11411 20.5934C10.9891 20.9664 12.9326 20.775 14.6989 20.0435C16.4651 19.3119 17.9748 18.073 19.0369 16.4834C20.099 14.8939 20.6659 13.025 20.6659 11.1133C20.663 8.5507 19.6437 6.09392 17.8317 4.28186C16.0198 2.4698 13.563 1.45043 11.0004 1.44737Z" fill="#30353E"/>
<path id="Vector_2" d="M11.003 15.4451C10.8261 15.4451 10.6564 15.3748 10.5313 15.2497C10.4062 15.1246 10.3359 14.955 10.3359 14.7781V7.58111C10.3359 7.4042 10.4062 7.23453 10.5313 7.10943C10.6564 6.98434 10.8261 6.91406 11.003 6.91406C11.1799 6.91406 11.3496 6.98434 11.4747 7.10943C11.5997 7.23453 11.67 7.4042 11.67 7.58111V14.7781C11.67 14.955 11.5997 15.1246 11.4747 15.2497C11.3496 15.3748 11.1799 15.4451 11.003 15.4451Z" fill="#30353E"/>
<path id="Vector_3" d="M14.5988 11.8028H7.40142C7.22451 11.8028 7.05484 11.7326 6.92975 11.6075C6.80465 11.4824 6.73438 11.3127 6.73438 11.1358C6.73438 10.9589 6.80465 10.7892 6.92975 10.6641C7.05484 10.539 7.22451 10.4688 7.40142 10.4688H14.5988C14.7757 10.4688 14.9454 10.539 15.0705 10.6641C15.1956 10.7892 15.2659 10.9589 15.2659 11.1358C15.2659 11.3127 15.1956 11.4824 15.0705 11.6075C14.9454 11.7326 14.7757 11.8028 14.5988 11.8028Z" fill="#30353E"/>
</g>
</g>
</svg>
