<svg width="24" height="25" viewBox="0 0 24 25" fill="none" xmlns="http://www.w3.org/2000/svg">
<g id="Frame" clip-path="url(#clip0_8611_20074)">
<g id="Group">
<path id="Vector" d="M0.5 12.5C0.5 6.15908 5.65908 1 12 1C18.3409 1 23.5 6.15908 23.5 12.5C23.5 18.8409 18.3409 24 12 24C5.65908 24 0.5 18.8409 0.5 12.5Z" stroke="#01D18F"/>
<path id="Vector_2" d="M17.2499 13.4999H12.9999V17.7499C12.9999 18.302 12.552 18.7499 11.9999 18.7499C11.4479 18.7499 11 18.302 11 17.7499V13.4999H6.74994C6.19789 13.4999 5.75 13.052 5.75 12.4999C5.75 11.9479 6.19789 11.5 6.74994 11.5H11V7.24994C11 6.69789 11.4479 6.25 11.9999 6.25C12.552 6.25 12.9999 6.69789 12.9999 7.24994V11.5H17.2499C17.802 11.5 18.2499 11.9479 18.2499 12.4999C18.2499 13.052 17.802 13.4999 17.2499 13.4999Z" fill="#01D18F"/>
</g>
</g>
<defs>
<clipPath id="clip0_8611_20074">
<rect width="24" height="24" fill="white" transform="translate(0 0.5)"/>
</clipPath>
</defs>
</svg>
