<svg width="30" height="30" viewBox="0 0 30 30" fill="none" xmlns="http://www.w3.org/2000/svg">
<g clip-path="url(#clip0_8611_20388)">
<path d="M15 30C23.2843 30 30 23.2843 30 15C30 6.71573 23.2843 0 15 0C6.71573 0 0 6.71573 0 15C0 23.2843 6.71573 30 15 30Z" fill="#525966"/>
<path d="M21.1669 9.99219H8.77063C7.36126 9.99219 6.21875 10.8316 6.21875 11.867V11.8674C6.21875 12.9028 7.36126 13.7422 8.77063 13.7422H21.1669C22.5762 13.7422 23.7188 12.9028 23.7188 11.8674V11.867C23.7188 10.8316 22.5762 9.99219 21.1669 9.99219Z" fill="white"/>
<path d="M21.1669 16.8633H8.77063C7.36126 16.8633 6.21875 17.7026 6.21875 18.7381V18.7385C6.21875 19.7739 7.36126 20.6133 8.77063 20.6133H21.1669C22.5762 20.6133 23.7188 19.7739 23.7188 18.7385V18.7381C23.7188 17.7026 22.5762 16.8633 21.1669 16.8633Z" fill="white"/>
</g>
<defs>
<clipPath id="clip0_8611_20388">
<rect width="30" height="30" fill="white"/>
</clipPath>
</defs>
</svg>
