<svg width="128" height="10" viewBox="0 0 128 10" fill="none" xmlns="http://www.w3.org/2000/svg">
<g id="Scholastic" clip-path="url(#clip0_8283_11097)">
<path id="Vector" d="M2.26956 7.46104C3.1085 7.46336 3.19305 7.44557 4.01013 7.70466C4.81991 7.96297 5.62897 8.83536 5.81848 9.00783C5.96353 9.14008 6.07432 9.1656 6.07432 8.97921L6.15523 2.63737C6.15523 2.23675 5.54807 1.66444 5.04951 1.20582C4.55023 0.747969 3.83447 0.561581 3.48387 0.532965C3.26885 0.515177 2.12159 0.532965 1.68937 0.418503C1.25787 0.30404 1.32566 0.447892 1.28484 0.719353L0.448811 6.96065C0.421842 7.30404 0.556686 7.31874 0.650711 7.36127C0.745466 7.40458 1.46196 7.45949 2.26956 7.46104Z" fill="white"/>
<path id="Vector_2" d="M11.1453 0.461475C11.1184 0.18924 11.0644 0.203934 10.9026 0.246471C10.7408 0.289781 10.786 0.290555 10.0251 0.432859C9.6628 0.500145 9.16352 0.446007 8.5826 0.633169C8.01772 0.814143 7.57747 1.13742 7.08475 1.60687C6.89961 1.78321 6.49144 2.12195 6.46447 2.63704L6.4375 8.62002C6.4375 8.90695 6.57234 8.96418 6.73416 8.73526C6.9346 8.45219 7.19772 8.21631 7.5024 8.0624C8.5826 7.51871 10.0666 7.40424 10.2547 7.39032C10.4434 7.37563 11.4158 7.28978 11.5499 7.24647C11.8779 7.14206 11.9646 7.24106 11.9005 6.54577L11.1453 0.461475Z" fill="white"/>
<path id="Vector_3" d="M21.2662 7.69979C20.3318 7.96893 19.627 7.87767 18.8128 7.59461C17.8514 7.25973 16.9782 6.59925 16.7005 6.26746C16.667 6.22802 16.6079 6.20559 16.6094 6.30149C16.6138 6.57991 16.7049 8.09731 16.7151 8.25045C16.7238 8.39507 16.753 8.40977 16.8565 8.34712C17.3645 8.0455 18.0169 8.21564 18.8128 8.44998C19.7174 8.71758 20.7086 8.77404 21.6314 8.50876C22.2823 8.32083 22.8479 7.9612 23.2991 7.3069C23.7087 6.71448 23.7247 5.72376 23.3603 5.16073C23.0964 4.75393 22.6635 4.38115 22.189 4.1994C21.6358 3.98749 20.5235 3.83049 19.9397 3.73614C19.3201 3.63637 18.6743 3.51959 18.3536 3.16769C18.0635 2.84905 18.0008 2.30613 18.2822 1.88308C18.4629 1.61317 18.7683 1.33243 19.288 1.19167C19.7188 1.07489 20.3267 1.02771 21.0563 1.23885C22.049 1.52578 22.7094 2.27442 22.9048 2.47241C22.9857 2.55594 23.0272 2.54279 23.0192 2.41286C23.0112 2.28989 22.9113 0.954236 22.8887 0.666533C22.8741 0.471638 22.7969 0.524229 22.6533 0.590741C22.213 0.79337 21.842 0.517268 20.8573 0.332427C19.8682 0.148359 18.9506 0.236526 18.3485 0.487879C17.8893 0.680455 17.3594 0.986719 17.0059 1.62013C16.6743 2.21332 16.6079 3.03854 17.0555 3.76011C17.4199 4.34789 17.9505 4.84441 19.8624 5.13212C21.6926 5.40667 21.9149 5.70211 22.0731 5.89391C22.31 6.18161 22.3136 6.69438 22.1445 7.0076C22.0337 7.21332 21.6992 7.5745 21.2662 7.69979Z" fill="white"/>
<path id="Vector_4" d="M31.2295 1.36742C31.879 1.07199 32.8214 1.01707 33.5751 1.32334C34.0496 1.51746 34.6997 1.90106 35.0817 2.38134C35.1363 2.45095 35.2231 2.4494 35.2107 2.32102C35.1924 2.13618 35.086 1.03641 35.086 1.03641C35.07 0.918853 35.043 0.905705 34.9344 0.84306C34.7515 0.737878 34.0663 0.496579 33.6858 0.420786C32.7988 0.243679 31.8287 0.22125 30.9001 0.502766C30.0305 0.766494 29.1471 1.15861 28.2819 2.4842C27.6354 3.4757 27.4918 5.16402 28.2316 6.37748C28.9488 7.55304 29.9416 8.11607 30.8119 8.42388C31.6574 8.72318 32.9118 8.76417 33.9504 8.49426C34.3841 8.38212 34.9002 8.18181 35.0663 8.08977C35.1801 8.02713 35.1961 8.02713 35.2216 7.89024C35.2639 7.65899 35.4104 6.82837 35.465 6.51823C35.4855 6.3999 35.4271 6.37748 35.3462 6.4641C34.9811 6.85079 34.3929 7.25141 33.7959 7.49967C33.0299 7.82063 32.0116 7.97222 31.0553 7.46796C30.0546 6.94051 29.7062 6.23053 29.5188 5.8856C29.204 5.30555 28.9612 3.91576 29.685 2.69534C30.1588 1.89874 30.7346 1.59325 31.2295 1.36742Z" fill="white"/>
<path id="Vector_5" d="M39.8261 8.39972C39.7627 8.42524 39.7671 8.49175 39.8356 8.49175H42.5106C42.5798 8.49175 42.5835 8.42524 42.5201 8.39972C41.8947 8.15455 41.8364 7.50722 41.8364 7.19013V4.55208H46.9196V7.19013C46.9196 7.50722 46.8606 8.15455 46.2366 8.39972C46.1725 8.42524 46.1761 8.49175 46.2454 8.49175H48.9204C48.9896 8.49175 48.9933 8.42524 48.9291 8.39972C48.3052 8.15455 48.2462 7.50722 48.2462 7.19013V1.75007C48.2462 1.43375 48.3052 0.785646 48.9291 0.541253C48.9933 0.516504 48.9896 0.449219 48.9204 0.449219H46.2454C46.1761 0.449219 46.1725 0.516504 46.2366 0.541253C46.8606 0.785646 46.9196 1.43375 46.9196 1.75007V3.80189H41.8364V1.75007C41.8364 1.43375 41.8947 0.785646 42.5201 0.541253C42.5835 0.516504 42.5798 0.449219 42.5106 0.449219H39.8356C39.7671 0.449219 39.7627 0.516504 39.8261 0.541253C40.4508 0.785646 40.5105 1.43375 40.5105 1.75007V7.1909C40.5105 7.508 40.4508 8.15455 39.8261 8.39972Z" fill="white"/>
<path id="Vector_6" d="M66.9122 8.43C66.8488 8.45552 66.8525 8.52281 66.9224 8.52281H71.5253C71.9284 8.52281 72.314 8.62412 72.6077 8.80664C72.6551 8.83603 72.6974 8.84841 72.7294 8.76333C72.806 8.55761 73.2499 7.37973 73.3235 7.16705C73.3526 7.08275 73.3053 7.0348 73.2309 7.10363C73.1566 7.17169 72.5188 7.77261 71.58 7.77261C70.6412 7.77261 68.9502 7.77107 68.9502 7.77107V1.76256C68.9502 1.36658 69.0471 0.847635 69.7206 0.569213C69.7833 0.543691 69.776 0.460938 69.7075 0.460938H66.9224C66.8525 0.460938 66.8488 0.528223 66.9122 0.552972C67.5376 0.798138 67.5959 1.44624 67.5959 1.76256V7.2034C67.5959 7.52049 67.5376 8.18561 66.9122 8.43Z" fill="white"/>
<path id="Vector_7" d="M94.7115 7.71541C93.7778 7.98533 93.0723 7.8933 92.2581 7.61023C91.296 7.27613 90.4243 6.61487 90.1458 6.28309C90.113 6.24364 90.0533 6.22199 90.0547 6.31712C90.0591 6.59554 90.1502 8.11294 90.1597 8.26685C90.1692 8.4107 90.1983 8.42539 90.3018 8.36352C90.8106 8.0619 91.4629 8.23127 92.2581 8.46561C93.1627 8.73243 94.1539 8.78966 95.076 8.52439C95.7276 8.33722 96.2939 7.97605 96.7451 7.32253C97.154 6.73088 97.1701 5.73939 96.8056 5.17713C96.5418 4.76955 96.1095 4.39678 95.6343 4.21503C95.0811 4.00389 93.9695 3.84612 93.385 3.75176C92.7669 3.65277 92.1204 3.53521 91.7997 3.18332C91.5088 2.86468 91.4454 2.32176 91.7275 1.89948C91.9083 1.62879 92.2137 1.34805 92.7334 1.20729C93.1649 1.09051 93.772 1.04333 94.5016 1.25447C95.4944 1.54217 96.1547 2.28927 96.3501 2.48804C96.431 2.57156 96.4725 2.55842 96.4645 2.42848C96.4565 2.30629 96.3566 0.969862 96.3348 0.682932C96.3194 0.488036 96.2422 0.539854 96.0979 0.606366C95.6591 0.808995 95.2874 0.53212 94.3026 0.348052C93.3135 0.163984 92.3966 0.252151 91.7938 0.503504C91.3346 0.69608 90.8047 1.00234 90.4512 1.63575C90.1203 2.22895 90.0533 3.05416 90.5008 3.77497C90.866 4.36352 91.3959 4.86081 93.3077 5.14697C95.1379 5.4223 95.3595 5.71773 95.5184 5.91031C95.756 6.19647 95.7582 6.71077 95.5906 7.024C95.4798 7.22818 95.1445 7.59012 94.7115 7.71541Z" fill="white"/>
<path id="Vector_8" d="M108.929 0.224196C108.441 0.396663 107.938 0.447707 107.529 0.447707H102.865C102.409 0.447707 102.102 0.236571 101.992 0.14299C101.947 0.10432 101.904 0.0989062 101.865 0.153817C101.627 0.485604 101.141 1.13912 100.909 1.45312C100.851 1.53201 100.862 1.61708 100.984 1.54902C101.462 1.28529 101.704 1.29148 102.113 1.29148H104.091V7.21337C104.091 7.52969 104.032 8.17702 103.408 8.42296C103.344 8.44771 103.348 8.51499 103.418 8.51499H106.092C106.161 8.51499 106.164 8.44771 106.102 8.42296C105.477 8.17702 105.418 7.52969 105.418 7.21337V1.29148H107.097C107.705 1.29148 107.881 1.50417 107.971 1.56062C108.012 1.58769 108.048 1.64106 108.114 1.54902C108.302 1.29148 108.796 0.596973 108.993 0.31159C109.058 0.217236 108.987 0.204088 108.929 0.224196Z" fill="white"/>
<path id="Vector_9" d="M113.022 8.4208C112.958 8.44555 112.962 8.51361 113.031 8.51361H115.705C115.775 8.51361 115.779 8.44555 115.715 8.4208C115.09 8.17563 115.031 7.5283 115.031 7.21198V1.77115C115.031 1.45406 115.09 0.806724 115.715 0.560784C115.779 0.536809 115.775 0.46875 115.705 0.46875H113.031C112.962 0.46875 112.958 0.536809 113.022 0.560784C113.646 0.806724 113.705 1.45406 113.705 1.77115V7.21198C113.705 7.5283 113.646 8.17563 113.022 8.4208Z" fill="white"/>
<path id="Vector_10" d="M127.597 6.4641C127.231 6.85079 126.643 7.25141 126.046 7.49967C125.281 7.82063 124.262 7.97222 123.306 7.46796C122.306 6.94051 121.957 6.23053 121.77 5.8856C121.455 5.30555 121.212 3.91576 121.935 2.69534C122.409 1.89874 122.985 1.59325 123.48 1.36742C124.129 1.07199 125.072 1.01707 125.825 1.32334C126.301 1.51746 126.952 1.90106 127.333 2.38134C127.387 2.45095 127.473 2.4494 127.461 2.32102C127.444 2.13618 127.336 1.03641 127.336 1.03641C127.32 0.918853 127.293 0.905705 127.185 0.84306C127.003 0.737878 126.317 0.496579 125.936 0.420786C125.05 0.243679 124.08 0.22125 123.151 0.502766C122.281 0.766494 121.397 1.15861 120.532 2.4842C119.885 3.4757 119.742 5.16402 120.482 6.37748C121.199 7.55304 122.193 8.11607 123.063 8.42388C123.908 8.72318 125.162 8.76417 126.201 8.49426C126.635 8.38212 127.15 8.18181 127.317 8.08977C127.431 8.02713 127.446 8.02713 127.472 7.89024C127.515 7.65899 127.661 6.82837 127.715 6.51823C127.736 6.3999 127.677 6.37748 127.597 6.4641Z" fill="white"/>
<path id="Vector_11" d="M61.1793 1.4364C59.9803 0.363701 58.3498 0.328125 57.9074 0.328125H57.8083C57.3658 0.328125 55.7361 0.363701 54.5378 1.4364C53.3825 2.46966 53.1172 3.65218 53.1172 4.46656V4.52611C53.1172 5.34127 53.3825 6.52379 54.5378 7.55782C55.7361 8.63052 57.3658 8.66533 57.8083 8.66533H57.9074C58.3498 8.66533 59.9803 8.63052 61.1793 7.55782C62.3332 6.52379 62.5992 5.34127 62.5992 4.52611V4.46656C62.5992 3.65218 62.3332 2.46966 61.1793 1.4364ZM61.0409 4.52611C61.0409 5.18195 60.8193 6.06208 60.1567 6.80067C59.4934 7.53926 58.5539 7.80918 57.903 7.80918H57.8141C57.1618 7.80918 56.2222 7.53926 55.5589 6.80067C54.8964 6.06208 54.6748 5.18195 54.6748 4.52611V4.46656C54.6748 3.81072 54.8964 2.93137 55.5589 2.19278C56.2222 1.45419 57.1618 1.18427 57.8141 1.18427H57.903C58.5539 1.18427 59.4934 1.45419 60.1567 2.19278C60.8193 2.93137 61.0409 3.81072 61.0409 4.46656V4.52611Z" fill="white"/>
<path id="Vector_12" d="M77.1206 7.43456C76.7109 8.17316 76.407 8.31623 76.2612 8.3812C76.1366 8.43688 76.1913 8.51268 76.2692 8.51268H78.004C78.0878 8.51268 78.0761 8.43456 78.0098 8.39048C77.7686 8.22961 77.8028 7.88932 77.883 7.72768C78.0047 7.48097 78.6235 6.3433 78.6235 6.3433H83.4531C83.4531 6.3433 84.0267 7.42296 84.182 7.71608C84.4283 8.18166 84.096 8.36109 84.0297 8.39589C83.9641 8.43147 83.9502 8.51577 84.0442 8.51577H86.4029C86.4918 8.51577 86.494 8.4191 86.4145 8.39048C86.1135 8.27988 85.8067 7.96202 85.5967 7.57532C85.3868 7.18785 81.7315 0.453125 81.7315 0.453125H80.3721C80.3364 0.453125 80.3 0.475553 80.3459 0.519637C80.5944 0.754749 80.5361 1.00997 80.4268 1.26364C80.3167 1.52196 77.5288 6.69597 77.1206 7.43456ZM81.0879 1.74469L83.0741 5.5846H79.0208L81.0879 1.74469Z" fill="white"/>
</g>
<defs>
<clipPath id="clip0_8283_11097">
<rect width="127.286" height="9" fill="white" transform="translate(0.4375 0.113281)"/>
</clipPath>
</defs>
</svg>
