<svg width="110" height="22" viewBox="0 0 110 22" fill="none" xmlns="http://www.w3.org/2000/svg">
<g id="Ses" clip-path="url(#clip0_8283_11036)">
<path id="Vector" d="M32.4437 8.26278L28.6035 0.113281L24.7031 8.26278C26.5032 6.25667 30.5239 6.25667 32.4437 8.26278Z" fill="white"/>
<path id="Vector_2" d="M22.125 13.5928C25.9652 9.39267 31.1861 9.33046 35.0263 13.5928C32.5061 7.01073 24.7054 7.01073 22.125 13.5928Z" fill="white"/>
<path id="Vector_3" d="M54.3425 2.68359C54.3425 2.68359 51.5823 6.25649 51.3422 6.57011C51.042 6.25649 48.3413 2.68359 48.3413 2.68359H46.7812V12.7757H48.4616V5.5042C48.8214 5.94352 50.4416 8.07469 51.3422 9.26565C52.1821 8.07469 53.8023 5.94352 54.1626 5.5042V12.7757H55.8424V2.68359H54.3425Z" fill="white"/>
<path id="Vector_4" d="M57.8828 12.7757H63.7036V11.1461H59.6233V8.51336H63.4635V6.88372H59.6233V4.31323H63.5839V2.68359H63.4034H57.8828V12.7757Z" fill="white"/>
<path id="Vector_5" d="M65.5078 2.68359V12.7757H67.1882V8.57557H67.5479C68.1484 8.57557 68.688 8.70127 69.8883 10.7067L71.2082 12.7757H73.249L72.8886 12.2742C72.3483 11.5219 72.1083 11.2083 71.7485 10.5817L71.6883 10.5188C71.0885 9.45356 70.5482 8.57557 69.8281 8.01184C70.7288 7.51031 71.2684 6.69516 71.2684 5.56705C71.2684 3.74885 70.008 2.68359 68.028 2.68359H65.5078ZM67.1882 4.25038H67.8481C69.348 4.25038 69.5279 5.00267 69.5279 5.5042V5.56705C69.5279 5.94287 69.4082 6.25649 69.2283 6.50725C68.9281 6.75802 68.5081 6.94593 67.8481 6.94593H67.1882V4.25038Z" fill="white"/>
<path id="Vector_6" d="M74.3281 2.68359V12.7757H76.0079V2.68359H75.828H74.3281Z" fill="white"/>
<path id="Vector_7" d="M82.8453 12.9643C84.5257 12.9643 85.546 12.4628 86.3257 12.0241H86.4461V10.018L86.1459 10.2059C85.1261 10.8954 84.0456 11.2718 83.0258 11.2718C80.8654 11.2718 79.3655 9.83009 79.3655 7.76113C79.3655 5.69217 80.8654 4.18823 82.9657 4.18823C83.986 4.18823 84.9456 4.50185 86.0863 5.19129L86.3257 5.3792V3.37309H86.2662C84.9456 2.80936 83.9259 2.55859 82.9657 2.55859C79.9052 2.55859 77.625 4.75261 77.625 7.88683C77.625 9.83009 79.0653 12.9643 82.8453 12.9643Z" fill="white"/>
<path id="Vector_8" d="M93.1116 2.55859C90.1708 2.55859 87.8906 4.75261 87.8906 7.76178C87.8906 10.7081 90.1113 12.9643 93.0514 12.9643C96.5318 12.9643 98.3319 10.3316 98.3319 7.76178C98.3319 4.69041 96.1119 2.55859 93.1116 2.55859ZM93.1116 11.2718C91.131 11.2718 89.6311 9.76789 89.6311 7.76178C89.6311 5.69346 91.131 4.18888 93.1116 4.18888C95.0921 4.18888 96.592 5.69346 96.592 7.76178C96.592 9.76789 95.0915 11.2718 93.1116 11.2718Z" fill="white"/>
<path id="Vector_9" d="M109.254 2.68359H107.754C107.754 2.68359 104.934 6.25649 104.694 6.57011C104.454 6.25649 101.693 2.68359 101.693 2.68359H100.133V12.7757H101.873V5.5042C102.353 6.13143 104.514 8.95204 104.514 8.95204H104.874C104.874 8.95204 107.094 6.13143 107.514 5.5042V12.7757H109.254V2.68359Z" fill="white"/>
<path id="Vector_10" d="M40.242 2.62109L36.1016 12.7761H37.8421C37.9016 12.651 38.3817 11.5222 38.922 10.2062H42.8825C43.4823 11.5222 43.9624 12.651 44.0226 12.7761H45.7625L41.4422 2.62109H40.242ZM39.582 8.57592C40.1824 7.07134 40.7221 5.69246 40.8424 5.4417C40.9621 5.69246 41.5626 7.07134 42.1624 8.57592H39.582Z" fill="white"/>
<path id="Vector_11" d="M0.9375 5.3792C0.9375 6.88378 2.13775 7.63607 3.21767 8.32551C4.17787 8.95209 4.95819 9.45362 4.95819 10.2688C4.95819 10.6446 4.5978 11.2718 3.63822 11.2718C2.73757 11.2718 1.95787 10.8331 1.29789 9.95515L0.997668 9.51647V11.9613L1.05784 12.0241C1.83753 12.6507 2.73757 12.9643 3.75794 12.9643C5.37812 12.9643 6.57837 11.7733 6.57837 10.0809C6.57837 8.26266 5.19824 7.44751 4.05816 6.75807C3.21767 6.3194 2.55769 5.88073 2.55769 5.19129C2.55769 4.62691 3.03779 4.18823 3.81811 4.18823C4.53764 4.18823 5.25779 4.50185 5.91839 5.19129L6.21799 5.44205V3.31088H6.09827C5.43829 2.80936 4.65797 2.55859 3.93782 2.55859C2.13775 2.55859 0.9375 3.68671 0.9375 5.3792Z" fill="white"/>
<path id="Vector_12" d="M13.8981 4.31323V2.68359H13.7182H8.25781V12.7757H14.0184V11.1461H9.99771V8.51336H13.7784V6.88372H9.99771V4.31323H13.8981Z" fill="white"/>
<path id="Vector_13" d="M17.6841 8.32551C18.5841 8.95209 19.3644 9.45362 19.3644 10.2688C19.3644 10.6446 19.0041 11.2718 18.0439 11.2718C17.204 11.2718 16.3635 10.8331 15.7035 9.95515L15.4039 9.51647V11.9613L15.4635 12.0241C16.304 12.6507 17.1438 12.9643 18.2237 12.9643C19.7844 12.9643 20.9846 11.7733 20.9846 10.0809C20.9846 8.26266 19.6039 7.44751 18.524 6.75807C17.6841 6.3194 16.9639 5.88073 16.9639 5.19129C16.9639 4.62691 17.5042 4.18823 18.2237 4.18823C18.9433 4.18823 19.664 4.50185 20.324 5.19129L20.6242 5.44205V3.31088H20.5641C19.8439 2.80936 19.1244 2.55859 18.3441 2.55859C16.544 2.55859 15.3438 3.68671 15.3438 5.3792C15.3438 6.88378 16.6035 7.63607 17.6841 8.32551Z" fill="white"/>
<path id="Vector_14" d="M56.8622 16.4766L55.4219 19.9866H55.9621L56.3821 18.9207H57.7622L58.1821 19.9866H58.6622L57.2219 16.4766H56.8622ZM56.562 18.482L57.0421 17.2289L57.5823 18.482H56.562Z" fill="white"/>
<path id="Vector_15" d="M60.829 19.9838V18.5421C60.829 17.9148 60.4692 17.6641 60.1088 17.6641C59.8086 17.6641 59.5686 17.7898 59.4488 17.9777V17.6641H58.9688V19.9838H59.4488V18.3535C59.6287 18.1027 59.7491 17.9777 59.9891 17.9777C60.2292 17.9777 60.4091 18.2284 60.4091 18.5421V19.9838H60.829Z" fill="white"/>
<path id="Vector_16" d="M63.6477 16.9159C63.8282 16.9159 64.1278 16.9781 64.428 17.2917V16.7273C64.188 16.5394 63.8878 16.4766 63.6477 16.4766C63.0479 16.4766 62.6875 16.7902 62.6875 17.3546C62.6875 18.357 64.0683 18.4198 64.0683 19.1093C64.0683 19.2978 63.9479 19.5486 63.528 19.5486C63.2278 19.5486 62.9276 19.36 62.6875 19.0471V19.6736C62.9276 19.9244 63.2278 19.9873 63.5882 19.9873C64.1278 19.9873 64.5477 19.6108 64.5477 19.0471C64.5477 17.9811 63.1081 17.9811 63.1081 17.2917C63.1081 17.0409 63.3481 16.9159 63.6477 16.9159Z" fill="white"/>
<path id="Vector_17" d="M65.0234 19.9866H66.9438V19.4857H65.5035V18.4198H66.8837V17.9811H65.5035V16.9781H66.9438V16.4766H65.0234V19.9866Z" fill="white"/>
<path id="Vector_18" d="M68.2047 19.5486C67.8443 19.5486 67.5447 19.36 67.3047 19.0471V19.6736C67.6043 19.9244 67.9045 19.9873 68.2643 19.9873C68.8045 19.9873 69.1643 19.6108 69.1643 19.0471C69.1643 17.9811 67.7246 17.9811 67.7246 17.2917C67.7246 17.0409 67.9647 16.9159 68.2643 16.9159C68.5043 16.9159 68.7444 16.9781 69.0446 17.2917V16.7273C68.8045 16.5394 68.5645 16.4766 68.3244 16.4766C67.7246 16.4766 67.3047 16.7902 67.3047 17.3546C67.3047 18.357 68.7444 18.4198 68.7444 19.1093C68.7444 19.2978 68.5645 19.5486 68.2047 19.5486Z" fill="white"/>
<path id="Vector_19" d="M72.7063 16.9152C73.0667 16.9152 73.4866 17.0403 73.9066 17.2289V16.7273C73.3663 16.5388 73.0667 16.4766 72.7063 16.4766C71.6866 16.4766 70.9062 17.2289 70.9062 18.2313C70.9062 19.2972 71.6866 19.9866 72.7063 19.9866C73.1269 19.9866 73.4866 19.9238 73.9667 19.7358V18.2313H72.8267V18.7328H73.4866V19.4222C73.2466 19.4851 73.0065 19.5479 72.7665 19.5479C71.9868 19.5479 71.3863 18.9836 71.3863 18.2313C71.3863 17.479 71.9868 16.9152 72.7063 16.9152Z" fill="white"/>
<path id="Vector_20" d="M74.625 16.4766V19.9866H76.6056V19.4851H75.1051V16.4766H74.625Z" fill="white"/>
<path id="Vector_21" d="M76.8516 18.2319C76.8516 19.1721 77.5711 19.9866 78.6516 19.9866C79.7322 19.9866 80.4517 19.1721 80.4517 18.2319C80.4517 17.2917 79.7315 16.4766 78.6516 16.4766C77.5717 16.4766 76.8516 17.2917 76.8516 18.2319ZM78.6516 16.9152C79.3718 16.9152 79.9114 17.4796 79.9114 18.2319C79.9114 18.9842 79.3718 19.5479 78.6516 19.5479C77.9315 19.5479 77.3912 18.9842 77.3912 18.2319C77.3912 17.4796 77.9315 16.9152 78.6516 16.9152Z" fill="white"/>
<path id="Vector_22" d="M82.9643 17.4168C82.9643 16.9781 82.6647 16.4766 81.9446 16.4766H80.9844V19.9866H82.1245C82.9643 19.9866 83.2646 19.4851 83.2646 19.0464C83.2646 18.5455 82.9643 18.2319 82.4842 18.1062C82.8446 17.9811 82.9643 17.7304 82.9643 17.4168ZM82.7844 18.9842C82.7844 19.2343 82.6046 19.4851 82.0643 19.4851H81.4645V18.4198H82.0643C82.5444 18.4198 82.7844 18.6706 82.7844 18.9842ZM81.7647 17.9811H81.4645V16.9781H81.9446C82.3645 16.9781 82.4842 17.166 82.4842 17.4168C82.4842 17.7926 82.2442 17.9811 81.7647 17.9811Z" fill="white"/>
<path id="Vector_23" d="M84.8856 16.4766L83.4453 19.9866H83.9254L84.3453 18.9207H85.7856L86.2056 19.9866H86.6857L85.2454 16.4766H84.8856ZM84.5252 18.482L85.0655 17.2289L85.6058 18.482H84.5252Z" fill="white"/>
<path id="Vector_24" d="M87.0469 19.9866H89.0268V19.4851H87.527V16.4766H87.0469V19.9866Z" fill="white"/>
<path id="Vector_25" d="M92.4485 16.9159C92.8684 16.9159 93.2282 17.0409 93.5886 17.2917V16.7273C93.1687 16.5394 92.8083 16.4766 92.5087 16.4766C91.4281 16.4766 90.6484 17.2289 90.6484 18.2948C90.6484 18.9842 91.1881 19.9873 92.4485 19.9873C92.9882 19.9873 93.3485 19.8615 93.6488 19.6736V19.1721C93.2884 19.4229 92.8684 19.5486 92.5087 19.5486C91.6682 19.5486 91.1279 18.9842 91.1279 18.2319C91.1279 17.4796 91.7284 16.9159 92.4485 16.9159Z" fill="white"/>
<path id="Vector_26" d="M94.0703 18.7922C94.0703 19.4816 94.5504 19.9831 95.2104 19.9831C95.8704 19.9831 96.3505 19.5445 96.3505 18.7922C96.3505 18.1027 95.8704 17.6641 95.2104 17.6641C94.5504 17.6641 94.0703 18.1656 94.0703 18.7922ZM95.9306 18.7922C95.9306 19.2937 95.6303 19.6073 95.2104 19.6073C94.7905 19.6073 94.4902 19.2937 94.4902 18.7922C94.4902 18.3535 94.7905 18.0399 95.2104 18.0399C95.6303 18.0399 95.9306 18.3535 95.9306 18.7922Z" fill="white"/>
<path id="Vector_27" d="M100.008 19.9831V18.5414C100.008 17.9777 99.7081 17.6641 99.2882 17.6641C98.988 17.6641 98.7479 17.852 98.568 18.0399C98.3881 17.7891 98.1481 17.6641 97.908 17.6641C97.668 17.6641 97.4881 17.7269 97.2481 17.9777V17.6641H96.8281V19.9831H97.2481V18.2906C97.4279 18.1027 97.6084 18.0399 97.7883 18.0399C98.0284 18.0399 98.2083 18.1656 98.2083 18.5414V19.9831H98.6282V18.2906C98.8081 18.1656 98.988 18.0399 99.1083 18.0399C99.3483 18.0399 99.5884 18.2284 99.5884 18.5414V19.9831H100.008Z" fill="white"/>
<path id="Vector_28" d="M100.555 17.6641V21.1119H100.975V19.9209C101.155 19.9838 101.275 19.9838 101.455 19.9838C102.055 19.9838 102.535 19.5451 102.535 18.855C102.535 18.1027 102.115 17.6641 101.334 17.6641H100.555ZM102.115 18.855C102.115 19.2944 101.814 19.6073 101.395 19.6073C101.275 19.6073 101.155 19.5451 100.975 19.4823V18.1027H101.395C101.875 18.1027 102.115 18.3535 102.115 18.855Z" fill="white"/>
<path id="Vector_29" d="M103.548 18.7293C103.248 18.855 102.828 18.9801 102.828 19.4194C102.828 19.7324 103.068 19.9831 103.368 19.9831C103.548 19.9831 103.788 19.9203 103.968 19.7952C103.968 19.9203 104.088 19.9831 104.268 19.9831C104.449 19.9831 104.508 19.9831 104.688 19.7952V19.5445C104.628 19.6073 104.508 19.6695 104.448 19.6695C104.448 19.6695 104.388 19.6695 104.388 19.5445V18.4164C104.388 17.852 104.028 17.6641 103.608 17.6641C103.308 17.6641 103.068 17.7263 102.888 17.9148V18.4164C103.068 18.1656 103.308 18.0399 103.548 18.0399C103.848 18.0399 103.968 18.1656 103.968 18.4786V18.6043L103.548 18.7293ZM103.968 19.4816C103.848 19.6073 103.728 19.6695 103.608 19.6695C103.428 19.6695 103.248 19.5445 103.248 19.3566C103.248 19.1058 103.608 18.9801 103.968 18.855V19.4816Z" fill="white"/>
<path id="Vector_30" d="M106.915 19.9838V18.5421C106.915 17.9148 106.615 17.6641 106.195 17.6641C105.955 17.6641 105.715 17.7898 105.535 17.9777V17.6641H105.055V19.9838H105.535V18.3535C105.715 18.1027 105.895 17.9777 106.075 17.9777C106.314 17.9777 106.495 18.2284 106.495 18.5421V19.9838H106.915Z" fill="white"/>
<path id="Vector_31" d="M107.694 21.1119L109.254 17.6641H108.773L108.174 18.9807L107.633 17.6641H107.094L107.934 19.4823L107.213 21.1119H107.694Z" fill="white"/>
</g>
<defs>
<clipPath id="clip0_8283_11036">
<rect width="108.316" height="21" fill="white" transform="translate(0.9375 0.113281)"/>
</clipPath>
</defs>
</svg>
