<svg width="200" height="131" viewBox="0 0 200 131" fill="none" xmlns="http://www.w3.org/2000/svg">
<g id="thareja-designed-usa-developed-india 1" clip-path="url(#clip0_11429_6030)">
<g id="Group">
<g id="Group_2">
<g id="Group_3">
<path id="Vector" d="M1.637 84.6914C0.918 85.5374 0.419 86.5894 0.25 87.7704L1.177 87.9034L1.637 84.6914Z" fill="#FF0000"/>
<path id="Vector_2" d="M2.09988 88.0355L2.72188 83.6875C2.32088 83.9765 1.95388 84.3125 1.63188 84.6915L1.17188 87.9025L2.09988 88.0355Z" fill="white"/>
<path id="Vector_3" d="M3.02856 88.1698L3.75556 83.0898C3.39256 83.2558 3.04656 83.4558 2.72356 83.6888L2.10156 88.0368L3.02856 88.1698Z" fill="#FF0000"/>
<path id="Vector_4" d="M3.95825 88.3014L4.75525 82.7344C4.41125 82.8234 4.07825 82.9434 3.75825 83.0894L3.03125 88.1684L3.95825 88.3014Z" fill="white"/>
<path id="Vector_5" d="M4.88794 88.4344L5.72794 82.5664C5.39794 82.5964 5.07294 82.6524 4.75794 82.7344L3.96094 88.3024L4.88794 88.4344Z" fill="#FF0000"/>
<path id="Vector_6" d="M5.80981 88.5682L6.67081 82.5562C6.35081 82.5352 6.03481 82.5392 5.72281 82.5682L4.88281 88.4362L5.80981 88.5682Z" fill="white"/>
<path id="Vector_7" d="M6.66806 82.5547L5.80706 88.5667L6.27806 88.6337L5.41406 94.6657C5.56806 94.6877 5.72106 94.7017 5.87306 94.7117L7.59506 82.6847C7.44606 82.6517 7.29506 82.6227 7.14106 82.6007C6.98306 82.5787 6.82606 82.5647 6.66806 82.5547Z" fill="#FF0000"/>
<path id="Vector_8" d="M6.822 94.7045L8.503 82.9625C8.212 82.8485 7.91 82.7565 7.597 82.6875L5.875 94.7135C6.195 94.7355 6.511 94.7315 6.822 94.7045Z" fill="white"/>
<path id="Vector_9" d="M7.79712 94.5408L9.39313 83.3948C9.11313 83.2288 8.81713 83.0848 8.50913 82.9648L6.82812 94.7068C7.15813 94.6768 7.48212 94.6218 7.79712 94.5408Z" fill="#FF0000"/>
<path id="Vector_10" d="M8.79288 94.1895L10.2499 84.0115C9.98388 83.7825 9.69688 83.5755 9.39188 83.3945L7.79688 94.5405C8.13987 94.4525 8.47288 94.3345 8.79288 94.1895Z" fill="white"/>
<path id="Vector_11" d="M9.82006 93.5957L11.0691 84.8717C10.8241 84.5597 10.5481 84.2717 10.2461 84.0117L8.78906 94.1897C9.15206 94.0247 9.49706 93.8257 9.82006 93.5957Z" fill="#FF0000"/>
<path id="Vector_12" d="M10.9083 92.5991L11.8343 86.1311C11.6303 85.6811 11.3733 85.2571 11.0693 84.8711L9.82031 93.5951C10.2203 93.3091 10.5863 92.9751 10.9083 92.5991Z" fill="white"/>
<path id="Vector_13" d="M12.3181 89.4979C12.4881 88.3079 12.3011 87.1489 11.8401 86.1289L10.9141 92.5969C11.6421 91.7479 12.1471 90.6879 12.3181 89.4979Z" fill="#FF0000"/>
<path id="Vector_14" d="M0.716539 91.1145C0.919539 91.5675 1.17654 91.9945 1.48054 92.3845C1.72554 92.6975 2.00054 92.9875 2.30254 93.2485C2.56854 93.4785 2.85454 93.6865 3.15954 93.8685C3.43954 94.0355 3.73454 94.1795 4.04354 94.3015C4.33454 94.4165 4.63654 94.5095 4.94954 94.5785C5.10354 94.6125 5.25854 94.6435 5.41754 94.6665L6.28154 88.6345L5.81054 88.5675L4.88354 88.4345L3.95754 88.3015L3.03054 88.1685L2.10354 88.0355L1.17654 87.9025L0.249539 87.7695C0.0805392 88.9515 0.263539 90.1005 0.716539 91.1145Z" fill="#005AFF"/>
<path id="Vector_15" d="M0.25 89.2067L0.561 89.1547L0.605 88.8477L0.767 89.1237L1.085 89.0727L0.868 89.2957L1.018 89.5707L0.722 89.4317L0.49 89.6517L0.534 89.3447L0.25 89.2067Z" fill="white"/>
<path id="Vector_16" d="M1.57031 88.5788L1.88231 88.5258L1.92631 88.2188L2.08731 88.4958L2.40531 88.4438L2.18931 88.6668L2.33931 88.9418L2.04231 88.8028L1.81131 89.0228L1.85531 88.7158L1.57031 88.5788Z" fill="white"/>
<path id="Vector_17" d="M1.34375 90.1871L1.65575 90.1351L1.69875 89.8281L1.86075 90.1051L2.17875 90.0531L1.96275 90.2761L2.11275 90.5511L1.81575 90.4121L1.58375 90.6321L1.62775 90.3251L1.34375 90.1871Z" fill="white"/>
<path id="Vector_18" d="M2.66406 89.5553L2.97506 89.5023L3.01906 89.1953L3.18106 89.4723L3.49906 89.4213L3.28206 89.6433L3.43206 89.9183L3.13606 89.7793L2.90406 89.9993L2.94806 89.6923L2.66406 89.5553Z" fill="white"/>
<path id="Vector_19" d="M2.42969 91.1637L2.74169 91.1117L2.78569 90.8047L2.94669 91.0807L3.26469 91.0297L3.04869 91.2527L3.19869 91.5277L2.90269 91.3877L2.67069 91.6087L2.71469 91.3017L2.42969 91.1637Z" fill="white"/>
<path id="Vector_20" d="M2.20312 92.7702L2.51513 92.7172L2.55913 92.4102L2.72013 92.6872L3.03813 92.6362L2.82213 92.8582L2.97213 93.1332L2.67513 92.9942L2.44313 93.2152L2.48713 92.9072L2.20312 92.7702Z" fill="white"/>
<path id="Vector_21" d="M3.98438 88.9225L4.29638 88.8705L4.34037 88.5625L4.50138 88.8395L4.81938 88.7885L4.60337 89.0115L4.75338 89.2865L4.45638 89.1465L4.22538 89.3675L4.26837 89.0605L3.98438 88.9225Z" fill="white"/>
<path id="Vector_22" d="M3.75 90.5319L4.061 90.4789L4.105 90.1719L4.267 90.4489L4.585 90.3979L4.369 90.6199L4.519 90.8949L4.222 90.7559L3.99 90.9759L4.034 90.6689L3.75 90.5319Z" fill="white"/>
<path id="Vector_23" d="M3.52344 92.1403L3.83444 92.0882L3.87844 91.7812L4.04044 92.0573L4.35844 92.0062L4.14144 92.2292L4.29144 92.5042L3.99544 92.3643L3.76344 92.5853L3.80744 92.2783L3.52344 92.1403Z" fill="white"/>
<path id="Vector_24" d="M5.07812 89.8981L5.39012 89.8461L5.43412 89.5391L5.59513 89.8151L5.91412 89.7641L5.69712 89.9871L5.84713 90.2621L5.55113 90.1221L5.31913 90.3431L5.36312 90.0361L5.07812 89.8981Z" fill="white"/>
<path id="Vector_25" d="M4.84375 91.5084L5.15575 91.4554L5.19975 91.1484L5.36075 91.4254L5.67875 91.3734L5.46275 91.5964L5.61275 91.8714L5.31675 91.7324L5.08475 91.9524L5.12875 91.6454L4.84375 91.5084Z" fill="white"/>
<path id="Vector_26" d="M4.61719 93.1168L4.92819 93.0648L4.97219 92.7578L5.13419 93.0338L5.45219 92.9828L5.23519 93.2058L5.38619 93.4808L5.08919 93.3408L4.85719 93.5618L4.90119 93.2548L4.61719 93.1168Z" fill="white"/>
<path id="Vector_27" d="M1.87738 92.1566L1.72737 91.8816L1.94437 91.6596L1.62637 91.7106L1.46438 91.4336L1.42037 91.7406L1.10938 91.7936L1.39337 91.9316L1.35237 92.2166L1.36037 92.2276L1.58138 92.0176L1.87738 92.1566Z" fill="white"/>
<path id="Vector_28" d="M4.05806 94.1136L3.90806 93.8386L4.12406 93.6156L3.80606 93.6676L3.64506 93.3906L3.60106 93.6976L3.28906 93.7496L3.57306 93.8876L3.54506 94.0836C3.56706 94.0946 3.58906 94.1066 3.61106 94.1166L3.76106 93.9736L4.05806 94.1136Z" fill="white"/>
</g>
<path id="Vector_29" d="M10.7369 70.1409C13.1519 70.8919 14.4999 73.4559 13.7499 75.8709L12.9149 78.5589L4.17188 75.8409L5.00787 73.1529C5.75688 70.7399 8.32288 69.3909 10.7369 70.1409ZM10.3949 71.2369C8.58588 70.6749 6.66388 71.6859 6.10188 73.4949L5.60687 75.0879L12.1579 77.1239L12.6529 75.5309C13.2149 73.7219 12.2049 71.7999 10.3949 71.2369Z" fill="white"/>
<path id="Vector_30" d="M14.9195 63.8218C15.0975 63.8938 15.2645 63.9818 15.4225 64.0788L13.5745 68.6078C14.4655 68.7398 15.3295 68.3358 15.6905 67.4528C15.9285 66.8688 15.8575 66.2808 15.5765 65.7948L16.6235 65.3538C17.0145 66.1068 17.0875 67.0058 16.7315 67.8778C16.0615 69.5208 14.2405 70.1778 12.5985 69.5078C10.9565 68.8378 10.1155 67.0938 10.7865 65.4518C11.4565 63.8098 13.2775 63.1518 14.9195 63.8218ZM13.9445 64.7218C13.0535 64.5888 12.1885 64.9938 11.8285 65.8768C11.4685 66.7598 11.8015 67.6528 12.5315 68.1828L13.9445 64.7218Z" fill="white"/>
<path id="Vector_31" d="M18.8603 59.2346C19.4233 59.5126 20.1643 60.4166 19.3633 62.0406C18.8533 63.0736 18.0783 63.6546 17.5093 63.9666L16.9323 62.9876C17.3453 62.7686 17.9483 62.3366 18.3423 61.5376C18.6933 60.8266 18.5753 60.4086 18.3563 60.2576C18.1923 60.1446 17.8513 60.0086 17.0343 60.8126C16.0683 61.7636 15.4093 62.3186 14.4173 62.0036C13.9953 61.8696 13.6643 61.5636 13.4833 61.1406C13.3063 60.7266 13.2003 60.0216 13.6973 59.0146C14.0083 58.3836 14.5213 57.8446 15.2223 57.4106C15.2333 57.4036 15.2433 57.3976 15.2543 57.3906L15.9053 58.3306C15.8763 58.3466 15.8503 58.3586 15.8203 58.3776C15.3033 58.6966 14.9323 59.0806 14.7163 59.5166C14.4813 59.9936 14.4133 60.4206 14.5283 60.6926C14.5773 60.8066 14.6563 60.8836 14.7583 60.9166C15.0203 60.9996 15.2173 60.9986 16.2323 59.9996C17.1873 59.0626 18.0213 58.8196 18.8603 59.2346Z" fill="white"/>
<path id="Vector_32" d="M13.4127 55.0099C13.0417 54.8049 12.9067 54.3379 13.1107 53.9669C13.3157 53.5969 13.7817 53.4609 14.1527 53.6659C14.5237 53.8699 14.6587 54.3369 14.4547 54.7079C14.2507 55.0789 13.7837 55.2139 13.4127 55.0099ZM20.8557 58.8769L15.4807 55.9149L16.0237 54.9299L21.3987 57.8919L20.8557 58.8769Z" fill="white"/>
<path id="Vector_33" d="M20.0858 48.1367L25.1338 51.2967C26.6358 52.2367 27.0918 54.2177 26.1508 55.7207C25.5078 56.7457 24.4168 57.2277 23.3098 57.1307L23.5818 56.0887C24.2208 56.0407 24.8318 55.7067 25.1968 55.1227C25.8068 54.1487 25.5098 52.8597 24.5358 52.2507L23.9098 51.8577C24.1888 52.6367 24.1308 53.5047 23.6288 54.3067C22.6888 55.8087 20.7828 56.1457 19.2798 55.2037C17.7778 54.2637 17.2468 52.4027 18.1878 50.8997C18.6888 50.0987 19.4448 49.6667 20.2678 49.5777L19.4878 49.0887L20.0858 48.1367ZM22.0898 50.7187C21.1158 50.1087 19.8098 50.4327 19.1788 51.4407C18.5478 52.4497 18.9038 53.6417 19.8778 54.2527C20.8518 54.8617 22.0808 54.6607 22.7118 53.6527C23.3438 52.6447 23.0638 51.3287 22.0898 50.7187Z" fill="white"/>
<path id="Vector_34" d="M26.7774 43.5685L29.5594 45.6415L28.8874 46.5435L26.1054 44.4705C25.3574 43.9125 24.3004 44.0675 23.7434 44.8155C23.1864 45.5635 23.3404 46.6205 24.0884 47.1775L26.8704 49.2505L26.1984 50.1525L21.2734 46.4815L21.9454 45.5795L22.6174 46.0805C22.4004 45.3705 22.5004 44.6005 23.0094 43.9175C23.9374 42.6725 25.5324 42.6405 26.7774 43.5685Z" fill="white"/>
<path id="Vector_35" d="M31.9865 38.0918C32.1315 38.2188 32.2605 38.3558 32.3795 38.4978L29.1645 42.1838C29.9645 42.5968 30.9135 42.4948 31.5395 41.7758C31.9545 41.3008 32.0775 40.7218 31.9695 40.1708L33.1025 40.0928C33.2275 40.9318 33.0065 41.8068 32.3875 42.5168C31.2215 43.8528 29.2865 43.8848 27.9505 42.7198C26.6145 41.5538 26.3835 39.6328 27.5495 38.2968C28.7145 36.9598 30.6505 36.9268 31.9865 38.0918ZM30.7725 38.6278C29.9725 38.2138 29.0235 38.3168 28.3975 39.0348C27.7715 39.7538 27.7975 40.7068 28.3155 41.4438L30.7725 38.6278Z" fill="white"/>
<path id="Vector_36" d="M33.0998 28.4219L39.4938 34.9659L38.6888 35.7519L38.0458 35.0939C38.1338 35.9159 37.8728 36.7459 37.1968 37.4059C35.9288 38.6439 33.9988 38.5229 32.7608 37.2559C31.5228 35.9879 31.4458 34.0559 32.7128 32.8179C33.3888 32.1579 34.2248 31.9159 35.0448 32.0229L32.2948 29.2089L33.0998 28.4219ZM36.5448 33.5569C35.7428 32.7359 34.3978 32.7439 33.5468 33.5739C32.6958 34.4049 32.7618 35.6479 33.5648 36.4699C34.3678 37.2919 35.6078 37.3859 36.4588 36.5549C37.3098 35.7229 37.3488 34.3799 36.5448 33.5569Z" fill="white"/>
<path id="Vector_37" d="M38.1375 25.1373C37.8725 24.8073 37.9255 24.3253 38.2555 24.0593C38.5855 23.7943 39.0685 23.8473 39.3335 24.1773C39.5985 24.5073 39.5455 24.9903 39.2155 25.2553C38.8855 25.5213 38.4025 25.4683 38.1375 25.1373ZM43.5445 31.5473L39.7045 26.7633L40.5815 26.0593L44.4215 30.8443L43.5445 31.5473Z" fill="white"/>
<path id="Vector_38" d="M48.0118 23.8571L50.0448 26.6711L49.1318 27.3301L47.0988 24.5161C46.5528 23.7601 45.4968 23.5891 44.7408 24.1361C43.9848 24.6821 43.8138 25.7381 44.3608 26.4931L46.3938 29.3071L45.4808 29.9661L41.8828 24.9841L42.7958 24.3251L43.2868 25.0061C43.2928 24.2631 43.6198 23.5571 44.3108 23.0581C45.5708 22.1481 47.1018 22.5971 48.0118 23.8571Z" fill="white"/>
<path id="Vector_39" d="M53.3946 18.7314L54.7776 21.1284C55.1656 21.7994 55.5956 21.9794 56.4856 21.5534L57.0006 22.4454L56.8786 22.5154C55.4766 23.3254 54.4246 22.7684 53.8036 21.6914L52.4196 19.2954L51.4446 19.8574L50.8826 18.8824L51.8576 18.3194L50.3516 15.7114L51.3266 15.1484L52.8326 17.7574L53.9296 17.1244L54.4926 18.0994L53.3946 18.7314Z" fill="white"/>
<path id="Vector_40" d="M61.5602 16.2296L63.1042 19.3376L62.0962 19.8376L60.5532 16.7306C60.1382 15.8956 59.1252 15.5546 58.2902 15.9696C57.4552 16.3846 57.1142 17.3976 57.5292 18.2326L59.0732 21.3396L58.0652 21.8406L53.9922 13.6416L55.0002 13.1406L56.7132 16.5896C56.8402 15.8576 57.2782 15.2156 58.0412 14.8356C59.4322 14.1456 60.8682 14.8386 61.5602 16.2296Z" fill="white"/>
<path id="Vector_41" d="M68.6655 13.7181C68.7375 13.8971 68.7905 14.0771 68.8325 14.2581L64.2975 16.0891C64.8235 16.8201 65.7165 17.1571 66.6005 16.8011C67.1855 16.5651 67.5575 16.1051 67.7105 15.5641L68.7565 16.0071C68.4885 16.8121 67.8955 17.4911 67.0215 17.8441C65.3775 18.5081 63.6375 17.6611 62.9735 16.0171C62.3095 14.3731 62.9735 12.5551 64.6175 11.8911C66.2605 11.2271 68.0015 12.0741 68.6655 13.7181ZM67.3405 13.6461C66.8145 12.9151 65.9215 12.5781 65.0375 12.9341C64.1535 13.2911 63.7455 14.1531 63.8745 15.0451L67.3405 13.6461Z" fill="white"/>
<path id="Vector_42" d="M78.7588 4.41016L80.2478 10.0632C80.7328 11.9042 79.6328 13.7892 77.7928 14.2742C75.9528 14.7582 74.0668 13.6592 73.5828 11.8192L72.0938 6.16616L73.2008 5.87416L74.6888 11.5252C75.0128 12.7542 76.2718 13.4892 77.5008 13.1652C78.7298 12.8422 79.4638 11.5832 79.1408 10.3532L77.6528 4.70216L78.7588 4.41016Z" fill="white"/>
<path id="Vector_43" d="M88.5177 9.72459C88.6637 10.5766 88.2367 12.1316 85.7207 12.5596C84.1397 12.8306 82.8347 12.4626 81.9677 12.0686L82.4137 11.0326C83.1207 11.3606 84.2167 11.6866 85.5347 11.4636C87.0537 11.2036 87.4217 10.4766 87.3887 9.91759C87.3657 9.53559 87.1987 8.79959 85.2267 8.45559C83.2757 8.11459 82.0597 7.80859 81.6087 6.43659C81.4177 5.85459 81.4997 5.23459 81.8397 4.69059C82.1717 4.16259 82.8937 3.47459 84.4517 3.20959C85.4667 3.03659 86.5527 3.18959 87.6777 3.66259L87.2957 4.72259C87.2707 4.71159 87.2477 4.69959 87.2217 4.68859C86.3017 4.30059 85.4327 4.17159 84.6387 4.30759C83.7557 4.45759 83.1087 4.79659 82.8167 5.26259C82.6527 5.52559 82.6107 5.81859 82.6997 6.08759C82.9097 6.72859 83.3147 6.98659 85.4387 7.35759C87.3207 7.68659 88.2987 8.43859 88.5177 9.72459Z" fill="white"/>
<path id="Vector_44" d="M98.584 11.0783L97.307 11.1743L96.307 9.23228L91.471 9.59428L90.773 11.6653L89.5 11.7613L92.672 2.34128L94.032 2.23828L98.584 11.0783ZM95.715 8.08228L93.458 3.69728L91.883 8.37128L95.715 8.08228Z" fill="white"/>
<g id="Group_4">
<path id="Vector_45" d="M121.788 2.62868C119.19 2.08868 116.637 3.29068 115.336 5.43768L126.587 7.77468C126.249 5.28768 124.385 3.16768 121.788 2.62868Z" fill="#FF7445"/>
<path id="Vector_46" d="M119.307 14.5601C121.905 15.0991 124.458 13.8981 125.759 11.7511L114.508 9.41406C114.846 11.9011 116.71 14.0201 119.307 14.5601Z" fill="#01D18F"/>
<path id="Vector_47" d="M115.335 5.4375C114.986 6.0145 114.726 6.6575 114.581 7.3555C114.436 8.0535 114.418 8.7465 114.509 9.4155L125.76 11.7525C126.109 11.1755 126.369 10.5325 126.514 9.8345C126.659 9.1365 126.677 8.4425 126.586 7.7745L115.335 5.4375Z" fill="white"/>
<path id="Vector_48" d="M120.878 7.00288C119.999 6.82088 119.139 7.38488 118.956 8.26288C118.774 9.14188 119.338 10.0019 120.217 10.1849C121.096 10.3669 121.956 9.80288 122.139 8.92388C122.322 8.04488 121.757 7.18588 120.878 7.00288ZM121.911 8.96288C121.856 8.95188 121.802 8.98688 121.791 9.04188C121.781 9.09088 121.811 9.13388 121.855 9.15188C121.843 9.17988 121.826 9.20388 121.812 9.23088L121.056 8.79288L120.816 8.69888C120.819 8.69188 120.826 8.68788 120.829 8.67988L121.072 8.75388L121.94 8.88188L121.091 8.65288L120.84 8.62488C120.841 8.61688 120.836 8.61088 120.836 8.60288L121.096 8.61188L121.962 8.51188C121.964 8.54088 121.97 8.56788 121.97 8.59688C121.915 8.59588 121.869 8.63488 121.865 8.68988C121.861 8.74188 121.899 8.78488 121.95 8.79388C121.946 8.82388 121.946 8.85188 121.94 8.88188C121.934 8.90988 121.923 8.93588 121.915 8.96388C121.913 8.96488 121.912 8.96288 121.911 8.96288ZM121.744 9.29388C121.689 9.28288 121.635 9.31788 121.624 9.37288C121.616 9.41088 121.636 9.44288 121.664 9.46688C121.645 9.49088 121.625 9.51388 121.605 9.53688L120.988 8.91788L120.775 8.76088C120.779 8.75488 120.783 8.74988 120.787 8.74388L121.013 8.88588L121.813 9.23288C121.799 9.25988 121.784 9.28588 121.769 9.31188C121.76 9.30588 121.754 9.29688 121.744 9.29388ZM121.546 9.60488C121.532 9.58988 121.518 9.57588 121.497 9.57088C121.442 9.55988 121.388 9.59488 121.377 9.64988C121.371 9.67888 121.379 9.70688 121.395 9.72888C121.349 9.76288 121.302 9.79388 121.252 9.82288C121.238 9.79988 121.216 9.78088 121.187 9.77488C121.132 9.76388 121.078 9.79888 121.067 9.85388C121.063 9.87488 121.07 9.89388 121.078 9.91288C121.05 9.92388 121.02 9.92888 120.992 9.93888L120.767 9.09488L120.664 8.85888C120.671 8.85588 120.68 8.85788 120.686 8.85488L120.805 9.07888L121.328 9.78288L120.889 9.02088L120.732 8.82388C120.738 8.81888 120.739 8.81088 120.745 8.80488L120.922 8.99488L121.605 9.53688C121.584 9.55988 121.567 9.58488 121.546 9.60488ZM120.834 9.89188C120.779 9.88088 120.725 9.91588 120.714 9.97088C120.712 9.98088 120.719 9.98988 120.72 9.99988C120.69 10.0039 120.659 10.0069 120.629 10.0089L120.63 9.13488L120.59 8.87288C120.597 8.87188 120.604 8.87088 120.611 8.86888L120.671 9.12888L120.991 9.93988C120.962 9.94988 120.934 9.95888 120.904 9.96588C120.894 9.92988 120.872 9.89988 120.834 9.89188ZM119.768 9.66988C119.73 9.66188 119.698 9.68188 119.674 9.70988C119.65 9.69088 119.627 9.67088 119.604 9.65088L120.223 9.03388L120.38 8.82088C120.386 8.82488 120.391 8.82888 120.398 8.83288L120.257 9.05888L119.91 9.85888C119.883 9.84488 119.857 9.82988 119.831 9.81488C119.836 9.80588 119.846 9.80088 119.848 9.78988C119.859 9.73588 119.823 9.68188 119.768 9.66988ZM119.491 9.42388C119.462 9.41788 119.435 9.42588 119.412 9.44188C119.378 9.39588 119.347 9.34788 119.318 9.29888C119.341 9.28488 119.36 9.26288 119.366 9.23388C119.377 9.17888 119.342 9.12488 119.287 9.11388C119.266 9.10988 119.247 9.11688 119.228 9.12488C119.217 9.09688 119.212 9.06688 119.202 9.03888L120.046 8.81388L120.282 8.71088C120.285 8.71788 120.283 8.72688 120.286 8.73288L120.062 8.85188L119.357 9.37488L120.119 8.93588L120.316 8.77888C120.321 8.78488 120.33 8.78588 120.335 8.79188L120.145 8.96888L119.603 9.65188C119.581 9.63188 119.556 9.61488 119.535 9.59388C119.55 9.57988 119.564 9.56588 119.569 9.54488C119.581 9.48888 119.546 9.43488 119.491 9.42388ZM119.171 8.76088C119.161 8.75888 119.152 8.76588 119.142 8.76588C119.138 8.73588 119.135 8.70588 119.133 8.67488L120.007 8.67588L120.269 8.63588C120.27 8.64288 120.271 8.64988 120.273 8.65688L120.013 8.71688L119.202 9.03788C119.192 9.00888 119.183 8.97988 119.176 8.95088C119.211 8.94088 119.242 8.91888 119.25 8.88088C119.262 8.82588 119.226 8.77188 119.171 8.76088ZM119.155 8.30488C119.161 8.27588 119.173 8.25088 119.181 8.22288C119.182 8.22288 119.183 8.22488 119.184 8.22488C119.239 8.23588 119.293 8.20088 119.304 8.14588C119.314 8.09688 119.284 8.05388 119.24 8.03588C119.252 8.00788 119.269 7.98388 119.282 7.95688L120.039 8.39488L120.279 8.48888C120.276 8.49588 120.269 8.49988 120.266 8.50788L120.024 8.43388L119.155 8.30488L120.004 8.53288L120.254 8.56088C120.253 8.56888 120.258 8.57588 120.258 8.58388L119.999 8.57488L119.132 8.67488C119.13 8.64488 119.124 8.61588 119.125 8.58588C119.173 8.58688 119.218 8.55888 119.228 8.51088C119.239 8.45588 119.204 8.40188 119.149 8.39088C119.148 8.39088 119.146 8.39188 119.145 8.39188C119.151 8.36188 119.149 8.33388 119.155 8.30488ZM119.351 7.89388C119.406 7.90488 119.46 7.86988 119.471 7.81488C119.479 7.77688 119.459 7.74488 119.431 7.72188C119.45 7.69788 119.47 7.67488 119.49 7.65188L120.107 8.26988L120.32 8.42688C120.316 8.43288 120.312 8.43788 120.308 8.44488L120.082 8.30388L119.282 7.95688C119.296 7.92988 119.311 7.90388 119.326 7.87688C119.336 7.88188 119.341 7.89188 119.351 7.89388ZM119.549 7.58288C119.563 7.59788 119.577 7.61188 119.598 7.61688C119.653 7.62788 119.707 7.59288 119.718 7.53788C119.724 7.50888 119.716 7.48088 119.7 7.45888C119.746 7.42488 119.793 7.39388 119.843 7.36488C119.857 7.38888 119.879 7.40688 119.908 7.41288C119.963 7.42388 120.017 7.38888 120.028 7.33388C120.032 7.31288 120.025 7.29388 120.017 7.27488C120.045 7.26388 120.075 7.25788 120.103 7.24888L120.328 8.09288L120.431 8.32888C120.424 8.33188 120.415 8.32988 120.409 8.33288L120.29 8.10888L119.767 7.40388L120.206 8.16588L120.363 8.36288C120.357 8.36788 120.356 8.37688 120.35 8.38188L120.173 8.19188L119.49 7.65188C119.51 7.62888 119.528 7.60388 119.549 7.58288ZM120.261 7.29688C120.316 7.30788 120.37 7.27288 120.381 7.21788C120.383 7.20788 120.376 7.19888 120.375 7.18888C120.405 7.18488 120.435 7.18188 120.466 7.17988L120.465 8.05388L120.505 8.31588C120.498 8.31688 120.491 8.31788 120.484 8.31988L120.424 8.05988L120.103 7.24888C120.132 7.23888 120.161 7.23088 120.19 7.22388C120.201 7.25788 120.223 7.28888 120.261 7.29688ZM121.29 7.50288C121.334 7.53288 121.39 7.52088 121.423 7.48088C121.446 7.49888 121.468 7.51788 121.49 7.53688L120.872 8.15388L120.715 8.36688C120.709 8.36288 120.704 8.35888 120.697 8.35488L120.839 8.12888L121.185 7.32888C121.211 7.34188 121.236 7.35688 121.261 7.37088C121.237 7.41688 121.247 7.47288 121.29 7.50288ZM121.604 7.76488C121.633 7.77088 121.661 7.76288 121.683 7.74688C121.717 7.79288 121.748 7.84088 121.777 7.88988C121.754 7.90388 121.735 7.92588 121.729 7.95488C121.718 8.00988 121.753 8.06388 121.808 8.07488C121.829 8.07888 121.848 8.07188 121.867 8.06388C121.878 8.09188 121.883 8.12188 121.893 8.14988L121.049 8.37488L120.813 8.47788C120.81 8.47088 120.812 8.46188 120.809 8.45588L121.034 8.33688L121.738 7.81388L120.976 8.25288L120.779 8.40988C120.774 8.40388 120.765 8.40288 120.76 8.39688L120.95 8.21988L121.49 7.53688C121.512 7.55688 121.538 7.57288 121.559 7.59388C121.544 7.60788 121.53 7.62188 121.525 7.64388C121.513 7.69988 121.549 7.75388 121.604 7.76488ZM121.924 8.42788C121.934 8.42988 121.943 8.42388 121.953 8.42288C121.957 8.45288 121.96 8.48288 121.962 8.51388L121.088 8.51188L120.826 8.55188C120.825 8.54488 120.824 8.53788 120.822 8.53088L121.082 8.47088L121.893 8.14988C121.903 8.17888 121.911 8.20788 121.918 8.23688C121.883 8.24688 121.852 8.26888 121.845 8.30688C121.834 8.36288 121.869 8.41688 121.924 8.42788ZM120.552 7.17188C120.551 7.22688 120.59 7.27288 120.645 7.27688C120.698 7.28088 120.74 7.24288 120.749 7.19188C120.778 7.19588 120.807 7.19488 120.837 7.20088C120.866 7.20688 120.892 7.21988 120.921 7.22688C120.91 7.27688 120.934 7.32888 120.983 7.34588C121.035 7.36388 121.09 7.33688 121.11 7.28588C121.137 7.29688 121.16 7.31388 121.186 7.32688L120.748 8.08288L120.654 8.32288C120.647 8.31988 120.643 8.31288 120.635 8.30988L120.709 8.06688L120.837 7.19888L120.609 8.04788L120.581 8.29788C120.573 8.29688 120.566 8.30188 120.558 8.30188L120.567 8.04288L120.467 7.17688C120.496 7.17888 120.523 7.17188 120.552 7.17188ZM120.543 10.0159C120.544 9.96088 120.505 9.91488 120.45 9.91088C120.398 9.90688 120.355 9.94588 120.346 9.99588C120.317 9.99188 120.288 9.99288 120.258 9.98688C120.229 9.98088 120.204 9.96888 120.176 9.96088C120.176 9.95988 120.178 9.95888 120.178 9.95788C120.189 9.90288 120.154 9.84888 120.099 9.83788C120.05 9.82788 120.007 9.85788 119.989 9.90188C119.961 9.88988 119.937 9.87288 119.91 9.85988L120.348 9.10388L120.442 8.86388C120.449 8.86688 120.453 8.87388 120.461 8.87688L120.387 9.11988L120.258 9.98788L120.487 9.13888L120.515 8.88888C120.523 8.88988 120.529 8.88488 120.537 8.88488L120.528 9.14488L120.628 10.0109C120.599 10.0099 120.572 10.0169 120.543 10.0159Z" fill="#005AFF"/>
</g>
<path id="Vector_49" d="M138.726 14.2048C137.827 16.5658 135.185 17.7508 132.824 16.8518L130.195 15.8508L133.449 7.30078L136.078 8.30178C138.439 9.20078 139.625 11.8438 138.726 14.2048ZM137.654 13.7958C138.327 12.0268 137.439 10.0468 135.67 9.37278L134.112 8.77978L131.673 15.1858L133.231 15.7788C135.001 16.4528 136.981 15.5638 137.654 13.7958Z" fill="white"/>
<path id="Vector_50" d="M144.795 18.7793C144.711 18.9533 144.613 19.1133 144.507 19.2653L140.104 17.1353C139.916 18.0163 140.266 18.9043 141.124 19.3193C141.691 19.5943 142.282 19.5603 142.786 19.3103L143.161 20.3833C142.385 20.7253 141.482 20.7423 140.635 20.3323C139.039 19.5603 138.497 17.7013 139.269 16.1053C140.041 14.5083 141.834 13.7803 143.43 14.5513C145.025 15.3253 145.567 17.1833 144.795 18.7793ZM143.958 17.7503C144.146 16.8693 143.796 15.9813 142.938 15.5663C142.08 15.1513 141.167 15.4273 140.593 16.1223L143.958 17.7503Z" fill="white"/>
<path id="Vector_51" d="M152.526 19.6858L147.201 23.6938L146.07 23.0388L146.898 16.4258L147.955 17.0378L147.308 22.2058L151.469 19.0738L152.526 19.6858Z" fill="white"/>
<path id="Vector_52" d="M156.64 26.1629C156.532 26.3219 156.411 26.4669 156.284 26.6009L152.242 23.8449C151.927 24.6889 152.141 25.6179 152.929 26.1559C153.45 26.5109 154.039 26.5649 154.574 26.3919L154.786 27.5079C153.968 27.7319 153.073 27.6159 152.294 27.0849C150.829 26.0859 150.567 24.1689 151.566 22.7029C152.565 21.2379 154.446 20.7809 155.911 21.7799C157.376 22.7789 157.638 24.6979 156.64 26.1629ZM155.964 25.0209C156.28 24.1769 156.065 23.2479 155.277 22.7099C154.489 22.1729 153.546 22.3129 152.875 22.9149L155.964 25.0209Z" fill="white"/>
<path id="Vector_53" d="M158.338 30.0904L157.71 30.9054L157.599 30.8194C156.317 29.8324 156.431 28.6474 157.189 27.6624L161.403 22.1914L162.295 22.8794L158.08 28.3504C157.607 28.9634 157.605 29.4294 158.338 30.0904Z" fill="white"/>
<path id="Vector_54" d="M165.065 33.1074C163.906 34.4484 161.986 34.6864 160.646 33.5274L160.434 33.3434C159.094 32.1844 159.053 30.2504 160.212 28.9094C161.371 27.5694 163.291 27.3304 164.631 28.4894L164.844 28.6744C166.184 29.8344 166.224 31.7674 165.065 33.1074ZM164.214 32.3724C164.965 31.5034 164.933 30.2394 164.001 29.4344C163.069 28.6294 161.814 28.7784 161.063 29.6474C160.312 30.5154 160.344 31.7794 161.276 32.5854C162.208 33.3904 163.463 33.2414 164.214 32.3724Z" fill="white"/>
<path id="Vector_55" d="M170.671 38.7125C169.405 39.9545 167.472 40.0365 166.229 38.7715C165.567 38.0965 165.323 37.2615 165.427 36.4395L162.617 39.1995L161.828 38.3955L168.362 31.9805L169.151 32.7835L168.494 33.4295C169.317 33.3395 170.148 33.5995 170.811 34.2745C172.053 35.5375 171.936 37.4695 170.671 38.7125ZM169.882 37.9095C170.702 37.1035 170.793 35.8615 169.96 35.0125C169.127 34.1635 167.781 34.1285 166.961 34.9345C166.141 35.7405 166.151 37.0855 166.985 37.9345C167.819 38.7835 169.062 38.7145 169.882 37.9095Z" fill="white"/>
<path id="Vector_56" d="M175.392 44.3371C175.244 44.4601 175.089 44.5661 174.93 44.6611L171.795 40.9061C171.261 41.6321 171.213 42.5851 171.824 43.3161C172.228 43.8001 172.781 44.0131 173.342 43.9931L173.241 45.1251C172.393 45.1161 171.564 44.7611 170.96 44.0371C169.824 42.6771 170.096 40.7611 171.457 39.6241C172.818 38.4881 174.752 38.5621 175.888 39.9231C177.024 41.2841 176.752 43.2001 175.392 44.3371ZM175.053 43.0531C175.587 42.3281 175.635 41.3751 175.024 40.6431C174.413 39.9121 173.467 39.7881 172.658 40.1841L175.053 43.0531Z" fill="white"/>
<path id="Vector_57" d="M184.772 46.961L177.293 52.248L176.643 51.328L177.395 50.797C176.567 50.754 175.789 50.364 175.243 49.592C174.219 48.144 174.644 46.255 176.093 45.231C177.542 44.208 179.464 44.436 180.488 45.885C181.034 46.656 181.141 47.522 180.906 48.316L184.123 46.042L184.772 46.961ZM179.15 49.555C180.088 48.892 180.294 47.561 179.607 46.589C178.919 45.617 177.681 45.485 176.742 46.15C175.803 46.813 175.514 48.026 176.201 48.998C176.888 49.968 178.211 50.219 179.15 49.555Z" fill="white"/>
<path id="Vector_58" d="M180.016 56.7729L185.348 53.7329L185.905 54.7099L180.573 57.7509L180.016 56.7729ZM187.2 52.4409C187.568 52.2309 188.037 52.3589 188.247 52.7269C188.457 53.0949 188.329 53.5639 187.96 53.7739C187.591 53.9839 187.124 53.8549 186.914 53.4869C186.704 53.1189 186.832 52.6509 187.2 52.4409Z" fill="white"/>
<path id="Vector_59" d="M186.896 62.396L183.796 63.957L183.29 62.951L186.39 61.391C187.223 60.971 187.558 59.957 187.139 59.124C186.72 58.291 185.705 57.955 184.872 58.375L181.772 59.935L181.266 58.93L186.753 56.168L187.259 57.173L186.51 57.55C187.242 57.674 187.887 58.108 188.27 58.869C188.97 60.258 188.284 61.698 186.896 62.396Z" fill="white"/>
<path id="Vector_60" d="M185.852 68.8666L194.38 65.5586L194.794 66.6266L186.266 69.9356L185.852 68.8666Z" fill="white"/>
<path id="Vector_61" d="M191.934 75.8078L188.635 76.8788L188.287 75.8088L191.587 74.7378C192.474 74.4498 192.959 73.4988 192.671 72.6118C192.383 71.7248 191.431 71.2398 190.545 71.5278L187.246 72.5988L186.898 71.5288L192.739 69.6328L193.087 70.7028L192.29 70.9618C192.995 71.1948 193.566 71.7218 193.829 72.5318C194.307 74.0098 193.411 75.3288 191.934 75.8078Z" fill="white"/>
<path id="Vector_62" d="M199.362 82.1158L190.454 84.2208L190.195 83.1258L191.091 82.9138C190.341 82.5648 189.764 81.9128 189.546 80.9928C189.138 79.2668 190.238 77.6758 191.963 77.2668C193.689 76.8598 195.385 77.7898 195.793 79.5148C196.011 80.4348 195.787 81.2768 195.272 81.9248L199.104 81.0188L199.362 82.1158ZM193.182 82.4208C194.3 82.1558 194.987 80.9988 194.714 79.8418C194.44 78.6848 193.341 78.0998 192.222 78.3638C191.104 78.6288 190.383 79.6428 190.657 80.8018C190.93 81.9588 192.062 82.6848 193.182 82.4208Z" fill="white"/>
<path id="Vector_63" d="M190.695 85.7917L196.74 84.7257L196.935 85.8337L190.89 86.8997L190.695 85.7917ZM198.92 84.1327C199.337 84.0597 199.735 84.3377 199.809 84.7557C199.883 85.1727 199.604 85.5707 199.186 85.6447C198.769 85.7177 198.371 85.4397 198.297 85.0227C198.224 84.6037 198.503 84.2067 198.92 84.1327Z" fill="white"/>
<path id="Vector_64" d="M198.006 93.6917L191.91 94.4197L191.777 93.3027L192.691 93.1937C191.985 92.7617 191.485 92.0477 191.374 91.1097C191.164 89.3487 192.437 87.8917 194.197 87.6817C195.958 87.4707 197.538 88.5877 197.749 90.3487C197.861 91.2867 197.543 92.0977 196.958 92.6837L197.873 92.5757L198.006 93.6917ZM194.825 92.9377C195.967 92.8017 196.78 91.7307 196.639 90.5487C196.498 89.3667 195.472 88.6607 194.33 88.7977C193.188 88.9337 192.357 89.8607 192.498 91.0427C192.64 92.2237 193.683 93.0747 194.825 92.9377Z" fill="white"/>
</g>
<g id="Group_5">
<path id="Vector_65" d="M124.54 89.1412C125.579 88.8652 126.198 87.7992 125.922 86.7602C125.646 85.7212 124.58 85.1022 123.541 85.3782C122.502 85.6542 121.883 86.7202 122.159 87.7602C122.434 88.7982 123.501 89.4172 124.54 89.1412ZM123.626 85.6982C124.488 85.4692 125.373 85.9822 125.602 86.8452C125.831 87.7072 125.318 88.5922 124.455 88.8212C123.593 89.0502 122.708 88.5372 122.479 87.6742C122.25 86.8122 122.763 85.9272 123.626 85.6982Z" fill="white"/>
<path id="Vector_66" d="M126.155 97.5607C126.107 96.4747 125.187 95.6327 124.1 95.6817C123.014 95.7297 122.172 96.6497 122.221 97.7367C122.269 98.8227 123.189 99.6647 124.276 99.6157C125.362 99.5667 126.203 98.6467 126.155 97.5607Z" fill="white"/>
<path id="Vector_67" d="M113.399 89.8208C112.298 89.9208 111.486 90.8948 111.586 91.9958C111.686 93.0968 112.66 93.9088 113.761 93.8088C114.862 93.7088 115.674 92.7348 115.574 91.6338C115.475 90.5328 114.501 89.7208 113.399 89.8208Z" fill="white"/>
<path id="Vector_68" d="M91.6043 97.1306C92.5813 97.5786 93.7373 97.1496 94.1853 96.1726C94.6333 95.1956 94.2043 94.0396 93.2273 93.5916C92.2503 93.1436 91.0943 93.5726 90.6463 94.5496C90.1983 95.5266 90.6273 96.6826 91.6043 97.1306ZM90.9483 94.6876C91.3203 93.8766 92.2793 93.5206 93.0903 93.8926C93.9013 94.2646 94.2573 95.2236 93.8853 96.0346C93.5133 96.8456 92.5543 97.2016 91.7433 96.8296C90.9323 96.4576 90.5763 95.4986 90.9483 94.6876Z" fill="white"/>
<path id="Vector_69" d="M113.301 88.6616C111.56 88.8196 110.277 90.3586 110.435 92.0996C110.593 93.8406 112.132 95.1236 113.873 94.9656C115.614 94.8076 116.897 93.2686 116.739 91.5276C116.581 89.7866 115.042 88.5036 113.301 88.6616ZM113.825 94.4286C112.381 94.5596 111.104 93.4956 110.973 92.0506C110.842 90.6066 111.906 89.3296 113.351 89.1986C114.795 89.0676 116.072 90.1316 116.203 91.5766C116.334 93.0216 115.269 94.2976 113.825 94.4286Z" fill="white"/>
<path id="Vector_70" d="M124.353 88.45C125.011 88.275 125.402 87.601 125.227 86.943C125.052 86.286 124.378 85.894 123.72 86.069C123.062 86.244 122.671 86.918 122.846 87.576C123.021 88.233 123.696 88.625 124.353 88.45Z" fill="white"/>
<path id="Vector_71" d="M91.9056 96.4805C92.5236 96.7635 93.2556 96.4925 93.5386 95.8745C93.8216 95.2565 93.5506 94.5245 92.9326 94.2415C92.3146 93.9575 91.5826 94.2295 91.2996 94.8475C91.0166 95.4655 91.2876 96.1965 91.9056 96.4805Z" fill="white"/>
<path id="Vector_72" d="M75.2978 123.482C74.5848 124.01 74.0628 125.705 73.9528 126.393C62.9668 127.164 51.9838 128.391 41.0078 130.113L161.04 130.112C154.662 129.122 148.282 128.306 141.901 127.63C142.019 127.568 142.123 127.478 142.199 127.364L143.378 125.582C143.562 125.304 143.626 124.965 143.556 124.639L143.179 122.88C142.57 120.041 142.913 117.081 144.154 114.456L144.815 113.059L143.983 108.66L143.152 108.239C141.731 107.519 140.41 106.615 139.223 105.552L135.66 102.359L136.019 97.9433C136.217 95.4993 135.954 93.0403 135.243 90.6933L133.758 85.7933C133.758 85.7933 147.946 90.5613 153.019 97.5643C158.092 104.567 151.236 115.24 151.236 115.24C151.236 115.24 149.105 114.704 148.003 115.427C146.902 116.15 146.856 117.943 146.321 119.084C145.786 120.225 144.077 122.484 144.077 122.484C146.867 122.585 148.665 120.837 148.665 120.837C148.665 120.837 148.116 121.603 147.748 122.73C147.748 122.73 150.741 122.313 152.355 120.519C154.781 117.822 152.341 115.925 152.341 115.925C152.341 115.925 162.611 103.306 156.11 93.5613C148.993 82.8933 130.109 78.2303 124.417 76.7953C118.725 75.3603 101.711 71.4993 101.711 71.4993C101.264 67.4473 99.7528 64.2343 99.7528 64.2343C99.7528 64.2343 100.62 64.3223 102.134 65.0313C99.0728 56.9773 92.3818 54.8813 92.3818 54.8813C92.3818 54.8813 94.2088 54.6573 97.1378 55.1583C95.0468 50.6293 88.7758 49.1743 88.7758 49.1743C88.7758 49.1743 90.2788 48.7933 94.4028 50.5003C91.3098 46.6663 84.0998 45.9633 84.0998 45.9633C84.0998 45.9633 86.2198 45.3133 87.3888 43.5063C85.8658 43.9173 84.3528 44.3743 82.7128 43.8533C80.1268 43.0333 78.3528 43.7043 78.3528 43.7043C80.2588 42.8643 81.0078 40.6133 81.0078 40.6133C81.0078 40.6133 79.4618 42.2783 76.0538 42.9513C72.6458 43.6253 68.3648 42.3573 65.1158 43.4273C61.2828 44.6893 59.8048 49.0153 59.8048 49.0153C59.8048 49.0153 59.7648 47.6283 60.3988 45.9633C60.3988 45.9633 58.0208 47.8653 58.4568 50.0453C58.8928 52.2253 60.8348 53.0573 60.8348 53.0573C60.8348 53.0573 59.3768 53.9553 58.7588 54.3473C58.1408 54.7393 57.9018 55.2773 57.9018 55.8753C57.9018 56.4733 57.9018 57.0993 57.9018 57.0993L56.0608 58.2453C54.7168 59.0823 53.5808 60.2153 52.7418 61.5583L52.5638 61.8423C52.4778 61.9803 52.4318 62.1393 52.4318 62.3023C52.4318 62.5923 52.5768 62.8633 52.8178 63.0243L53.9768 63.7973C53.9768 63.7973 53.6578 65.3553 54.1668 66.7483C54.7348 68.3013 55.5618 68.4733 55.5618 68.4733C55.5618 68.4733 55.0028 69.8543 55.9878 71.7363C56.6828 73.0623 58.2158 74.4573 58.2158 74.4573L57.6618 75.1963C56.6568 76.5383 55.3768 77.6503 53.9068 78.4583L53.1818 78.8563L55.7178 78.2623C55.7178 78.2623 54.3078 79.8993 54.0528 80.9973C53.5958 82.9693 54.9248 84.3663 54.9248 84.3663C54.9248 84.3663 54.2098 82.8323 54.7908 81.3263C55.0798 80.5783 55.8798 79.7303 56.8668 79.2933C56.8668 79.2933 56.4928 83.3353 56.9458 86.1493C57.5688 90.0183 61.1868 93.4413 61.1868 93.4413L60.9488 92.8113C60.3948 91.3433 60.1518 89.7763 60.2348 88.2093C60.2348 88.2093 60.8738 93.6003 66.7458 99.2933C66.7458 99.2933 66.0528 103.072 63.7528 106.178C62.2718 108.178 60.3038 109.748 59.0898 110.613C58.9878 110.686 58.8908 110.754 58.7998 110.816C58.3218 111.146 58.1348 111.76 58.3468 112.301L58.4028 112.444C58.5118 112.724 58.6198 113.004 58.7248 113.285C59.8228 116.227 60.6788 119.254 61.2838 122.337L61.3448 122.65L67.8628 124.721C68.5298 124.933 69.2588 124.743 69.7378 124.233L72.1288 121.686C72.4358 121.36 72.6308 120.945 72.6878 120.5C72.7758 119.809 72.3778 119.148 71.7248 118.903L71.5698 118.845L71.5528 118.064C71.5398 117.445 71.1228 116.907 70.5268 116.74L70.2618 116.666L70.1258 116.211C69.9268 115.549 69.2988 115.111 68.6088 115.154L67.2508 115.239L66.7398 112.994L66.5748 112.27C66.5528 112.175 66.5988 112.076 66.6858 112.031L67.3118 111.705L75.0588 107.669C75.0588 107.669 75.6328 108.751 75.6528 110.007C76.3218 109.488 76.9208 107.114 76.9208 107.114C76.9208 107.114 78.0338 110.083 77.5548 113.415C80.1508 112.223 81.6768 106.797 81.6768 106.797L80.8048 122.135C80.8068 122.135 76.1158 122.877 75.2978 123.482ZM89.6168 95.6673L90.1448 93.4973L90.2008 93.5063C90.2508 93.4463 90.3168 93.4033 90.3708 93.3483L90.5118 93.5363L91.8218 92.0133L92.1628 92.4833C92.4008 92.4623 92.6438 92.4703 92.8848 92.5103L93.5708 91.7003C93.5968 91.6703 93.6388 91.6603 93.6748 91.6773L94.3898 92.0053C94.4258 92.0213 94.4458 92.0603 94.4398 92.0993L94.2738 93.1483C94.4618 93.3053 94.6258 93.4833 94.7658 93.6783L95.8248 93.5903C95.8638 93.5873 95.9008 93.6103 95.9148 93.6473L96.1888 94.3843C96.2028 94.4213 96.1898 94.4633 96.1578 94.4863L95.2988 95.1103C95.3198 95.3483 95.3118 95.5913 95.2718 95.8323L96.0818 96.5183C96.1118 96.5443 96.1218 96.5863 96.1048 96.6223L95.7768 97.3373C95.7608 97.3733 95.7218 97.3933 95.6828 97.3873L94.6338 97.2213C94.4768 97.4093 94.2988 97.5733 94.1038 97.7123L94.1918 98.7713C94.1948 98.8103 94.1718 98.8473 94.1348 98.8613L93.3978 99.1343C93.3608 99.1483 93.3188 99.1353 93.2958 99.1033L92.6718 98.2443C92.4338 98.2653 92.1908 98.2573 91.9498 98.2173L91.2638 99.0273C91.2378 99.0573 91.1958 99.0673 91.1598 99.0503L90.4448 98.7223C90.4088 98.7053 90.3888 98.6673 90.3948 98.6283L90.5608 97.5793C90.3728 97.4223 90.2088 97.2443 90.0688 97.0493L89.0098 97.1373C88.9708 97.1403 88.9338 97.1173 88.9198 97.0803L88.6458 96.3433C88.6318 96.3063 88.6448 96.2643 88.6768 96.2413L89.5208 95.6283L89.6168 95.6673ZM94.4958 88.1513L95.4068 89.6873L96.3718 88.2643C96.4438 88.1583 97.1398 87.1303 98.0318 85.7923C98.3748 86.6783 99.1478 87.3753 100.151 87.5613C101.69 87.8473 103.17 86.8313 103.456 85.2923C103.742 83.7533 102.726 82.2733 101.187 81.9873C100.972 81.9473 100.76 81.9383 100.551 81.9473C101.218 80.9053 101.792 79.9763 102.099 79.4093C102.474 78.7173 102.684 77.8373 102.793 76.9383L102.954 76.9683C103.035 76.9833 103.096 77.0503 103.103 77.1323L103.3 79.3403C103.76 79.5623 104.184 79.8403 104.565 80.1633L106.664 79.4473C106.742 79.4203 106.828 79.4493 106.875 79.5173L107.804 80.8703C107.851 80.9383 107.846 81.0293 107.794 81.0923L106.371 82.7943C106.535 83.2663 106.642 83.7613 106.685 84.2713L108.675 85.2483C108.749 85.2843 108.79 85.3653 108.775 85.4463L108.475 87.0603C108.46 87.1413 108.393 87.2023 108.311 87.2093L106.103 87.4063C105.881 87.8663 105.603 88.2903 105.28 88.6713L105.996 90.7703C106.023 90.8483 105.994 90.9343 105.926 90.9813L104.573 91.9103C104.505 91.9573 104.414 91.9523 104.351 91.9003L102.649 90.4773C102.177 90.6423 101.682 90.7483 101.172 90.7913L100.195 92.7813C100.159 92.8553 100.078 92.8963 99.9968 92.8813L98.3828 92.5813C98.3018 92.5663 98.2408 92.4993 98.2338 92.4173L98.0368 90.2093C97.5768 89.9873 97.1528 89.7093 96.7718 89.3863L94.6728 90.1033C94.5948 90.1303 94.5088 90.1013 94.4618 90.0333L93.8948 89.2073C94.0998 88.8573 94.3168 88.5153 94.4958 88.1513ZM117.987 90.1693L119.684 90.4823C119.747 90.4943 119.795 90.5463 119.801 90.6103L119.916 91.8833C119.922 91.9473 119.884 92.0073 119.824 92.0293L118.211 92.6423C118.141 93.0343 118.023 93.4103 117.861 93.7643L118.84 95.1863C118.876 95.2393 118.873 95.3093 118.832 95.3593L118.014 96.3413C117.973 96.3903 117.904 96.4063 117.846 96.3803L116.271 95.6733C115.952 95.8963 115.603 96.0803 115.231 96.2193L114.918 97.9163C114.906 97.9793 114.854 98.0273 114.79 98.0323L113.517 98.1473C113.453 98.1533 113.393 98.1163 113.37 98.0553L112.757 96.4423C112.365 96.3723 111.989 96.2543 111.635 96.0923L110.213 97.0713C110.16 97.1073 110.09 97.1043 110.04 97.0633L109.058 96.2453C109.009 96.2043 108.993 96.1353 109.019 96.0773L109.726 94.5023C109.503 94.1833 109.319 93.8343 109.18 93.4623L107.483 93.1493C107.42 93.1373 107.372 93.0853 107.366 93.0213L107.251 91.7483C107.245 91.6843 107.283 91.6243 107.343 91.6013L108.956 90.9883C109.026 90.5963 109.145 90.2203 109.306 89.8663L108.327 88.4443C108.291 88.3913 108.294 88.3213 108.335 88.2713L109.153 87.2893C109.194 87.2403 109.263 87.2243 109.321 87.2503L110.896 87.9573C111.215 87.7343 111.564 87.5503 111.936 87.4113L112.249 85.7143C112.261 85.6513 112.313 85.6033 112.377 85.5983L113.65 85.4833C113.714 85.4773 113.774 85.5143 113.797 85.5753L114.41 87.1883C114.802 87.2583 115.178 87.3773 115.532 87.5383L116.954 86.5593C117.007 86.5233 117.077 86.5263 117.127 86.5673L118.109 87.3853C118.158 87.4263 118.174 87.4953 118.148 87.5533L117.441 89.1283C117.663 89.4483 117.848 89.7963 117.987 90.1693ZM120.501 85.7593C120.473 85.7313 120.468 85.6883 120.488 85.6543L120.883 84.9743C120.903 84.9403 120.943 84.9233 120.981 84.9333L122.009 85.1993C122.179 85.0313 122.372 84.8833 122.583 84.7603L122.597 83.6983C122.598 83.6593 122.624 83.6243 122.662 83.6143L123.422 83.4123C123.46 83.4023 123.5 83.4183 123.52 83.4523L124.059 84.3673C124.304 84.3693 124.544 84.4023 124.775 84.4633L125.536 83.7223C125.564 83.6953 125.607 83.6893 125.642 83.7093L126.322 84.1043C126.356 84.1243 126.373 84.1643 126.363 84.2023L126.097 85.2303C126.265 85.4003 126.413 85.5933 126.536 85.8043L127.598 85.8183C127.637 85.8183 127.672 85.8453 127.682 85.8833L127.884 86.6433C127.894 86.6813 127.878 86.7213 127.844 86.7413L126.929 87.2803C126.927 87.5253 126.894 87.7653 126.833 87.9963L127.574 88.7573C127.602 88.7853 127.607 88.8283 127.587 88.8623L127.192 89.5423C127.172 89.5763 127.132 89.5933 127.094 89.5833L126.066 89.3173C125.896 89.4853 125.703 89.6333 125.492 89.7563L125.478 90.8183C125.477 90.8573 125.451 90.8923 125.413 90.9023L124.653 91.1043C124.615 91.1143 124.575 91.0983 124.555 91.0643L124.016 90.1493C123.771 90.1473 123.531 90.1143 123.3 90.0533L122.539 90.7943C122.511 90.8223 122.468 90.8273 122.433 90.8073L121.753 90.4123C121.719 90.3923 121.702 90.3523 121.712 90.3143L121.978 89.2863C121.81 89.1163 121.662 88.9233 121.539 88.7123L120.477 88.6983C120.438 88.6983 120.403 88.6713 120.393 88.6333L120.191 87.8733C120.181 87.8353 120.197 87.7953 120.231 87.7753L121.146 87.2363C121.148 86.9913 121.181 86.7513 121.242 86.5193L120.501 85.7593ZM120.207 92.9713L121.722 93.7373C122.045 93.5333 122.396 93.3673 122.769 93.2473L123.153 91.5943C123.167 91.5333 123.221 91.4883 123.284 91.4853L124.539 91.4293C124.602 91.4263 124.659 91.4663 124.679 91.5263L125.209 93.1393C125.591 93.2253 125.955 93.3593 126.295 93.5343L127.736 92.6363C127.79 92.6033 127.859 92.6093 127.905 92.6523L128.832 93.5003C128.879 93.5433 128.891 93.6113 128.863 93.6673L128.097 95.1823C128.301 95.5053 128.467 95.8563 128.587 96.2293L130.24 96.6133C130.301 96.6273 130.346 96.6813 130.349 96.7443L130.405 97.9993C130.408 98.0623 130.368 98.1193 130.308 98.1393L128.696 98.6693C128.61 99.0503 128.476 99.4153 128.301 99.7553L129.199 101.196C129.232 101.25 129.226 101.319 129.183 101.365L128.335 102.292C128.292 102.339 128.224 102.351 128.168 102.323L126.653 101.557C126.33 101.761 125.979 101.927 125.606 102.047L125.257 103.55C123.853 102.144 123.002 101.027 122.499 100.254C123.024 100.595 123.653 100.786 124.326 100.756C126.043 100.679 127.373 99.2253 127.296 97.5083C127.219 95.7913 125.765 94.4613 124.048 94.5383C122.331 94.6153 121.001 96.0693 121.078 97.7863C121.085 97.9383 121.115 98.0823 121.142 98.2273L120.081 97.3863L117.997 97.9243L117.969 97.2953C117.966 97.2323 118.006 97.1753 118.066 97.1553L119.678 96.6253C119.764 96.2443 119.898 95.8793 120.073 95.5393L119.175 94.0983C119.142 94.0443 119.148 93.9753 119.191 93.9293L120.039 93.0023C120.082 92.9553 120.15 92.9433 120.207 92.9713ZM121.607 97.7623C121.543 96.3373 122.647 95.1313 124.072 95.0673C125.497 95.0033 126.703 96.1073 126.767 97.5313C126.831 98.9553 125.727 100.162 124.302 100.226C122.877 100.29 121.671 99.1863 121.607 97.7623ZM121.171 104.211C124.105 107.777 127.926 110.509 132.25 112.132L135.143 113.218L138.155 115.398L135 120.955C134.147 122.457 132.777 123.597 131.145 124.162C131.145 124.162 129.749 124.634 129.146 125.745C129.019 125.98 129.035 126.235 129.12 126.481C123.114 126.042 117.108 125.745 111.101 125.586L111.425 124.976C113.035 121.946 115.186 119.236 117.772 116.98L119.449 115.517C117.605 113.113 116.693 110.546 116.417 107.868C116.138 105.16 116.605 102.427 117.625 99.9033L121.171 104.211ZM136.133 125.577C135.719 126.448 135.959 127.482 135.959 127.482H135.088C135.088 127.482 134.772 126.578 135.491 125.457C136.21 124.336 137.963 123.791 137.963 123.791C137.963 123.791 136.547 124.707 136.133 125.577ZM133.738 124.881C132.976 126.296 133.226 127.483 133.226 127.483H131.93C131.931 127.483 132.061 125.773 133.738 124.881ZM105.446 127.709H104.378C104.378 127.709 104.078 126.808 104.228 126.14C104.378 125.472 107.266 122.534 107.266 122.534C107.266 122.534 105.379 125.606 105.213 126.39C105.047 127.174 105.446 127.709 105.446 127.709ZM98.8678 125.822C99.3688 124.921 102.324 124.453 102.324 124.453L101.074 125.714C100.733 126.058 100.484 126.483 100.35 126.949L100.153 127.634H98.8678C98.8678 127.635 98.3668 126.724 98.8678 125.822ZM103.142 127.635H101.606C101.606 127.635 101.907 125.271 103.927 125.121C102.792 126.378 103.142 127.635 103.142 127.635ZM97.0658 101.263L95.0228 100.75C94.9468 100.731 94.8928 100.664 94.8908 100.585L94.8488 99.0263C94.8468 98.9483 94.8968 98.8783 94.9718 98.8553L96.9838 98.2333C97.0988 97.7613 97.2728 97.3133 97.4968 96.8943L96.4138 95.0863C96.3738 95.0193 96.3828 94.9333 96.4368 94.8763L97.5098 93.7443C97.5638 93.6873 97.6488 93.6733 97.7178 93.7103L99.5808 94.6943C99.9868 94.4473 100.426 94.2503 100.89 94.1093L101.403 92.0663C101.422 91.9903 101.489 91.9363 101.568 91.9343L103.127 91.8923C103.205 91.8903 103.275 91.9403 103.299 92.0153L103.921 94.0273C104.393 94.1423 104.841 94.3163 105.26 94.5403L107.068 93.4573C107.135 93.4173 107.221 93.4263 107.278 93.4803L108.41 94.5533C108.467 94.6073 108.481 94.6923 108.444 94.7613L107.46 96.6243C107.707 97.0303 107.904 97.4693 108.045 97.9333L110.088 98.4463C110.164 98.4653 110.218 98.5323 110.22 98.6113L110.242 99.4253L109.796 99.5063H105.245C105.194 98.0293 103.963 96.8663 102.483 96.9063C100.996 96.9463 99.8228 98.1843 99.8628 99.6713C99.8758 100.139 100.018 100.569 100.238 100.947L97.2778 101.832C97.1998 101.646 97.1248 101.458 97.0658 101.263ZM94.9918 103.655L105.221 100.598H109.895L116.891 99.3343L94.3168 106.006L94.9918 103.655ZM102.581 104.326L104.141 107.675C105.092 109.717 106.649 111.418 108.601 112.545L111.629 114.294L111.335 114.647L107.588 113.099C105.577 112.268 103.858 110.859 102.65 109.05L100.047 105.153L102.581 104.326ZM88.4388 122.915L88.0228 121.914C87.9448 121.726 87.9438 121.514 88.0198 121.325L93.5288 107.67L99.4368 105.411C99.4368 105.411 101.171 109.67 103.279 111.911C105.387 114.151 110.651 115.874 110.651 115.874L104.627 123.999L102.317 123.58C101.012 123.343 99.6688 123.708 98.6628 124.572L97.6218 125.466C94.6238 125.491 91.6248 125.55 88.6268 125.646C88.8568 124.743 88.8018 123.787 88.4388 122.915ZM138.899 127.483H137.745C137.745 127.483 137.745 125.382 139.955 124.336C138.605 125.795 138.899 127.483 138.899 127.483ZM136.054 112.888L136.027 113.134C136.027 113.134 129.732 110.561 126.12 107.387C122.507 104.212 118.621 98.8753 118.621 98.8753L119.825 98.5743L120.783 99.3343C120.783 99.3343 121.714 102.46 128.172 107.578C129.058 108.28 131.172 109.699 132.379 110.499C132.959 110.884 133.577 111.203 134.226 111.455L135.589 111.984C135.589 111.984 137.888 113.599 140.3 114.338L140.433 115.433L136.054 112.888ZM132.777 86.5043C135.068 96.8123 133.926 102.139 133.926 102.139L140.3 107.847H139.777L132.927 102.424L132.29 94.7853C132.049 91.8963 131.477 89.0443 130.584 86.2863L128.741 80.5913C128.742 80.5923 132.219 83.9933 132.777 86.5043ZM112.56 74.8203C112.44 75.1733 112.361 75.5443 112.361 75.9373C112.361 77.8653 113.924 79.4273 115.851 79.4273C117.611 79.4273 119.051 78.1213 119.292 76.4283L124.143 77.5873L123.022 77.9013C122.856 78.5083 122.615 79.0833 122.31 79.6183L123.649 81.9983C123.699 82.0873 123.684 82.1973 123.612 82.2693L122.183 83.6983C122.111 83.7703 122.001 83.7853 121.912 83.7353L119.532 82.3963C118.998 82.7013 118.422 82.9423 117.815 83.1083L117.08 85.7373C117.053 85.8353 116.964 85.9023 116.862 85.9023H114.841C114.739 85.9023 114.65 85.8343 114.623 85.7373L113.888 83.1083C113.281 82.9423 112.706 82.7013 112.171 82.3963L109.791 83.7353C109.703 83.7853 109.592 83.7703 109.52 83.6983L108.091 82.2693C108.019 82.1973 108.004 82.0873 108.054 81.9983L109.393 79.6183C109.088 79.0843 108.847 78.5083 108.681 77.9013L106.052 77.1663C105.954 77.1393 105.887 77.0503 105.887 76.9483V74.9273C105.887 74.8253 105.955 74.7363 106.052 74.7093L108.681 73.9743C108.688 73.9493 108.699 73.9253 108.706 73.9003L112.56 74.8203ZM94.2318 67.1743C90.6018 67.2353 85.5348 65.6583 84.5068 61.7483C86.9348 64.6433 90.8278 65.5523 94.3078 66.5553C96.2268 67.0603 96.2618 67.0463 94.2318 67.1743ZM94.3218 61.1553C91.3198 63.3103 86.6178 62.2673 84.7058 59.1343C85.1298 59.3123 85.4858 59.5493 85.8758 59.7273C88.4938 61.1033 91.3838 61.4893 94.3218 61.1553ZM85.1188 57.7713C86.3998 57.7803 87.5758 58.0953 88.6408 58.7823C87.3728 58.9713 86.0728 58.6123 85.1188 57.7713ZM83.3118 55.2443C85.6428 54.3253 88.4658 55.3793 90.2328 56.9903C87.9768 56.0853 85.6878 55.7163 83.3118 55.2443ZM89.6058 52.7333C86.9188 52.9513 84.2878 52.9513 81.6198 53.4373C83.8048 51.6673 87.1148 51.5893 89.6058 52.7333ZM85.8078 50.2983C84.0658 50.5973 82.3768 50.8573 80.8158 51.7833C81.8698 50.2373 84.0858 49.7983 85.8078 50.2983ZM80.9998 48.3693C81.9948 48.1553 83.4348 48.7823 83.4348 48.7823C83.4348 48.7823 81.6588 49.4863 80.9538 49.4863C80.2498 49.4863 79.8058 48.9813 79.8058 48.9813C79.8058 48.9813 80.1398 48.5543 80.9998 48.3693ZM77.1698 46.8463C77.7828 46.7203 79.1788 46.4873 79.9748 46.7923C78.4278 46.9603 77.3408 47.5883 77.1568 47.5883C76.9728 47.5883 76.8658 47.2223 76.8658 47.2223C76.8658 47.0403 76.9918 46.8833 77.1698 46.8463ZM71.8638 51.5163C71.9358 51.0293 72.1548 50.5883 72.4978 50.2393C73.2408 49.4823 74.2998 48.5693 75.1288 48.5133C75.3938 48.4953 75.6688 48.5293 75.9478 48.6143C76.7768 48.8653 77.4738 49.5323 77.8118 50.3983L78.4828 52.1193C78.7238 52.7383 78.6788 53.4273 78.3578 54.0083L77.3078 55.9133C77.2918 55.9433 77.2608 55.9603 77.2278 55.9603C77.2158 55.9603 77.2038 55.9583 77.1918 55.9533L76.3668 55.6013C76.3428 55.5913 76.3238 55.5703 76.3158 55.5453C76.3078 55.5203 76.3108 55.4933 76.3248 55.4703L76.9888 54.3613L76.4318 53.8573C76.3238 53.7593 76.2848 53.6083 76.3328 53.4703L76.3798 53.3353C76.4128 53.2403 76.4848 53.1623 76.5778 53.1223C76.6708 53.0823 76.7768 53.0823 76.8688 53.1233L77.3738 53.3483C77.3948 53.2313 77.4078 53.1283 77.4138 53.0293L77.4278 52.7773C77.4548 52.2823 77.3018 51.7943 76.9958 51.4023L76.5248 50.7983C76.3248 50.5413 76.0228 50.3943 75.6978 50.3943H75.4408C75.0768 50.3943 74.7348 50.5363 74.4778 50.7933L73.9668 51.3043C73.7208 51.5503 73.5508 51.8603 73.4758 52.2003L73.0648 54.0703C73.0588 54.0963 73.0418 54.1193 73.0178 54.1313C72.9938 54.1433 72.9658 54.1443 72.9408 54.1343L71.6288 53.5733C71.5908 53.5573 71.5688 53.5173 71.5748 53.4763L71.8638 51.5163ZM63.4358 54.0403C63.8228 53.6983 65.1778 53.3093 65.7178 53.1633C65.8718 53.1223 66.0208 53.0673 66.1648 52.9993L66.9718 52.6183L66.5978 53.1603C66.5978 53.1603 67.3028 52.6853 68.0568 52.4863C67.7788 53.0313 67.1578 53.5073 67.1578 53.5073C67.1578 53.5073 68.1678 53.0173 68.7678 53.0103C68.5578 53.3053 68.2998 53.5903 68.2998 53.5903C68.2998 53.5903 69.3798 53.4783 70.4888 53.8893C70.3778 54.8863 70.2138 55.5703 70.2138 55.5703C70.1868 55.7373 70.0838 55.8823 69.9348 55.9633L69.0128 56.4643C68.9368 56.5053 68.8528 56.5293 68.7668 56.5343L67.1518 56.6183C67.1188 56.6203 67.0848 56.6193 67.0518 56.6153L65.7928 56.4613C65.4988 56.4253 65.2008 56.4753 64.9348 56.6053L64.0728 57.0253C63.9398 57.0903 63.7858 57.0963 63.6478 57.0413L62.7778 56.6963C62.6578 56.6483 62.5588 56.5583 62.5018 56.4423L62.2568 55.9533C62.1748 55.7883 62.1878 55.5923 62.2918 55.4403C62.2938 55.4413 62.9488 54.4713 63.4358 54.0403ZM65.1988 57.5643L64.8208 57.4323L66.4508 57.3603L66.5378 57.5193L65.5428 58.3993L65.4608 58.3133L65.6448 58.1173L65.1988 57.5643ZM55.7268 67.5433C55.7268 67.5433 54.9908 66.6363 54.9218 65.7803C54.8528 64.9243 55.0418 64.2393 55.0418 64.2393L55.5298 64.5133L55.6218 65.1563C55.6918 65.6433 55.8358 66.1163 56.0508 66.5593L56.1378 66.7383L55.7268 67.5433ZM61.2398 74.5453L60.0418 72.2343L59.8538 74.5453L58.7068 73.0213L58.8098 73.6893L57.8418 72.5523C57.0988 71.6803 56.6238 70.6113 56.4728 69.4753L56.4298 69.1523L56.1388 69.2553L56.7898 67.8863L62.0278 70.9503L61.2398 74.5453ZM62.3808 69.7533L56.9318 66.2483L57.0708 64.8593C57.1368 64.2033 57.4458 63.5963 57.9378 63.1583C58.0268 63.0783 58.1328 63.0193 58.2478 62.9843L58.6268 62.8683L58.3588 62.1903L58.3948 61.8693C58.3948 61.8693 57.3068 61.7353 57.2798 61.7263C57.2528 61.7173 55.1308 62.0033 55.1308 62.0033L54.3098 61.5213L55.7368 59.7643L58.5368 57.8793L58.9648 57.9813L59.3218 57.7223L59.1698 57.3603L59.5708 56.9823C59.5708 56.9823 59.2628 55.8983 59.2498 55.7073C59.2368 55.5153 59.4998 54.8513 59.6328 54.7083C59.7658 54.5653 60.2038 54.3383 60.3468 54.3163C60.4898 54.2943 61.2518 54.3653 61.4798 54.3163C61.7078 54.2673 62.8528 53.5523 62.8528 53.5523H63.0208L61.2448 55.6923C61.2448 55.6923 61.0788 55.8543 61.0698 55.9743C61.0608 56.0943 61.1838 56.2803 61.1838 56.2803L61.7018 57.2993C61.7568 57.4073 61.7598 57.5343 61.7108 57.6443L61.5958 57.9043C61.5638 57.9763 61.5068 58.0333 61.4358 58.0663L61.0208 58.2573C61.0208 58.2573 61.0698 58.4283 61.0208 58.5603C60.9718 58.6923 60.7178 58.8233 60.7178 58.8233C60.7178 58.8233 60.8588 59.9113 60.8188 60.0353C60.7788 60.1593 60.5558 60.2773 60.5558 60.2773C60.5558 60.2773 60.5978 60.5723 60.5558 60.7013C60.5138 60.8303 60.0308 61.0443 60.0308 61.0443V61.7713L63.2018 58.4793L62.6918 58.3283L62.7368 58.1853C62.7368 58.1853 65.2888 58.9123 65.5288 58.8993C65.7688 58.8863 66.3608 58.5473 66.5378 58.3553C66.7148 58.1633 67.0628 57.3603 67.0628 57.3603L67.5798 57.3123L67.7318 57.4373L68.9138 57.5873C68.9698 57.5943 69.0248 57.6083 69.0778 57.6293L70.5048 58.1853C70.6248 58.2323 70.7208 58.3263 70.7688 58.4463L71.0518 59.1513C71.1018 59.2753 71.0958 59.4153 71.0358 59.5343L70.3668 60.8583C70.2578 61.0733 70.1138 61.2683 69.9398 61.4353L69.6948 61.6703C69.1858 62.1583 68.5288 62.4633 67.8278 62.5393L66.9118 62.6373C66.7458 62.6553 66.5788 62.6603 66.4118 62.6523L65.2758 62.5993C64.9298 62.5833 64.5888 62.5123 64.2648 62.3883L63.2748 62.0113C63.1938 61.9803 63.1018 62.0053 63.0478 62.0733L62.8048 62.3773C62.7338 62.4663 62.7508 62.5963 62.8428 62.6633L64.0298 63.5303L64.0388 63.8693L64.1648 64.1083C64.4128 64.5793 64.5078 65.1163 64.4348 65.6433L64.4048 65.8583C64.3628 66.1643 64.2648 66.4603 64.1168 66.7313L63.8678 67.1863L63.5468 67.0883L62.2978 69.5503L62.4408 69.6573L62.3808 69.7533ZM66.6748 78.9733C63.8998 82.2663 64.1668 85.1083 64.1668 85.1083C63.3758 82.0143 66.0558 78.8053 66.0558 78.8053C66.0558 78.8053 63.4928 80.5443 62.8628 83.5193C62.8628 83.5193 62.7958 80.4933 64.9358 78.3873C67.0758 76.2813 70.8368 73.4553 70.8368 73.4553L69.9178 75.5613C69.9188 75.5633 67.9398 77.4723 66.6748 78.9733ZM68.5698 103.017L65.4298 107.301L66.3608 111.212L64.6048 108.232L61.4908 111.933C61.1428 112.346 61.0268 112.907 61.1808 113.425L61.2798 113.758L63.5948 121.535L66.5748 123.504L62.5838 122.094L59.3138 112.781L59.2498 112.6C59.0518 112.037 59.2348 111.41 59.7038 111.042L59.7188 111.03C60.7558 110.215 62.6158 108.639 64.2328 106.662C66.6278 103.735 67.5058 99.9973 67.5058 99.9973L70.4858 103.815L68.5698 103.017ZM69.2838 82.1863C68.9628 87.4413 73.4218 87.2523 73.4218 87.2523C73.4218 87.2523 67.4638 88.9293 67.7848 82.2933C67.9988 77.8653 71.7808 75.3363 73.3148 72.1613C73.9428 70.8623 74.7248 68.9063 75.2598 67.5243C75.6728 66.4583 75.9118 65.3333 75.9718 64.1913L76.0218 63.2373C76.0998 61.7533 76.1398 59.3893 75.1018 57.6053C74.7808 57.0533 73.7058 56.4993 73.7058 56.4993C73.7058 56.4993 76.9928 56.9903 78.6338 57.8783C79.2898 58.2333 79.7408 58.9513 80.0448 59.6853C80.4718 60.7163 80.6318 61.8373 80.5788 62.9513C80.5788 62.9513 80.5188 64.8623 80.0218 66.6663C79.4508 68.7353 76.9928 72.4043 75.9548 73.4553C71.4958 77.9763 69.4128 80.0693 69.2838 82.1863ZM78.8448 85.6463C76.7398 88.2153 76.1688 91.6393 76.1688 91.6393C76.1688 91.6393 75.8118 87.8583 77.6668 84.6473C78.8808 82.5463 80.2778 80.8513 81.3408 78.9753C83.1598 75.7643 83.1598 73.0893 83.1248 71.9473C83.0888 70.8053 81.1988 67.4163 81.1988 67.4163L85.4438 72.0893C85.4438 72.0893 86.6568 76.1203 84.1238 80.6513C83.0658 82.5463 80.2258 83.9613 78.8448 85.6463ZM84.1758 104.02C84.5918 101.01 85.3718 98.0623 86.4978 95.2393L87.4068 92.9603L88.5838 93.2813L89.6538 88.7153L90.5098 90.8913C90.5098 90.8913 93.0378 87.5613 93.8278 85.4333C94.2488 84.2993 94.5418 82.9003 94.5418 82.9003L95.3978 86.0043C95.3978 86.0043 98.7398 80.8213 99.9998 78.5483C101.26 76.2753 100.714 72.3593 100.714 72.3593L101.655 72.6183C101.655 72.6183 102.222 76.8923 101.139 78.8903C100.056 80.8883 95.4688 87.6533 95.4688 87.6533L94.3228 85.7203L94.0318 86.4853C93.4508 88.0123 92.6088 89.4263 91.5428 90.6653L90.5708 91.7953L89.7128 90.6533L88.8568 94.1733L87.7628 93.7213L82.8668 120.406C82.6628 121.517 82.7778 122.663 83.1968 123.712L82.5118 124.602C81.8408 125.475 81.7318 126.656 82.2328 127.636H81.5908L81.3638 127.182C81.0078 126.471 80.9658 125.643 81.2478 124.899L81.3058 124.746L80.5468 124.335C79.9828 124.03 79.2848 124.137 78.8398 124.599L78.2648 125.195C77.8798 125.594 77.7698 126.183 77.9848 126.694L78.3808 127.636H77.8818L77.1338 126.825C76.6048 126.252 76.6528 125.357 77.2388 124.843L78.2858 123.925C78.9698 123.326 79.8438 122.989 80.7528 122.974L81.5568 122.961L84.1758 104.02Z" fill="white"/>
</g>
</g>
</g>
<defs>
<clipPath id="clip0_11429_6030">
<rect width="200" height="130" fill="white" transform="translate(0 0.113281)"/>
</clipPath>
</defs>
</svg>
