<svg width="36" height="36" viewBox="0 0 36 36" fill="none" xmlns="http://www.w3.org/2000/svg">
<g id="Group">
<path id="Vector" d="M18 35.5C15.6377 35.5 13.3459 35.0372 11.188 34.1246C9.10394 33.2432 7.23249 31.9815 5.62559 30.3744C4.01869 28.7675 2.75677 26.8961 1.87539 24.812C0.962793 22.6541 0.5 20.3623 0.5 18C0.5 15.6377 0.962793 13.3459 1.87539 11.188C2.75677 9.10394 4.01846 7.23249 5.62559 5.62559C7.23272 4.01869 9.10394 2.75677 11.188 1.87539C13.3459 0.962793 15.6377 0.5 18 0.5C20.3623 0.5 22.6541 0.962793 24.812 1.87539C26.8961 2.75677 28.7675 4.01846 30.3744 5.62559C31.9813 7.23249 33.2432 9.10394 34.1246 11.188C35.0372 13.3459 35.5 15.6377 35.5 18C35.5 20.3623 35.0372 22.6541 34.1246 24.812C33.2432 26.8961 31.9815 28.7675 30.3744 30.3744C28.7675 31.9813 26.8961 33.2432 24.812 34.1246C22.6541 35.0372 20.3623 35.5 18 35.5ZM18 1.59375C8.95355 1.59375 1.59375 8.95355 1.59375 18C1.59375 27.0465 8.95355 34.4063 18 34.4063C27.0465 34.4063 34.4063 27.0465 34.4063 18C34.4063 8.95355 27.0465 1.59375 18 1.59375Z" fill="#30353E"/>
<path id="Vector_2" d="M17.9939 32.7299C16.0058 32.7299 14.0769 32.3405 12.2608 31.5724C10.5069 30.8305 8.93193 29.7686 7.57933 28.4162C6.22695 27.0636 5.1651 25.4886 4.42318 23.7348C3.65505 21.9187 3.26562 19.9898 3.26562 18.0017C3.26562 16.0136 3.65505 14.0847 4.42318 12.2686C5.1651 10.5147 6.22695 8.93975 7.57933 7.58714C8.93193 6.23477 10.5069 5.17292 12.2608 4.43099C14.0769 3.66286 16.0058 3.27344 17.9939 3.27344C19.982 3.27344 21.9109 3.66286 23.7269 4.43099C25.4808 5.17292 27.0558 6.23477 28.4084 7.58714C29.7608 8.93952 30.8227 10.5145 31.5646 12.2686C32.3327 14.0847 32.7221 16.0136 32.7221 18.0017C32.7221 19.9898 32.3327 21.9187 31.5646 23.7348C30.8227 25.4886 29.7608 27.0636 28.4084 28.4162C27.0561 29.7686 25.4811 30.8305 23.7269 31.5724C21.9109 32.3405 19.982 32.7299 17.9939 32.7299ZM17.9939 4.36719C10.4757 4.36719 4.35937 10.4835 4.35937 18.0017C4.35937 25.5199 10.4757 31.6362 17.9939 31.6362C25.512 31.6362 31.6284 25.5199 31.6284 18.0017C31.6284 10.4835 25.512 4.36719 17.9939 4.36719Z" fill="black"/>
<path id="Vector_3" d="M18.0029 19.8249C16.9982 19.8249 16.1809 19.0075 16.1809 18.0029C16.1809 16.9982 16.9982 16.1809 18.0029 16.1809C19.0075 16.1809 19.8249 16.9982 19.8249 18.0029C19.8249 19.0075 19.0075 19.8249 18.0029 19.8249ZM18.0029 17.2746C17.6014 17.2746 17.2746 17.6014 17.2746 18.0029C17.2746 18.4044 17.6014 18.7311 18.0029 18.7311C18.4044 18.7311 18.7311 18.4044 18.7311 18.0029C18.7311 17.6014 18.4044 17.2746 18.0029 17.2746ZM18.0029 8.5C17.7009 8.5 17.456 8.25505 17.456 7.95313V6.14844C17.456 5.84652 17.7009 5.60156 18.0029 5.60156C18.3048 5.60156 18.5497 5.84652 18.5497 6.14844V7.95313C18.5497 8.25505 18.3048 8.5 18.0029 8.5ZM12.9784 9.84645C12.7895 9.84645 12.6057 9.74847 12.5043 9.57301L11.6019 8.01009C11.4508 7.7485 11.5406 7.414 11.802 7.26315C12.0636 7.11208 12.3981 7.20186 12.5489 7.46322L13.4513 9.02614C13.6023 9.28773 13.5126 9.62223 13.2512 9.77308C13.1653 9.82275 13.0712 9.84645 12.9784 9.84645ZM9.29912 13.5249C9.20638 13.5249 9.11227 13.5012 9.02614 13.4515L7.46322 12.5492C7.20163 12.3981 7.11208 12.0636 7.26315 11.8022C7.41422 11.5406 7.7485 11.4511 8.01009 11.6021L9.57301 12.5045C9.8346 12.6556 9.92415 12.9901 9.77308 13.2514C9.67191 13.4269 9.48802 13.5249 9.29912 13.5249ZM7.95312 18.5497H6.14844C5.84652 18.5497 5.60156 18.3048 5.60156 18.0029C5.60156 17.7009 5.84652 17.456 6.14844 17.456H7.95312C8.25505 17.456 8.5 17.7009 8.5 18.0029C8.5 18.3048 8.25505 18.5497 7.95312 18.5497ZM7.73711 24.477C7.54821 24.477 7.36432 24.379 7.26292 24.2035C7.11185 23.9419 7.20163 23.6074 7.46299 23.4566L9.02591 22.5542C9.2875 22.4032 9.622 22.4927 9.77285 22.7543C9.92393 23.0159 9.83415 23.3504 9.57279 23.5012L8.00986 24.4036C7.92396 24.4535 7.82985 24.477 7.73711 24.477ZM12.0752 28.816C11.9825 28.816 11.8883 28.7923 11.8022 28.7426C11.5406 28.5915 11.4511 28.257 11.6021 27.9956L12.5045 26.4327C12.6556 26.1711 12.9898 26.0816 13.2514 26.2327C13.513 26.3837 13.6026 26.7182 13.4515 26.9796L12.5492 28.5425C12.448 28.718 12.2641 28.816 12.0752 28.816ZM18.0029 30.4042C17.7009 30.4042 17.456 30.1592 17.456 29.8573V28.0526C17.456 27.7507 17.7009 27.5057 18.0029 27.5057C18.3048 27.5057 18.5497 27.7507 18.5497 28.0526V29.8573C18.5497 30.1594 18.3048 30.4042 18.0029 30.4042ZM23.9305 28.816C23.7416 28.816 23.5577 28.718 23.4563 28.5425L22.554 26.9796C22.4029 26.718 22.4925 26.3835 22.7541 26.2327C23.0157 26.0816 23.3502 26.1711 23.501 26.4327L24.4034 27.9956C24.5544 28.2572 24.4649 28.5917 24.2033 28.7426C24.1174 28.7925 24.0233 28.816 23.9305 28.816ZM28.2686 24.477C28.1759 24.477 28.0818 24.4533 27.9956 24.4036L26.4327 23.5012C26.1711 23.3502 26.0816 23.0157 26.2326 22.7543C26.3837 22.4927 26.7182 22.4032 26.9796 22.5542L28.5425 23.4566C28.8041 23.6076 28.8936 23.9422 28.7426 24.2035C28.6414 24.379 28.4575 24.477 28.2686 24.477ZM29.8573 18.5497H28.0526C27.7507 18.5497 27.5057 18.3048 27.5057 18.0029C27.5057 17.7009 27.7507 17.456 28.0526 17.456H29.8573C30.1592 17.456 30.4042 17.7009 30.4042 18.0029C30.4042 18.3048 30.1594 18.5497 29.8573 18.5497ZM26.7066 13.5249C26.5177 13.5249 26.3338 13.4269 26.2324 13.2514C26.0813 12.9898 26.1709 12.6553 26.4325 12.5045L27.9954 11.6021C28.257 11.4511 28.5915 11.5409 28.7423 11.8022C28.8934 12.0638 28.8039 12.3983 28.5423 12.5492L26.9794 13.4515C26.8965 13.4997 26.8024 13.525 26.7066 13.5249ZM23.0273 9.84645C22.9345 9.84645 22.8404 9.82275 22.7543 9.77308C22.4927 9.62201 22.4032 9.2875 22.5542 9.02614L23.4566 7.46322C23.6076 7.20163 23.9422 7.11208 24.2035 7.26315C24.4651 7.41422 24.5547 7.74873 24.4036 8.01009L23.5012 9.57301C23.4001 9.74847 23.2162 9.84645 23.0273 9.84645Z" fill="black"/>
<path id="Vector_4" d="M18 17.2712C17.6981 17.2712 17.4531 17.0263 17.4531 16.7243V12.5234C17.4531 12.2215 17.6981 11.9766 18 11.9766C18.3019 11.9766 18.5469 12.2215 18.5469 12.5234V16.7243C18.5469 17.0263 18.3019 17.2712 18 17.2712ZM23.0467 23.5931C22.9068 23.5931 22.7669 23.5398 22.6601 23.4329L18.515 19.2878C18.3015 19.0743 18.3015 18.728 18.515 18.5145C18.7285 18.3009 19.0748 18.3009 19.2883 18.5145L23.4334 22.6595C23.6469 22.873 23.6469 23.2194 23.4334 23.4329C23.3827 23.4838 23.3224 23.5241 23.2561 23.5516C23.1897 23.5791 23.1186 23.5932 23.0467 23.5931Z" fill="black"/>
</g>
</svg>
