<svg width="42" height="42" viewBox="0 0 42 42" fill="none" xmlns="http://www.w3.org/2000/svg">
<path d="M37.4062 5.25H4.59375C4.07208 5.25156 3.57223 5.45948 3.20335 5.82835C2.83448 6.19723 2.62656 6.69708 2.625 7.21875V34.7812C2.62656 35.3029 2.83448 35.8028 3.20335 36.1716C3.57223 36.5405 4.07208 36.7484 4.59375 36.75H23.9925C24.1665 36.75 24.3335 36.6809 24.4565 36.5578C24.5796 36.4347 24.6488 36.2678 24.6488 36.0938C24.6488 35.9197 24.5796 35.7528 24.4565 35.6297C24.3335 35.5066 24.1665 35.4375 23.9925 35.4375H4.59375C4.41986 35.437 4.25324 35.3677 4.13028 35.2447C4.00733 35.1218 3.93802 34.9551 3.9375 34.7812V7.21875C3.93802 7.04486 4.00733 6.87824 4.13028 6.75528C4.25324 6.63233 4.41986 6.56302 4.59375 6.5625H37.4062C37.5801 6.56302 37.7468 6.63233 37.8697 6.75528C37.9927 6.87824 38.062 7.04486 38.0625 7.21875V10.5H5.90625C5.7322 10.5 5.56528 10.5691 5.44221 10.6922C5.31914 10.8153 5.25 10.9822 5.25 11.1562C5.25 11.3303 5.31914 11.4972 5.44221 11.6203C5.56528 11.7434 5.7322 11.8125 5.90625 11.8125H38.0625V21.2166C38.0625 21.3906 38.1316 21.5575 38.2547 21.6806C38.3778 21.8037 38.5447 21.8728 38.7188 21.8728C38.8928 21.8728 39.0597 21.8037 39.1828 21.6806C39.3059 21.5575 39.375 21.3906 39.375 21.2166V7.21875C39.3734 6.69708 39.1655 6.19723 38.7966 5.82835C38.4278 5.45948 37.9279 5.25156 37.4062 5.25Z" fill="#30353E"/>
<path d="M6.5625 9.51562C7.10616 9.51562 7.54688 9.07491 7.54688 8.53125C7.54688 7.98759 7.10616 7.54688 6.5625 7.54688C6.01884 7.54688 5.57812 7.98759 5.57812 8.53125C5.57812 9.07491 6.01884 9.51562 6.5625 9.51562Z" fill="#30353E"/>
<path d="M9.84375 9.51562C10.3874 9.51562 10.8281 9.07491 10.8281 8.53125C10.8281 7.98759 10.3874 7.54688 9.84375 7.54688C9.30009 7.54688 8.85938 7.98759 8.85938 8.53125C8.85938 9.07491 9.30009 9.51562 9.84375 9.51562Z" fill="#30353E"/>
<path d="M13.125 9.51562C13.6687 9.51562 14.1094 9.07491 14.1094 8.53125C14.1094 7.98759 13.6687 7.54688 13.125 7.54688C12.5813 7.54688 12.1406 7.98759 12.1406 8.53125C12.1406 9.07491 12.5813 9.51562 13.125 9.51562Z" fill="#30353E"/>
<path d="M6.5625 16.7344C7.10616 16.7344 7.54688 16.2937 7.54688 15.75C7.54688 15.2063 7.10616 14.7656 6.5625 14.7656C6.01884 14.7656 5.57812 15.2063 5.57812 15.75C5.57812 16.2937 6.01884 16.7344 6.5625 16.7344Z" fill="#30353E"/>
<path d="M6.5625 21.9844C7.10616 21.9844 7.54688 21.5437 7.54688 21C7.54688 20.4563 7.10616 20.0156 6.5625 20.0156C6.01884 20.0156 5.57812 20.4563 5.57812 21C5.57812 21.5437 6.01884 21.9844 6.5625 21.9844Z" fill="#30353E"/>
<path d="M6.5625 27.2344C7.10616 27.2344 7.54688 26.7937 7.54688 26.25C7.54688 25.7063 7.10616 25.2656 6.5625 25.2656C6.01884 25.2656 5.57812 25.7063 5.57812 26.25C5.57812 26.7937 6.01884 27.2344 6.5625 27.2344Z" fill="#30353E"/>
<path d="M6.5625 32.4844C7.10616 32.4844 7.54688 32.0437 7.54688 31.5C7.54688 30.9563 7.10616 30.5156 6.5625 30.5156C6.01884 30.5156 5.57812 30.9563 5.57812 31.5C5.57812 32.0437 6.01884 32.4844 6.5625 32.4844Z" fill="#30353E"/>
<path d="M9.84375 16.4063H36.0938C36.2678 16.4063 36.4347 16.3371 36.5578 16.214C36.6809 16.091 36.75 15.924 36.75 15.75C36.75 15.576 36.6809 15.409 36.5578 15.286C36.4347 15.1629 36.2678 15.0938 36.0938 15.0938H9.84375C9.6697 15.0938 9.50278 15.1629 9.37971 15.286C9.25664 15.409 9.1875 15.576 9.1875 15.75C9.1875 15.924 9.25664 16.091 9.37971 16.214C9.50278 16.3371 9.6697 16.4063 9.84375 16.4063ZM23.8153 21C23.8153 20.826 23.7462 20.659 23.6231 20.536C23.5 20.4129 23.3331 20.3438 23.1591 20.3438H9.84375C9.6697 20.3438 9.50278 20.4129 9.37971 20.536C9.25664 20.659 9.1875 20.826 9.1875 21C9.1875 21.174 9.25664 21.341 9.37971 21.464C9.50278 21.5871 9.6697 21.6563 9.84375 21.6563H23.1591C23.3331 21.6563 23.5 21.5871 23.6231 21.464C23.7462 21.341 23.8153 21.174 23.8153 21ZM9.84375 26.9063H20.5209C20.695 26.9063 20.8619 26.8371 20.985 26.714C21.108 26.591 21.1772 26.424 21.1772 26.25C21.1772 26.076 21.108 25.909 20.985 25.786C20.8619 25.6629 20.695 25.5938 20.5209 25.5938H9.84375C9.6697 25.5938 9.50278 25.6629 9.37971 25.786C9.25664 25.909 9.1875 26.076 9.1875 26.25C9.1875 26.424 9.25664 26.591 9.37971 26.714C9.50278 26.8371 9.6697 26.9063 9.84375 26.9063ZM9.84375 32.1563H20.895C21.069 32.1563 21.236 32.0871 21.359 31.964C21.4821 31.841 21.5513 31.674 21.5513 31.5C21.5513 31.326 21.4821 31.159 21.359 31.036C21.236 30.9129 21.069 30.8438 20.895 30.8438H9.84375C9.6697 30.8438 9.50278 30.9129 9.37971 31.036C9.25664 31.159 9.1875 31.326 9.1875 31.5C9.1875 31.674 9.25664 31.841 9.37971 31.964C9.50278 32.0871 9.6697 32.1563 9.84375 32.1563ZM30.8438 19.6166C29.1564 19.6166 27.507 20.117 26.104 21.0544C24.7011 21.9918 23.6076 23.3242 22.9619 24.8831C22.3162 26.442 22.1472 28.1573 22.4764 29.8122C22.8056 31.4671 23.6181 32.9873 24.8112 34.1804C26.0044 35.3735 27.5245 36.186 29.1794 36.5152C30.8343 36.8444 32.5496 36.6754 34.1085 36.0297C35.6674 35.384 36.9998 34.2905 37.9372 32.8876C38.8747 31.4846 39.375 29.8352 39.375 28.1479C39.3724 25.886 38.4727 23.7176 36.8734 22.1182C35.274 20.5189 33.1056 19.6192 30.8438 19.6166ZM30.8438 35.3666C29.416 35.3666 28.0203 34.9433 26.8332 34.15C25.6461 33.3568 24.7209 32.2294 24.1745 30.9104C23.6281 29.5913 23.4852 28.1399 23.7637 26.7396C24.0422 25.3393 24.7298 24.053 25.7393 23.0434C26.7489 22.0339 28.0351 21.3464 29.4354 21.0678C30.8357 20.7893 32.2872 20.9322 33.6062 21.4786C34.9253 22.025 36.0527 22.9502 36.8459 24.1374C37.6391 25.3245 38.0625 26.7201 38.0625 28.1479C38.0604 30.0618 37.2992 31.8967 35.9459 33.25C34.5925 34.6033 32.7576 35.3645 30.8438 35.3666Z" fill="#30353E"/>
<path d="M34.5765 27.4899H31.5V22.6914C31.5 22.5174 31.4309 22.3504 31.3078 22.2274C31.1847 22.1043 31.0178 22.0352 30.8438 22.0352C30.6697 22.0352 30.5028 22.1043 30.3797 22.2274C30.2566 22.3504 30.1875 22.5174 30.1875 22.6914V28.1462C30.1875 28.3202 30.2566 28.4871 30.3797 28.6102C30.5028 28.7333 30.6697 28.8024 30.8438 28.8024H34.5765C34.7505 28.8024 34.9175 28.7333 35.0405 28.6102C35.1636 28.4871 35.2327 28.3202 35.2327 28.1462C35.2327 27.9721 35.1636 27.8052 35.0405 27.6821C34.9175 27.559 34.7505 27.4899 34.5765 27.4899Z" fill="#30353E"/>
</svg>
