<svg width="73" height="42" viewBox="0 0 73 42" fill="none" xmlns="http://www.w3.org/2000/svg">
<g id="Trigyn" clip-path="url(#clip0_8283_11076)">
<path id="Vector" d="M3.67856 25.8765C3.58001 25.9947 3.45355 26.0997 3.38767 26.2336C3.10172 26.8146 2.81932 27.3983 2.56566 27.9934C2.46514 28.2292 2.43679 28.4962 2.38576 28.7509C2.29388 29.2102 2.10784 29.359 1.6642 29.3229C1.36278 29.2984 1.16689 29.1353 1.20221 28.8459C1.30744 27.9856 1.43836 27.1279 1.58763 26.2739C1.60651 26.1657 1.79558 26.0876 1.90308 25.9927C2.06395 25.8505 2.28471 25.7358 2.3728 25.5579C4.70192 20.8581 7.04242 16.1634 9.31536 11.4372C9.81844 10.3911 10.0785 9.23128 10.4433 8.12154C11.0996 6.12567 11.7557 4.12973 12.3993 2.12991C12.5309 1.72098 12.5956 1.29153 12.7133 0.877671C12.7822 0.635564 12.8951 0.405545 13.0062 0.124492C13.2916 0.164557 13.6893 -0.0522566 13.8535 0.476274C13.8855 0.579309 14.1426 0.660857 14.3016 0.671899C15.2627 0.738749 15.5825 1.19237 15.3174 2.14103C15.0868 2.9665 14.842 3.78877 14.6366 4.62044C13.2391 10.2789 11.3945 15.812 9.77963 21.4095C8.51913 25.7787 7.21701 30.1364 5.93581 34.4999C5.85538 34.7738 5.79731 35.0539 5.72589 35.3304C5.63613 35.6778 5.44585 35.9133 5.04534 35.9036C4.78713 35.8974 4.70041 36.0199 4.63688 36.2708C4.3137 37.5471 3.96679 38.8178 3.60533 40.0842C3.52171 40.3773 3.38305 40.6703 3.20239 40.9152C3.11013 41.0403 2.83426 41.1497 2.70341 41.1018C2.54572 41.0441 2.36416 40.8177 2.35339 40.6542C2.33459 40.3673 2.42503 40.0697 2.49326 39.782C2.60994 39.29 2.74488 38.8023 2.87952 38.2842C2.7254 38.2417 2.632 38.2197 2.54095 38.1903C2.09746 38.0472 1.95387 37.8036 2.07987 37.3619C2.27046 36.6938 2.47621 36.0297 2.69537 35.2975C2.55513 35.2975 2.38152 35.2449 2.28168 35.307C1.94008 35.5199 1.72349 35.5395 1.50083 35.2224C1.31077 34.9518 1.07811 34.7875 0.782527 34.6581C0.430691 34.504 0.352986 34.2666 0.526364 33.8876C0.96144 32.9367 1.4392 32.0039 1.85039 31.0434C2.4474 29.6489 3.00726 28.2388 3.5675 26.8294C3.68015 26.5459 3.72336 26.2357 3.79864 25.9378L3.67856 25.8765Z" fill="white"/>
<path id="Vector_2" d="M33.1501 16.9119C34.522 18.9555 35.8545 20.9404 37.2254 22.9826C36.6381 22.9826 36.1245 22.9952 35.6126 22.9723C35.5061 22.9675 35.3745 22.8518 35.3073 22.7525C34.1736 21.0777 33.0198 19.4149 31.9362 17.7089C31.5489 17.099 31.1166 16.8446 30.3745 17.0602V22.9411H29V11.0373C30.5567 11.0373 32.0997 10.9568 33.6296 11.0618C34.9482 11.1524 35.8191 12.1945 35.9076 13.4981C36.0219 15.1805 35.4277 16.0729 33.8168 16.6459C33.6065 16.7206 33.402 16.8109 33.15 16.9119H33.1501ZM30.3891 16.3372C31.2358 16.367 32.0674 16.4037 32.8785 16.1707C33.7366 15.9243 34.2594 15.3573 34.3788 14.4837C34.432 14.0942 34.4281 13.6869 34.3784 13.2965C34.3071 12.7354 34.0712 12.2389 33.5194 11.9704C32.5221 11.4851 31.4607 11.6586 30.3891 11.6373V16.3372Z" fill="white"/>
<path id="Vector_3" d="M71.6936 20.2615V10.9967H72.4397V22.9819C72.1191 22.9819 71.7916 23.0122 71.4755 22.9666C71.3534 22.949 71.2356 22.773 71.1519 22.6461C69.1184 19.5625 67.0899 16.4758 65.0599 13.39C64.9947 13.291 64.9236 13.1958 64.7939 13.0116V22.9418C64.7128 22.9584 64.6671 22.976 64.6214 22.976C64.2072 22.9764 64.0001 22.776 64 22.3748C64 18.7455 64 15.1161 64 11.4868V10.974C64.5037 10.974 64.9693 10.9558 65.4314 10.9873C65.5406 10.9948 65.6626 11.1539 65.7373 11.2692C67.3798 13.8029 69.0154 16.3409 70.6549 18.8764C70.9636 19.3538 71.2833 19.8245 71.5979 20.2982L71.6937 20.2614L71.6936 20.2615Z" fill="white"/>
<path id="Vector_4" d="M51.8292 12.3565C51.616 12.593 51.4262 12.8036 51.225 13.0267C50.9376 12.7948 50.6875 12.571 50.4155 12.3771C48.5178 11.0247 46.3232 11.3039 44.8218 13.082C42.8512 15.4157 42.981 19.0066 45.1527 21.1498C46.6769 22.6539 48.741 22.7371 50.4942 22.0447C50.5923 22.006 50.6712 21.7947 50.6724 21.6629C50.6853 20.3079 50.6803 18.9527 50.6803 17.5975C50.6803 17.4638 50.6803 17.3302 50.6803 17.1758H52.0696C52.0696 17.8787 52.0694 18.5588 52.0696 19.2389C52.0698 20.1714 52.078 21.1039 52.0614 22.0361C52.0592 22.1652 51.9668 22.3656 51.8626 22.4092C49.7859 23.2796 47.6563 23.5817 45.4947 22.766C43.2471 21.9179 42.0807 20.2299 41.8178 17.9064C41.6102 16.0722 42.011 14.4011 43.2196 12.9538C44.9201 10.9175 47.7449 10.2303 50.1707 11.2681C50.4005 11.3664 50.6229 11.4903 50.8298 11.6296C51.1611 11.8525 51.4766 12.0982 51.8293 12.3565H51.8292Z" fill="white"/>
<path id="Vector_5" d="M58.4387 22.9532H57.0698C57.0624 22.8155 57.0501 22.6952 57.0503 22.575C57.0531 21.1585 57.0491 19.7419 57.0668 18.3255C57.0725 17.8724 56.951 17.4816 56.7078 17.0985C55.551 15.2772 54.4089 13.4467 53.2635 11.6183C53.1457 11.4304 53.0406 11.2348 52.8906 10.9754C53.4497 10.9754 53.9481 10.9459 54.4391 10.9927C54.5933 11.0074 54.7659 11.2031 54.8649 11.3566C55.939 13.024 57.0002 14.6996 58.0657 16.3725C58.0909 16.4122 58.1269 16.4452 58.1817 16.509C58.7753 15.6212 59.3576 14.7523 59.9376 13.8818C60.4911 13.0511 61.0593 12.2291 61.5853 11.3818C61.781 11.0667 61.9923 10.9089 62.366 10.97C62.4881 10.9899 62.6163 10.9731 62.8272 10.9731C62.6072 11.3332 62.4283 11.6516 62.2253 11.9541C61.0643 13.6845 59.9025 15.4144 58.7292 17.1366C58.4566 17.5365 58.4431 17.9767 58.4409 18.4226C58.4344 19.7895 58.4386 21.1564 58.4385 22.5233V22.9531L58.4387 22.9532Z" fill="white"/>
<path id="Vector_6" d="M24.335 22.97H22.9488V11.631H19.6172V10.9922H27.6821V11.6182H24.335V22.9699V22.97Z" fill="white"/>
<path id="Vector_7" d="M39.712 22.951H38.3594V11H39.712V22.951Z" fill="white"/>
<path id="Vector_8" d="M59.3787 34.7537C59.0742 34.893 58.8137 35.0584 58.5286 35.1347C57.3588 35.4479 56.4013 34.9029 56.1844 33.7221C56.0847 33.1791 56.1128 32.5723 56.2513 32.0365C56.5419 30.9125 57.664 30.3503 58.8056 30.6503C59.071 30.72 59.3164 30.9092 59.6297 30.718C59.7566 30.6406 59.973 30.7052 60.1899 30.7052C60.1972 30.8564 60.209 30.9878 60.2091 31.1192C60.2099 32.3003 60.2087 33.4815 60.2078 34.6627C60.2064 36.396 59.3389 37.1639 57.5815 36.9866C57.4811 36.9764 57.3818 36.9565 57.2816 36.9433C56.5107 36.8416 56.4999 36.8278 56.6085 36.014C56.8266 36.0717 57.0364 36.1507 57.253 36.179C57.6138 36.2262 57.9811 36.2797 58.3421 36.2612C59.1368 36.2205 59.4612 35.7344 59.3785 34.7536L59.3787 34.7537ZM59.4007 32.8077C59.4007 32.4727 59.4086 32.1374 59.3958 31.8027C59.392 31.7034 59.3612 31.5663 59.2909 31.514C58.5616 30.9717 57.321 31.3099 57.0595 32.1677C56.9314 32.5881 56.9192 33.0771 56.9892 33.5142C57.1174 34.3144 57.6363 34.6154 58.4419 34.4458C58.6366 34.4049 58.8224 34.3196 59.0093 34.2473C59.294 34.137 59.4495 33.9586 59.4083 33.6259C59.3749 33.3569 59.4015 33.0807 59.4007 32.8077Z" fill="white"/>
<path id="Vector_9" d="M33.8219 35.2712H33.0547V28.918H33.8154V31.0294C34.3627 30.8735 34.8648 30.6511 35.384 30.6012C36.1782 30.525 36.8065 31.001 36.8599 31.7838C36.9381 32.9307 36.8801 34.0867 36.8801 35.2609H36.1416C36.1349 35.1307 36.1225 34.9997 36.1222 34.8686C36.1202 34.0605 36.137 33.252 36.1165 32.4444C36.0908 31.4343 35.4633 31.0629 34.5132 31.4745C34.3864 31.5294 34.2673 31.6014 34.1418 31.6596C33.8988 31.7725 33.8076 31.9447 33.8137 32.2204C33.8332 33.0903 33.8215 33.9608 33.8219 34.8311C33.8219 34.9654 33.8219 35.0996 33.8219 35.2712Z" fill="white"/>
<path id="Vector_10" d="M24.0562 33.064C23.9783 33.8813 24.4536 34.4914 25.2548 34.6514C26.0057 34.8014 26.6584 34.5203 27.3378 34.1413C27.3378 34.4134 27.3483 34.6333 27.3317 34.8511C27.3265 34.9202 27.264 35.021 27.2028 35.0448C26.2724 35.4058 25.3272 35.5677 24.3814 35.1145C23.5048 34.6944 23.1068 33.8098 23.2228 32.6515C23.3544 31.3379 24.3746 30.2871 26.0606 30.639C26.9019 30.8145 27.4106 31.5264 27.4261 32.428C27.4295 32.6246 27.4266 32.8213 27.4266 33.064H24.0562ZM26.6243 32.4543C26.6789 31.7553 26.252 31.2754 25.5534 31.2305C24.7246 31.1773 24.0935 31.6921 24.0664 32.4543H26.6243Z" fill="white"/>
<path id="Vector_11" d="M67.9044 33.0595H64.5576C64.5126 33.596 64.6726 34.0155 65.0606 34.3412C65.6586 34.8432 66.4081 34.7978 67.8395 34.171C67.8395 34.4078 67.8536 34.6259 67.832 34.8406C67.8242 34.9177 67.7455 35.0247 67.6729 35.0532C66.7806 35.4038 65.8739 35.5521 64.9567 35.1455C64.1943 34.8076 63.8098 34.1936 63.7325 33.3951C63.6575 32.6193 63.7611 31.8755 64.3159 31.265C64.9365 30.5822 66.0513 30.3635 66.8918 30.7452C67.686 31.106 68.0557 31.9339 67.9044 33.0595ZM67.1328 32.4508C67.1701 31.7175 66.7337 31.2529 66.0068 31.2287C65.2017 31.2018 64.5899 31.7172 64.5743 32.4508H67.1328Z" fill="white"/>
<path id="Vector_12" d="M55.2376 32.8946C55.2149 33.8354 55.011 34.6015 54.23 35.0785C52.9089 35.8853 51.2966 35.1876 51.0199 33.6537C50.9285 33.147 50.9636 32.5811 51.0932 32.0805C51.3593 31.0519 52.1439 30.5405 53.196 30.5847C54.1713 30.6256 54.935 31.2689 55.1553 32.2524C55.2092 32.4929 55.219 32.7429 55.2375 32.8947L55.2376 32.8946ZM54.4791 32.9675C54.3688 32.5985 54.3017 32.2026 54.1334 31.8539C53.9177 31.4071 53.4804 31.2402 52.9964 31.2748C52.5336 31.3079 52.1602 31.5014 51.9699 31.967C51.6978 32.6325 51.6896 33.2886 51.9502 33.9575C52.1402 34.4449 52.5088 34.6762 53.0167 34.7064C53.5467 34.7381 53.9923 34.4844 54.1898 34.0017C54.3189 33.6862 54.3772 33.3427 54.4791 32.9675Z" fill="white"/>
<path id="Vector_13" d="M47.8006 32.9701C47.7349 33.8652 47.4986 34.63 46.6816 35.1161C45.7549 35.6676 44.0923 35.4729 43.6243 34.0125C43.3785 33.2455 43.3894 32.5027 43.7091 31.7624C44.063 30.9431 44.7264 30.5861 45.5929 30.5859C46.4788 30.5858 47.1576 30.9735 47.5022 31.7941C47.6573 32.1635 47.7044 32.5768 47.8005 32.9702L47.8006 32.9701ZM46.9818 32.9496C46.8799 32.5978 46.8139 32.2306 46.6675 31.8977C46.4581 31.4219 46.0203 31.246 45.5223 31.2726C45.0413 31.2982 44.6611 31.5067 44.4712 31.9862C44.2069 32.6536 44.199 33.3153 44.4735 33.9766C44.7391 34.6167 45.4659 34.8971 46.1016 34.6001C46.8066 34.2709 46.8962 33.636 46.9818 32.9496Z" fill="white"/>
<path id="Vector_14" d="M42.2808 35.2645H41.509C41.509 35.077 41.5111 34.8969 41.5086 34.7168C41.4971 33.8845 41.5119 33.0506 41.4635 32.2202C41.4216 31.5004 41.0474 31.2382 40.3216 31.3463C40.1742 31.3682 40.0284 31.4197 39.8896 31.476C39.2066 31.7531 39.1846 31.7898 39.1838 32.5089C39.1827 33.3916 39.1805 34.2743 39.1776 35.157C39.1776 35.1805 39.1634 35.204 39.147 35.2545H38.4297V30.7327H39.1685C39.1781 30.8701 39.1866 30.9917 39.1986 31.1633C39.3497 31.0708 39.4651 30.9678 39.6003 30.9239C39.9897 30.7973 40.3824 30.6233 40.7824 30.5974C41.615 30.5437 42.2351 31.0806 42.2694 31.9064C42.3153 33.0101 42.2808 34.1171 42.2808 35.2645Z" fill="white"/>
<path id="Vector_15" d="M68.7968 34.1466C69.1658 34.3132 69.4612 34.4938 69.7828 34.5786C70.1168 34.6668 70.4776 34.7021 70.8239 34.6888C71.3084 34.6702 71.5821 34.4219 71.6002 34.0775C71.6184 33.7285 71.4236 33.5398 70.9141 33.4247C70.5703 33.347 70.2221 33.2875 69.8802 33.2026C69.2008 33.0337 68.8335 32.6382 68.8097 32.0703C68.783 31.435 69.1282 30.9553 69.7895 30.7291C70.5545 30.4674 71.3062 30.572 72.0429 30.8438C72.1239 30.8737 72.2124 30.9906 72.2235 31.0764C72.25 31.2801 72.232 31.4895 72.232 31.71C71.8465 31.5664 71.5073 31.3972 71.1478 31.3194C70.8486 31.2546 70.5195 31.2584 70.2145 31.3033C69.9044 31.3489 69.6406 31.5167 69.6353 31.8872C69.6302 32.2419 69.8789 32.3914 70.1735 32.4673C70.6114 32.5803 71.0627 32.6449 71.4967 32.7696C72.0223 32.9207 72.3838 33.2562 72.4243 33.8211C72.4629 34.3593 72.2534 34.8077 71.7544 35.0587C71.4686 35.2026 71.1411 35.3515 70.8335 35.3493C70.2875 35.3455 69.7409 35.2373 69.1973 35.1553C68.8983 35.1102 68.7352 34.9443 68.7927 34.6156C68.8176 34.4727 68.7968 34.3221 68.7968 34.1466L68.7968 34.1466Z" fill="white"/>
<path id="Vector_16" d="M32.0422 31.8397C31.1676 31.3655 30.3005 30.8638 29.4808 31.7593C28.9297 32.3613 28.9905 33.6827 29.4992 34.2743C30.0014 34.8584 30.7221 34.8325 32.0392 34.154C32.0392 34.4205 32.0448 34.6597 32.0345 34.8982C32.0324 34.9468 31.9814 35.0126 31.9347 35.0375C30.9788 35.5459 29.5119 35.5272 28.7935 34.6751C27.6328 33.2984 28.3242 31.0087 30.0236 30.6423C30.6639 30.5042 31.283 30.63 31.8579 30.9094C31.9686 30.9632 32.0027 31.2042 32.0364 31.366C32.0651 31.5043 32.0423 31.6529 32.0423 31.8397H32.0422Z" fill="white"/>
<path id="Vector_17" d="M20.2139 31.367C20.0123 31.3568 19.8742 31.3498 19.7109 31.3415V30.7339C19.8613 30.718 20.0187 30.7013 20.2038 30.6818V29.4297H21.0019V30.6975H22.5848V31.3452H21.0466C21.0466 32.2978 21.0281 33.2021 21.0554 34.1049C21.0669 34.4834 21.3546 34.6776 21.7255 34.6772C22.0098 34.6769 22.294 34.6118 22.579 34.5754C22.7109 35.1633 22.6459 35.2615 22.0635 35.346C20.8326 35.5244 20.1859 34.9535 20.2109 33.7331C20.2269 32.9538 20.2139 32.1739 20.2139 31.367H20.2139Z" fill="white"/>
<path id="Vector_18" d="M48.9609 28.9141H49.6864V35.2641H48.9609V28.9141Z" fill="white"/>
<path id="Vector_19" d="M61.7266 30.7266H62.4778V35.2496H61.7266V30.7266Z" fill="white"/>
<path id="Vector_20" d="M61.6719 29.1562H62.5226V29.9411H61.6719V29.1562Z" fill="white"/>
</g>
<defs>
<clipPath id="clip0_8283_11076">
<rect width="72" height="41" fill="white" transform="translate(0.4375 0.113281)"/>
</clipPath>
</defs>
</svg>
