<svg width="100" height="24" viewBox="0 0 100 24" fill="none" xmlns="http://www.w3.org/2000/svg">
<g id="Trimble" clip-path="url(#clip0_8283_10962)">
<path id="Vector" d="M23.6406 5.92593H27.7514V20.5507H32.4308V5.92593H36.5416V2.42578H23.6406V5.92593Z" fill="white"/>
<path id="Vector_2" d="M34.6406 20.5509H38.8143V12.3006C39.2571 11.6132 39.6999 11.3011 41.0911 11.3011C41.7232 11.3011 42.2295 11.426 42.7987 11.6132V7.48828C41.154 7.48828 39.3206 8.11357 38.8143 9.73842H38.7514V7.80092H34.6406V20.5509Z" fill="white"/>
<path id="Vector_3" d="M48.0487 7.80078H43.875V20.5508H48.0487V7.80078Z" fill="white"/>
<path id="Vector_4" d="M66.5747 20.5509V10.176C66.5747 8.36346 65.3728 7.48828 63.6658 7.48828C62.211 7.48828 60.8833 8.17576 59.9978 9.48852H59.9343C59.8713 8.23851 58.6065 7.48828 57.3417 7.48828C55.887 7.48828 54.5592 8.17576 53.6737 9.48852H53.6108V7.80092H49.5V20.5509H53.6108V11.2383L53.8636 10.9257C54.1794 10.5508 54.4957 10.3631 54.9385 10.3631C55.6976 10.3631 55.9505 10.8635 55.9505 11.4882V20.5509H60.1242V11.2383L60.377 10.9257C60.6299 10.5508 61.0097 10.3631 61.4519 10.3631C62.211 10.3631 62.4009 10.8635 62.4009 11.4882V20.5509H66.5747Z" fill="white"/>
<path id="Vector_5" d="M70.9411 18.6759C71.7632 19.926 72.7746 20.6756 74.4192 20.6756C77.8973 20.6756 79.1621 16.9256 79.1621 13.9885C79.1621 10.3007 77.581 7.48802 74.735 7.48802C73.913 7.48802 72.7746 7.92561 72.2059 8.48814H72.1425V2.42578H67.9688V20.5507H70.182L70.9411 18.6759ZM72.1425 10.4884L72.3953 10.3007C72.6482 10.0508 73.028 9.73816 73.5337 9.73816C74.862 9.73816 74.862 11.1131 74.862 13.6131V14.6133C74.862 16.9256 74.6721 18.1134 73.5337 18.1134C72.7116 18.1134 72.0795 17.4881 72.1425 16.4258V10.4884Z" fill="white"/>
<path id="Vector_6" d="M84.4081 2.42578H80.2344V20.5507H84.4081V2.42578Z" fill="white"/>
<path id="Vector_7" d="M96.6143 13.8009C96.6143 10.4885 95.223 7.11328 91.2392 7.11328C87.3813 7.11328 85.4844 10.1136 85.4844 13.7387C85.4844 17.3011 87.2549 20.4886 91.2392 20.4886C94.9702 20.4886 96.235 17.551 96.4243 16.9884L93.6424 15.9883C93.389 16.9884 92.5035 17.7387 91.555 17.7387C89.848 17.7387 89.6581 15.8012 89.6581 14.6761H96.6143V13.8009ZM89.6581 12.2383C89.6581 11.051 90.0374 9.67606 91.1757 9.67606C92.6305 9.67606 92.7569 11.051 92.7569 12.2383H89.6581Z" fill="white"/>
<path id="Vector_8" d="M48.0487 2.36328H43.875V6.05057H48.0487V2.36328Z" fill="white"/>
<path id="Vector_9" d="M12.0618 20.0507C13.3901 19.6758 14.2751 19.1755 15.3505 18.2381C15.6034 18.1132 16.7418 17.1131 17.5003 15.5504C17.6273 15.3005 17.7537 14.9884 17.8801 14.6758L15.287 16.0507C15.2241 16.3634 15.0971 16.6133 15.0342 16.801C14.9707 16.9259 14.9707 16.9881 14.9707 17.0509C14.7813 17.238 14.6549 17.3629 14.5914 17.3629C13.6429 18.1759 12.8838 18.613 11.746 18.9884C11.3027 19.1133 10.3542 19.301 9.21582 19.301L7.44531 20.2384C9.59566 20.7381 11.3662 20.3006 12.0618 20.0507Z" fill="white"/>
<path id="Vector_10" d="M17.9483 8.36328C17.9483 8.30052 17.8854 8.23833 17.8854 8.17558C17.3791 6.73843 16.3677 5.48842 15.1029 4.48829C15.1029 4.42554 15.0394 4.42554 14.9765 4.36335C13.079 2.86345 11.1186 2.5508 10.1701 2.48805H9.9802C9.41101 2.42586 8.77889 2.42586 8.20969 2.48805C8.20969 2.5508 8.1462 2.5508 8.08327 2.5508C7.83042 2.5508 7.6405 2.613 7.45058 2.67575C7.32416 2.67575 7.13424 2.7385 7.00781 2.7385L8.65246 3.67587C8.77889 3.61312 8.90531 3.61312 9.03174 3.61312H9.53743C9.34808 3.67587 9.15816 3.73806 8.96881 3.80082L10.5494 4.67599C11.8142 4.61324 13.0796 5.17633 13.9011 6.05095C13.7117 6.05095 13.5218 6.11314 13.2689 6.11314L15.9879 7.55085V7.4881C16.1143 7.55085 16.1778 7.61304 16.2413 7.73799L18.0748 8.67592C18.0118 8.61317 18.0118 8.55041 18.0118 8.48822C18.0118 8.42547 17.9483 8.42547 17.9483 8.36328Z" fill="white"/>
<path id="Vector_11" d="M0.362985 10.2384C0.299489 10.551 0.23656 10.9259 0.299489 11.2385C0.299489 11.9882 0.299489 12.051 0.362985 12.8006C0.425914 13.301 0.679329 14.3011 1.0586 15.0508C1.31145 15.676 1.5643 16.1131 1.88064 16.5507C1.88064 16.6134 1.94414 16.6134 1.94414 16.6762C2.00707 16.7384 2.00707 16.8011 2.07056 16.8633V14.2383C2.07056 14.3011 2.00707 14.3633 2.00707 14.3633C1.75422 13.7386 1.5643 12.9883 1.5643 12.6757C1.48002 12.1759 1.43787 11.6968 1.43787 11.2385C1.43787 10.9886 1.50137 10.676 1.50137 10.4255C1.62779 9.86357 1.69072 9.23828 2.07056 8.42586V6.05078C1.81715 6.42562 1.50137 6.8632 1.31145 7.36355C0.615833 8.613 0.489409 9.55093 0.362985 10.2384Z" fill="white"/>
<path id="Vector_12" d="M15.1641 10.6761C15.6068 11.488 15.9861 12.3009 16.1755 13.0506C16.3019 12.9257 16.3654 12.8635 16.4283 12.6758C17.1874 11.5507 17.3138 10.1136 16.8081 8.67585C16.7658 8.63401 16.7447 8.59236 16.7447 8.5509C16.6817 8.42596 16.6182 8.30101 16.5553 8.17551C16.5553 8.11331 16.4918 8.05056 16.4283 7.98837C16.4283 7.92562 16.3654 7.80067 16.239 7.73848L15.9861 7.55078C16.1755 8.48815 16.049 9.36333 15.5433 10.1758C15.4798 10.3634 15.2905 10.4884 15.1641 10.6761Z" fill="white"/>
<path id="Vector_13" d="M8.96582 3.80073L8.65004 3.67578H8.33427C7.95443 3.73853 7.57515 3.80073 7.19531 3.92567C7.51166 3.98842 7.828 4.11337 8.14435 4.23831C8.39719 4.05062 8.65004 3.92567 8.96639 3.80073H8.96582Z" fill="white"/>
<path id="Vector_14" d="M23.5742 11.6134L18.0727 8.67578C18.8313 11.0509 18.5149 13.1133 17.8828 14.676L23.5742 11.6134Z" fill="white"/>
<path id="Vector_15" d="M10.5436 4.67578H10.1009C9.91152 4.73797 9.65867 4.80073 9.46875 4.86348C10.2279 5.30051 11.0499 5.80085 11.8085 6.48833C12.3147 6.30063 12.8204 6.23844 13.2632 6.11293L10.5442 4.67578H10.5436Z" fill="white"/>
<path id="Vector_16" d="M2.96126 16.0507C3.08768 16.2384 3.21467 16.3634 3.3411 16.5505C3.8468 17.113 5.11161 18.4258 7.19846 18.9883C7.89407 19.1755 8.58969 19.3004 9.22238 19.3004L15.293 16.0507C15.293 15.8008 15.3565 15.5504 15.3565 15.3005C14.5974 15.7381 13.7754 16.0507 12.8269 16.1757C9.66515 16.6133 6.37642 15.1134 4.41599 12.7383C3.65688 13.6129 3.15118 14.4881 2.96126 15.2383C2.89833 15.5504 2.89833 15.8008 2.96126 16.0507Z" fill="white"/>
<path id="Vector_17" d="M5.42448 4.98695C5.10813 5.23684 4.79179 5.61167 4.60243 5.98707C4.15967 6.67455 3.90625 7.48697 3.90625 8.29939C3.90625 8.86193 4.03267 9.48665 4.22259 10.0492C4.34902 10.3618 4.47601 10.5495 4.53894 10.7994C5.29805 10.1119 6.12009 9.48665 7.00506 8.86193C6.94213 8.73698 6.87864 8.61204 6.81571 8.48653C6.43644 7.36203 6.56286 6.23696 7.13149 5.29959C7.13149 5.23684 7.19498 5.17408 7.19498 5.11189C6.56286 4.92419 5.93017 4.862 5.42448 4.98695Z" fill="white"/>
<path id="Vector_18" d="M8.14537 5.92562C7.7026 6.5509 7.63911 7.30057 7.95545 8.05081C7.95545 8.113 7.95545 8.17575 8.01895 8.2385C8.77749 7.73816 9.66303 7.30057 10.4851 6.92574C9.78945 6.36321 9.09384 5.92562 8.33472 5.55078C8.2718 5.67573 8.2083 5.80067 8.14537 5.92562Z" fill="white"/>
<path id="Vector_19" d="M11.0521 7.98848C10.23 8.30056 9.40798 8.73815 8.58594 9.23849C9.5344 10.3008 11.0521 10.9883 12.5068 10.7384C12.9496 10.6756 13.3288 10.6134 13.6452 10.4258C13.076 9.48838 12.3169 8.61321 11.4948 7.80078C11.3684 7.86353 11.242 7.92573 11.0521 7.98848Z" fill="white"/>
<path id="Vector_20" d="M2.07031 6.0507C3.2087 4.5508 4.53644 3.80057 4.72636 3.73837C5.35905 3.36298 5.92767 3.05089 7.00313 2.73825L2.07031 0.113281V6.0507Z" fill="white"/>
<path id="Vector_21" d="M14.5283 9.55086C14.9711 8.92613 14.9711 8.1759 14.7182 7.36348C14.7182 7.30073 14.6547 7.23853 14.6547 7.17578C14.0856 7.17578 13.4534 7.23853 12.7578 7.42567C13.4534 8.11315 14.0221 8.86338 14.5283 9.61305V9.55086Z" fill="white"/>
<path id="Vector_22" d="M5.23438 11.8635C6.87846 14.0509 9.85085 15.3631 12.6333 14.9883C13.6453 14.8633 14.4673 14.5507 15.2259 14.0509C15.0365 13.1757 14.7202 12.3006 14.2145 11.4259C13.7717 11.6758 13.2654 11.8635 12.6962 11.9257C10.7993 12.1756 8.77539 11.301 7.63757 9.86328C6.75203 10.488 5.92999 11.176 5.23438 11.8635Z" fill="white"/>
<path id="Vector_23" d="M2.07031 8.42568V14.2382C2.38666 13.4257 2.95528 12.5506 3.7144 11.7381C3.46155 11.3005 3.27163 10.9257 3.1452 10.4881C2.70243 9.23811 2.63951 8.05085 2.89235 6.92578C2.70243 7.17567 2.51308 7.48775 2.32316 7.86315C2.25967 8.05085 2.13324 8.23799 2.07031 8.42568Z" fill="white"/>
<path id="Vector_24" d="M16.8715 14.1133L16.4922 14.4881V14.9257C16.6186 14.6758 16.745 14.4259 16.8715 14.1133Z" fill="white"/>
<path id="Vector_25" d="M2.07031 16.8633V23.1133L7.4459 20.2385C7.25598 20.2385 7.06662 20.1757 6.81378 20.1135C4.41058 19.4261 2.95585 17.9262 2.45015 17.3009C2.32373 17.1759 2.1973 16.9882 2.07031 16.8633Z" fill="white"/>
<path id="Vector_26" d="M97.3124 20.4879V19.2379H97.6917V19.0508H96.6797V19.2379H97.1225V20.4879H97.3124Z" fill="white"/>
<path id="Vector_27" d="M99.2735 20.4879V19.0508H99.0206L98.5779 20.1753L98.1357 19.0508H97.8828V20.4879H98.0722V19.2379L98.5149 20.4879H98.6414L99.0841 19.2379V20.4879H99.2735Z" fill="white"/>
</g>
<defs>
<clipPath id="clip0_8283_10962">
<rect width="99" height="23" fill="white" transform="translate(0.273438 0.113281)"/>
</clipPath>
</defs>
</svg>
