<svg width="40" height="41" viewBox="0 0 40 41" fill="none" xmlns="http://www.w3.org/2000/svg">
<g id="twitter" clip-path="url(#clip0_1381_628)">
<path id="Vector" d="M9.1 0.101074H30.9C35.9 0.101074 40 4.10107 40 9.20107V31.0011C40 36.0011 36 40.1011 30.9 40.1011H9.1C4.1 40.1011 0 36.1011 0 31.0011V9.20107C0 4.30107 4 0.101074 9.1 0.101074Z" fill="black"/>
<path id="Vector_2" d="M29.1 15.7011C29.1 15.9011 29.1 16.1011 29.1 16.3011C29.1 23.5011 23.4 29.3011 16.2 29.4011C16.1 29.4011 16.1 29.4011 16 29.4011C13.5 29.4011 11.1 28.7011 9 27.3011C9.4 27.3011 9.7 27.4011 10.1 27.4011C12.2 27.4011 14.2 26.7011 15.8 25.4011C13.8 25.4011 12.1 24.1011 11.5 22.2011C12.2 22.3011 12.9 22.3011 13.6 22.1011C11.5 21.7011 9.9 19.8011 9.9 17.6011C9.9 17.6011 9.9 17.6011 9.9 17.5011C10.5 17.9011 11.3 18.1011 12 18.1011C10 16.8011 9.4 14.1011 10.6 12.0011C12.9 14.9011 16.4 16.6011 20.1 16.8011C19.5 14.3011 21.1 11.9011 23.5 11.3011C25.1 10.9011 26.8 11.4011 27.9 12.6011C28.9 12.4011 29.9 12.0011 30.8 11.5011C30.5 12.6011 29.7 13.5011 28.8 14.0011C29.7 13.9011 30.6 13.6011 31.4 13.3011C30.8 14.2011 30 15.0011 29.1 15.7011Z" fill="white"/>
</g>
<defs>
<clipPath id="clip0_1381_628">
<rect width="40" height="40" fill="white" transform="translate(0 0.101074)"/>
</clipPath>
</defs>
</svg>
