<svg width="40" height="40" viewBox="0 0 40 40" fill="none" xmlns="http://www.w3.org/2000/svg">
<g id="Frame" clip-path="url(#clip0_11397_9972)">
<g id="Group">
<path id="Vector" d="M19.9687 0C31.0144 0 39.9688 8.9543 39.9688 20C39.9688 31.0457 31.0144 40 19.9688 40C8.92305 40 -0.03125 31.0457 -0.03125 20C-0.03125 8.9543 8.92305 0 19.9687 0Z" fill="white"/>
<path id="Vector_2" fill-rule="evenodd" clip-rule="evenodd" d="M10.3465 19.1281C10.1206 19.3613 9.9943 19.6732 9.9943 19.9979C9.9943 20.3225 10.1206 20.6344 10.3465 20.8676L16.3543 27.0696C16.4682 27.1888 16.6045 27.2843 16.7555 27.3506C16.9064 27.4169 17.069 27.4527 17.2339 27.4559C17.3987 27.4591 17.5625 27.4296 17.7159 27.3692C17.8693 27.3089 18.0093 27.2187 18.1277 27.104C18.2461 26.9893 18.3407 26.8523 18.406 26.7009C18.4712 26.5495 18.5059 26.3867 18.508 26.2219C18.5101 26.057 18.4795 25.8934 18.4181 25.7404C18.3567 25.5874 18.2656 25.448 18.1501 25.3304L14.1957 21.248H28.5234C28.855 21.248 29.1729 21.1163 29.4073 20.8819C29.6417 20.6474 29.7734 20.3295 29.7734 19.998C29.7734 19.6665 29.6417 19.3485 29.4073 19.1141C29.1729 18.8797 28.855 18.748 28.5234 18.748H14.1953L18.1497 14.6656C18.3766 14.4268 18.5 14.1081 18.4932 13.7788C18.4864 13.4495 18.3498 13.1362 18.1133 12.9069C17.8767 12.6777 17.5592 12.5512 17.2298 12.5548C16.9005 12.5583 16.5858 12.6918 16.3543 12.9261L10.3465 19.1281Z" fill="black"/>
</g>
</g>
<defs>
<clipPath id="clip0_11397_9972">
<rect width="40" height="40" fill="white" transform="matrix(-1 0 0 1 40 0)"/>
</clipPath>
</defs>
</svg>
