<svg width="45" height="61" viewBox="0 0 45 61" fill="none" xmlns="http://www.w3.org/2000/svg">
<g clip-path="url(#clip0_1177_6234)">
<path d="M39.2097 60.9998C42.3774 60.9998 44.9413 58.2547 44.9413 54.8679C44.9413 51.4812 42.3774 48.7407 39.2097 48.7407C36.042 48.7407 33.4771 51.4812 33.4771 54.8679C33.4771 58.2547 36.0447 60.9998 39.2097 60.9998ZM39.2097 49.936C41.7567 49.936 43.8251 52.1467 43.8251 54.8679C43.8251 57.5892 41.7567 59.808 39.2097 59.808C36.6628 59.808 34.5998 57.5892 34.5998 54.8679C34.5998 52.1467 36.6649 49.936 39.2097 49.936Z" fill="black"/>
<path d="M40.6527 54.9459V56.4632H40.0689V57.6678H42.3532V56.4632H41.7722V52.2334H40.6527L39.9697 52.9652V53.5562H40.6527V54.9459Z" fill="black"/>
<path d="M37.7963 56.2099H37.8421L37.1341 57.6683H38.2553L39.3868 55.3418L39.4631 55.1846C39.6331 54.8778 39.7307 54.5261 39.7307 54.1448C39.7307 52.9978 38.8613 52.0732 37.7963 52.0732C36.7314 52.0732 35.8647 52.9978 35.8647 54.1448C35.8647 55.2824 36.7319 56.2099 37.7963 56.2099ZM37.7963 53.1416C38.3119 53.1416 38.7311 53.5905 38.7311 54.1448C38.7311 54.6914 38.3119 55.1438 37.7963 55.1438C37.2807 55.1438 36.8638 54.6914 36.8638 54.1448C36.8638 53.5905 37.2818 53.1416 37.7963 53.1416Z" fill="black"/>
<path d="M13.3908 49.1744H11.063V60.4775H13.3908V49.1744Z" fill="black"/>
<path d="M4.13203 60.4775H8.99755V49.1738H4.15492C2.40918 49.1738 0.993729 50.7213 0.993729 52.6374C0.993729 53.4636 1.26134 54.2274 1.70445 54.8242C1.26134 55.4181 0.941406 56.1837 0.941406 57.0174C0.941406 58.9311 2.38411 60.4775 4.13203 60.4775ZM4.15492 51.7169H6.67461V53.608H4.15492C3.69382 53.608 3.31721 53.1684 3.31721 52.6619C3.31721 52.1582 3.69382 51.7169 4.15492 51.7169ZM4.13203 56.0393H6.67461V57.9326H4.13203C3.66657 57.9326 3.29323 57.4936 3.29323 56.9865C3.29323 56.4794 3.66657 56.0393 4.13203 56.0393Z" fill="black"/>
<path d="M30.6328 49.1738H26.1052L23.7212 60.4775H26.0447L26.6529 57.5955H30.0855L30.6943 60.4775H33.0195L30.6328 49.1738ZM27.1767 55.1054L27.894 51.7169H28.8467L29.5596 55.1054H27.1767Z" fill="black"/>
<path d="M23.4605 53.4123C23.4605 51.0701 21.7284 49.1738 19.5886 49.1738H15.4556V60.4775H17.7839V57.5949H19.6452L20.2589 60.4775H22.5792L21.8139 56.8445C22.8108 56.0958 23.4605 54.8486 23.4605 53.4123ZM20.6972 54.5628C20.4072 54.8778 20.0137 55.0495 19.5886 55.0495H17.7839V51.7169H19.5886C20.0006 51.7169 20.3908 51.8893 20.6852 52.2112C20.9778 52.5361 21.1375 52.9594 21.1375 53.4123C21.1375 53.9777 20.8983 54.3497 20.6972 54.5628Z" fill="black"/>
<path d="M37.2631 31.1573C37.9558 31.7593 38.8235 32.1343 39.7844 32.1343C42.0158 32.1343 43.8177 30.2013 43.8177 27.8277C43.8177 25.454 42.0158 23.5205 39.7844 23.5205C38.9652 23.5205 38.2016 23.7865 37.5634 24.2366C36.705 19.0258 33.4615 14.6953 29.0767 12.5836L28.4139 0.770511L25.5285 6.68113L21.7989 0.000244141L20.1169 7.58239L16.0248 4.62767L16.7453 12.6773C12.4292 14.8368 9.25491 19.1469 8.42973 24.3227C7.7746 23.8209 6.97067 23.5205 6.09589 23.5205C3.86998 23.5205 2.06592 25.447 2.06592 27.8277C2.06592 30.2083 3.86998 32.1343 6.09589 32.1343C7.1053 32.1343 8.0155 31.7232 8.71914 31.0706C10.4066 37.8208 16.1545 42.7963 23.0001 42.7963C29.8457 42.7963 35.5528 37.8638 37.2631 31.1573ZM39.7844 25.5774C40.954 25.5774 41.8942 26.5841 41.8942 27.8277C41.8942 29.0713 40.954 30.0733 39.7844 30.0733C38.6262 30.0733 37.6795 29.0666 37.6795 27.8277C37.6795 26.5887 38.6262 25.5774 39.7844 25.5774ZM6.09589 30.0733C4.93388 30.0733 3.9888 29.0666 3.9888 27.8277C3.9888 26.5887 4.93388 25.5774 6.09589 25.5774C7.25791 25.5774 8.20136 26.5841 8.20136 27.8277C8.20136 29.0713 7.25845 30.0733 6.09589 30.0733ZM23.0388 40.8715C17.19 40.8715 13.8703 36.4997 13.8703 36.4997L17.2407 33.1584C17.2407 33.1584 11.4688 28.2777 11.9496 24.93C12.4292 21.591 16.0346 20.8231 16.0346 20.8231L23.0017 24.6657L29.97 20.8236C29.97 20.8236 33.5754 21.5916 34.0567 24.9306C34.5412 28.2783 28.7638 33.159 28.7638 33.159L32.1343 36.5003C32.1343 36.5003 28.8995 40.8721 23.0377 40.8721L23.0388 40.8715Z" fill="black"/>
<path d="M23.0131 24.6715L23.0024 24.6656H23.0019H23.0014L22.9907 24.6715H23.0131Z" fill="black"/>
<path d="M18.0693 25.705C17.2741 25.705 16.6255 26.3925 16.6255 27.2478C16.6255 28.0984 17.2741 28.7901 18.0693 28.7901C18.8645 28.7901 19.5169 28.0984 19.5169 27.2478C19.5169 26.3925 18.865 25.705 18.0693 25.705Z" fill="black"/>
<path d="M30.5831 26.9892C30.5831 25.6426 29.5574 24.5486 28.3005 24.5486C27.035 24.5486 26.0146 25.6426 26.0146 26.9892C26.0146 28.3359 27.035 29.4322 28.3005 29.4322C29.5574 29.4322 30.5831 28.3388 30.5831 26.9892Z" fill="black"/>
<path d="M21.6201 32.7742C21.0522 32.7742 20.5981 33.2638 20.5981 33.8658C20.5981 34.4713 21.0522 34.9586 21.6201 34.9586C22.182 34.9586 22.6426 34.4713 22.6426 33.8658C22.6426 33.2638 22.182 32.7742 21.6201 32.7742Z" fill="black"/>
<path d="M24.3839 32.7742C23.8203 32.7742 23.3652 33.2638 23.3652 33.8658C23.3652 34.4713 23.8203 34.9586 24.3839 34.9586C24.9475 34.9586 25.4047 34.4713 25.4047 33.8658C25.4047 33.2638 24.9502 32.7742 24.3839 32.7742Z" fill="black"/>
</g>
<defs>
<clipPath id="clip0_1177_6234">
<rect width="44" height="61" fill="white" transform="translate(0.941406)"/>
</clipPath>
</defs>
</svg>
