<svg width="92" height="25" viewBox="0 0 92 25" fill="none" xmlns="http://www.w3.org/2000/svg">
<g clip-path="url(#clip0_1177_6209)">
<path d="M53.4836 25C59.068 25 62.4392 21.216 62.4392 15.2522C62.4392 10.5506 59.7 7.10988 56.1178 7.10988C54.6427 7.10988 53.4836 7.45384 52.3246 8.14174C52.3246 4.47253 52.3246 1.14727 52.4295 0L45.3706 1.37638V2.06429L46.1082 2.1797C47.0567 2.40824 47.3727 2.98131 47.5833 4.35826C47.7943 7.10988 47.6888 21.7884 47.5833 24.1967C49.4799 24.656 51.4815 25 53.4836 25ZM52.3246 9.28901C52.9566 9.0599 53.3781 8.94506 53.9052 8.94506C56.2228 8.94506 57.4874 11.9264 57.4874 15.5961C57.4874 20.1835 55.9068 23.7379 53.6947 23.7379C53.2731 23.7379 52.7466 23.7379 52.4295 23.6242C52.3246 22.0187 52.2196 15.2522 52.3246 9.28901Z" fill="black"/>
<path d="M1.32896 23.3939L0.275391 23.6242V24.5412H12.1811V23.6242L10.9165 23.3939C9.54697 23.2802 9.01992 22.2478 8.80994 20.0687C8.70391 18.5774 8.59892 16.1692 8.59892 13.1885L11.1276 13.3027C12.7082 13.3027 13.4452 14.6791 13.7618 16.628H14.7098V8.48682H13.7618C13.4452 10.4368 12.7082 11.8121 11.1276 11.8121L8.59892 11.9263C8.59892 8.02803 8.70391 4.35824 8.80994 2.17969H12.4966C15.3424 2.17969 16.8169 4.12856 17.8705 7.56923L18.9241 7.22528L18.8185 0.459351H0.275391V1.49121L1.32896 1.60662C2.69854 1.83573 3.22558 2.75275 3.43556 4.93188C3.75263 9.05989 3.64711 16.5143 3.43556 20.0687C3.22558 22.2478 2.69854 23.2802 1.32896 23.3939Z" fill="black"/>
<path d="M16.6064 15.9395C16.6064 21.1005 19.2406 25 24.5084 25C29.7763 25 32.727 20.8714 32.727 15.9395C32.727 10.7796 30.0928 6.88074 24.8245 6.88074C19.5561 6.88074 16.6064 11.0093 16.6064 15.9395ZM27.7746 15.9395C27.7746 20.412 27.1426 23.8527 24.72 23.8527C22.6123 23.8527 21.5588 20.2972 21.5588 15.9395C21.5588 11.4675 22.1903 8.02801 24.5084 8.02801C26.7216 8.02801 27.7746 11.5824 27.7746 15.9395Z" fill="black"/>
<path d="M71.9221 6.88074C66.5482 6.88074 63.8091 11.3533 63.8091 16.0549C63.8091 21.3308 67.1803 25 71.9221 25C74.8718 25 77.1894 23.3939 78.2435 21.7884L77.822 21.2153C76.7684 22.0187 75.9253 22.4769 74.2397 22.4769C70.4465 22.4769 68.5499 19.3802 68.6554 15.1379H78.454C78.454 10.4363 76.3469 6.88074 71.9221 6.88074ZM68.6554 13.8769C68.7604 11.2384 69.7095 8.02801 71.5006 8.02801C73.2917 8.02801 73.6077 11.4681 73.6077 13.7615L68.6554 13.8769Z" fill="black"/>
<path d="M84.8817 23.3933C82.8801 23.3933 81.4044 22.1324 80.2454 18.6917L79.5078 18.9219L79.6128 23.9675C80.8774 24.5406 83.1955 25 85.1977 25C89.3064 25 91.9411 22.7054 91.9411 19.1511C91.9411 16.7428 90.7815 15.3664 88.0418 14.2192C85.0916 12.9582 84.0386 12.1566 84.0386 10.6648C84.0386 9.17299 84.9872 8.14171 86.2513 8.14171C88.1479 8.14171 89.4119 9.40268 90.3605 12.4994L91.0981 12.2703L90.992 7.7989C89.7274 7.22469 88.0418 6.88074 86.1457 6.88074C82.2475 6.88074 79.8238 9.40268 79.8238 12.3851C79.8238 15.3676 81.6149 16.6274 84.1441 17.5461C86.7778 18.5768 87.5153 19.3802 87.5153 20.756C87.5153 22.1318 86.5673 23.3933 84.8817 23.3933Z" fill="black"/>
<path d="M44.7378 12.0417L46.4239 7.33953C44.6333 6.19283 41.4716 6.76589 39.786 10.8945L39.8915 6.88073L32.832 8.37253V9.05986L33.5696 9.17413C34.5182 9.28954 34.9392 9.86204 35.0447 11.3538C35.2557 14.106 35.1502 18.9225 35.0447 21.3307C34.9392 22.706 34.5182 23.3939 33.5696 23.5087L32.832 23.6241V24.5412H42.6307V23.6241L41.3661 23.5087C40.313 23.3939 39.9965 22.706 39.8915 21.3307C39.681 19.1516 39.681 14.7939 39.786 12.0417C40.313 11.2384 42.6307 10.5505 44.7378 12.0417Z" fill="black"/>
</g>
<defs>
<clipPath id="clip0_1177_6209">
<rect width="91.6667" height="25" fill="white" transform="translate(0.274902)"/>
</clipPath>
</defs>
</svg>
