<svg width="99" height="29" viewBox="0 0 99 29" fill="none" xmlns="http://www.w3.org/2000/svg">
<g clip-path="url(#clip0_1177_6202)">
<path d="M12.5147 3.116C15.1288 3.116 17.046 4.08762 18.4535 5.33594L20.7731 3.15402C18.8155 1.36287 16.1879 0.000488281 12.5147 0.000488281C5.86527 0.000488281 0.274902 5.09673 0.274902 11.3531C0.274902 17.6095 5.86527 22.7057 12.5147 22.7057C16.1076 22.7057 18.8155 21.5957 20.9336 19.5268C23.1055 17.4833 23.7897 14.5948 23.7897 12.274C23.7897 11.5548 23.7358 10.8863 23.6151 10.3313H12.5147V13.4342H20.3976C20.1563 15.1751 19.5395 16.4493 18.6011 17.3449C17.4484 18.4295 15.6519 19.615 12.5147 19.615C7.66175 19.615 3.8673 15.9318 3.8673 11.3658C3.8673 6.7997 7.66175 3.116 12.5147 3.116Z" fill="black"/>
<path d="M25.8271 15.1368C25.8271 19.3496 29.3399 22.4651 33.6433 22.4651C37.9468 22.4651 41.459 19.3623 41.459 15.1368C41.459 10.886 37.9468 7.80798 33.6433 7.80798C29.3399 7.80798 25.8271 10.886 25.8271 15.1368ZM33.6433 10.6964C36.0027 10.6964 38.0405 12.5003 38.0405 15.1368C38.0405 17.7481 36.0027 19.5767 33.6433 19.5767C31.2839 19.5767 29.2461 17.7481 29.2461 15.1368C29.2461 12.5003 31.2839 10.6964 33.6433 10.6964Z" fill="black"/>
<path d="M75.2029 21.3683V8.18656H71.9584V9.44808H71.8378C71.0734 8.59052 69.599 7.80847 67.7352 7.80847C63.8476 7.80847 60.4556 10.9995 60.4556 15.1368C60.4556 19.2493 63.8476 22.4656 67.7352 22.4656C69.599 22.4656 71.0734 21.6836 71.8378 20.8007H71.9584V21.8225C71.9584 24.6227 70.3629 26.1235 67.8026 26.1235C65.7109 26.1235 64.4105 24.7109 63.8745 23.5128L60.8984 24.6729C61.7559 26.6156 64.0216 28.9998 67.8026 28.9998C71.8108 28.9998 75.2029 26.7798 75.2029 21.3683ZM68.0304 19.5772C65.671 19.5772 63.8745 17.6852 63.8745 15.1368C63.8745 12.5509 65.671 10.6969 68.0304 10.6969C70.3629 10.6969 72.1863 12.5889 72.1863 15.1621C72.1998 17.7227 70.3629 19.5772 68.0304 19.5772Z" fill="black"/>
<path d="M51.0716 22.4651C55.375 22.4651 58.8872 19.3623 58.8872 15.1368C58.8872 10.886 55.375 7.80798 51.0716 7.80798C46.7681 7.80798 43.2554 10.886 43.2554 15.1368C43.2554 19.3496 46.7681 22.4651 51.0716 22.4651ZM51.0716 10.6964C53.4309 10.6964 55.4688 12.5003 55.4688 15.1368C55.4688 17.7481 53.4309 19.5767 51.0716 19.5767C48.7122 19.5767 46.6744 17.7481 46.6744 15.1368C46.6744 12.5003 48.7122 10.6964 51.0716 10.6964Z" fill="black"/>
<path d="M81.2489 0.302734H77.8838V22.4656H81.2489V0.302734Z" fill="black"/>
<path d="M97.9263 12.4754C97.2831 10.8358 95.2986 7.80847 91.2634 7.80847C87.2552 7.80847 83.917 10.7724 83.917 15.1368C83.917 19.2493 87.2148 22.4656 91.6389 22.4656C95.2049 22.4656 97.2697 20.4099 98.1278 19.2239L95.4732 17.559C94.5881 18.7698 93.3815 19.5772 91.6389 19.5772C89.8963 19.5772 88.6627 18.8332 87.8585 17.3573L98.2748 13.3081L97.9263 12.4754ZM87.3085 14.9103C87.3085 11.8322 89.628 10.558 91.3976 10.558C92.7782 10.558 93.9584 11.2266 94.3468 12.1728L87.3085 14.9103Z" fill="black"/>
</g>
<defs>
<clipPath id="clip0_1177_6202">
<rect width="98" height="29" fill="white" transform="translate(0.274902)"/>
</clipPath>
</defs>
</svg>
