<svg width="136" height="27" viewBox="0 0 136 27" fill="none" xmlns="http://www.w3.org/2000/svg">
<g clip-path="url(#clip0_1177_6216)">
<path d="M15.7386 13.0791L15.1162 13.4248L23.513 18.2621L15.7386 13.0791Z" fill="black"/>
<path d="M14.7358 2.93396L14.0918 12.825L14.6693 13.149L14.7358 2.93396Z" fill="black"/>
<path d="M14.4848 13.4165L13.9738 13.1144L11.397 15.1873L14.4848 13.4165Z" fill="black"/>
<path d="M0.941406 13.5006C0.941406 20.9565 7.15877 27.0001 14.8273 27.0001C22.4958 27.0001 28.7131 20.9565 28.7131 13.5006C28.7131 6.04473 22.4958 0.00109863 14.8273 0.00109863C7.15877 0.00109863 0.941406 6.04548 0.941406 13.5006ZM14.8288 26.2801C11.6552 26.2801 8.68644 25.2519 6.47457 23.3631C4.32145 21.5255 2.64998 18.6047 2.23714 15.5014C3.21513 21.4045 8.48079 25.9133 14.8288 25.9133C21.8726 25.9133 27.5836 20.362 27.5836 13.5134C27.5836 10.6723 26.4912 7.89066 24.8383 5.7997C26.5136 7.05638 27.9609 10.6348 27.9609 13.5134C27.9609 20.5642 22.0814 26.2801 14.8288 26.2801ZM13.6228 12.5386L14.7453 1.34571C14.7724 1.34571 14.8002 1.34571 14.8273 1.34571C14.8365 1.34571 14.8466 1.34571 14.8559 1.34571L14.9657 13.1233L16.8984 12.0004L14.9541 1.34647C21.8007 1.41261 27.3308 6.82865 27.3308 13.5006C27.3308 15.6442 26.7595 17.6577 25.7583 19.4059L17.0801 12.3469L16.2575 12.8001L25.6995 19.5074C25.6756 19.5472 25.6516 19.5878 25.6276 19.6277L15.0105 13.6893V15.7847L25.555 19.7472C23.3694 23.2872 19.3832 25.6563 14.8273 25.6563C10.2713 25.6563 6.29289 23.2917 4.10575 19.7577L14.644 15.7629V13.6682L4.01375 19.6066C3.99056 19.5675 3.96737 19.5285 3.94417 19.4886L13.3522 12.8001L12.5304 12.3469L3.87537 19.3691C2.88733 17.6292 2.32373 15.6291 2.32373 13.5006C2.32373 6.88126 7.76721 1.49754 14.5389 1.34872L12.845 12.0853L13.6228 12.5386ZM28.3544 13.4931C28.1658 6.60241 21.9608 0.727146 14.8273 0.727146C7.57471 0.727146 1.69519 6.44307 1.69519 13.4931C1.69519 16.3567 2.7644 19.0647 4.39412 21.4052C4.9469 22.4101 5.54529 23.0324 6.34314 23.8539C3.21667 21.4255 1.19267 17.687 1.19267 13.4931C1.19267 6.1725 7.29716 0.237853 14.8273 0.237853C22.3574 0.237853 28.5778 6.4318 28.3544 13.4931Z" fill="black"/>
<path d="M75.8234 14.3937C75.8234 12.0262 74.7472 10.1066 72.3822 10.1066C70.1897 10.1066 68.9419 12.0262 68.9419 14.3937C68.9419 16.7612 69.984 18.6808 72.3822 18.6808C74.7124 18.6808 75.3981 17.5587 75.7553 15.7631L74.9528 15.7594C74.884 16.426 74.4387 17.9247 72.7255 17.9585C70.7726 17.9961 70.635 15.5594 70.669 14.3937H75.8234ZM72.4511 10.8289C73.8906 10.8289 74.0962 12.6282 74.0962 13.727H70.703C70.703 12.9942 70.635 10.8289 72.4511 10.8289Z" fill="black"/>
<path d="M44.5401 17.9172H43.8204V18.4501H48.1722V17.9172H47.6581C47.2808 17.9172 46.8355 17.7172 46.8355 17.2505L46.6646 8.32298C46.6646 8.02234 47.0071 7.68938 47.3496 7.68938H48.0006V7.15649H44.8826L41.661 15.352L38.4403 7.15649H35.2875L35.2535 7.68938H35.7668C36.1441 7.68938 36.6235 7.7232 36.6235 8.1892L36.4526 17.2174C36.4526 17.5504 36.281 17.9172 35.596 17.9172H35.0819L35.0479 18.4501H38.5091V17.9172H37.9261C37.4808 17.9172 37.1724 17.7841 37.1724 17.2174L37.3432 8.55598L41.0441 17.8834H41.4214L45.1563 8.45601L45.3279 17.2174C45.3279 17.5173 45.0194 17.9172 44.5401 17.9172Z" fill="black"/>
<path d="M60.7649 12.5274C61.1421 12.4943 61.6215 12.4274 61.5527 11.4947C61.4846 10.562 60.9365 10.129 59.9771 10.129C59.2225 10.129 58.6063 10.5958 58.4347 10.8288C58.2352 11.0993 57.9894 10.9949 57.9546 10.695C57.9206 10.3958 57.7837 10.096 57.4412 10.1952C56.6867 10.4289 56.0017 10.5289 55.4188 10.562V10.8949C56.8583 10.8288 56.7215 11.5285 56.7215 11.8615V17.3249C56.7215 17.9246 56.1733 18.0246 55.8649 18.0246H55.3848V18.4575H59.3941V18.0246H59.0516C58.7432 18.0246 58.195 17.9246 58.195 17.3249V12.9611C58.195 11.5947 58.914 11.0948 59.6338 11.0948C59.9082 11.0948 60.0791 11.2286 60.0111 11.7284C59.9423 12.2275 60.3876 12.5612 60.7649 12.5274Z" fill="black"/>
<path d="M65.149 10.695C66.5537 10.695 67.4103 11.6615 67.4103 12.7611H67.8556V9.96216H67.4791L67.0276 10.6363C66.5228 10.2778 65.8873 10.0726 65.1142 10.0726C62.9216 10.0726 61.6738 11.9922 61.6738 14.3598C61.6738 16.7273 62.716 18.6356 65.1142 18.6469C67.2395 18.6574 67.7528 17.4917 68.1108 15.6961L67.3075 15.6924C67.2395 16.359 66.999 17.8908 65.4574 17.9246C63.5046 17.9667 63.3669 15.5255 63.401 14.3598C63.401 13.627 63.5038 10.695 65.149 10.695Z" fill="black"/>
<path d="M119.7 14.3937C119.7 12.0262 118.624 10.1066 116.259 10.1066C114.066 10.1066 112.818 12.0262 112.818 14.3937C112.818 16.7612 113.861 18.6816 116.259 18.6816C118.589 18.6816 119.275 17.5587 119.633 15.7639L118.829 15.7601C118.76 16.426 118.315 17.9255 116.602 17.9585C114.649 17.9969 114.511 15.5602 114.545 14.3937H119.7ZM116.328 10.8296C117.767 10.8296 117.973 12.6282 117.973 13.7278H114.58C114.58 12.995 114.511 10.8296 116.328 10.8296Z" fill="black"/>
<path d="M91.5275 14.3937C91.5275 12.0262 90.4513 10.1066 88.0871 10.1066C85.8938 10.1066 84.646 12.0262 84.646 14.3937C84.646 16.7612 85.6882 18.6816 88.0871 18.6816C90.4173 18.6816 91.1023 17.5587 91.4602 15.7639L90.6569 15.7601C90.5881 16.426 90.1428 17.9255 88.4296 17.9585C86.4767 17.9969 86.3391 15.5602 86.3731 14.3937H91.5275ZM88.1552 10.8296C89.5947 10.8296 89.8003 12.6282 89.8003 13.7278H86.4079C86.4079 12.995 86.3391 10.8296 88.1552 10.8296Z" fill="black"/>
<path d="M55.1596 14.3937C55.1596 12.0262 54.0826 10.1066 51.7185 10.1066C49.5251 10.1066 48.2773 12.0262 48.2773 14.3937C48.2773 16.7612 49.3195 18.6816 51.7185 18.6816C54.0486 18.6816 54.7344 17.5587 55.0916 15.7639L54.2883 15.7601C54.2203 16.426 53.7742 17.9255 52.061 17.9585C50.1081 17.9969 49.9705 15.5602 50.0052 14.3937H55.1596ZM51.7873 10.8296C53.226 10.8296 53.4317 12.6282 53.4317 13.7278H50.0393C50.0393 12.995 49.9705 10.8296 51.7873 10.8296Z" fill="black"/>
<path d="M79.9281 10.1546C78.763 10.1546 76.6045 11.0542 76.6045 14.2192C76.6045 18.3831 79.1063 18.6499 79.8601 18.6499C80.6139 18.6499 81.6073 18.0501 81.813 17.7337C81.83 17.6668 81.9328 17.5834 81.9676 17.7337C82.0016 18.0336 82.2242 18.4831 82.5667 18.3831C83.3205 18.1501 84.0063 18.0501 84.5892 18.0171V17.6834C83.1497 17.7502 83.2865 17.0505 83.2865 16.7175V7.42324C83.2865 7.03993 83.0809 6.7235 82.7384 6.82346C81.9846 7.05646 81.2988 7.15642 80.7167 7.18949V7.52245C81.7101 7.45631 81.813 7.7562 81.813 8.08916V10.9543C81.3676 10.5544 80.8535 10.1546 79.9281 10.1546ZM81.813 15.7179C81.7789 17.5503 80.7855 18.117 79.9629 18.117C78.1121 18.0832 78.2489 15.3519 78.2489 14.1854C78.2489 13.0189 78.3177 10.7213 79.9969 10.9212C81.6761 11.1211 81.813 12.8528 81.813 13.8863V15.7179Z" fill="black"/>
<path d="M103.401 12.9227H98.8774V13.6886H103.401V12.9227Z" fill="black"/>
<path d="M95.4224 17.8908C94.5999 17.8908 93.2979 17.3248 92.9895 15.6255H92.647V18.4575H93.0243L93.3667 17.7247C93.7092 18.0238 94.429 18.5236 95.3544 18.5236C96.2798 18.5236 97.5817 18.0238 98.0951 17.0911C98.6092 16.1584 98.3695 14.6258 97.2045 14.1599C96.184 13.751 95.2887 13.2617 94.5998 12.9272C94.0517 12.6604 93.9187 12.1283 93.9829 11.7946C94.0857 11.2617 94.5658 10.695 95.6621 10.6619C96.7591 10.6288 97.3073 11.5277 97.4441 12.5604H97.8214V9.89526H97.4789L97.1016 10.5281C96.3819 10.0621 96.0734 9.99523 95.4224 9.99523C94.7715 9.99523 93.6752 10.3282 93.0583 11.2617C92.4413 12.1944 92.6122 13.66 94.0857 14.2598C95.5601 14.8596 96.245 15.2256 96.6563 15.4255C97.0676 15.6255 97.3073 16.4252 97.0328 16.8919C96.7592 17.3579 96.245 17.8908 95.4224 17.8908Z" fill="black"/>
<path d="M103.572 17.9841V18.4501H107.787C109.055 18.4501 111.967 18.3501 112.036 15.0859C112.036 13.9863 111.488 12.6868 109.842 12.3538C110.665 12.1539 111.488 10.7213 111.488 9.75553C111.488 8.78972 111.11 7.15649 108.711 7.15649H103.572V7.59017C104.085 7.59017 104.977 7.69013 104.977 8.52291V16.7514C104.977 17.2182 104.943 17.9841 103.572 17.9841ZM106.45 7.69013H108.163C109.431 7.69013 109.945 8.58905 109.945 9.75553C109.945 11.1881 109.5 12.2869 108.163 12.2869H106.45V7.69013ZM106.45 12.8206H108.403C109.534 12.8206 110.528 13.5864 110.528 15.252C110.528 16.9175 109.5 17.9172 108.197 17.9172H106.45V12.8206Z" fill="black"/>
<path d="M125.174 18.0246H124.969V18.4575H128.703V18.0246H128.361C128.053 18.0246 127.504 17.9246 127.504 17.3249V12.4274C127.47 10.1959 125.414 10.129 124.694 10.129C123.94 10.129 123.118 10.5958 122.947 10.8288C122.747 11.1001 122.502 10.9956 122.467 10.6957C122.433 10.3958 122.296 10.096 121.953 10.1959C121.199 10.4289 120.514 10.5289 119.931 10.562V10.8957C121.371 10.8288 121.233 11.5285 121.233 11.8615V17.3249C121.233 17.9246 120.685 18.0246 120.376 18.0246H119.897V18.4575H123.906V18.0246H123.563C123.255 18.0246 122.706 17.9246 122.706 17.3249V12.9611C122.706 12.2283 122.981 11.0618 124.386 10.9618C125.791 10.8618 126.031 11.7615 126.031 12.3944V17.3249C126.031 17.9246 125.483 18.0246 125.174 18.0246Z" fill="black"/>
<path d="M130.116 10.2959L129.499 12.5612H129.841C130.698 10.7626 131.315 10.7626 131.863 10.7626H134.09L129.122 18.4575H135.085L135.633 16.226H135.359C134.707 17.7586 134.228 17.9915 133.611 17.9915H130.938L135.941 10.2959H130.116Z" fill="black"/>
</g>
<defs>
<clipPath id="clip0_1177_6216">
<rect width="135" height="27" fill="white" transform="translate(0.941406)"/>
</clipPath>
</defs>
</svg>
