<svg width="49" height="53" viewBox="0 0 49 53" fill="none" xmlns="http://www.w3.org/2000/svg">
<g clip-path="url(#clip0_1177_6280)">
<path d="M46.5898 13.3957L48.4391 9.32577L44.0806 8.07922C42.7515 7.69888 41.775 6.70027 41.1771 5.11171L39.2519 0.00114046L34.9556 3.45108C33.8168 4.3659 32.6624 4.83003 31.525 4.83003C30.0043 4.83003 28.2726 4.1111 27.1164 3.00039L24.3476 0.344591L21.5825 3.00039C20.4227 4.11139 18.6928 4.83003 17.172 4.83003C16.035 4.83003 14.8805 4.3659 13.7414 3.45108L9.4463 0.000854492L7.52114 5.11143C6.9215 6.69999 5.94491 7.6986 4.61585 8.07894L0.257324 9.32548L2.10668 13.3954C2.96028 15.2754 3.39415 17.2377 3.39415 19.2249C3.39415 24.7293 0.499481 25.9809 0.499481 32.0918C0.499481 40.8971 7.52144 46.6594 14.0437 48.2883C17.3395 49.0676 18.335 49.1194 21.3111 49.83C21.5547 50.0831 24.3476 53.0003 24.3476 53.0003C24.3476 53.0003 27.1423 50.0831 27.386 49.83C30.362 49.1196 31.3575 49.0676 34.6533 48.2883C41.1756 46.6597 48.1976 40.8971 48.1976 32.0918C48.1976 25.9809 45.3044 24.7293 45.3044 19.2249C45.3044 17.2377 45.7365 15.2754 46.5901 13.3954L46.5898 13.3957ZM46.1146 25.7416C46.811 27.434 47.4835 29.1967 47.4835 32.0921C47.4835 40.135 41.3101 45.9125 34.4749 47.62C31.0962 48.4476 29.5217 48.5283 27.0037 49.2117C26.6754 49.5469 24.3473 51.9865 24.3473 51.9865C24.3473 51.9865 22.021 49.5469 21.6928 49.2117C19.1747 48.528 17.6003 48.4476 14.2216 47.62C8.9437 46.3014 4.06134 42.5563 2.11022 37.2144C1.53477 35.6393 1.21327 33.9252 1.21327 32.0921C1.21327 26.085 4.10647 24.9492 4.10647 19.2252C4.10647 16.8794 3.5257 14.805 2.7603 13.1177L1.23775 9.76645L4.81701 8.74267C6.37584 8.29685 7.51141 7.15411 8.19068 5.34964L9.76869 1.15903L13.2875 3.98413C14.4455 4.91239 15.7674 5.52065 17.1726 5.52065C19.0547 5.52065 20.9194 4.60898 22.0842 3.49141L24.3482 1.31803L26.6141 3.49141C27.7806 4.60898 29.6438 5.52065 31.5256 5.52065C32.9308 5.52065 34.2545 4.91239 35.4107 3.98413L38.9295 1.15903L40.5075 5.34964C41.1886 7.1544 42.3221 8.29713 43.8812 8.74267L47.4605 9.76645L45.9397 13.1177C45.1722 14.805 44.5918 16.8794 44.5918 19.2252C44.5918 22.1893 45.3678 23.9237 46.1161 25.7416H46.1146Z" fill="black"/>
<path d="M15.1255 42.6864C15.2464 42.7199 15.3673 42.7516 15.4868 42.782C18.677 43.5695 22.5796 43.975 23.7582 44.6268C24.0225 44.8143 24.3475 45.1495 24.3475 45.1495C24.3475 45.1495 24.6725 44.8143 24.9386 44.6268C26.1172 43.975 30.0197 43.5695 33.21 42.782C37.6307 41.6913 42.3886 37.8842 42.3886 32.0915C42.3886 29.2044 41.082 27.3044 40.2266 24.4038L15.1255 42.6864Z" fill="black"/>
<path d="M31.5246 10.5096C28.3031 10.5096 25.7868 9.14585 24.3472 8.12036C22.9075 9.14585 20.393 10.5096 17.1715 10.5096C15.0458 10.5096 13.2363 9.81102 11.9591 9.11897C10.7719 11.041 9.28213 12.1585 8.09641 12.7903C8.60462 14.2716 9.19895 16.5619 9.19895 19.2129C9.19895 24.3186 7.39973 26.7113 6.64111 29.6016L33.0091 10.3958C32.5339 10.4679 32.0396 10.5096 31.5246 10.5096Z" fill="black"/>
<path d="M39.499 19.2129C39.499 16.562 40.0901 14.2717 40.6015 12.7903C39.5836 12.249 38.3463 11.351 37.2659 9.89832L6.31494 32.4416C6.4636 36.8753 9.41549 40.1042 12.7906 41.7848L39.7202 22.1701C39.5819 21.2888 39.499 20.3139 39.499 19.2129ZM20.0751 34.4895L17.6816 36.2322L15.0978 32.3967V38.1155L12.8319 39.7645V31.6764C12.8319 30.5353 11.7067 30.5033 11.7067 30.5033L14.9178 28.1658L17.8093 32.4605V26.0596L20.0751 24.4093V34.4897V34.4895ZM29.2125 27.8324L26.9968 29.4475V25.7611L24.4407 27.6227V31.3092L22.1126 33.005V24.9169C22.1126 23.7742 20.9877 23.7438 20.9877 23.7438L24.4407 21.2287V24.9535L26.9968 23.0918V19.3685L29.2125 17.7533V27.8324ZM37.5738 21.7432L31.1465 26.4248V18.3367C31.1465 17.194 30.0212 17.1637 30.0212 17.1637L33.4742 14.6486V22.157L37.5735 19.1712C37.5735 19.1712 37.4355 20.1312 37.5738 21.7432Z" fill="black"/>
<path d="M45.2159 10.788C45.2159 10.788 39.6923 10.3221 38.1957 3.80914C38.1957 3.80914 34.8828 7.11839 31.5248 7.11839C27.1972 7.11839 24.3474 3.54919 24.3474 3.54919C24.3474 3.54919 21.4993 7.11839 17.1717 7.11839C13.8137 7.11839 10.5008 3.80914 10.5008 3.80914C9.00418 10.3221 3.48058 10.788 3.48058 10.788C3.48058 10.788 5.72901 14.6468 5.72901 19.2129C5.72901 19.8129 5.69627 20.3657 5.64259 20.8853C5.16565 25.4479 2.83936 27.2778 2.83936 32.0919C2.83936 38 7.01147 44.1998 14.626 46.0681C18.2465 46.956 20.7439 47.1808 22.5829 47.8242C22.818 48.0387 24.3474 49.6473 24.3474 49.6473C24.3474 49.6473 25.8785 48.0387 26.1135 47.8242C27.9523 47.1808 30.4496 46.9563 34.0687 46.0681C41.685 44.1998 45.8571 38 45.8571 32.0919C45.8571 26.7299 42.9692 25.0727 42.9692 19.2132C42.9692 14.6471 45.2159 10.788 45.2159 10.788ZM44.2343 32.0916C44.2343 38.9197 38.7488 43.2661 33.6643 44.5178C29.6359 45.5099 27.0019 45.622 25.2358 46.4498C25.2358 46.4498 24.5928 47.0212 24.3474 47.2826C24.1037 47.0212 23.4625 46.4498 23.4625 46.4498C21.6928 45.622 19.0606 45.5099 15.0321 44.5178C9.94773 43.2661 4.46219 38.9197 4.46219 32.0916C4.46219 27.2072 7.35362 25.4159 7.35362 19.2129C7.35362 15.0323 5.724 11.8117 5.724 11.8117C5.724 11.8117 9.48289 11.0762 11.2337 6.4598C11.2337 6.4598 13.7293 8.71839 17.172 8.71839C21.484 8.71839 24.3477 5.78119 24.3477 5.78119C24.3477 5.78119 27.2131 8.71839 31.5251 8.71839C34.9677 8.71839 37.4633 6.4598 37.4633 6.4598C39.2142 11.0762 42.9731 11.8117 42.9731 11.8117C42.9731 11.8117 41.3435 15.0323 41.3435 19.2129C41.3435 25.4159 44.2349 27.2072 44.2349 32.0916H44.2343Z" fill="black"/>
<path d="M43.6295 46.0475C42.6013 46.0475 41.7681 46.8568 41.7681 47.8537C41.7681 48.8506 42.601 49.6599 43.6295 49.6599C44.658 49.6599 45.4924 48.8523 45.4924 47.8537C45.4924 46.8551 44.6595 46.0475 43.6295 46.0475ZM43.6295 49.2712C42.8225 49.2712 42.1674 48.6395 42.1674 47.8537C42.1674 47.0678 42.8225 46.4361 43.6295 46.4361C44.4365 46.4361 45.0934 47.0695 45.0934 47.8537C45.0934 48.6378 44.4383 49.2712 43.6295 49.2712Z" fill="black"/>
<path d="M44.3949 47.4351C44.3949 47.0965 44.1132 46.8234 43.7622 46.8234H42.8652V48.8861H43.2643V48.0482H43.5513L43.9539 48.8861H44.3946L43.9746 48.0116C44.2182 47.9278 44.3946 47.7016 44.3946 47.4351H44.3949ZM43.7622 47.6595H43.2643V47.2106H43.7622C43.892 47.2106 43.9955 47.3112 43.9955 47.4351C43.9955 47.5589 43.8917 47.6595 43.7622 47.6595Z" fill="black"/>
</g>
<defs>
<clipPath id="clip0_1177_6280">
<rect width="48.1818" height="53" fill="white" transform="translate(0.257324)"/>
</clipPath>
</defs>
</svg>
