<svg width="128" height="9" viewBox="0 0 128 9" fill="none" xmlns="http://www.w3.org/2000/svg">
<g clip-path="url(#clip0_1177_6309)">
<path d="M2.26809 7.348C3.10704 7.35032 3.19159 7.33253 4.00866 7.59162C4.81845 7.84994 5.62751 8.72233 5.81702 8.89479C5.96206 9.02704 6.07285 9.05257 6.07285 8.86618L6.15376 2.52434C6.15376 2.12372 5.5466 1.55141 5.04805 1.09278C4.54876 0.634932 3.833 0.448544 3.48241 0.419928C3.26739 0.40214 2.12013 0.419928 1.6879 0.305466C1.2564 0.191003 1.32419 0.334855 1.28337 0.606316L0.447346 6.84762C0.420378 7.191 0.555221 7.2057 0.649246 7.24823C0.744001 7.29154 1.46049 7.34646 2.26809 7.348Z" fill="black"/>
<path d="M11.1453 0.348804C11.1184 0.0765689 11.0644 0.0912634 10.9026 0.1338C10.7408 0.17711 10.786 0.177884 10.0251 0.320188C9.6628 0.387474 9.16352 0.333336 8.5826 0.520498C8.01772 0.701472 7.57747 1.02475 7.08475 1.4942C6.89961 1.67054 6.49144 2.00928 6.46447 2.52436L6.4375 8.50735C6.4375 8.79428 6.57234 8.85151 6.73416 8.62259C6.9346 8.33952 7.19772 8.10364 7.5024 7.94973C8.5826 7.40604 10.0666 7.29157 10.2547 7.27765C10.4434 7.26296 11.4158 7.17711 11.5499 7.1338C11.8779 7.02939 11.9646 7.12839 11.9005 6.4331L11.1453 0.348804Z" fill="black"/>
<path d="M21.2696 7.58858C20.3352 7.85773 19.6304 7.76646 18.8162 7.4834C17.8548 7.14852 16.9816 6.48804 16.7039 6.15626C16.6704 6.11681 16.6114 6.09438 16.6128 6.19028C16.6172 6.46871 16.7083 7.98611 16.7185 8.13924C16.7273 8.28387 16.7564 8.29856 16.8599 8.23592C17.3679 7.93429 18.0203 8.10444 18.8162 8.33878C19.7208 8.60637 20.712 8.66283 21.6348 8.39755C22.2857 8.20962 22.8513 7.84999 23.3025 7.1957C23.7121 6.60328 23.7282 5.61256 23.3637 5.04953C23.0999 4.64272 22.6669 4.26994 22.1924 4.0882C21.6392 3.87629 20.5269 3.71929 19.9431 3.62493C19.3235 3.52516 18.6777 3.40838 18.357 3.05649C18.0669 2.73785 18.0043 2.19493 18.2856 1.77188C18.4664 1.50196 18.7718 1.22122 19.2915 1.08046C19.7222 0.96368 20.3301 0.916503 21.0597 1.12764C22.0525 1.41457 22.7128 2.16322 22.9082 2.36121C22.9891 2.44473 23.0306 2.43158 23.0226 2.30165C23.0146 2.17868 22.9147 0.84303 22.8921 0.555327C22.8776 0.360432 22.8003 0.413023 22.6567 0.479535C22.2165 0.682164 21.8455 0.406062 20.8607 0.221221C19.8716 0.0371526 18.954 0.12532 18.3519 0.376673C17.8927 0.569248 17.3628 0.875513 17.0093 1.50892C16.6777 2.10212 16.6114 2.92733 17.0589 3.64891C17.4233 4.23669 17.954 4.73321 19.8658 5.02091C21.696 5.29547 21.9183 5.5909 22.0765 5.78271C22.3134 6.07041 22.317 6.58317 22.1479 6.89639C22.0372 7.10212 21.7026 7.46329 21.2696 7.58858Z" fill="black"/>
<path d="M31.2349 1.25597C31.8843 0.960535 32.8268 0.905624 33.5804 1.21189C34.0549 1.40601 34.7051 1.78961 35.087 2.26989C35.1417 2.3395 35.2284 2.33795 35.216 2.20957C35.1978 2.02473 35.0914 0.924959 35.0914 0.924959C35.0754 0.807403 35.0484 0.794255 34.9398 0.73161C34.7568 0.626428 34.0717 0.385129 33.6912 0.309336C32.8042 0.132229 31.834 0.1098 30.9054 0.391316C30.0359 0.655044 29.1525 1.04716 28.2873 2.37275C27.6408 3.36425 27.4972 5.05257 28.237 6.26603C28.9542 7.44159 29.947 8.00462 30.8172 8.31243C31.6627 8.61173 32.9171 8.65272 33.9558 8.38281C34.3895 8.27067 34.9055 8.07036 35.0717 7.97832C35.1854 7.91568 35.2015 7.91568 35.227 7.77879C35.2692 7.54754 35.4158 6.71692 35.4704 6.40678C35.4908 6.28845 35.4325 6.26603 35.3516 6.35265C34.9864 6.73934 34.3982 7.13996 33.8013 7.38822C33.0352 7.70918 32.017 7.86077 31.0607 7.35651C30.0599 6.82906 29.7115 6.11908 29.5242 5.77415C29.2093 5.1941 28.9666 3.80431 29.6904 2.58389C30.1642 1.78729 30.74 1.4818 31.2349 1.25597Z" fill="black"/>
<path d="M39.83 8.28693C39.7666 8.31245 39.771 8.37896 39.8395 8.37896H42.5145C42.5837 8.37896 42.5874 8.31245 42.524 8.28693C41.8986 8.04176 41.8403 7.39443 41.8403 7.07734V4.43929H46.9235V7.07734C46.9235 7.39443 46.8645 8.04176 46.2405 8.28693C46.1764 8.31245 46.18 8.37896 46.2493 8.37896H48.9243C48.9935 8.37896 48.9972 8.31245 48.933 8.28693C48.3091 8.04176 48.2501 7.39443 48.2501 7.07734V1.63728C48.2501 1.32096 48.3091 0.672853 48.933 0.42846C48.9972 0.403711 48.9935 0.336426 48.9243 0.336426H46.2493C46.18 0.336426 46.1764 0.403711 46.2405 0.42846C46.8645 0.672853 46.9235 1.32096 46.9235 1.63728V3.68909H41.8403V1.63728C41.8403 1.32096 41.8986 0.672853 42.524 0.42846C42.5874 0.403711 42.5837 0.336426 42.5145 0.336426H39.8395C39.771 0.336426 39.7666 0.403711 39.83 0.42846C40.4547 0.672853 40.5144 1.32096 40.5144 1.63728V7.07811C40.5144 7.3952 40.4547 8.04176 39.83 8.28693Z" fill="black"/>
<path d="M66.9166 8.31403C66.8532 8.33956 66.8569 8.40684 66.9268 8.40684H71.5297C71.9328 8.40684 72.3184 8.50816 72.6121 8.69068C72.6595 8.72007 72.7018 8.73244 72.7338 8.64737C72.8104 8.44164 73.2543 7.26376 73.3279 7.05108C73.357 6.96678 73.3097 6.91883 73.2353 6.98766C73.161 7.05572 72.5232 7.65665 71.5844 7.65665C70.6456 7.65665 68.9546 7.6551 68.9546 7.6551V1.64659C68.9546 1.25062 69.0515 0.731668 69.725 0.453246C69.7877 0.427724 69.7804 0.344971 69.7119 0.344971H66.9268C66.8569 0.344971 66.8532 0.412256 66.9166 0.437005C67.542 0.682171 67.6003 1.33028 67.6003 1.64659V7.08743C67.6003 7.40452 67.542 8.06964 66.9166 8.31403Z" fill="black"/>
<path d="M94.7154 7.6025C93.7818 7.87241 93.0762 7.78038 92.262 7.49732C91.2999 7.16321 90.4282 6.50196 90.1497 6.17017C90.1169 6.13073 90.0572 6.10907 90.0586 6.2042C90.063 6.48262 90.1541 8.00002 90.1636 8.15393C90.1731 8.29778 90.2022 8.31248 90.3057 8.2506C90.8145 7.94898 91.4668 8.11835 92.262 8.35269C93.1666 8.61951 94.1579 8.67675 95.0799 8.41147C95.7315 8.22431 96.2978 7.86313 96.749 7.20961C97.1579 6.61797 97.174 5.62647 96.8095 5.06422C96.5457 4.65664 96.1134 4.28386 95.6382 4.10211C95.085 3.89098 93.9734 3.7332 93.3889 3.63885C92.7708 3.53985 92.1243 3.4223 91.8036 3.0704C91.5127 2.75176 91.4493 2.20884 91.7314 1.78657C91.9122 1.51588 92.2176 1.23514 92.7373 1.09438C93.1688 0.977596 93.7759 0.930419 94.5055 1.14156C95.4983 1.42926 96.1586 2.17636 96.354 2.37512C96.4349 2.45865 96.4764 2.4455 96.4684 2.31557C96.4604 2.19337 96.3605 0.856946 96.3387 0.570017C96.3234 0.375121 96.2461 0.426939 96.1018 0.493451C95.663 0.69608 95.2913 0.419205 94.3065 0.235137C93.3175 0.0510686 92.4005 0.139236 91.7977 0.390589C91.3385 0.583165 90.8086 0.889429 90.4551 1.52284C90.1242 2.11603 90.0572 2.94125 90.5047 3.66205C90.8699 4.25061 91.3998 4.7479 93.3116 5.03405C95.1418 5.30938 95.3634 5.60482 95.5223 5.7974C95.7599 6.08355 95.7621 6.59786 95.5945 6.91108C95.4837 7.11526 95.1484 7.47721 94.7154 7.6025Z" fill="black"/>
<path d="M108.929 0.110549C108.441 0.283016 107.937 0.33406 107.528 0.33406H102.864C102.408 0.33406 102.101 0.122923 101.992 0.0293423C101.947 -0.00932749 101.904 -0.0147413 101.864 0.0401698C101.627 0.371956 101.14 1.02548 100.909 1.33947C100.85 1.41836 100.861 1.50343 100.983 1.43537C101.461 1.17165 101.704 1.17783 102.113 1.17783H104.091V7.09972C104.091 7.41604 104.032 8.06337 103.407 8.30931C103.343 8.33406 103.348 8.40135 103.418 8.40135H106.092C106.16 8.40135 106.164 8.33406 106.101 8.30931C105.477 8.06337 105.418 7.41604 105.418 7.09972V1.17783H107.097C107.705 1.17783 107.88 1.39052 107.97 1.44698C108.012 1.47404 108.047 1.52741 108.114 1.43537C108.302 1.17783 108.796 0.483325 108.993 0.197942C109.058 0.103588 108.987 0.0904405 108.929 0.110549Z" fill="black"/>
<path d="M113.021 8.31008C112.957 8.33483 112.961 8.40289 113.03 8.40289H115.704C115.774 8.40289 115.778 8.33483 115.714 8.31008C115.089 8.06491 115.03 7.41758 115.03 7.10126V1.66043C115.03 1.34334 115.089 0.696006 115.714 0.450066C115.778 0.426091 115.774 0.358032 115.704 0.358032H113.03C112.961 0.358032 112.957 0.426091 113.021 0.450066C113.645 0.696006 113.704 1.34334 113.704 1.66043V7.10126C113.704 7.41758 113.645 8.06491 113.021 8.31008Z" fill="black"/>
<path d="M127.598 6.35265C127.232 6.73934 126.644 7.13996 126.047 7.38822C125.282 7.70918 124.263 7.86077 123.307 7.35651C122.307 6.82906 121.958 6.11908 121.771 5.77415C121.456 5.1941 121.213 3.80431 121.936 2.58389C122.41 1.78729 122.986 1.4818 123.481 1.25597C124.13 0.960535 125.073 0.905624 125.826 1.21189C126.302 1.40601 126.952 1.78961 127.334 2.26989C127.388 2.3395 127.474 2.33795 127.462 2.20957C127.444 2.02473 127.337 0.924959 127.337 0.924959C127.321 0.807403 127.294 0.794255 127.186 0.73161C127.004 0.626428 126.318 0.385129 125.937 0.309336C125.051 0.132229 124.081 0.1098 123.152 0.391316C122.282 0.655044 121.398 1.04716 120.532 2.37275C119.886 3.36425 119.743 5.05257 120.483 6.26603C121.2 7.44159 122.194 8.00462 123.064 8.31243C123.909 8.61173 125.163 8.65272 126.202 8.38281C126.636 8.27067 127.151 8.07036 127.318 7.97832C127.432 7.91568 127.447 7.91568 127.473 7.77879C127.516 7.54754 127.662 6.71692 127.716 6.40678C127.737 6.28845 127.678 6.26603 127.598 6.35265Z" fill="black"/>
<path d="M61.1823 1.3241C59.9833 0.251396 58.3528 0.21582 57.9103 0.21582H57.8112C57.3688 0.21582 55.739 0.251396 54.5407 1.3241C53.3854 2.35735 53.1201 3.53987 53.1201 4.35426V4.41381C53.1201 5.22897 53.3854 6.41149 54.5407 7.44552C55.739 8.51822 57.3688 8.55302 57.8112 8.55302H57.9103C58.3528 8.55302 59.9833 8.51822 61.1823 7.44552C62.3361 6.41149 62.6021 5.22897 62.6021 4.41381V4.35426C62.6021 3.53987 62.3361 2.35735 61.1823 1.3241ZM61.0438 4.41381C61.0438 5.06965 60.8222 5.94977 60.1597 6.68836C59.4964 7.42696 58.5568 7.69687 57.906 7.69687H57.817C57.1647 7.69687 56.2252 7.42696 55.5619 6.68836C54.8993 5.94977 54.6777 5.06965 54.6777 4.41381V4.35426C54.6777 3.69842 54.8993 2.81907 55.5619 2.08048C56.2252 1.34188 57.1647 1.07197 57.817 1.07197H57.906C58.5568 1.07197 59.4964 1.34188 60.1597 2.08048C60.8222 2.81907 61.0438 3.69842 61.0438 4.35426V4.41381Z" fill="black"/>
<path d="M77.1211 7.3186C76.7114 8.05719 76.4075 8.20027 76.2617 8.26523C76.1371 8.32092 76.1917 8.39671 76.2697 8.39671H78.0045C78.0883 8.39671 78.0766 8.3186 78.0103 8.27451C77.769 8.11365 77.8033 7.77335 77.8835 7.61171C78.0052 7.365 78.624 6.22734 78.624 6.22734H83.4536C83.4536 6.22734 84.0272 7.307 84.1825 7.60011C84.4288 8.0657 84.0965 8.24512 84.0301 8.27993C83.9645 8.3155 83.9507 8.3998 84.0447 8.3998H86.4034C86.4923 8.3998 86.4945 8.30313 86.415 8.27451C86.114 8.16392 85.8072 7.84605 85.5972 7.45935C85.3873 7.07188 81.732 0.337158 81.732 0.337158H80.3726C80.3369 0.337158 80.3005 0.359587 80.3464 0.40367C80.5949 0.638782 80.5366 0.894003 80.4273 1.14768C80.3172 1.40599 77.5292 6.58 77.1211 7.3186ZM81.0884 1.62873L83.0746 5.46864H79.0213L81.0884 1.62873Z" fill="black"/>
</g>
<defs>
<clipPath id="clip0_1177_6309">
<rect width="127.286" height="9" fill="white" transform="translate(0.439453)"/>
</clipPath>
</defs>
</svg>
