<svg width="110" height="21" viewBox="0 0 110 21" fill="none" xmlns="http://www.w3.org/2000/svg">
<g clip-path="url(#clip0_1177_6248)">
<path d="M32.4461 8.1495L28.6059 0L24.7056 8.1495C26.5056 6.14339 30.5263 6.14339 32.4461 8.1495Z" fill="black"/>
<path d="M22.1255 13.4777C25.9657 9.27755 31.1866 9.21535 35.0268 13.4777C32.5066 6.89562 24.7059 6.89562 22.1255 13.4777Z" fill="black"/>
<path d="M54.3489 2.57043C54.3489 2.57043 51.5886 6.14333 51.3486 6.45695C51.0483 6.14333 48.3476 2.57043 48.3476 2.57043H46.7876V12.6625H48.468V5.39104C48.8277 5.83036 50.4479 7.96153 51.3486 9.1525C52.1884 7.96153 53.8086 5.83036 54.169 5.39104V12.6625H55.8487V2.57043H54.3489Z" fill="black"/>
<path d="M57.8896 12.6625H63.7104V11.0329H59.6302V8.4002H63.4704V6.77056H59.6302V4.20007H63.5907V2.57043H63.4102H57.8896V12.6625Z" fill="black"/>
<path d="M65.5103 2.57117V12.6633H67.1906V8.46314H67.5504C68.1508 8.46314 68.6905 8.58885 69.8907 10.5943L71.2107 12.6633H73.2514L72.891 12.1617C72.3508 11.4095 72.1107 11.0958 71.7509 10.4692L71.6908 10.4064C71.091 9.34114 70.5507 8.46314 69.8305 7.89941C70.7312 7.39788 71.2708 6.58274 71.2708 5.45463C71.2708 3.63643 70.0104 2.57117 68.0305 2.57117H65.5103ZM67.1906 4.13795H67.8506C69.3504 4.13795 69.5303 4.89024 69.5303 5.39177V5.45463C69.5303 5.83045 69.4106 6.14406 69.2307 6.39483C68.9305 6.64559 68.5106 6.8335 67.8506 6.8335H67.1906V4.13795Z" fill="black"/>
<path d="M74.332 2.57043V12.6625H76.0118V2.57043H75.8319H74.332Z" fill="black"/>
<path d="M82.8526 12.8512C84.533 12.8512 85.5534 12.3496 86.3331 11.911H86.4534V9.90484L86.1532 10.0928C85.1334 10.7822 84.0529 11.1587 83.0331 11.1587C80.8727 11.1587 79.3728 9.71693 79.3728 7.64797C79.3728 5.57901 80.8727 4.07507 82.973 4.07507C83.9934 4.07507 84.9529 4.38869 86.0936 5.07813L86.3331 5.26604V3.25993H86.2735C84.9529 2.6962 83.9332 2.44543 82.973 2.44543C79.9125 2.44543 77.6323 4.63945 77.6323 7.77368C77.6323 9.71693 79.0726 12.8512 82.8526 12.8512Z" fill="black"/>
<path d="M93.114 2.44482C90.1732 2.44482 87.8931 4.63884 87.8931 7.64801C87.8931 10.5943 90.1137 12.8505 93.0538 12.8505C96.5343 12.8505 98.3343 10.2178 98.3343 7.64801C98.3343 4.57664 96.1143 2.44482 93.114 2.44482ZM93.114 11.1581C91.1334 11.1581 89.6336 9.65412 89.6336 7.64801C89.6336 5.57969 91.1334 4.07511 93.114 4.07511C95.0946 4.07511 96.5944 5.57969 96.5944 7.64801C96.5944 9.65412 95.094 11.1581 93.114 11.1581Z" fill="black"/>
<path d="M109.256 2.57043H107.756C107.756 2.57043 104.936 6.14333 104.696 6.45695C104.456 6.14333 101.695 2.57043 101.695 2.57043H100.135V12.6625H101.875V5.39104C102.355 6.01827 104.516 8.83888 104.516 8.83888H104.876C104.876 8.83888 107.096 6.01827 107.516 5.39104V12.6625H109.256V2.57043Z" fill="black"/>
<path d="M40.2473 2.50769L36.1069 12.6626H37.8475C37.907 12.5376 38.3871 11.4088 38.9274 10.0928H42.8879C43.4877 11.4088 43.9678 12.5376 44.028 12.6626H45.7679L41.4476 2.50769H40.2473ZM39.5874 8.46252C40.1878 6.95794 40.7274 5.57906 40.8478 5.3283C40.9675 5.57906 41.5679 6.95794 42.1677 8.46252H39.5874Z" fill="black"/>
<path d="M0.942383 5.26604C0.942383 6.77062 2.14263 7.52291 3.22255 8.21235C4.18275 8.83893 4.96307 9.34046 4.96307 10.1556C4.96307 10.5314 4.60269 11.1587 3.64311 11.1587C2.74245 11.1587 1.96275 10.72 1.30277 9.84199L1.00255 9.40332V11.8481L1.06272 11.911C1.84242 12.5375 2.74245 12.8512 3.76282 12.8512C5.38301 12.8512 6.58326 11.6602 6.58326 9.9677C6.58326 8.1495 5.20312 7.33435 4.06304 6.64492C3.22255 6.20624 2.56257 5.76757 2.56257 5.07813C2.56257 4.51375 3.04267 4.07507 3.82299 4.07507C4.54252 4.07507 5.26267 4.38869 5.92327 5.07813L6.22287 5.32889V3.19773H6.10316C5.44317 2.6962 4.66285 2.44543 3.9427 2.44543C2.14263 2.44543 0.942383 3.57355 0.942383 5.26604Z" fill="black"/>
<path d="M13.9039 4.20007V2.57043H13.724H8.26367V12.6625H14.0243V11.0329H10.0036V8.4002H13.7842V6.77056H10.0036V4.20007H13.9039Z" fill="black"/>
<path d="M17.6846 8.21235C18.5846 8.83893 19.3649 9.34046 19.3649 10.1556C19.3649 10.5314 19.0045 11.1587 18.0443 11.1587C17.2045 11.1587 16.364 10.72 15.704 9.84199L15.4044 9.40332V11.8481L15.464 11.911C16.3044 12.5375 17.1443 12.8512 18.2242 12.8512C19.7849 12.8512 20.9851 11.6602 20.9851 9.9677C20.9851 8.1495 19.6044 7.33435 18.5244 6.64492C17.6846 6.20624 16.9644 5.76757 16.9644 5.07813C16.9644 4.51375 17.5047 4.07507 18.2242 4.07507C18.9438 4.07507 19.6645 4.38869 20.3245 5.07813L20.6247 5.32889V3.19773H20.5646C19.8444 2.6962 19.1249 2.44543 18.3446 2.44543C16.5445 2.44543 15.3442 3.57355 15.3442 5.26604C15.3442 6.77062 16.604 7.52291 17.6846 8.21235Z" fill="black"/>
<path d="M56.87 16.3618L55.4297 19.8719H55.97L56.3899 18.806H57.77L58.19 19.8719H58.6701L57.2298 16.3618H56.87ZM56.5698 18.3673L57.0499 17.1141L57.5901 18.3673H56.5698Z" fill="black"/>
<path d="M60.83 19.8719V18.4301C60.83 17.8029 60.4702 17.5521 60.1098 17.5521C59.8096 17.5521 59.5695 17.6778 59.4498 17.8657V17.5521H58.9697V19.8719H59.4498V18.2416C59.6297 17.9908 59.75 17.8657 59.9901 17.8657C60.2301 17.8657 60.41 18.1165 60.41 18.4301V19.8719H60.83Z" fill="black"/>
<path d="M63.6501 16.8005C63.8306 16.8005 64.1302 16.8627 64.4305 17.1763V16.612C64.1904 16.4241 63.8902 16.3612 63.6501 16.3612C63.0503 16.3612 62.6899 16.6748 62.6899 17.2392C62.6899 18.2416 64.0707 18.3045 64.0707 18.9939C64.0707 19.1825 63.9504 19.4332 63.5304 19.4332C63.2302 19.4332 62.93 19.2447 62.6899 18.9317V19.5583C62.93 19.809 63.2302 19.8719 63.5906 19.8719C64.1302 19.8719 64.5502 19.4954 64.5502 18.9317C64.5502 17.8658 63.1105 17.8658 63.1105 17.1763C63.1105 16.9256 63.3505 16.8005 63.6501 16.8005Z" fill="black"/>
<path d="M65.0303 19.8712H66.9507V19.3704H65.5104V18.3045H66.8905V17.8658H65.5104V16.8627H66.9507V16.3612H65.0303V19.8712Z" fill="black"/>
<path d="M68.2111 19.4332C67.8507 19.4332 67.5511 19.2447 67.311 18.9317V19.5583C67.6106 19.809 67.9108 19.8719 68.2706 19.8719C68.8109 19.8719 69.1707 19.4954 69.1707 18.9317C69.1707 17.8658 67.731 17.8658 67.731 17.1763C67.731 16.9256 67.971 16.8005 68.2706 16.8005C68.5107 16.8005 68.7507 16.8627 69.0509 17.1763V16.612C68.8109 16.4241 68.5708 16.3612 68.3308 16.3612C67.731 16.3612 67.311 16.6748 67.311 17.2392C67.311 18.2416 68.7507 18.3045 68.7507 18.9939C68.7507 19.1825 68.5708 19.4332 68.2111 19.4332Z" fill="black"/>
<path d="M72.7112 16.8005C73.0716 16.8005 73.4915 16.9255 73.9115 17.1141V16.6126C73.3712 16.424 73.0716 16.3618 72.7112 16.3618C71.6915 16.3618 70.9111 17.1141 70.9111 18.1165C70.9111 19.1824 71.6915 19.8719 72.7112 19.8719C73.1318 19.8719 73.4915 19.809 73.9716 19.6211V18.1165H72.8315V18.618H73.4915V19.3075C73.2515 19.3703 73.0114 19.4332 72.7714 19.4332C71.9917 19.4332 71.3912 18.8688 71.3912 18.1165C71.3912 17.3642 71.9917 16.8005 72.7112 16.8005Z" fill="black"/>
<path d="M74.6318 16.3618V19.8719H76.6124V19.3703H75.1119V16.3618H74.6318Z" fill="black"/>
<path d="M76.8525 18.1166C76.8525 19.0568 77.5721 19.8712 78.6526 19.8712C79.7331 19.8712 80.4527 19.0568 80.4527 18.1166C80.4527 17.1763 79.7325 16.3612 78.6526 16.3612C77.5727 16.3612 76.8525 17.1763 76.8525 18.1166ZM78.6526 16.7999C79.3728 16.7999 79.9124 17.3643 79.9124 18.1166C79.9124 18.8688 79.3728 19.4326 78.6526 19.4326C77.9325 19.4326 77.3922 18.8688 77.3922 18.1166C77.3922 17.3643 77.9325 16.7999 78.6526 16.7999Z" fill="black"/>
<path d="M82.9721 17.3014C82.9721 16.8627 82.6725 16.3612 81.9524 16.3612H80.9922V19.8712H82.1323C82.9721 19.8712 83.2724 19.3697 83.2724 18.931C83.2724 18.4302 82.9721 18.1166 82.492 17.9908C82.8524 17.8658 82.9721 17.615 82.9721 17.3014ZM82.7923 18.8688C82.7923 19.119 82.6124 19.3697 82.0721 19.3697H81.4723V18.3045H82.0721C82.5522 18.3045 82.7923 18.5552 82.7923 18.8688ZM81.7725 17.8658H81.4723V16.8627H81.9524C82.3723 16.8627 82.492 17.0506 82.492 17.3014C82.492 17.6772 82.252 17.8658 81.7725 17.8658Z" fill="black"/>
<path d="M84.8929 16.3618L83.4526 19.8719H83.9327L84.3527 18.806H85.793L86.2129 19.8719H86.693L85.2527 16.3618H84.8929ZM84.5326 18.3673L85.0728 17.1141L85.6131 18.3673H84.5326Z" fill="black"/>
<path d="M87.0537 19.8719H89.0337V19.3703H87.5338V16.3618H87.0537V19.8719Z" fill="black"/>
<path d="M92.4539 16.8005C92.8738 16.8005 93.2336 16.9256 93.594 17.1763V16.612C93.174 16.4241 92.8136 16.3612 92.514 16.3612C91.4335 16.3612 90.6538 17.1135 90.6538 18.1794C90.6538 18.8688 91.1935 19.8719 92.4539 19.8719C92.9935 19.8719 93.3539 19.7462 93.6541 19.5583V19.0568C93.2937 19.3075 92.8738 19.4332 92.514 19.4332C91.6736 19.4332 91.1333 18.8688 91.1333 18.1166C91.1333 17.3643 91.7337 16.8005 92.4539 16.8005Z" fill="black"/>
<path d="M94.0747 18.681C94.0747 19.3704 94.5548 19.8719 95.2148 19.8719C95.8748 19.8719 96.3549 19.4333 96.3549 18.681C96.3549 17.9915 95.8748 17.5529 95.2148 17.5529C94.5548 17.5529 94.0747 18.0544 94.0747 18.681ZM95.9349 18.681C95.9349 19.1825 95.6347 19.4961 95.2148 19.4961C94.7949 19.4961 94.4946 19.1825 94.4946 18.681C94.4946 18.2423 94.7949 17.9287 95.2148 17.9287C95.6347 17.9287 95.9349 18.2423 95.9349 18.681Z" fill="black"/>
<path d="M100.015 19.8712V18.4295C100.015 17.8657 99.7145 17.5521 99.2945 17.5521C98.9943 17.5521 98.7543 17.74 98.5744 17.9279C98.3945 17.6772 98.1544 17.5521 97.9144 17.5521C97.6743 17.5521 97.4945 17.615 97.2544 17.8657V17.5521H96.8345V19.8712H97.2544V18.1787C97.4343 17.9908 97.6148 17.9279 97.7947 17.9279C98.0347 17.9279 98.2146 18.0537 98.2146 18.4295V19.8712H98.6345V18.1787C98.8144 18.0537 98.9943 17.9279 99.1146 17.9279C99.3547 17.9279 99.5947 18.1165 99.5947 18.4295V19.8712H100.015Z" fill="black"/>
<path d="M100.555 17.5521V21H100.975V19.809C101.155 19.8719 101.275 19.8719 101.455 19.8719C102.055 19.8719 102.535 19.4332 102.535 18.7431C102.535 17.9908 102.115 17.5521 101.334 17.5521H100.555ZM102.115 18.7431C102.115 19.1824 101.814 19.4954 101.395 19.4954C101.275 19.4954 101.155 19.4332 100.975 19.3703V17.9908H101.395C101.875 17.9908 102.115 18.2416 102.115 18.7431Z" fill="black"/>
<path d="M103.556 18.6181C103.255 18.7438 102.835 18.8689 102.835 19.3082C102.835 19.6212 103.076 19.8719 103.376 19.8719C103.556 19.8719 103.796 19.8091 103.976 19.684C103.976 19.8091 104.095 19.8719 104.276 19.8719C104.456 19.8719 104.516 19.8719 104.696 19.684V19.4333C104.636 19.4961 104.516 19.5583 104.456 19.5583C104.456 19.5583 104.395 19.5583 104.395 19.4333V18.3051C104.395 17.7408 104.036 17.5529 103.616 17.5529C103.316 17.5529 103.075 17.6151 102.896 17.8036V18.3051C103.075 18.0544 103.316 17.9287 103.556 17.9287C103.856 17.9287 103.976 18.0544 103.976 18.3674V18.4931L103.556 18.6181ZM103.976 19.3704C103.856 19.4961 103.735 19.5583 103.616 19.5583C103.435 19.5583 103.255 19.4333 103.255 19.2453C103.255 18.9946 103.616 18.8689 103.976 18.7438V19.3704Z" fill="black"/>
<path d="M106.916 19.8719V18.4301C106.916 17.8029 106.616 17.5521 106.196 17.5521C105.956 17.5521 105.716 17.6778 105.536 17.8657V17.5521H105.056V19.8719H105.536V18.2416C105.716 17.9908 105.896 17.8657 106.076 17.8657C106.315 17.8657 106.496 18.1165 106.496 18.4301V19.8719H106.916Z" fill="black"/>
<path d="M107.696 21L109.256 17.5521H108.775L108.176 18.8688L107.635 17.5521H107.096L107.936 19.3703L107.215 21H107.696Z" fill="black"/>
</g>
<defs>
<clipPath id="clip0_1177_6248">
<rect width="108.316" height="21" fill="white" transform="translate(0.941406)"/>
</clipPath>
</defs>
</svg>
