<svg width="73" height="41" viewBox="0 0 73 41" fill="none" xmlns="http://www.w3.org/2000/svg">
<g clip-path="url(#clip0_1177_6288)">
<path d="M3.681 25.7633C3.58245 25.8816 3.456 25.9866 3.39012 26.1204C3.10416 26.7015 2.82177 27.2851 2.5681 27.8802C2.46758 28.1161 2.43923 28.383 2.38821 28.6377C2.29632 29.0971 2.11029 29.2459 1.66664 29.2097C1.36522 29.1852 1.16933 29.0221 1.20465 28.7328C1.30988 27.8725 1.4408 27.0147 1.59007 26.1608C1.60895 26.0525 1.79802 25.9745 1.90552 25.8795C2.06639 25.7374 2.28715 25.6226 2.37524 25.4447C4.70436 20.745 7.04486 16.0502 9.3178 11.3241C9.82088 10.278 10.0809 9.11812 10.4458 8.00838C11.102 6.01251 11.7581 4.01657 12.4018 2.01675C12.5334 1.60782 12.598 1.17837 12.7158 0.764512C12.7847 0.522405 12.8975 0.292385 13.0086 0.0113331C13.2941 0.0513982 13.6918 -0.165416 13.856 0.363115C13.888 0.46615 14.145 0.547698 14.304 0.55874C15.2651 0.62559 15.5849 1.07921 15.3199 2.02787C15.0892 2.85334 14.8445 3.67561 14.6391 4.50728C13.2415 10.1658 11.3969 15.6989 9.78207 21.2963C8.52157 25.6656 7.21945 30.0232 5.93825 34.3867C5.85782 34.6606 5.79975 34.9408 5.72834 35.2173C5.63858 35.5646 5.44829 35.8001 5.04779 35.7905C4.78958 35.7842 4.70285 35.9067 4.63932 36.1576C4.31614 37.4339 3.96923 38.7046 3.60777 39.9711C3.52415 40.2641 3.38549 40.5571 3.20484 40.8021C3.11257 40.9271 2.8367 41.0366 2.70585 40.9887C2.54817 40.931 2.3666 40.7045 2.35584 40.541C2.33703 40.2541 2.42748 39.9565 2.49571 39.6688C2.61238 39.1768 2.74732 38.6891 2.88196 38.171C2.72784 38.1286 2.63444 38.1065 2.54339 38.0771C2.0999 37.934 1.95631 37.6904 2.08231 37.2487C2.2729 36.5806 2.47865 35.9166 2.69782 35.1843C2.55757 35.1843 2.38396 35.1317 2.28412 35.1938C1.94252 35.4067 1.72593 35.4263 1.50327 35.1092C1.31322 34.8386 1.08055 34.6743 0.784969 34.5449C0.433133 34.3908 0.355427 34.1534 0.528806 33.7745C0.963881 32.8235 1.44164 31.8907 1.85283 30.9302C2.44984 29.5357 3.0097 28.1256 3.56994 26.7162C3.68259 26.4327 3.7258 26.1226 3.80108 25.8247L3.681 25.7633Z" fill="black"/>
<path d="M33.1496 16.8008C34.5215 18.8444 35.854 20.8293 37.2249 22.8715C36.6376 22.8715 36.124 22.8841 35.6121 22.8612C35.5056 22.8564 35.374 22.7407 35.3069 22.6415C34.1731 20.9666 33.0193 19.3038 31.9357 17.5978C31.5484 16.9879 31.1161 16.7335 30.374 16.9492V22.83H28.9995V10.9263C30.5562 10.9263 32.0992 10.8457 33.6291 10.9507C34.9477 11.0413 35.8186 12.0834 35.9071 13.387C36.0214 15.0694 35.4272 15.9618 33.8164 16.5348C33.6061 16.6095 33.4015 16.6998 33.1495 16.8008H33.1496ZM30.3886 16.2261C31.2353 16.256 32.067 16.2926 32.878 16.0597C33.7361 15.8132 34.2589 15.2462 34.3783 14.3726C34.4316 13.9831 34.4276 13.5758 34.378 13.1854C34.3066 12.6243 34.0707 12.1278 33.5189 11.8593C32.5216 11.3741 31.4602 11.5475 30.3886 11.5262V16.2261Z" fill="black"/>
<path d="M71.6931 20.1493V10.8845H72.4392V22.8697C72.1186 22.8697 71.7912 22.9 71.475 22.8545C71.3529 22.8368 71.2351 22.6608 71.1514 22.5339C69.1179 19.4503 67.0894 16.3636 65.0594 13.2779C64.9942 13.1788 64.9231 13.0836 64.7934 12.8994V22.8296C64.7124 22.8462 64.6666 22.8638 64.6209 22.8639C64.2068 22.8642 63.9996 22.6638 63.9995 22.2627C63.9995 18.6333 63.9995 15.0039 63.9995 11.3746V10.8618C64.5032 10.8618 64.9688 10.8436 65.4309 10.8751C65.5401 10.8826 65.6621 11.0417 65.7369 11.157C67.3793 13.6907 69.0149 16.2287 70.6544 18.7642C70.9631 19.2417 71.2828 19.7123 71.5974 20.1861L71.6932 20.1492L71.6931 20.1493Z" fill="black"/>
<path d="M51.8306 12.2447C51.6174 12.4812 51.4276 12.6918 51.2265 12.9149C50.9391 12.683 50.689 12.4592 50.417 12.2652C48.5192 10.9129 46.3247 11.1921 44.8232 12.9702C42.8527 15.3039 42.9825 18.8948 45.1542 21.038C46.6783 22.5421 48.7424 22.6253 50.4957 21.9329C50.5938 21.8941 50.6726 21.6829 50.6739 21.5511C50.6868 20.196 50.6818 18.8408 50.6818 17.4857C50.6818 17.352 50.6818 17.2184 50.6818 17.064H52.071C52.071 17.7669 52.0709 18.447 52.071 19.1271C52.0712 20.0596 52.0794 20.9921 52.0629 21.9243C52.0606 22.0534 51.9682 22.2538 51.8641 22.2974C49.7874 23.1678 47.6577 23.4699 45.4961 22.6542C43.2486 21.806 42.0822 20.1181 41.8193 17.7946C41.6117 15.9603 42.0124 14.2892 43.2211 12.842C44.9216 10.8057 47.7463 10.1185 50.1721 11.1563C50.402 11.2546 50.6243 11.3785 50.8313 11.5177C51.1626 11.7407 51.4781 11.9864 51.8308 12.2447H51.8306Z" fill="black"/>
<path d="M58.4392 22.8405H57.0703C57.0629 22.7028 57.0506 22.5826 57.0508 22.4624C57.0536 21.0458 57.0495 19.6292 57.0673 18.2129C57.073 17.7598 56.9515 17.3689 56.7082 16.9858C55.5515 15.1645 54.4094 13.334 53.264 11.5057C53.1462 11.3177 53.0411 11.1221 52.8911 10.8627C53.4501 10.8627 53.9486 10.8333 54.4395 10.8801C54.5938 10.8948 54.7664 11.0904 54.8654 11.2439C55.9395 12.9114 57.0006 14.5869 58.0662 16.2598C58.0914 16.2995 58.1274 16.3325 58.1822 16.3964C58.7757 15.5085 59.3581 14.6396 59.9381 13.7691C60.4916 12.9384 61.0598 12.1164 61.5858 11.2691C61.7815 10.954 61.9928 10.7963 62.3665 10.8573C62.4886 10.8772 62.6168 10.8604 62.8277 10.8604C62.6077 11.2206 62.4288 11.5389 62.2258 11.8415C61.0648 13.5718 59.903 15.3017 58.7296 17.0239C58.4571 17.4239 58.4435 17.8641 58.4414 18.3099C58.4349 19.6768 58.4391 21.0438 58.439 22.4107V22.8404L58.4392 22.8405Z" fill="black"/>
<path d="M24.3365 22.8565H22.9502V11.5175H19.6187V10.8787H27.6836V11.5047H24.3365V22.8564V22.8565Z" fill="black"/>
<path d="M39.7174 22.8387H38.3647V10.8877H39.7174V22.8387Z" fill="black"/>
<path d="M59.3777 34.6422C59.0732 34.7816 58.8127 34.9469 58.5276 35.0233C57.3578 35.3365 56.4003 34.7914 56.1834 33.6106C56.0838 33.0676 56.1118 32.4608 56.2503 31.925C56.541 30.8011 57.663 30.2388 58.8047 30.5388C59.07 30.6086 59.3155 30.7977 59.6287 30.6066C59.7556 30.5291 59.9721 30.5938 60.189 30.5938C60.1962 30.745 60.2081 30.8763 60.2081 31.0077C60.2089 32.1889 60.2077 33.3701 60.2068 34.5512C60.2054 36.2845 59.3379 37.0525 57.5805 36.8751C57.4801 36.865 57.3808 36.8451 57.2806 36.8319C56.5097 36.7302 56.4989 36.7164 56.6075 35.9025C56.8256 35.9602 57.0354 36.0393 57.252 36.0676C57.6128 36.1147 57.9801 36.1683 58.3411 36.1498C59.1358 36.109 59.4603 35.623 59.3776 34.6422L59.3777 34.6422ZM59.3997 32.6963C59.3997 32.3612 59.4076 32.0259 59.3948 31.6913C59.3911 31.5919 59.3602 31.4549 59.2899 31.4026C58.5606 30.8603 57.32 31.1984 57.0585 32.0562C56.9304 32.4766 56.9182 32.9656 56.9882 33.4028C57.1164 34.2029 57.6354 34.504 58.4409 34.3344C58.6356 34.2934 58.8214 34.2082 59.0083 34.1359C59.293 34.0256 59.4485 33.8472 59.4073 33.5144C59.3739 33.2455 59.4005 32.9693 59.3997 32.6963Z" fill="black"/>
<path d="M33.8268 35.1577H33.0596V28.8044H33.8203V30.9159C34.3676 30.76 34.8697 30.5375 35.3889 30.4877C36.1831 30.4115 36.8114 30.8875 36.8648 31.6703C36.943 32.8172 36.885 33.9732 36.885 35.1474H36.1465C36.1397 35.0171 36.1274 34.8861 36.1271 34.7551C36.125 33.947 36.1419 33.1385 36.1214 32.3308C36.0957 31.3208 35.4681 30.9494 34.5181 31.361C34.3913 31.4159 34.2722 31.4878 34.1467 31.5461C33.9037 31.659 33.8124 31.8312 33.8186 32.1069C33.8381 32.9767 33.8264 33.8473 33.8268 34.7176C33.8268 34.8519 33.8268 34.9861 33.8268 35.1577Z" fill="black"/>
<path d="M24.0621 32.9514C23.9841 33.7686 24.4594 34.3787 25.2607 34.5388C26.0116 34.6887 26.6642 34.4077 27.3437 34.0287C27.3437 34.3008 27.3541 34.5206 27.3376 34.7384C27.3324 34.8076 27.2699 34.9083 27.2086 34.9321C26.2782 35.2931 25.333 35.455 24.3873 35.0018C23.5107 34.5817 23.1127 33.6971 23.2287 32.5388C23.3603 31.2252 24.3805 30.1744 26.0665 30.5263C26.9077 30.7018 27.4165 31.4137 27.432 32.3153C27.4354 32.5119 27.4325 32.7087 27.4325 32.9514H24.0621ZM26.6301 32.3416C26.6848 31.6426 26.2578 31.1628 25.5593 31.1179C24.7305 31.0646 24.0993 31.5794 24.0723 32.3416H26.6301Z" fill="black"/>
<path d="M67.9035 32.9467H64.5566C64.5116 33.4832 64.6716 33.9027 65.0597 34.2284C65.6576 34.7304 66.4071 34.6851 67.8385 34.0582C67.8385 34.295 67.8527 34.5132 67.831 34.7278C67.8232 34.8049 67.7445 34.9119 67.6719 34.9404C66.7796 35.291 65.8729 35.4393 64.9557 35.0327C64.1933 34.6948 63.8088 34.0808 63.7315 33.2823C63.6565 32.5065 63.7601 31.7627 64.3149 31.1522C64.9356 30.4694 66.0504 30.2507 66.8908 30.6324C67.6851 30.9932 68.0547 31.8211 67.9035 32.9467ZM67.1319 32.338C67.1691 31.6047 66.7327 31.1402 66.0059 31.1159C65.2007 31.089 64.5889 31.6044 64.5733 32.338H67.1319Z" fill="black"/>
<path d="M55.241 32.7818C55.2184 33.7226 55.0144 34.4888 54.2334 34.9657C52.9124 35.7725 51.3 35.0748 51.0233 33.5409C50.9319 33.0342 50.9671 32.4683 51.0966 31.9677C51.3627 30.9391 52.1474 30.4277 53.1994 30.4719C54.1747 30.5128 54.9384 31.1561 55.1587 32.1396C55.2126 32.3801 55.2224 32.6301 55.241 32.7819L55.241 32.7818ZM54.4825 32.8547C54.3722 32.4857 54.3052 32.0898 54.1369 31.7411C53.9211 31.2943 53.4838 31.1274 52.9998 31.162C52.537 31.1951 52.1637 31.3886 51.9733 31.8542C51.7012 32.5197 51.693 33.1759 51.9537 33.8447C52.1436 34.3321 52.5122 34.5634 53.0202 34.5937C53.5501 34.6253 53.9958 34.3716 54.1933 33.8889C54.3223 33.5734 54.3806 33.2299 54.4825 32.8547Z" fill="black"/>
<path d="M47.806 32.8595C47.7403 33.7546 47.5039 34.5194 46.687 35.0055C45.7602 35.557 44.0976 35.3623 43.6297 33.9019C43.3839 33.1349 43.3948 32.3921 43.7145 31.6519C44.0684 30.8325 44.7318 30.4755 45.5983 30.4753C46.4841 30.4752 47.163 30.8629 47.5076 31.6835C47.6627 32.0529 47.7098 32.4662 47.8059 32.8596L47.806 32.8595ZM46.9871 32.839C46.8853 32.4872 46.8192 32.12 46.6728 31.7871C46.4635 31.3113 46.0257 31.1354 45.5276 31.162C45.0467 31.1876 44.6665 31.3961 44.4766 31.8756C44.2123 32.543 44.2044 33.2047 44.4789 33.866C44.7445 34.5061 45.4713 34.7865 46.107 34.4895C46.8119 34.1603 46.9016 33.5254 46.9871 32.839Z" fill="black"/>
<path d="M42.2803 35.152H41.5085C41.5085 34.9645 41.5106 34.7844 41.5081 34.6043C41.4966 33.7719 41.5114 32.938 41.4631 32.1076C41.4211 31.3879 41.0469 31.1256 40.3211 31.2337C40.1737 31.2557 40.0279 31.3072 39.8891 31.3635C39.2061 31.6406 39.1841 31.6773 39.1833 32.3964C39.1822 33.2791 39.18 34.1618 39.1771 35.0445C39.1771 35.068 39.1629 35.0914 39.1465 35.142H38.4292V30.6202H39.168C39.1776 30.7575 39.1861 30.8791 39.1981 31.0507C39.3492 30.9583 39.4646 30.8553 39.5998 30.8113C39.9892 30.6848 40.3819 30.5107 40.7819 30.4849C41.6145 30.4312 42.2346 30.9681 42.2689 31.7938C42.3149 32.8975 42.2803 34.0046 42.2803 35.152Z" fill="black"/>
<path d="M68.8002 34.0344C69.1692 34.201 69.4647 34.3816 69.7862 34.4664C70.1202 34.5546 70.481 34.5899 70.8274 34.5766C71.3119 34.5581 71.5855 34.3097 71.6036 33.9653C71.6218 33.6163 71.427 33.4276 70.9175 33.3125C70.5737 33.2349 70.2255 33.1753 69.8837 33.0904C69.2042 32.9215 68.837 32.526 68.8131 31.9581C68.7864 31.3228 69.1316 30.8431 69.7929 30.6169C70.5579 30.3552 71.3097 30.4599 72.0463 30.7316C72.1274 30.7615 72.2158 30.8784 72.227 30.9642C72.2534 31.168 72.2355 31.3773 72.2355 31.5979C71.8499 31.4542 71.5107 31.285 71.1512 31.2072C70.852 31.1424 70.5229 31.1463 70.2179 31.1911C69.9078 31.2368 69.644 31.4046 69.6387 31.7751C69.6336 32.1298 69.8823 32.2792 70.1769 32.3551C70.6148 32.4681 71.0662 32.5327 71.5001 32.6575C72.0258 32.8085 72.3872 33.1441 72.4277 33.7089C72.4663 34.2472 72.2568 34.6955 71.7579 34.9465C71.472 35.0904 71.1445 35.2393 70.8369 35.2371C70.2909 35.2333 69.7443 35.1252 69.2007 35.0432C68.9017 34.998 68.7386 34.8322 68.7961 34.5034C68.821 34.3606 68.8003 34.2099 68.8003 34.0344L68.8002 34.0344Z" fill="black"/>
<path d="M32.0446 31.7249C31.17 31.2507 30.303 30.7489 29.4832 31.6444C28.9322 32.2464 28.9929 33.5678 29.5017 34.1594C30.0038 34.7435 30.7246 34.7176 32.0416 34.0391C32.0416 34.3057 32.0472 34.5448 32.037 34.7833C32.0349 34.832 31.9838 34.8978 31.9371 34.9226C30.9813 35.4311 29.5143 35.4124 28.7959 34.5602C27.6353 33.1835 28.3267 30.8938 30.026 30.5274C30.6663 30.3894 31.2854 30.5151 31.8604 30.7945C31.971 30.8483 32.0052 31.0894 32.0388 31.2512C32.0675 31.3894 32.0447 31.5381 32.0447 31.7249H32.0446Z" fill="black"/>
<path d="M20.2163 31.2541C20.0147 31.2439 19.8767 31.2368 19.7134 31.2286V30.621C19.8637 30.6051 20.0211 30.5884 20.2062 30.5689V29.3168H21.0044V30.5846H22.5873V31.2323H21.0491C21.0491 32.1849 21.0306 33.0892 21.0579 33.992C21.0693 34.3705 21.357 34.5647 21.728 34.5643C22.0123 34.564 22.2965 34.4989 22.5814 34.4625C22.7133 35.0504 22.6483 35.1486 22.0659 35.233C20.835 35.4115 20.1883 34.8406 20.2133 33.6202C20.2293 32.8409 20.2164 32.061 20.2164 31.2541H20.2163Z" fill="black"/>
<path d="M48.96 28.7987H49.6855V35.1488H48.96V28.7987Z" fill="black"/>
<path d="M61.7285 30.614H62.4798V35.137H61.7285V30.614Z" fill="black"/>
<path d="M61.6777 29.0415H62.5285V29.8263H61.6777V29.0415Z" fill="black"/>
</g>
<defs>
<clipPath id="clip0_1177_6288">
<rect width="72" height="41" fill="white" transform="translate(0.439453)"/>
</clipPath>
</defs>
</svg>
