<svg width="100" height="23" viewBox="0 0 100 23" fill="none" xmlns="http://www.w3.org/2000/svg">
<g clip-path="url(#clip0_1177_6174)">
<path d="M23.6382 5.81252H27.749V20.4373H32.4284V5.81252H36.5391V2.31238H23.6382V5.81252Z" fill="black"/>
<path d="M34.6421 20.4378H38.8158V12.1875C39.2586 11.5 39.7013 11.1879 41.0926 11.1879C41.7247 11.1879 42.231 11.3129 42.8001 11.5V7.37512C41.1555 7.37512 39.3221 8.00041 38.8158 9.62526H38.7529V7.68777H34.6421V20.4378Z" fill="black"/>
<path d="M48.0487 7.68774H43.875V20.4378H48.0487V7.68774Z" fill="black"/>
<path d="M66.5781 20.4378V10.0628C66.5781 8.2503 65.3762 7.37512 63.6692 7.37512C62.2144 7.37512 60.8867 8.0626 60.0012 9.37537H59.9377C59.8747 8.12535 58.6099 7.37512 57.3451 7.37512C55.8904 7.37512 54.5627 8.0626 53.6771 9.37537H53.6142V7.68777H49.5034V20.4378H53.6142V11.1252L53.867 10.8125C54.1828 10.4377 54.4992 10.25 54.9419 10.25C55.701 10.25 55.9539 10.7503 55.9539 11.375V20.4378H60.1276V11.1252L60.3804 10.8125C60.6333 10.4377 61.0131 10.25 61.4553 10.25C62.2144 10.25 62.4044 10.7503 62.4044 11.375V20.4378H66.5781Z" fill="black"/>
<path d="M70.9421 18.5625C71.7642 19.8126 72.7756 20.5622 74.4202 20.5622C77.8983 20.5622 79.1631 16.8122 79.1631 13.8751C79.1631 10.1873 77.5819 7.37462 74.736 7.37462C73.9139 7.37462 72.7756 7.81221 72.2069 8.37474H72.1434V2.31238H67.9697V20.4373H70.183L70.9421 18.5625ZM72.1434 10.375L72.3963 10.1873C72.6491 9.9374 73.029 9.62475 73.5347 9.62475C74.863 9.62475 74.863 10.9997 74.863 13.4997V14.4999C74.863 16.8122 74.673 18 73.5347 18C72.7126 18 72.0805 17.3747 72.1434 16.3124V10.375Z" fill="black"/>
<path d="M84.4115 2.31238H80.2378V20.4373H84.4115V2.31238Z" fill="black"/>
<path d="M96.6167 13.6874C96.6167 10.375 95.2255 6.99976 91.2417 6.99976C87.3837 6.99976 85.4868 10.0001 85.4868 13.6252C85.4868 17.1876 87.2573 20.3751 91.2417 20.3751C94.9726 20.3751 96.2374 17.4374 96.4268 16.8749L93.6449 15.8748C93.3915 16.8749 92.5059 17.6251 91.5574 17.6251C89.8504 17.6251 89.6605 15.6876 89.6605 14.5626H96.6167V13.6874ZM89.6605 12.1247C89.6605 10.9375 90.0398 9.56253 91.1782 9.56253C92.6329 9.56253 92.7593 10.9375 92.7593 12.1247H89.6605Z" fill="black"/>
<path d="M48.0487 2.25012H43.875V5.93741H48.0487V2.25012Z" fill="black"/>
<path d="M12.0657 19.9374C13.394 19.5625 14.279 19.0622 15.3544 18.1248C15.6073 17.9999 16.7457 16.9998 17.5042 15.4371C17.6312 15.1872 17.7576 14.8751 17.884 14.5625L15.2909 15.9375C15.228 16.2501 15.101 16.5 15.0381 16.6877C14.9746 16.8126 14.9746 16.8748 14.9746 16.9376C14.7852 17.1247 14.6588 17.2497 14.5953 17.2497C13.6468 18.0626 12.8877 18.4997 11.7499 18.8751C11.3066 19 10.3581 19.1877 9.21973 19.1877L7.44922 20.1251C9.59957 20.6249 11.3701 20.1873 12.0657 19.9374Z" fill="black"/>
<path d="M17.9469 8.24975C17.9469 8.187 17.8839 8.12481 17.8839 8.06205C17.3777 6.6249 16.3663 5.37489 15.1015 4.37477C15.1015 4.31202 15.038 4.31202 14.975 4.24982C13.0776 2.74992 11.1171 2.43728 10.1687 2.37453H9.97874C9.40954 2.31233 8.77742 2.31233 8.20823 2.37453C8.20823 2.43728 8.14473 2.43728 8.08181 2.43728C7.82896 2.43728 7.63904 2.49947 7.44912 2.56222C7.32269 2.56222 7.13277 2.62498 7.00635 2.62498L8.651 3.56235C8.77742 3.49959 8.90385 3.49959 9.03027 3.49959H9.53597C9.34662 3.56235 9.1567 3.62454 8.96734 3.68729L10.5479 4.56247C11.8127 4.49971 13.0781 5.06281 13.8996 5.93742C13.7102 5.93742 13.5203 5.99962 13.2675 5.99962L15.9864 7.43733V7.37457C16.1129 7.43733 16.1764 7.49952 16.2399 7.62446L18.0733 8.56239C18.0104 8.49964 18.0104 8.43689 18.0104 8.3747C18.0104 8.31194 17.9469 8.31194 17.9469 8.24975Z" fill="black"/>
<path d="M0.366403 10.125C0.302907 10.4376 0.239978 10.8125 0.302907 11.1251C0.302907 11.8748 0.302907 11.9375 0.366403 12.6872C0.429331 13.1876 0.682747 14.1877 1.06202 14.9374C1.31487 15.5626 1.56772 15.9997 1.88406 16.4373C1.88406 16.5 1.94756 16.5 1.94756 16.5628C2.01049 16.625 2.01049 16.6877 2.07398 16.7499V14.1249C2.07398 14.1877 2.01049 14.2499 2.01049 14.2499C1.75764 13.6251 1.56772 12.8749 1.56772 12.5623C1.48343 12.0625 1.44129 11.5834 1.44129 11.1251C1.44129 10.8752 1.50479 10.5626 1.50479 10.3121C1.63121 9.75017 1.69414 9.12488 2.07398 8.31246V5.93738C1.82057 6.31221 1.50479 6.7498 1.31487 7.25014C0.619251 8.49959 0.492827 9.43752 0.366403 10.125Z" fill="black"/>
<path d="M15.1646 10.5627C15.6073 11.3746 15.9866 12.1875 16.1759 12.9372C16.3024 12.8123 16.3659 12.7501 16.4288 12.5624C17.1879 11.4373 17.3143 10.0002 16.8086 8.56244C16.7663 8.52061 16.7451 8.47896 16.7451 8.4375C16.6822 8.31255 16.6187 8.18761 16.5558 8.0621C16.5558 7.99991 16.4923 7.93716 16.4288 7.87497C16.4288 7.81221 16.3659 7.68727 16.2394 7.62508L15.9866 7.43738C16.1759 8.37475 16.0495 9.24992 15.5438 10.0623C15.4803 10.25 15.291 10.375 15.1646 10.5627Z" fill="black"/>
<path d="M8.9668 3.68732L8.65102 3.56238H8.33524C7.9554 3.62513 7.57613 3.68732 7.19629 3.81227C7.51263 3.87502 7.82898 3.99997 8.14532 4.12491C8.39817 3.93721 8.65102 3.81227 8.96736 3.68732H8.9668Z" fill="black"/>
<path d="M23.5752 11.5L18.0737 8.56238C18.8323 10.9375 18.5159 12.9999 17.8838 14.5625L23.5752 11.5Z" fill="black"/>
<path d="M10.5475 4.5625H10.1048C9.91542 4.62469 9.66258 4.68745 9.47266 4.7502C10.2318 5.18723 11.0538 5.68757 11.8124 6.37505C12.3186 6.18735 12.8243 6.12516 13.2671 5.99965L10.5481 4.5625H10.5475Z" fill="black"/>
<path d="M2.95931 15.9376C3.08573 16.1253 3.21272 16.2502 3.33915 16.4374C3.84484 16.9999 5.10965 18.3126 7.1965 18.8752C7.89212 19.0623 8.58774 19.1873 9.22043 19.1873L15.2911 15.9376C15.2911 15.6877 15.3546 15.4372 15.3546 15.1873C14.5954 15.6249 13.7734 15.9376 12.8249 16.0625C9.66319 16.5001 6.37446 15.0002 4.41404 12.6251C3.65492 13.4997 3.14923 14.3749 2.95931 15.1251C2.89638 15.4372 2.89638 15.6877 2.95931 15.9376Z" fill="black"/>
<path d="M5.42594 4.87513C5.1096 5.12502 4.79325 5.49986 4.6039 5.87525C4.16113 6.56273 3.90771 7.37515 3.90771 8.18758C3.90771 8.75011 4.03414 9.37484 4.22406 9.93737C4.35048 10.25 4.47747 10.4377 4.5404 10.6876C5.29952 10.0001 6.12156 9.37484 7.00653 8.75011C6.9436 8.62517 6.8801 8.50022 6.81718 8.37472C6.4379 7.25021 6.56433 6.12514 7.13295 5.18777C7.13295 5.12502 7.19645 5.06227 7.19645 5.00008C6.56433 4.81238 5.93164 4.75019 5.42594 4.87513Z" fill="black"/>
<path d="M8.14537 5.81246C7.7026 6.43774 7.63911 7.18741 7.95545 7.93765C7.95545 7.99984 7.95545 8.06259 8.01895 8.12534C8.77749 7.625 9.66303 7.18742 10.4851 6.81258C9.78945 6.25005 9.09384 5.81246 8.33472 5.43762C8.2718 5.56257 8.2083 5.68751 8.14537 5.81246Z" fill="black"/>
<path d="M11.0535 7.87495C10.2315 8.18704 9.40944 8.62462 8.5874 9.12497C9.53587 10.1873 11.0535 10.8748 12.5083 10.6249C12.951 10.5621 13.3303 10.4999 13.6466 10.3122C13.0774 9.37486 12.3183 8.49968 11.4963 7.68726C11.3699 7.75001 11.2434 7.8122 11.0535 7.87495Z" fill="black"/>
<path d="M2.07422 5.93742C3.2126 4.43752 4.54034 3.68728 4.73026 3.62509C5.36295 3.2497 5.93158 2.93761 7.00704 2.62497L2.07422 0V5.93742Z" fill="black"/>
<path d="M14.5322 9.43758C14.975 8.81285 14.975 8.06262 14.7221 7.2502C14.7221 7.18745 14.6587 7.12525 14.6587 7.0625C14.0895 7.0625 13.4573 7.12525 12.7617 7.31239C13.4573 7.99987 14.026 8.7501 14.5322 9.49977V9.43758Z" fill="black"/>
<path d="M5.23584 11.7499C6.87992 13.9373 9.85231 15.2495 12.6348 14.8746C13.6467 14.7497 14.4688 14.437 15.2273 13.9373C15.038 13.0621 14.7216 12.1869 14.2159 11.3123C13.7732 11.5622 13.2669 11.7499 12.6977 11.8121C10.8008 12.062 8.77685 11.1873 7.63904 9.74963C6.7535 10.3744 5.93146 11.0624 5.23584 11.7499Z" fill="black"/>
<path d="M2.07422 8.31252V14.125C2.39056 13.3126 2.95919 12.4374 3.7183 11.625C3.46545 11.1874 3.27553 10.8125 3.14911 10.375C2.70634 9.12495 2.64341 7.93769 2.89626 6.81262C2.70634 7.06251 2.51699 7.37459 2.32707 7.74999C2.26357 7.93769 2.13715 8.12483 2.07422 8.31252Z" fill="black"/>
<path d="M16.8719 14L16.4927 14.3748V14.8124C16.6191 14.5625 16.7455 14.3126 16.8719 14Z" fill="black"/>
<path d="M2.07373 16.75V23.0001L7.44932 20.1252C7.2594 20.1252 7.07004 20.0624 6.81719 20.0003C4.414 19.3128 2.95927 17.8129 2.45357 17.1876C2.32715 17.0626 2.20072 16.8749 2.07373 16.75Z" fill="black"/>
<path d="M97.3124 20.375V19.125H97.6917V18.9379H96.6797V19.125H97.1225V20.375H97.3124Z" fill="black"/>
<path d="M99.273 20.375V18.9379H99.0201L98.5774 20.0624L98.1352 18.9379H97.8823V20.375H98.0717V19.125L98.5144 20.375H98.6409L99.0836 19.125V20.375H99.273Z" fill="black"/>
</g>
<defs>
<clipPath id="clip0_1177_6174">
<rect width="99" height="23" fill="white" transform="translate(0.274902)"/>
</clipPath>
</defs>
</svg>
