<svg width="48" height="49" viewBox="0 0 48 49" fill="none" xmlns="http://www.w3.org/2000/svg">
<path d="M44.4525 28.8733C44.1679 28.4966 43.7898 28.2008 43.3557 28.0153C42.9215 27.8298 42.4464 27.761 41.9775 27.8158C41.9925 27.5608 42.0075 27.3058 42.0075 27.0433C42.0075 21.5683 38.4525 14.1958 33.195 11.2708C33.54 10.8733 33.7575 10.3633 33.7575 9.79328C33.7575 8.92328 33.255 8.17328 32.535 7.80578L34.4475 3.34328C34.545 3.11078 34.5225 2.84828 34.3875 2.63828C34.245 2.42828 34.0125 2.30078 33.765 2.30078H21.765C21.51 2.30078 21.2775 2.42828 21.1425 2.63828C21.0075 2.84828 20.9775 3.11828 21.0825 3.34328L22.995 7.80578C22.275 8.18078 21.7725 8.93078 21.7725 9.79328C21.7725 10.3633 21.99 10.8733 22.335 11.2708C17.0775 14.1958 13.5225 21.5758 13.5225 27.0433C13.5225 28.0108 13.62 28.9708 13.815 29.9083C12.585 30.2533 11.43 30.7408 10.5225 31.3408V30.0433C10.5225 29.6308 10.185 29.2933 9.7725 29.2933H3.75C3.3375 29.2933 3 29.6308 3 30.0433V46.5433C3 46.9558 3.3375 47.2933 3.75 47.2933H9.75C10.1625 47.2933 10.5 46.9558 10.5 46.5433V44.2933H26.61C28.4925 44.2933 30.33 43.6408 31.8 42.4558L43.92 32.6608C44.595 32.1508 45 31.3483 45 30.5008C45 29.9008 44.8125 29.3383 44.4525 28.8733ZM9 45.7933H4.5V30.7933H9V45.7933ZM22.89 3.79328H32.6175L31.0125 7.54328H24.5025L22.8975 3.79328H22.89ZM32.25 9.79328C32.25 10.2058 31.9125 10.5433 31.5 10.5433H24C23.5875 10.5433 23.25 10.2058 23.25 9.79328C23.25 9.38078 23.5875 9.04328 24 9.04328H31.5C31.9125 9.04328 32.25 9.38078 32.25 9.79328ZM24.1425 12.0433H31.365C36.2475 13.9783 40.5075 20.9458 40.5075 27.0433C40.5075 27.5233 40.47 27.9958 40.4175 28.4608L31.47 33.8383C31.305 32.5483 30.21 31.5433 28.875 31.5433H24.42C22.86 30.1108 20.5425 29.2933 18 29.2933C17.1375 29.2933 16.1925 29.3908 15.255 29.5633C15.09 28.7383 15 27.8983 15 27.0433C15 20.9458 19.26 13.9783 24.1425 12.0433ZM42.9975 31.4758L30.855 41.2933C29.655 42.2608 28.1475 42.7933 26.61 42.7933H10.5V33.3058C11.2125 32.4433 12.9225 31.6408 14.8425 31.1908H14.88C14.88 31.1908 14.8875 31.1908 14.895 31.1833C15.915 30.9433 16.995 30.8008 18.0075 30.8008C20.25 30.8008 22.335 31.5583 23.595 32.8258C23.6645 32.8966 23.7473 32.953 23.8387 32.9916C23.9301 33.0303 24.0283 33.0504 24.1275 33.0508H28.8825C29.505 33.0508 30.0075 33.5533 30.0075 34.1758C30.0075 34.7983 29.505 35.3008 28.8825 35.3008H20.2575C19.845 35.3008 19.5075 35.6383 19.5075 36.0508C19.5075 36.4633 19.845 36.8008 20.2575 36.8008H28.8825C29.595 36.8008 30.24 36.5158 30.7125 36.0508L41.6475 29.4808C42.18 29.1583 42.885 29.2933 43.2675 29.7883C43.425 29.9983 43.5075 30.2458 43.5075 30.5083C43.5075 30.8908 43.335 31.2358 43.005 31.4833L42.9975 31.4758Z" fill="#30353E"/>
<path d="M26.25 26.293C25.425 26.293 24.75 25.618 24.75 24.793C24.75 24.3805 24.4125 24.043 24 24.043C23.5875 24.043 23.25 24.3805 23.25 24.793C23.25 26.4505 24.5925 27.793 26.25 27.793H27V28.543C27 28.9555 27.3375 29.293 27.75 29.293C28.1625 29.293 28.5 28.9555 28.5 28.543V27.793H29.25C30.9075 27.793 32.25 26.4505 32.25 24.793V24.043C32.25 22.3855 30.9075 21.043 29.25 21.043H28.5V17.293H29.25C30.075 17.293 30.75 17.968 30.75 18.793C30.75 19.2055 31.0875 19.543 31.5 19.543C31.9125 19.543 32.25 19.2055 32.25 18.793C32.25 17.1355 30.9075 15.793 29.25 15.793H28.5V15.043C28.5 14.6305 28.1625 14.293 27.75 14.293C27.3375 14.293 27 14.6305 27 15.043V15.793H26.25C24.5925 15.793 23.25 17.1355 23.25 18.793V19.543C23.25 21.2005 24.5925 22.543 26.25 22.543H27V26.293H26.25ZM28.5 22.543H29.25C30.075 22.543 30.75 23.218 30.75 24.043V24.793C30.75 25.618 30.075 26.293 29.25 26.293H28.5V22.543ZM26.25 21.043C25.425 21.043 24.75 20.368 24.75 19.543V18.793C24.75 17.968 25.425 17.293 26.25 17.293H27V21.043H26.25Z" fill="#005AFF"/>
</svg>
