<svg width="48" height="49" viewBox="0 0 48 49" fill="none" xmlns="http://www.w3.org/2000/svg">
<path d="M37.4936 23.4852C37.2951 23.4852 37.1047 23.564 36.9643 23.7044C36.824 23.8448 36.7451 24.0352 36.7451 24.2337V41.7124C36.7428 42.0526 36.6722 42.3889 36.5376 42.7013C36.403 43.0137 36.2072 43.296 35.9616 43.5314C35.716 43.7668 35.4257 43.9505 35.1079 44.0718C34.79 44.193 34.4511 44.2493 34.1111 44.2373C33.7712 44.2252 33.4371 44.1451 33.1286 44.0017C32.8201 43.8583 32.5436 43.6544 32.3153 43.4023C32.0869 43.1501 31.9115 42.8547 31.7994 42.5335C31.6872 42.2123 31.6406 41.8719 31.6624 41.5324V38.3667C31.6624 38.1682 31.5835 37.9778 31.4431 37.8374C31.3028 37.6971 31.1124 37.6182 30.9139 37.6182H7.84386L7.87386 8.79869C7.8788 7.8802 8.24627 7.00082 8.89631 6.3519C9.54635 5.70298 10.4264 5.33704 11.3449 5.33369L28.2244 5.36369C28.423 5.36409 28.6136 5.28557 28.7543 5.14541C28.8951 5.00525 28.9743 4.81493 28.9747 4.61631C28.9751 4.4177 28.8966 4.22706 28.7565 4.08634C28.6163 3.94562 28.426 3.86634 28.2274 3.86594L11.3486 3.83594C10.0329 3.83988 8.77195 4.36359 7.84058 5.29299C6.90921 6.2224 6.38283 7.48219 6.37611 8.79794L6.34686 37.6174H3.78036C3.58327 37.6172 3.39404 37.6948 3.25377 37.8332C3.11349 37.9717 3.03348 38.1599 3.03111 38.3569L3.00036 40.7299C2.99242 41.3868 3.11491 42.0387 3.36073 42.6479C3.60655 43.2571 3.97081 43.8114 4.4324 44.2788C4.894 44.7462 5.44376 45.1173 6.04982 45.3707C6.65589 45.6241 7.30621 45.7547 7.96311 45.7549H34.2004C35.2721 45.7538 36.2997 45.3275 37.0575 44.5696C37.8154 43.8117 38.2417 42.7842 38.2429 41.7124V24.2337C38.2429 24.0352 38.164 23.8448 38.0236 23.7044C37.8833 23.564 37.6921 23.4852 37.4936 23.4852ZM7.96386 44.2572C7.50577 44.2549 7.05262 44.1623 6.63037 43.9847C6.20811 43.807 5.82505 43.5479 5.50312 43.2219C5.18118 42.896 4.9267 42.5098 4.75425 42.0854C4.58179 41.661 4.49475 41.2068 4.49811 40.7487L4.51836 39.1152H30.1654C30.1691 40.7352 29.9344 43.0017 31.1411 44.2572H7.96386Z" fill="#30353E"/>
<path d="M35.8819 3.87891C33.4649 3.88149 31.1476 4.84278 29.4386 6.55184C27.7295 8.26091 26.7682 10.5782 26.7656 12.9952C27.2659 25.0889 44.4994 25.0852 44.9981 12.9952C44.9955 10.5782 44.0343 8.26091 42.3252 6.55184C40.6161 4.84278 38.2989 3.88149 35.8819 3.87891ZM35.8819 20.6137C33.8619 20.6115 31.9253 19.8081 30.4969 18.3799C29.0685 16.9516 28.265 15.0151 28.2626 12.9952C28.6811 2.88741 43.0841 2.89041 43.5011 12.9952C43.4987 15.0152 42.6951 16.9519 41.2666 18.3801C39.838 19.8084 37.902 20.6117 35.8819 20.6137Z" fill="#30353E"/>
<path d="M38.9439 9.66131C39.1425 9.66131 39.3328 9.58245 39.4732 9.44208C39.6136 9.30171 39.6924 9.11133 39.6924 8.91281C39.6924 8.7143 39.6136 8.52391 39.4732 8.38354C39.3328 8.24317 39.1425 8.16431 38.9439 8.16431H36.6302V7.38131C36.6302 7.1828 36.5513 6.99241 36.411 6.85204C36.2706 6.71167 36.0802 6.63281 35.8817 6.63281C35.6832 6.63281 35.4928 6.71167 35.3524 6.85204C35.212 6.99241 35.1332 7.1828 35.1332 7.38131V8.16431C34.7472 8.13201 34.3587 8.18016 33.9923 8.30571C33.6258 8.43126 33.2894 8.63148 33.0043 8.8937C32.7193 9.15593 32.4917 9.47446 32.336 9.82915C32.1804 10.1838 32.1 10.567 32.1 10.9543C32.1 11.3417 32.1804 11.7248 32.336 12.0795C32.4917 12.4342 32.7193 12.7527 33.0043 13.0149C33.2894 13.2771 33.6258 13.4774 33.9923 13.6029C34.3587 13.7285 34.7472 13.7766 35.1332 13.7443V16.3303H32.8194C32.7211 16.3303 32.6238 16.3497 32.533 16.3873C32.4422 16.4249 32.3597 16.48 32.2902 16.5495C32.2207 16.619 32.1655 16.7016 32.1279 16.7924C32.0903 16.8832 32.0709 16.9805 32.0709 17.0788C32.0709 17.1771 32.0903 17.2744 32.1279 17.3652C32.1655 17.4561 32.2207 17.5386 32.2902 17.6081C32.3597 17.6776 32.4422 17.7327 32.533 17.7703C32.6238 17.808 32.7211 17.8273 32.8194 17.8273H35.1332V18.6096C35.1332 18.8081 35.212 18.9985 35.3524 19.1388C35.4928 19.2792 35.6832 19.3581 35.8817 19.3581C36.0802 19.3581 36.2706 19.2792 36.411 19.1388C36.5513 18.9985 36.6302 18.8081 36.6302 18.6096V17.8273C37.0046 17.8596 37.3817 17.816 37.7389 17.6992C38.0961 17.5823 38.4261 17.3947 38.7091 17.1474C38.9922 16.9002 39.2224 16.5984 39.3861 16.2601C39.5499 15.9218 39.6437 15.554 39.662 15.1786C39.6803 14.8032 39.6228 14.428 39.4927 14.0754C39.3627 13.7228 39.1629 13.4 38.9053 13.1263C38.6477 12.8527 38.3376 12.6338 37.9934 12.4828C37.6493 12.3318 37.2782 12.2517 36.9024 12.2473H36.6302V9.66131H38.9439ZM35.1332 12.2473C34.9439 12.2816 34.7494 12.2738 34.5634 12.2247C34.3774 12.1755 34.2045 12.0861 34.0568 11.9628C33.9092 11.8395 33.7904 11.6852 33.7089 11.511C33.6274 11.3367 33.5852 11.1467 33.5852 10.9543C33.5852 10.7619 33.6274 10.5719 33.7089 10.3977C33.7904 10.2234 33.9092 10.0692 34.0568 9.94584C34.2045 9.82251 34.3774 9.73311 34.5634 9.68395C34.7494 9.63478 34.9439 9.62706 35.1332 9.66131V12.2473ZM36.9024 13.7443C37.0833 13.7477 37.2614 13.7886 37.4256 13.8645C37.5898 13.9403 37.7364 14.0495 37.8561 14.185C37.9759 14.3205 38.0661 14.4795 38.1212 14.6518C38.1763 14.824 38.1949 15.0059 38.176 15.1857C38.157 15.3656 38.1009 15.5395 38.0112 15.6966C37.9215 15.8536 37.8001 15.9902 37.6547 16.0979C37.5094 16.2055 37.3433 16.2817 37.1669 16.3217C36.9905 16.3618 36.8077 16.3647 36.6302 16.3303V13.7443H36.9024ZM24.5259 13.5673C24.7245 13.5673 24.9148 13.4885 25.0552 13.3481C25.1956 13.2077 25.2744 13.0173 25.2744 12.8188C25.2744 12.6203 25.1956 12.4299 25.0552 12.2895C24.9148 12.1492 24.7245 12.0703 24.5259 12.0703H11.9282C11.7297 12.0703 11.5393 12.1492 11.3989 12.2895C11.2585 12.4299 11.1797 12.6203 11.1797 12.8188C11.1797 13.0173 11.2585 13.2077 11.3989 13.3481C11.5393 13.4885 11.7297 13.5673 11.9282 13.5673H24.5259ZM26.1204 18.0583H11.9282C11.7297 18.0583 11.5393 18.1372 11.3989 18.2775C11.2585 18.4179 11.1797 18.6083 11.1797 18.8068C11.1797 19.0053 11.2585 19.1957 11.3989 19.3361C11.5393 19.4765 11.7297 19.5553 11.9282 19.5553H26.1204C26.319 19.5553 26.5093 19.4765 26.6497 19.3361C26.7901 19.1957 26.8689 19.0053 26.8689 18.8068C26.8689 18.6083 26.7901 18.4179 26.6497 18.2775C26.5093 18.1372 26.319 18.0583 26.1204 18.0583ZM32.8194 24.0471H11.9282C11.7297 24.0471 11.5393 24.1259 11.3989 24.2663C11.2585 24.4067 11.1797 24.597 11.1797 24.7956C11.1797 24.9941 11.2585 25.1845 11.3989 25.3248C11.5393 25.4652 11.7297 25.5441 11.9282 25.5441H32.8194C33.018 25.5441 33.2083 25.4652 33.3487 25.3248C33.4891 25.1845 33.5679 24.9941 33.5679 24.7956C33.5679 24.597 33.4891 24.4067 33.3487 24.2663C33.2083 24.1259 33.018 24.0471 32.8194 24.0471ZM11.9282 30.0351C11.7297 30.0351 11.5393 30.1139 11.3989 30.2543C11.2585 30.3947 11.1797 30.585 11.1797 30.7836C11.1797 30.9821 11.2585 31.1725 11.3989 31.3128C11.5393 31.4532 11.7297 31.5321 11.9282 31.5321H32.8194C33.018 31.5321 33.2083 31.4532 33.3487 31.3128C33.4891 31.1725 33.5679 30.9821 33.5679 30.7836C33.5679 30.585 33.4891 30.3947 33.3487 30.2543C33.2083 30.1139 33.018 30.0351 32.8194 30.0351H11.9282Z" fill="#005AFF"/>
</svg>
