<svg width="48" height="49" viewBox="0 0 48 49" fill="none" xmlns="http://www.w3.org/2000/svg">
<path d="M38.8749 43.5429H7.37499C6.2151 43.5415 5.10311 43.0801 4.28294 42.26C3.46277 41.4398 3.00139 40.3278 3 39.1679L3 14.668C3 14.4359 3.09219 14.2133 3.25628 14.0492C3.42037 13.8852 3.64293 13.793 3.875 13.793C4.10706 13.793 4.32962 13.8852 4.49371 14.0492C4.65781 14.2133 4.75 14.4359 4.75 14.668V39.1679C4.75 40.6151 5.92774 41.7929 7.37499 41.7929H38.8749C39.107 41.7929 39.3295 41.7007 39.4936 41.5366C39.6577 41.3725 39.7499 41.15 39.7499 40.9179V35.6679C39.7499 35.4358 39.8421 35.2133 40.0062 35.0492C40.1703 34.8851 40.3928 34.7929 40.6249 34.7929C40.857 34.7929 41.0795 34.8851 41.2436 35.0492C41.4077 35.2133 41.4999 35.4358 41.4999 35.6679V40.9179C41.4999 42.3651 40.3222 43.5429 38.8749 43.5429Z" fill="#30353E"/>
<path d="M40.625 26.0429C40.3929 26.0429 40.1704 25.9507 40.0063 25.7866C39.8422 25.6226 39.75 25.4 39.75 25.1679V19.9179C39.75 19.6859 39.6578 19.4633 39.4937 19.2992C39.3296 19.1351 39.1071 19.0429 38.875 19.0429H7.3751C6.79837 19.0463 6.2269 18.9332 5.69495 18.7104C5.16299 18.4875 4.68151 18.1596 4.27936 17.7462C3.8706 17.3451 3.5467 16.8659 3.32694 16.3371C3.10717 15.8082 2.99602 15.2406 3.00011 14.668C3.00011 12.2565 4.96185 10.293 7.3751 10.293H22.3376C22.5696 10.293 22.7922 10.3852 22.9563 10.5492C23.1204 10.7133 23.2126 10.9359 23.2126 11.168C23.2126 11.4 23.1204 11.6226 22.9563 11.7867C22.7922 11.9508 22.5696 12.043 22.3376 12.043H7.3751C5.92785 12.043 4.7501 13.2207 4.7501 14.668C4.7501 15.3732 5.0231 16.026 5.5166 16.509C6.0171 17.02 6.6716 17.293 7.3751 17.293H38.875C40.3223 17.293 41.5 18.4707 41.5 19.9179V25.1679C41.5 25.4 41.4078 25.6226 41.2437 25.7866C41.0796 25.9507 40.8571 26.0429 40.625 26.0429Z" fill="#30353E"/>
<path d="M35.3744 19.0429C35.1423 19.0429 34.9197 18.9508 34.7556 18.7867C34.5915 18.6226 34.4994 18.4 34.4994 18.1679V12.918C34.4994 12.6859 34.4072 12.4633 34.2431 12.2992C34.079 12.1352 33.8564 12.043 33.6244 12.043H30.4219C30.1898 12.043 29.9672 11.9508 29.8032 11.7867C29.6391 11.6226 29.5469 11.4 29.5469 11.168C29.5469 10.9359 29.6391 10.7133 29.8032 10.5492C29.9672 10.3852 30.1898 10.293 30.4219 10.293H33.6244C35.0716 10.293 36.2494 11.4707 36.2494 12.918V18.1679C36.2494 18.4 36.1572 18.6226 35.9931 18.7867C35.829 18.9508 35.6064 19.0429 35.3744 19.0429Z" fill="#30353E"/>
<path d="M35.375 33.043C33.9277 33.043 32.75 31.8652 32.75 30.418C32.75 28.9707 33.9277 27.793 35.375 27.793C36.8222 27.793 38 28.9707 38 30.418C38 31.8652 36.8222 33.043 35.375 33.043ZM35.375 29.543C35.1425 29.5434 34.9196 29.6362 34.7556 29.801C34.5915 29.9657 34.4995 30.1889 34.5 30.4215C34.5005 30.654 34.5933 30.8768 34.758 31.0409C34.9228 31.205 35.146 31.2969 35.3785 31.2965C35.4936 31.2962 35.6076 31.2733 35.7139 31.2291C35.8202 31.1848 35.9167 31.12 35.9979 31.0384C36.0792 30.9569 36.1436 30.8601 36.1874 30.7536C36.2313 30.6472 36.2537 30.5331 36.2535 30.418C36.2533 30.3028 36.2304 30.1889 36.1861 30.0826C36.1418 29.9763 36.077 29.8798 35.9955 29.7985C35.9139 29.7173 35.8171 29.6529 35.7106 29.609C35.6042 29.5652 35.4901 29.5427 35.375 29.543Z" fill="#005AFF"/>
<path d="M34.5001 19.043C34.3471 19.043 34.1968 19.003 34.0642 18.9268C33.9316 18.8507 33.8212 18.7411 33.7441 18.609L28.0654 8.87376L11.3249 18.9187C11.2263 18.9778 11.1171 19.0169 11.0034 19.0337C10.8897 19.0505 10.7738 19.0448 10.6623 19.0169C10.5508 18.9889 10.446 18.9393 10.3537 18.8708C10.2614 18.8023 10.1835 18.7163 10.1244 18.6177C10.0653 18.5191 10.0263 18.4099 10.0094 18.2962C9.99261 18.1825 9.99832 18.0666 10.0263 17.9551C10.0542 17.8437 10.1039 17.7388 10.1723 17.6465C10.2408 17.5542 10.3268 17.4763 10.4254 17.4172L27.9254 6.91726C28.0246 6.85789 28.1347 6.81875 28.2492 6.8021C28.3636 6.78545 28.4803 6.79162 28.5924 6.82025C28.7044 6.84888 28.8097 6.8994 28.9022 6.96891C28.9947 7.03843 29.0725 7.12555 29.1311 7.22526L35.2561 17.7252C35.3347 17.8582 35.3767 18.0096 35.3777 18.164C35.3787 18.3184 35.3387 18.4703 35.2619 18.6043C35.185 18.7382 35.074 18.8494 34.9402 18.9265C34.8064 19.0036 34.6545 19.0438 34.5001 19.043ZM44.1251 36.5429H35.3751C31.9976 36.5429 29.2501 33.7954 29.2501 30.418C29.2501 27.0405 31.9976 24.293 35.3751 24.293H44.1251C44.3571 24.293 44.5797 24.3852 44.7438 24.5492C44.9079 24.7133 45.0001 24.9359 45.0001 25.168V35.6679C45.0001 35.9 44.9079 36.1226 44.7438 36.2867C44.5797 36.4508 44.3571 36.5429 44.1251 36.5429ZM35.3751 26.043C32.9618 26.043 31.0001 28.0065 31.0001 30.418C31.0001 32.8294 32.9618 34.7929 35.3751 34.7929H43.2501V26.043H35.3751Z" fill="#005AFF"/>
<rect x="8.25" y="17.293" width="27.9999" height="1.75" fill="#30353E"/>
</svg>
