<svg width="37" height="37" viewBox="0 0 37 37" fill="none" xmlns="http://www.w3.org/2000/svg">
<path d="M28.3637 8.63731C27.7128 3.77033 23.5439 0 18.5013 0C13.4586 0 9.28844 3.77033 8.63889 8.63731C3.77046 9.28811 0 13.4569 0 18.5006C0 23.5444 3.77046 27.7119 8.6376 28.3627C9.28843 33.2297 13.4573 37 18.5 37C23.5427 37 27.7116 33.2297 28.3624 28.3627C33.2308 27.7119 37 23.5431 37 18.5006C37 13.4582 33.2295 9.2894 28.3624 8.63859M18.5 2.84408C21.9848 2.84408 24.8866 5.36148 25.4952 8.67318C24.2652 8.86662 23.1173 9.2958 22.0809 9.89665L22.0732 9.86846C21.6363 8.23888 20.7818 6.69769 19.5044 5.42042L18.4987 4.41602L17.493 5.42042C16.2413 6.67207 15.3663 8.20044 14.9191 9.8659L14.9127 9.89408C13.8763 9.2958 12.7309 8.86791 11.5036 8.67446C12.1121 5.36405 15.014 2.84537 18.4987 2.84537M20.1117 20.1149C22.7419 20.7272 24.8136 22.7988 25.426 25.4289C22.7957 24.8166 20.7241 22.745 20.1117 20.1149ZM20.1117 16.889C20.7241 14.2589 22.7957 12.1873 25.426 11.5749C24.8136 14.205 22.7419 16.2766 20.1117 16.889ZM18.4987 13.3736C18.1887 12.8599 17.8338 12.3769 17.4392 11.9285C17.525 10.7691 17.8876 9.66348 18.4974 8.69239C19.1188 9.68654 19.4698 10.8024 19.5544 11.9336C19.1624 12.3807 18.8075 12.8612 18.4987 13.3749M19.5544 25.0728C19.4698 26.204 19.1188 27.3199 18.4974 28.314C17.8876 27.3429 17.525 26.2373 17.4392 25.0779C17.8338 24.6295 18.1887 24.1465 18.4987 23.6328C18.8062 24.1453 19.1611 24.627 19.5544 25.0741M11.5728 25.4302C12.1851 22.8001 14.2568 20.7285 16.887 20.1161C16.2746 22.7463 14.203 24.8178 11.5728 25.4302ZM11.5728 11.5775C14.203 12.1898 16.2746 14.2614 16.887 16.8916C14.2568 16.2792 12.1851 14.2076 11.5728 11.5775ZM2.84162 18.5045C2.84162 15.0198 5.35911 12.1181 8.67091 11.5096C8.86309 12.7369 9.29228 13.8822 9.89058 14.9174L9.8624 14.925C8.19689 15.3721 6.66974 16.2472 5.41676 17.4988L4.41233 18.5045L5.41676 19.5089C6.66974 20.7605 8.19689 21.6355 9.8624 22.0826L9.89058 22.0903C9.29228 23.1255 8.86309 24.2708 8.67091 25.4994C5.36039 24.8909 2.84162 21.9891 2.84162 18.5045ZM8.68757 18.5045C9.65997 17.8934 10.7656 17.5308 11.9264 17.445C12.3748 17.8396 12.8578 18.1945 13.3715 18.5045C12.8578 18.8132 12.3748 19.1694 11.9264 19.5627C10.7656 19.4769 9.65997 19.1143 8.68757 18.5045ZM18.5 34.161C15.0152 34.161 12.1134 31.6424 11.5048 28.3319C12.7322 28.1398 13.8776 27.7106 14.914 27.1123L14.9217 27.1405C15.3688 28.806 16.2439 30.3331 17.4956 31.586L18.5013 32.5904L19.507 31.586C20.7843 30.3087 21.6376 28.7675 22.0757 27.1379L22.0834 27.1098C23.1199 27.7093 24.2678 28.1398 25.4977 28.3332C24.8892 31.6436 21.9873 34.1623 18.5026 34.1623M25.0762 19.564C24.6278 19.1707 24.1448 18.8145 23.6311 18.5058C24.1448 18.1957 24.6278 17.8409 25.0749 17.4463C26.2357 17.5321 27.3413 17.8947 28.3137 18.5058C27.3413 19.1156 26.2357 19.4781 25.0749 19.564M28.3291 25.5007C28.1369 24.2734 27.7077 23.128 27.1094 22.0929L27.1363 22.0852C28.8018 21.6381 30.329 20.7631 31.582 19.5114L32.5877 18.507L31.582 17.5014C30.3303 16.2484 28.8018 15.3734 27.1363 14.9276L27.1081 14.9199C27.7064 13.8848 28.1356 12.7394 28.3278 11.5121C31.6383 12.1207 34.1571 15.0224 34.1571 18.507C34.1571 21.9917 31.6396 24.8934 28.3278 25.502" fill="black"/>
</svg>
