<svg width="46" height="47" viewBox="0 0 46 47" fill="none" xmlns="http://www.w3.org/2000/svg">
<path d="M4.7318 37.233C4.7318 27.1062 0 20.1521 0 15.2724C0 10.3928 2.53032 0.144531 22.7795 0.144531C43.0286 0.144531 46 13.9314 46 19.2985C46.0013 44.4317 4.7318 55.1675 4.7318 37.233Z" fill="#E8F0FF"/>
<mask id="path-2-inside-1_10720_22375" fill="white">
<path d="M34.4659 25.3392H22.9453C22.6864 25.3392 22.4766 25.1293 22.4766 24.8704V21.9219C22.4766 21.663 22.6864 21.4531 22.9453 21.4531H34.4659C34.7248 21.4531 34.9346 21.663 34.9346 21.9219V24.8704C34.9346 25.1293 34.7248 25.3392 34.4659 25.3392ZM23.4141 24.4017H33.9971V22.3906H23.4141V24.4017ZM25.5096 29.6896H22.9453C22.6864 29.6896 22.4766 29.4797 22.4766 29.2208V26.5914C22.4766 26.3325 22.6864 26.1227 22.9453 26.1227H25.5096C25.7685 26.1227 25.9784 26.3325 25.9784 26.5914V29.2208C25.9784 29.4797 25.7685 29.6896 25.5096 29.6896ZM23.4141 28.7521H25.0409V27.0602H23.4141V28.7521ZM29.9877 29.6896H27.4234C27.1646 29.6896 26.9547 29.4797 26.9547 29.2208V26.5914C26.9547 26.3325 27.1646 26.1227 27.4234 26.1227H29.9877C30.2466 26.1227 30.4565 26.3325 30.4565 26.5914V29.2208C30.4565 29.4797 30.2466 29.6896 29.9877 29.6896ZM27.8922 28.7521H29.519V27.0602H27.8922V28.7521ZM34.4659 29.6896H31.9016C31.6427 29.6896 31.4328 29.4797 31.4328 29.2208V26.5914C31.4328 26.3325 31.6427 26.1227 31.9016 26.1227H34.4659C34.7248 26.1227 34.9346 26.3325 34.9346 26.5914V29.2208C34.9346 29.4797 34.7248 29.6896 34.4659 29.6896ZM32.3703 28.7521H33.9971V27.0602H32.3703V28.7521ZM25.5096 33.8537H22.9453C22.6864 33.8537 22.4766 33.6438 22.4766 33.3849V30.7555C22.4766 30.4966 22.6864 30.2868 22.9453 30.2868H25.5096C25.7685 30.2868 25.9784 30.4966 25.9784 30.7555V33.3849C25.9784 33.6438 25.7685 33.8537 25.5096 33.8537ZM23.4141 32.9162H25.0409V31.2243H23.4141V32.9162ZM29.9877 33.8537H27.4234C27.1646 33.8537 26.9547 33.6438 26.9547 33.3849V30.7555C26.9547 30.4966 27.1646 30.2868 27.4234 30.2868H29.9877C30.2466 30.2868 30.4565 30.4966 30.4565 30.7555V33.3849C30.4565 33.6438 30.2466 33.8537 29.9877 33.8537ZM27.8922 32.9162H29.519V31.2243H27.8922V32.9162ZM25.5096 38.0178H22.9453C22.6864 38.0178 22.4766 37.8079 22.4766 37.549V34.9196C22.4766 34.6607 22.6864 34.4509 22.9453 34.4509H25.5096C25.7685 34.4509 25.9784 34.6607 25.9784 34.9196V37.549C25.9784 37.8079 25.7685 38.0178 25.5096 38.0178ZM23.4141 37.0803H25.0409V35.3884H23.4141V37.0803ZM29.9877 38.0178H27.4234C27.1646 38.0178 26.9547 37.8079 26.9547 37.549V34.9196C26.9547 34.6607 27.1646 34.4509 27.4234 34.4509H29.9877C30.2466 34.4509 30.4565 34.6607 30.4565 34.9196V37.549C30.4565 37.8079 30.2466 38.0178 29.9877 38.0178ZM27.8922 37.0803H29.519V35.3884H27.8922V37.0803ZM34.4659 38.0178H31.9016C31.6427 38.0178 31.4328 37.8079 31.4328 37.549V30.7555C31.4328 30.4966 31.6427 30.2868 31.9016 30.2868H34.4659C34.7248 30.2868 34.9346 30.4966 34.9346 30.7555V37.549C34.9346 37.8079 34.7248 38.0178 34.4659 38.0178ZM32.3703 37.0803H33.9971V31.2243H32.3703V37.0803Z"/>
</mask>
<path d="M34.4659 25.3392H22.9453C22.6864 25.3392 22.4766 25.1293 22.4766 24.8704V21.9219C22.4766 21.663 22.6864 21.4531 22.9453 21.4531H34.4659C34.7248 21.4531 34.9346 21.663 34.9346 21.9219V24.8704C34.9346 25.1293 34.7248 25.3392 34.4659 25.3392ZM23.4141 24.4017H33.9971V22.3906H23.4141V24.4017ZM25.5096 29.6896H22.9453C22.6864 29.6896 22.4766 29.4797 22.4766 29.2208V26.5914C22.4766 26.3325 22.6864 26.1227 22.9453 26.1227H25.5096C25.7685 26.1227 25.9784 26.3325 25.9784 26.5914V29.2208C25.9784 29.4797 25.7685 29.6896 25.5096 29.6896ZM23.4141 28.7521H25.0409V27.0602H23.4141V28.7521ZM29.9877 29.6896H27.4234C27.1646 29.6896 26.9547 29.4797 26.9547 29.2208V26.5914C26.9547 26.3325 27.1646 26.1227 27.4234 26.1227H29.9877C30.2466 26.1227 30.4565 26.3325 30.4565 26.5914V29.2208C30.4565 29.4797 30.2466 29.6896 29.9877 29.6896ZM27.8922 28.7521H29.519V27.0602H27.8922V28.7521ZM34.4659 29.6896H31.9016C31.6427 29.6896 31.4328 29.4797 31.4328 29.2208V26.5914C31.4328 26.3325 31.6427 26.1227 31.9016 26.1227H34.4659C34.7248 26.1227 34.9346 26.3325 34.9346 26.5914V29.2208C34.9346 29.4797 34.7248 29.6896 34.4659 29.6896ZM32.3703 28.7521H33.9971V27.0602H32.3703V28.7521ZM25.5096 33.8537H22.9453C22.6864 33.8537 22.4766 33.6438 22.4766 33.3849V30.7555C22.4766 30.4966 22.6864 30.2868 22.9453 30.2868H25.5096C25.7685 30.2868 25.9784 30.4966 25.9784 30.7555V33.3849C25.9784 33.6438 25.7685 33.8537 25.5096 33.8537ZM23.4141 32.9162H25.0409V31.2243H23.4141V32.9162ZM29.9877 33.8537H27.4234C27.1646 33.8537 26.9547 33.6438 26.9547 33.3849V30.7555C26.9547 30.4966 27.1646 30.2868 27.4234 30.2868H29.9877C30.2466 30.2868 30.4565 30.4966 30.4565 30.7555V33.3849C30.4565 33.6438 30.2466 33.8537 29.9877 33.8537ZM27.8922 32.9162H29.519V31.2243H27.8922V32.9162ZM25.5096 38.0178H22.9453C22.6864 38.0178 22.4766 37.8079 22.4766 37.549V34.9196C22.4766 34.6607 22.6864 34.4509 22.9453 34.4509H25.5096C25.7685 34.4509 25.9784 34.6607 25.9784 34.9196V37.549C25.9784 37.8079 25.7685 38.0178 25.5096 38.0178ZM23.4141 37.0803H25.0409V35.3884H23.4141V37.0803ZM29.9877 38.0178H27.4234C27.1646 38.0178 26.9547 37.8079 26.9547 37.549V34.9196C26.9547 34.6607 27.1646 34.4509 27.4234 34.4509H29.9877C30.2466 34.4509 30.4565 34.6607 30.4565 34.9196V37.549C30.4565 37.8079 30.2466 38.0178 29.9877 38.0178ZM27.8922 37.0803H29.519V35.3884H27.8922V37.0803ZM34.4659 38.0178H31.9016C31.6427 38.0178 31.4328 37.8079 31.4328 37.549V30.7555C31.4328 30.4966 31.6427 30.2868 31.9016 30.2868H34.4659C34.7248 30.2868 34.9346 30.4966 34.9346 30.7555V37.549C34.9346 37.8079 34.7248 38.0178 34.4659 38.0178ZM32.3703 37.0803H33.9971V31.2243H32.3703V37.0803Z" fill="#30353E" stroke="#E8F0FF" stroke-width="0.4" mask="url(#path-2-inside-1_10720_22375)"/>
<path d="M20.8789 36.4833H13.1322C12.3313 36.4833 11.6797 35.8317 11.6797 35.0308V12.5974C11.6797 11.7963 12.3314 11.1445 13.1324 11.1445H29.9104C30.7113 11.1445 31.3629 11.7961 31.3629 12.597V19.9338C31.3629 20.1927 31.153 20.4027 30.8941 20.4027C30.6352 20.4027 30.4254 20.1929 30.4254 19.934V12.597C30.4254 12.313 30.1943 12.082 29.9104 12.082H13.1324C12.8483 12.082 12.6172 12.3132 12.6172 12.5974V35.0308C12.6172 35.3148 12.8482 35.5458 13.1322 35.5458H20.8789C21.1378 35.5458 21.3476 35.7556 21.3476 36.0145C21.3476 36.2734 21.1378 36.4833 20.8789 36.4833Z" fill="#30353E"/>
<path d="M17.0831 21.5437C16.8242 21.5437 16.6143 21.3338 16.6143 21.0749V20.7309C16.6143 20.4721 16.8242 20.2622 17.0831 20.2622C17.3419 20.2622 17.5518 20.4721 17.5518 20.7309V21.0749C17.5518 21.3338 17.3419 21.5437 17.0831 21.5437ZM17.0831 15.4873C16.8242 15.4873 16.6143 15.2774 16.6143 15.0185V14.6758C16.6143 14.4169 16.8242 14.207 17.0831 14.207C17.3419 14.207 17.5518 14.4169 17.5518 14.6758V15.0185C17.5518 15.2774 17.3419 15.4873 17.0831 15.4873ZM8.67332 32.8793C8.57655 32.8793 8.48216 32.8493 8.40309 32.7935C8.32402 32.7377 8.26416 32.6589 8.23171 32.5677L7.03494 29.2052C7.00978 29.1345 7.00197 29.0588 7.01215 28.9844C7.02233 28.9101 7.0502 28.8393 7.09343 28.7779C7.13667 28.7166 7.19399 28.6665 7.26059 28.632C7.32719 28.5974 7.40111 28.5793 7.47615 28.5792L9.86412 28.5772H9.86451C9.93952 28.5772 10.0134 28.5952 10.08 28.6297C10.1466 28.6642 10.204 28.7142 10.2473 28.7754C10.2906 28.8367 10.3186 28.9074 10.3288 28.9817C10.3391 29.0561 10.3314 29.1317 10.3064 29.2024L9.11519 32.567C9.08287 32.6582 9.02308 32.7373 8.94403 32.7932C8.86497 32.8491 8.77054 32.8792 8.67371 32.8793H8.67332ZM8.14074 29.5162L8.67214 31.0093L9.20109 29.5153L8.14074 29.5162Z" fill="#30353E"/>
<path d="M7.47773 29.5159C7.21902 29.5159 7.0092 29.3063 7.00898 29.0475L7 18.2329C6.99991 18.1085 7.0492 17.9893 7.13703 17.9013C7.22486 17.8133 7.34404 17.7638 7.46836 17.7637L9.85633 17.7617H9.85674C10.1154 17.7617 10.3253 17.9713 10.3255 18.2301L10.3345 29.0448C10.3346 29.1691 10.2853 29.2883 10.1974 29.3763C10.1096 29.4643 9.99043 29.5138 9.86611 29.5139L7.47814 29.5159L7.47773 29.5159ZM7.93789 18.7008L7.94609 28.578L9.39656 28.5768L9.38836 18.6996L7.93789 18.7008Z" fill="#30353E"/>
<path d="M7.47025 18.6991C7.34607 18.6991 7.22696 18.6498 7.13906 18.5621C7.05109 18.4742 7.00161 18.355 7.0015 18.2307L7 16.4141C6.99963 15.97 7.17225 15.5523 7.48604 15.238C7.79983 14.9237 8.21723 14.7504 8.66135 14.75H8.66275C9.57897 14.75 10.3247 15.495 10.3255 16.4113L10.327 18.2279C10.3272 18.4868 10.1175 18.6969 9.85861 18.6971L7.47064 18.6991L7.47025 18.6991ZM8.66273 15.6875H8.66213C8.26223 15.6878 7.93717 16.0134 7.9375 16.4133L7.93861 17.7612L9.38908 17.76L9.38797 16.4121C9.38764 16.0124 9.06232 15.6875 8.66273 15.6875Z" fill="#30353E"/>
<path d="M28.1933 15.2695H21.5969C21.338 15.2695 21.1282 15.0597 21.1282 14.8008C21.1282 14.5419 21.338 14.332 21.5969 14.332H28.1933C28.4522 14.332 28.662 14.5419 28.662 14.8008C28.662 15.0597 28.4521 15.2695 28.1933 15.2695ZM28.1933 18.3401H21.5969C21.338 18.3401 21.1282 18.1303 21.1282 17.8714C21.1282 17.6125 21.338 17.4026 21.5969 17.4026H28.1933C28.4522 17.4026 28.662 17.6125 28.662 17.8714C28.662 18.1303 28.4521 18.3401 28.1933 18.3401ZM20.8761 24.4811H14.8438C14.5849 24.4811 14.375 24.2713 14.375 24.0124C14.375 23.7535 14.5849 23.5436 14.8438 23.5436H20.8761C21.135 23.5436 21.3448 23.7535 21.3448 24.0124C21.3448 24.2713 21.135 24.4811 20.8761 24.4811ZM20.8761 27.5517H14.8438C14.5849 27.5517 14.375 27.3419 14.375 27.083C14.375 26.8241 14.5849 26.6142 14.8438 26.6142H20.8761C21.135 26.6142 21.3448 26.8241 21.3448 27.083C21.3448 27.3419 21.135 27.5517 20.8761 27.5517ZM20.8761 30.6224H14.8438C14.5849 30.6224 14.375 30.4125 14.375 30.1536C14.375 29.8947 14.5849 29.6849 14.8438 29.6849H20.8761C21.135 29.6849 21.3448 29.8947 21.3448 30.1536C21.3448 30.4125 21.135 30.6224 20.8761 30.6224ZM20.8761 33.693H14.8438C14.5849 33.693 14.375 33.4831 14.375 33.2242C14.375 32.9653 14.5849 32.7555 14.8438 32.7555H20.8761C21.135 32.7555 21.3448 32.9653 21.3448 33.2242C21.3448 33.4831 21.135 33.693 20.8761 33.693ZM19.0993 18.2177L19.0958 18.2126C18.9338 17.9747 18.6832 17.7764 18.3507 17.6231C18.127 17.5215 17.7149 17.4025 17.1257 17.2692C16.4261 17.1109 16.1771 16.9852 16.0913 16.9074C15.9747 16.803 15.9181 16.6731 15.9181 16.5103C15.9181 16.3199 16.0018 16.1602 16.1741 16.0222C16.3515 15.88 16.6477 15.8079 17.0543 15.8079C17.4432 15.8079 17.7378 15.8878 17.9298 16.0454C18.064 16.1556 18.1603 16.3068 18.216 16.4948C18.2751 16.6942 18.4521 16.8281 18.6564 16.8281C18.6683 16.8281 18.6803 16.8277 18.6921 16.8268L18.6961 16.8265C18.8007 16.8187 18.9013 16.7784 18.9786 16.7073C19.1114 16.5852 19.1603 16.4061 19.1133 16.2404C19.0655 16.072 18.9922 15.9118 18.896 15.7655C18.7186 15.4954 18.4626 15.2884 18.1351 15.1502C17.8146 15.0151 17.441 14.9466 17.0247 14.9466C16.6455 14.9466 16.2953 15.0119 15.9837 15.1407C15.6643 15.2727 15.4173 15.4699 15.2495 15.7269C15.0822 15.9832 14.9974 16.263 14.9974 16.5585C14.9974 16.8289 15.0676 17.0771 15.2059 17.296C15.3435 17.5137 15.5532 17.6974 15.8291 17.8419C16.037 17.9522 16.3991 18.0698 16.9054 18.1913C17.3968 18.3094 17.7179 18.3972 17.86 18.4524C18.0663 18.531 18.2143 18.6266 18.2997 18.7364C18.3823 18.8429 18.4242 18.9698 18.4242 19.1138C18.4242 19.2567 18.3797 19.3909 18.2918 19.5127C18.2028 19.6361 18.0621 19.7358 17.8737 19.809C17.6776 19.8851 17.4469 19.9237 17.1879 19.9237C16.8959 19.9237 16.6304 19.8726 16.3987 19.7718C16.1727 19.6735 16.0051 19.5449 15.9006 19.3896C15.8348 19.292 15.7829 19.175 15.7464 19.0417C15.6906 18.8384 15.5057 18.6964 15.2965 18.6964C15.223 18.6964 15.1506 18.7138 15.0851 18.7473C15.0197 18.7807 14.9631 18.8292 14.92 18.8887C14.8806 18.9433 14.8534 19.0056 14.8402 19.0716C14.8271 19.1376 14.8283 19.2056 14.8438 19.2711C14.8949 19.4888 14.984 19.6958 15.1069 19.8826C15.3076 20.1882 15.5877 20.4201 15.9394 20.5717C16.2848 20.7206 16.716 20.7961 17.2213 20.7961C17.624 20.7961 17.9924 20.7209 18.3162 20.5725C18.645 20.4219 18.9014 20.207 19.0782 19.9338C19.2552 19.6604 19.3449 19.3646 19.3449 19.0544C19.3449 18.7411 19.2622 18.4596 19.0993 18.2177Z" fill="#005AFF"/>
<path d="M35.2561 40.0036H22.1357C21.1778 40.0036 20.3984 39.2243 20.3984 38.2663V21.2021C20.3984 20.2442 21.1778 19.4648 22.1357 19.4648H35.2561C36.214 19.4648 36.9933 20.2442 36.9933 21.2021V38.2663C36.9933 39.2242 36.214 40.0036 35.2561 40.0036ZM22.1357 20.4023C21.6947 20.4023 21.3359 20.7611 21.3359 21.2021V38.2663C21.3359 38.7073 21.6947 39.0661 22.1357 39.0661H35.2561C35.6971 39.0661 36.0558 38.7073 36.0558 38.2663V21.2021C36.0558 20.7611 35.6971 20.4023 35.2561 20.4023H22.1357Z" fill="#30353E"/>
<path d="M38.6133 3.4729L40.4973 1.58756L41.44 2.53023L39.5547 4.41556L38.6133 3.4729ZM33.1907 2.29423L34.1333 1.35156L36.0187 3.2369L35.076 4.17956L33.1907 2.29423ZM38.6187 7.7289L39.5613 6.78623L41.4467 8.67156L40.504 9.61423L38.6187 7.7289ZM5 7.4729C3.89733 7.4729 3 6.57556 3 5.4729C3 4.37023 3.89733 3.4729 5 3.4729C6.10267 3.4729 7 4.37023 7 5.4729C7 6.57556 6.10267 7.4729 5 7.4729ZM5 4.80623C4.63333 4.80623 4.33333 5.10623 4.33333 5.4729C4.33333 5.83956 4.63333 6.13956 5 6.13956C5.36667 6.13956 5.66667 5.83956 5.66667 5.4729C5.66667 5.10623 5.36667 4.80623 5 4.80623Z" fill="#A4AFC1"/>
</svg>
