<svg width="48" height="49" viewBox="0 0 48 49" fill="none" xmlns="http://www.w3.org/2000/svg">
<path d="M36.3594 41.8426V28.6104C36.3594 28.4115 36.2804 28.2207 36.1397 28.08C35.9991 27.9394 35.8083 27.8604 35.6094 27.8604H31.2196C31.0207 27.8604 30.8299 27.9394 30.6893 28.08C30.5486 28.2207 30.4696 28.4115 30.4696 28.6104C30.4577 29.3322 30.1626 30.0205 29.6479 30.5267C29.1332 31.033 28.4402 31.3167 27.7182 31.3167C26.9963 31.3167 26.3033 31.033 25.7886 30.5267C25.2739 30.0205 24.9788 29.3322 24.9669 28.6104C24.9669 28.4115 24.8879 28.2207 24.7472 28.08C24.6066 27.9394 24.4158 27.8604 24.2169 27.8604H21.0564V24.9039C22.0375 24.727 22.9253 24.2109 23.5646 23.446C24.2039 22.6811 24.5542 21.7158 24.5542 20.7189C24.5542 19.7219 24.2039 18.7567 23.5646 17.9917C22.9253 17.2268 22.0375 16.7108 21.0564 16.5339V12.8281C21.0564 12.6292 20.9774 12.4384 20.8367 12.2978C20.6961 12.1571 20.5053 12.0781 20.3064 12.0781L7.07412 12.0781C6.19921 12.0791 5.36042 12.4271 4.74177 13.0458C4.12311 13.6644 3.77512 14.5032 3.77412 15.3781L3.77412 41.8426C3.77492 42.7177 4.12283 43.5566 4.7415 44.1755C5.36018 44.7943 6.19909 45.1424 7.07412 45.1434L33.0594 45.1434C33.9343 45.1424 34.7731 44.7944 35.3917 44.1757C36.0104 43.5571 36.3584 42.7183 36.3594 41.8434V41.8426ZM27.7171 32.8614C28.7143 32.8602 29.6795 32.5092 30.4444 31.8694C31.2094 31.2296 31.7255 30.3417 31.9029 29.3604H34.8579L34.8579 41.8411C34.8573 42.3184 34.6675 42.776 34.3301 43.1135C33.9926 43.4511 33.5352 43.6411 33.0579 43.6419H21.0571V40.0021C21.0571 39.8032 20.9781 39.6124 20.8375 39.4718C20.6968 39.3311 20.506 39.2521 20.3071 39.2521C19.5853 39.2402 18.897 38.9451 18.3908 38.4304C17.8845 37.9157 17.6008 37.2227 17.6008 36.5007C17.6008 35.7788 17.8845 35.0858 18.3908 34.5711C18.897 34.0564 19.5853 33.7613 20.3071 33.7494C20.506 33.7494 20.6968 33.6704 20.8375 33.5297C20.9781 33.3891 21.0571 33.1983 21.0571 32.9994V29.3604L23.5321 29.3604C23.7095 30.3416 24.2255 31.2294 24.9903 31.8692C25.755 32.5089 26.72 32.8601 27.7171 32.8614ZM7.07412 13.5789L19.5564 13.5789V17.2186C19.5564 17.4175 19.6354 17.6083 19.776 17.749C19.9167 17.8896 20.1075 17.9686 20.3064 17.9686C21.036 17.9686 21.7357 18.2585 22.2516 18.7744C22.7675 19.2903 23.0574 19.99 23.0574 20.7196C23.0574 21.4492 22.7675 22.149 22.2516 22.6649C21.7357 23.1808 21.036 23.4706 20.3064 23.4706C20.1075 23.4706 19.9167 23.5496 19.776 23.6903C19.6354 23.8309 19.5564 24.0217 19.5564 24.2206L19.5564 27.8604H16.5999C16.423 26.8793 15.9069 25.9915 15.142 25.3521C14.3771 24.7128 13.4118 24.3625 12.4149 24.3625C11.4179 24.3625 10.4527 24.7128 9.68774 25.3521C8.9228 25.9915 8.4068 26.8793 8.22987 27.8604H5.27412L5.27412 15.3789C5.27492 14.9017 5.46482 14.4444 5.80221 14.107C6.1396 13.7696 6.59698 13.5797 7.07412 13.5789ZM5.27412 41.8419V29.3611H8.91312C9.11204 29.3611 9.3028 29.2821 9.44345 29.1415C9.58411 29.0008 9.66312 28.81 9.66312 28.6111C9.66312 27.8814 9.953 27.1816 10.469 26.6656C10.985 26.1496 11.6848 25.8597 12.4145 25.8597C13.1442 25.8597 13.844 26.1496 14.36 26.6656C14.876 27.1816 15.1659 27.8814 15.1659 28.6111C15.1659 28.81 15.2449 29.0008 15.3855 29.1415C15.5262 29.2821 15.717 29.3611 15.9159 29.3611H19.0779V32.3161C18.0963 32.4926 17.208 33.0085 16.5682 33.7736C15.9285 34.5386 15.578 35.5042 15.578 36.5015C15.578 37.4988 15.9285 38.4644 16.5682 39.2294C17.208 39.9945 18.0963 40.5104 19.0779 40.6869V43.6426H7.07412C6.59698 43.6418 6.1396 43.4519 5.80221 43.1145C5.46482 42.7771 5.27492 42.319 5.27412 41.8419Z" fill="#30353E"/>
<path d="M27.717 14.537C27.5181 14.537 27.3273 14.616 27.1867 14.7567C27.046 14.8974 26.967 15.0881 26.967 15.287L26.967 19.676C26.967 19.8749 27.046 20.0657 27.1867 20.2064C27.3273 20.347 27.5181 20.426 27.717 20.426L31.4235 20.426C31.6004 21.4071 32.1164 22.2949 32.8814 22.9343C33.6463 23.5736 34.6116 23.9239 35.6085 23.9239C36.6054 23.9239 37.5707 23.5736 38.3356 22.9343C39.1006 22.2949 39.6166 21.4071 39.7935 20.426H43.5C43.6989 20.426 43.8897 20.347 44.0303 20.2064C44.171 20.0657 44.25 19.8749 44.25 19.676V6.44528C44.2492 5.57011 43.9012 4.73101 43.2824 4.11218C42.6635 3.49334 41.8244 3.14533 40.9492 3.14453L27.717 3.14453C27.5181 3.14453 27.3273 3.22355 27.1867 3.3642C27.046 3.50485 26.967 3.69562 26.967 3.89453V8.28428C26.967 8.48319 27.046 8.67396 27.1867 8.81461C27.3273 8.95526 27.5181 9.03428 27.717 9.03428C28.4388 9.0462 29.1271 9.34132 29.6333 9.856C30.1396 10.3707 30.4233 11.0637 30.4233 11.7857C30.4233 12.5076 30.1396 13.2006 29.6333 13.7153C29.1271 14.23 28.4388 14.5251 27.717 14.537ZM28.467 7.59953V4.64453L40.9492 4.64453C41.4264 4.64532 41.8838 4.83522 42.2212 5.17262C42.5586 5.51001 42.7485 5.96739 42.7493 6.44453V18.926H39.1102C38.9113 18.926 38.7206 19.005 38.5799 19.1457C38.4393 19.2864 38.3602 19.4771 38.3602 19.676C38.3483 20.3979 38.0532 21.0861 37.5385 21.5924C37.0238 22.0986 36.3308 22.3824 35.6089 22.3824C34.8869 22.3824 34.1939 22.0986 33.6792 21.5924C33.1645 21.0861 32.8694 20.3979 32.8575 19.676C32.8575 19.4771 32.7785 19.2864 32.6378 19.1457C32.4972 19.005 32.3064 18.926 32.1075 18.926H28.467V15.971C29.443 15.7878 30.3244 15.2692 30.9585 14.5049C31.5926 13.7406 31.9397 12.7788 31.9397 11.7857C31.9397 10.7926 31.5926 9.83069 30.9585 9.06641C30.3244 8.30214 29.443 7.78353 28.467 7.60028V7.59953Z" fill="#005AFF"/>
</svg>
