<svg width="48" height="49" viewBox="0 0 48 49" fill="none" xmlns="http://www.w3.org/2000/svg">
<path d="M38.8749 42.8945H7.37499C6.2151 42.8931 5.10311 42.4317 4.28294 41.6115C3.46277 40.7913 3.00139 39.6794 3 38.5195L3 14.0195C3 13.7875 3.09219 13.5649 3.25628 13.4008C3.42037 13.2367 3.64293 13.1445 3.875 13.1445C4.10706 13.1445 4.32962 13.2367 4.49371 13.4008C4.65781 13.5649 4.75 13.7875 4.75 14.0195V38.5195C4.75 39.9667 5.92774 41.1445 7.37499 41.1445H38.8749C39.107 41.1445 39.3295 41.0523 39.4936 40.8882C39.6577 40.7241 39.7499 40.5015 39.7499 40.2695V35.0195C39.7499 34.7874 39.8421 34.5648 40.0062 34.4008C40.1703 34.2367 40.3928 34.1445 40.6249 34.1445C40.857 34.1445 41.0795 34.2367 41.2436 34.4008C41.4077 34.5648 41.4999 34.7874 41.4999 35.0195V40.2695C41.4999 41.7167 40.3222 42.8945 38.8749 42.8945Z" fill="#30353E"/>
<path d="M40.625 25.3945C40.3929 25.3945 40.1704 25.3023 40.0063 25.1382C39.8422 24.9741 39.75 24.7516 39.75 24.5195V19.2695C39.75 19.0374 39.6578 18.8149 39.4937 18.6508C39.3296 18.4867 39.1071 18.3945 38.875 18.3945H7.3751C6.79837 18.3979 6.2269 18.2848 5.69495 18.0619C5.16299 17.8391 4.68151 17.5112 4.27936 17.0978C3.8706 16.6967 3.5467 16.2175 3.32694 15.6886C3.10717 15.1598 2.99602 14.5922 3.00011 14.0195C3.00011 11.608 4.96185 9.64453 7.3751 9.64453H22.3376C22.5696 9.64453 22.7922 9.73672 22.9563 9.90081C23.1204 10.0649 23.2126 10.2875 23.2126 10.5195C23.2126 10.7516 23.1204 10.9742 22.9563 11.1382C22.7922 11.3023 22.5696 11.3945 22.3376 11.3945H7.3751C5.92785 11.3945 4.7501 12.5723 4.7501 14.0195C4.7501 14.7248 5.0231 15.3775 5.5166 15.8605C6.0171 16.3715 6.6716 16.6445 7.3751 16.6445H38.875C40.3223 16.6445 41.5 17.8223 41.5 19.2695V24.5195C41.5 24.7516 41.4078 24.9741 41.2437 25.1382C41.0796 25.3023 40.8571 25.3945 40.625 25.3945Z" fill="#30353E"/>
<path d="M35.3744 18.3945C35.1423 18.3945 34.9197 18.3023 34.7556 18.1382C34.5915 17.9741 34.4994 17.7516 34.4994 17.5195V12.2695C34.4994 12.0375 34.4072 11.8149 34.2431 11.6508C34.079 11.4867 33.8564 11.3945 33.6244 11.3945H30.4219C30.1898 11.3945 29.9672 11.3023 29.8032 11.1382C29.6391 10.9742 29.5469 10.7516 29.5469 10.5195C29.5469 10.2875 29.6391 10.0649 29.8032 9.90081C29.9672 9.73672 30.1898 9.64453 30.4219 9.64453H33.6244C35.0716 9.64453 36.2494 10.8223 36.2494 12.2695V17.5195C36.2494 17.7516 36.1572 17.9741 35.9931 18.1382C35.829 18.3023 35.6064 18.3945 35.3744 18.3945Z" fill="#30353E"/>
<path d="M35.375 32.3945C33.9277 32.3945 32.75 31.2168 32.75 29.7695C32.75 28.3223 33.9277 27.1445 35.375 27.1445C36.8222 27.1445 38 28.3223 38 29.7695C38 31.2168 36.8222 32.3945 35.375 32.3945ZM35.375 28.8945C35.1425 28.895 34.9196 28.9878 34.7556 29.1526C34.5915 29.3173 34.4995 29.5405 34.5 29.773C34.5005 30.0056 34.5933 30.2284 34.758 30.3925C34.9228 30.5566 35.146 30.6485 35.3785 30.648C35.4936 30.6478 35.6076 30.6249 35.7139 30.5806C35.8202 30.5363 35.9167 30.4716 35.9979 30.39C36.0792 30.3084 36.1436 30.2116 36.1874 30.1052C36.2313 29.9987 36.2537 29.8847 36.2535 29.7695C36.2533 29.6544 36.2304 29.5404 36.1861 29.4341C36.1418 29.3279 36.077 29.2313 35.9955 29.1501C35.9139 29.0688 35.8171 29.0044 35.7106 28.9606C35.6042 28.9167 35.4901 28.8943 35.375 28.8945Z" fill="#005AFF"/>
<path d="M34.5001 18.3945C34.3471 18.3946 34.1968 18.3545 34.0642 18.2784C33.9316 18.2022 33.8212 18.0927 33.7441 17.9605L28.0654 8.22532L11.3249 18.2703C11.2263 18.3294 11.1171 18.3684 11.0034 18.3853C10.8897 18.4021 10.7738 18.3964 10.6623 18.3684C10.5508 18.3405 10.446 18.2908 10.3537 18.2224C10.2614 18.1539 10.1835 18.0679 10.1244 17.9693C10.0653 17.8707 10.0263 17.7614 10.0094 17.6478C9.99261 17.5341 9.99832 17.4182 10.0263 17.3067C10.0542 17.1952 10.1039 17.0904 10.1723 16.9981C10.2408 16.9058 10.3268 16.8279 10.4254 16.7688L27.9254 6.26883C28.0246 6.20945 28.1347 6.17031 28.2492 6.15366C28.3636 6.13701 28.4803 6.14318 28.5924 6.17181C28.7044 6.20044 28.8097 6.25096 28.9022 6.32048C28.9947 6.38999 29.0725 6.47711 29.1311 6.57683L35.2561 17.0768C35.3347 17.2097 35.3767 17.3611 35.3777 17.5155C35.3787 17.67 35.3387 17.8219 35.2619 17.9559C35.185 18.0898 35.074 18.201 34.9402 18.2781C34.8064 18.3551 34.6545 18.3953 34.5001 18.3945ZM44.1251 35.8945H35.3751C31.9976 35.8945 29.2501 33.147 29.2501 29.7695C29.2501 26.392 31.9976 23.6445 35.3751 23.6445H44.1251C44.3571 23.6445 44.5797 23.7367 44.7438 23.9008C44.9079 24.0649 45.0001 24.2875 45.0001 24.5195V35.0195C45.0001 35.2516 44.9079 35.4741 44.7438 35.6382C44.5797 35.8023 44.3571 35.8945 44.1251 35.8945ZM35.3751 25.3945C32.9618 25.3945 31.0001 27.358 31.0001 29.7695C31.0001 32.181 32.9618 34.1445 35.3751 34.1445H43.2501V25.3945H35.3751Z" fill="#005AFF"/>
<rect x="8.25" y="16.6445" width="27.9999" height="1.75" fill="#30353E"/>
</svg>
