<svg width="50" height="51" viewBox="0 0 50 51" fill="none" xmlns="http://www.w3.org/2000/svg">
<path d="M5.14326 40.4581C5.14326 29.4507 0 21.8919 0 16.5879C0 11.2839 2.75034 0.144531 24.7603 0.144531C46.7702 0.144531 50 15.1302 50 20.9641C50.0014 48.2827 5.14326 59.9521 5.14326 40.4581Z" fill="#E8F0FF"/>
<g clip-path="url(#clip0_10720_22425)">
<path d="M42.7391 35.6735H40.9163C41.6721 34.9474 42.1062 33.9546 42.0994 32.8426L42.052 25.6731C42.0443 24.7116 41.7371 23.8243 41.1861 23.1747C40.5823 22.4624 39.7148 22.0764 38.7374 22.0833L36.8741 22.0986V21.4512C37.15 21.3068 37.4106 21.1425 37.6513 20.9575C38.8222 20.058 39.4412 18.7771 39.4412 17.2539V13.6466C39.3763 10.3579 36.7663 8.8248 34.2098 8.76366C32.6011 8.72545 30.9739 9.25203 29.7465 10.2089C28.3265 11.3155 27.5095 12.8915 27.3826 14.767C27.3738 14.8975 27.4132 15.0267 27.4931 15.1302C27.5731 15.2337 27.6882 15.3043 27.8167 15.3287C27.965 15.357 28.1095 15.3814 28.2524 15.4036V17.2547C28.2524 18.7778 28.8714 20.0588 30.0423 20.9583C30.2823 21.1425 30.5421 21.3068 30.8173 21.4505V22.0833H28.8348V20.985C28.8348 20.045 28.0712 19.28 27.132 19.28H9.87254C8.93249 19.28 8.16746 20.045 8.16746 20.985V31.5006C8.16746 32.4406 8.93249 33.2057 9.87254 33.2057H14.5506L13.3683 35.6735H7.26639C6.06573 35.6735 5.4375 36.5982 5.4375 37.5115C5.4375 38.4248 6.06573 39.3496 7.26563 39.3496H42.7391C43.9397 39.3496 44.5672 38.4248 44.5672 37.5115C44.5679 36.5982 43.9397 35.6735 42.7391 35.6735ZM34.1846 9.83516C35.8935 9.87567 37.876 10.7164 38.2933 12.8968C36.8542 12.5667 35.6451 13.0313 34.3772 13.5182C32.8594 14.1013 31.1497 14.7578 28.5015 14.3611C28.9524 11.3094 31.635 9.77249 34.1846 9.83516ZM29.3224 17.2547V15.5259C29.5784 15.5435 29.826 15.5519 30.066 15.5519C32.0661 15.5519 33.5258 14.9917 34.7609 14.5171C36.1083 13.9997 37.1118 13.6152 38.3713 14.0287V17.2547C38.3713 19.8914 36.0257 21.092 33.8468 21.092C31.6679 21.092 29.3224 19.8914 29.3224 17.2547ZM33.8468 22.162C34.5285 22.162 35.1896 22.0657 35.8041 21.8831V23.3336C35.8041 24.6742 34.8205 25.2749 33.8453 25.2749C32.8701 25.2749 31.8865 24.6749 31.8865 23.3336V21.8823C32.5032 22.065 33.1643 22.162 33.8468 22.162ZM30.8173 23.154V23.3336C30.8173 24.2569 31.149 25.0372 31.7772 25.592C32.3274 26.0774 33.0619 26.3448 33.8453 26.3448C35.3501 26.3448 36.8741 25.3108 36.8741 23.3336V23.1693L38.7465 23.154C39.4091 23.1494 39.9693 23.3948 40.3698 23.8671C40.7588 24.3264 40.9767 24.9707 40.982 25.6815L41.0294 32.8495C41.0393 34.4575 39.8945 35.3571 38.797 35.6735H29.1603C28.9395 34.9253 28.9884 34.2535 29.3032 33.8071C29.7244 33.2102 30.5459 33.0849 31.1619 33.0849H36.0166C37.1851 33.0849 38.1351 32.1487 38.1351 30.9985V26.3471C38.1351 26.0514 37.8959 25.8122 37.6001 25.8122C37.3044 25.8122 37.0651 26.0514 37.0651 26.3471V30.9985C37.0651 31.5678 36.6043 32.0142 36.0166 32.0142H31.1619C29.5883 32.0142 28.8072 32.6531 28.4289 33.1896C27.9643 33.8484 27.8381 34.7159 28.0552 35.6727H22.9499C22.7061 35.2944 22.622 34.7449 22.7428 34.2336C22.8108 33.9455 23.0049 33.4426 23.5384 33.2049H27.132C28.0712 33.2049 28.8348 32.4399 28.8348 31.4998V23.154H30.8173ZM20.9682 33.2057H22.0152C21.8717 33.4489 21.766 33.7125 21.7019 33.9875C21.5666 34.5569 21.6002 35.1523 21.776 35.6735H20.5432L20.9682 33.2057ZM9.87254 32.1357C9.5225 32.1357 9.23743 31.8506 9.23743 31.5006V20.985C9.23743 20.635 9.5225 20.3499 9.87254 20.3499H27.1327C27.4812 20.3499 27.7655 20.635 27.7655 20.985V31.5006C27.7655 31.8506 27.482 32.1357 27.1327 32.1357H21.1531L21.6476 29.2674C21.6609 29.1906 21.6573 29.1119 21.6369 29.0366C21.6166 28.9614 21.5801 28.8915 21.5299 28.8319C21.4798 28.7723 21.4172 28.7243 21.3465 28.6914C21.2759 28.6585 21.1989 28.6415 21.121 28.6415H17.0765C16.9756 28.6415 16.8768 28.6701 16.7915 28.724C16.7062 28.7778 16.6378 28.8546 16.5943 28.9456L15.065 32.1365H9.87254V32.1357ZM17.4128 29.7114H20.4851L19.4564 35.6735H14.5544L17.4128 29.7114ZM42.7391 38.2796H7.26639C6.70695 38.2796 6.50824 37.8662 6.50824 37.5115C6.50824 37.1569 6.70695 36.7435 7.26639 36.7435H42.7398C43.2993 36.7435 43.498 37.1569 43.498 37.5115C43.4972 37.8662 43.2993 38.2796 42.7391 38.2796Z" fill="#30353E"/>
<rect x="8.74063" y="19.893" width="19.6" height="12.8" rx="1.3" fill="#E8F0FF" stroke="#005AFF" stroke-width="1.2"/>
</g>
<defs>
<clipPath id="clip0_10720_22425">
<rect width="39.1304" height="39.1304" fill="white" transform="translate(5.4375 4.49219)"/>
</clipPath>
</defs>
</svg>
