<svg width="48" height="49" viewBox="0 0 48 49" fill="none" xmlns="http://www.w3.org/2000/svg">
<path d="M13.3537 33.4983L10.3611 36.4927L9.18661 35.3164C9.01592 35.1457 8.78441 35.0498 8.54301 35.0498C8.30161 35.0498 8.0701 35.1457 7.8994 35.3164C7.72871 35.4871 7.63281 35.7186 7.63281 35.96C7.63281 36.2014 7.72871 36.4329 7.8994 36.6036L9.7175 38.4217C9.80194 38.5064 9.90225 38.5735 10.0127 38.6194C10.1231 38.6652 10.2415 38.6888 10.3611 38.6888C10.4807 38.6888 10.5991 38.6652 10.7095 38.6194C10.8199 38.5735 10.9203 38.5064 11.0047 38.4217L14.6409 34.7855C14.8116 34.6148 14.9075 34.3833 14.9075 34.1419C14.9075 33.9005 14.8116 33.669 14.6409 33.4983C14.4702 33.3276 14.2387 33.2317 13.9973 33.2317C13.7559 33.2317 13.5244 33.3276 13.3537 33.4983ZM13.3537 24.4078L10.3611 27.4022L9.18661 26.2259C9.10209 26.1414 9.00175 26.0744 8.89132 26.0286C8.78089 25.9829 8.66254 25.9593 8.54301 25.9593C8.42348 25.9593 8.30512 25.9829 8.19469 26.0286C8.08426 26.0744 7.98392 26.1414 7.8994 26.2259C7.81488 26.3105 7.74784 26.4108 7.7021 26.5212C7.65636 26.6316 7.63281 26.75 7.63281 26.8695C7.63281 26.9891 7.65636 27.1074 7.7021 27.2179C7.74784 27.3283 7.81488 27.4286 7.8994 27.5131L9.7175 29.3312C9.80194 29.4159 9.90225 29.4831 10.0127 29.5289C10.1231 29.5747 10.2415 29.5983 10.3611 29.5983C10.4807 29.5983 10.5991 29.5747 10.7095 29.5289C10.8199 29.4831 10.9203 29.4159 11.0047 29.3312L14.6409 25.695C14.8116 25.5244 14.9075 25.2928 14.9075 25.0514C14.9075 24.81 14.8116 24.5785 14.6409 24.4078C14.4702 24.2371 14.2387 24.1412 13.9973 24.1412C13.7559 24.1412 13.5244 24.2371 13.3537 24.4078ZM17.6335 25.9605H24.9058C25.1469 25.9605 25.3782 25.8647 25.5486 25.6942C25.7191 25.5238 25.8149 25.2925 25.8149 25.0514C25.8149 24.8103 25.7191 24.5791 25.5486 24.4087C25.3782 24.2382 25.1469 24.1424 24.9058 24.1424H17.6335C17.3924 24.1424 17.1612 24.2382 16.9907 24.4087C16.8202 24.5791 16.7244 24.8103 16.7244 25.0514C16.7244 25.2925 16.8202 25.5238 16.9907 25.6942C17.1612 25.8647 17.3924 25.9605 17.6335 25.9605ZM13.3537 15.3174L10.3611 18.3118L9.18661 17.1355C9.10209 17.0509 9.00175 16.9839 8.89132 16.9382C8.78089 16.8924 8.66254 16.8689 8.54301 16.8689C8.42348 16.8689 8.30512 16.8924 8.19469 16.9382C8.08426 16.9839 7.98392 17.0509 7.8994 17.1355C7.81488 17.22 7.74784 17.3203 7.7021 17.4308C7.65636 17.5412 7.63281 17.6595 7.63281 17.7791C7.63281 17.8986 7.65636 18.017 7.7021 18.1274C7.74784 18.2378 7.81488 18.3382 7.8994 18.4227L9.7175 20.2408C9.80194 20.3254 9.90225 20.3926 10.0127 20.4384C10.1231 20.4842 10.2415 20.5078 10.3611 20.5078C10.4807 20.5078 10.5991 20.4842 10.7095 20.4384C10.8199 20.3926 10.9203 20.3254 11.0047 20.2408L14.6409 16.6046C14.8116 16.4339 14.9075 16.2024 14.9075 15.961C14.9075 15.7196 14.8116 15.4881 14.6409 15.3174C14.4702 15.1467 14.2387 15.0508 13.9973 15.0508C13.7559 15.0508 13.5244 15.1467 13.3537 15.3174ZM17.6335 16.87H32.1782C32.4193 16.87 32.6505 16.7742 32.821 16.6038C32.9915 16.4333 33.0873 16.2021 33.0873 15.961C33.0873 15.7199 32.9915 15.4887 32.821 15.3182C32.6505 15.1477 32.4193 15.0519 32.1782 15.0519H17.6335C17.3924 15.0519 17.1612 15.1477 16.9907 15.3182C16.8202 15.4887 16.7244 15.7199 16.7244 15.961C16.7244 16.2021 16.8202 16.4333 16.9907 16.6038C17.1612 16.7742 17.3924 16.87 17.6335 16.87ZM17.6335 20.5062H32.1782C32.4193 20.5062 32.6505 20.4104 32.821 20.24C32.9915 20.0695 33.0873 19.8383 33.0873 19.5972C33.0873 19.3561 32.9915 19.1248 32.821 18.9544C32.6505 18.7839 32.4193 18.6881 32.1782 18.6881H17.6335C17.3924 18.6881 17.1612 18.7839 16.9907 18.9544C16.8202 19.1248 16.7244 19.3561 16.7244 19.5972C16.7244 19.8383 16.8202 20.0695 16.9907 20.24C17.1612 20.4104 17.3924 20.5062 17.6335 20.5062Z" fill="#30353E"/>
<path d="M13.3537 33.5022L10.3611 36.4966L9.18661 35.3203C9.01592 35.1496 8.78441 35.0537 8.54301 35.0537C8.30161 35.0537 8.0701 35.1496 7.8994 35.3203C7.72871 35.491 7.63281 35.7225 7.63281 35.9639C7.63281 36.2053 7.72871 36.4368 7.8994 36.6075L9.7175 38.4256C9.80194 38.5103 9.90225 38.5774 10.0127 38.6233C10.1231 38.6691 10.2415 38.6927 10.3611 38.6927C10.4807 38.6927 10.5991 38.6691 10.7095 38.6233C10.8199 38.5774 10.9203 38.5103 11.0047 38.4256L14.6409 34.7894C14.8116 34.6187 14.9075 34.3872 14.9075 34.1458C14.9075 33.9044 14.8116 33.6729 14.6409 33.5022C14.4702 33.3315 14.2387 33.2356 13.9973 33.2356C13.7559 33.2356 13.5244 33.3315 13.3537 33.5022ZM13.3537 24.4117L10.3611 27.4061L9.18661 26.2298C9.10209 26.1453 9.00175 26.0783 8.89132 26.0325C8.78089 25.9868 8.66254 25.9633 8.54301 25.9633C8.42348 25.9633 8.30512 25.9868 8.19469 26.0325C8.08426 26.0783 7.98392 26.1453 7.8994 26.2298C7.81488 26.3144 7.74784 26.4147 7.7021 26.5251C7.65636 26.6356 7.63281 26.7539 7.63281 26.8734C7.63281 26.993 7.65636 27.1113 7.7021 27.2218C7.74784 27.3322 7.81488 27.4325 7.8994 27.517L9.7175 29.3351C9.80194 29.4198 9.90225 29.487 10.0127 29.5328C10.1231 29.5786 10.2415 29.6022 10.3611 29.6022C10.4807 29.6022 10.5991 29.5786 10.7095 29.5328C10.8199 29.487 10.9203 29.4198 11.0047 29.3351L14.6409 25.699C14.8116 25.5283 14.9075 25.2967 14.9075 25.0554C14.9075 24.814 14.8116 24.5824 14.6409 24.4117C14.4702 24.2411 14.2387 24.1452 13.9973 24.1452C13.7559 24.1452 13.5244 24.2411 13.3537 24.4117ZM13.3537 15.3213L10.3611 18.3157L9.18661 17.1394C9.10209 17.0549 9.00175 16.9878 8.89132 16.9421C8.78089 16.8963 8.66254 16.8728 8.54301 16.8728C8.42348 16.8728 8.30512 16.8963 8.19469 16.9421C8.08426 16.9878 7.98392 17.0549 7.8994 17.1394C7.81488 17.2239 7.74784 17.3242 7.7021 17.4347C7.65636 17.5451 7.63281 17.6634 7.63281 17.783C7.63281 17.9025 7.65636 18.0209 7.7021 18.1313C7.74784 18.2417 7.81488 18.3421 7.8994 18.4266L9.7175 20.2447C9.80194 20.3293 9.90225 20.3965 10.0127 20.4423C10.1231 20.4882 10.2415 20.5117 10.3611 20.5117C10.4807 20.5117 10.5991 20.4882 10.7095 20.4423C10.8199 20.3965 10.9203 20.3293 11.0047 20.2447L14.6409 16.6085C14.8116 16.4378 14.9075 16.2063 14.9075 15.9649C14.9075 15.7235 14.8116 15.492 14.6409 15.3213C14.4702 15.1506 14.2387 15.0547 13.9973 15.0547C13.7559 15.0547 13.5244 15.1506 13.3537 15.3213Z" fill="#005AFF"/>
<path d="M36.7257 26.1435V11.3096C36.7242 10.3742 36.352 9.4774 35.6905 8.81591C35.029 8.15442 34.1322 7.78216 33.1968 7.78072H29.4533V6.47169C29.449 5.85581 29.2025 5.26638 28.767 4.83088C28.3315 4.39537 27.742 4.14882 27.1261 4.14453H13.5995C12.9837 4.14882 12.3942 4.39537 11.9587 4.83088C11.5232 5.26638 11.2767 5.85581 11.2724 6.47169V7.78072H7.5271C6.59195 7.78168 5.69538 8.15359 5.03413 8.81485C4.37288 9.4761 4.00096 10.3727 4 11.3078V40.6155C4.00096 41.5506 4.37288 42.4472 5.03413 43.1085C5.69538 43.7697 6.59195 44.1416 7.5271 44.1426H34.9076C36.8758 44.1504 38.792 43.5117 40.3619 42.3245C41.764 41.2735 42.8325 39.8397 43.4387 38.1956C44.0449 36.5515 44.163 34.7672 43.7788 33.0576C43.3946 31.3479 42.5245 29.7857 41.2732 28.5591C40.0218 27.3324 38.4426 26.4935 36.7257 26.1435ZM13.0905 6.47169C13.0933 6.33755 13.1478 6.20968 13.2427 6.11481C13.3375 6.01994 13.4654 5.96541 13.5995 5.96262H27.1261C27.2603 5.96541 27.3882 6.01994 27.483 6.11481C27.5779 6.20968 27.6324 6.33755 27.6352 6.47169V9.08975C27.6324 9.22388 27.5779 9.35176 27.483 9.44663C27.3882 9.5415 27.2603 9.59603 27.1261 9.59881H13.5995C13.4654 9.59603 13.3375 9.5415 13.2427 9.44663C13.1478 9.35176 13.0933 9.22388 13.0905 9.08975V6.47169ZM7.5271 42.3245C7.3026 42.3247 7.08026 42.2807 6.87281 42.1949C6.66535 42.1091 6.47686 41.9832 6.31812 41.8245C6.15937 41.6657 6.0335 41.4772 5.9477 41.2698C5.8619 41.0623 5.81785 40.84 5.81809 40.6155V11.3078C5.81785 11.0833 5.8619 10.861 5.9477 10.6535C6.0335 10.4461 6.15937 10.2576 6.31812 10.0988C6.47686 9.94009 6.66535 9.81422 6.87281 9.72841C7.08026 9.64261 7.3026 9.59857 7.5271 9.59881H11.3451C11.4562 10.114 11.7406 10.5756 12.1508 10.9065C12.5611 11.2373 13.0725 11.4175 13.5995 11.4169H27.1261C27.6532 11.4175 28.1646 11.2373 28.5748 10.9065C28.9851 10.5756 29.2695 10.114 29.3806 9.59881H33.1986C33.6519 9.59977 34.0863 9.78039 34.4066 10.1011C34.727 10.4218 34.9071 10.8564 34.9076 11.3096V25.9617C32.9997 25.9617 31.1401 26.562 29.5923 27.6775C28.0445 28.7931 26.887 30.3674 26.2836 32.1775C25.6803 33.9875 25.6617 35.9415 26.2306 37.7626C26.7995 39.5837 27.927 41.1797 29.4533 42.3245H7.5271ZM34.9076 42.3245C33.4692 42.3245 32.0632 41.898 30.8673 41.0989C29.6713 40.2998 28.7392 39.164 28.1888 37.8351C27.6384 36.5063 27.4943 35.0441 27.775 33.6334C28.0556 32.2226 28.7482 30.9268 29.7652 29.9098C30.7823 28.8927 32.0781 28.2001 33.4888 27.9195C34.8995 27.6389 36.3618 27.7829 37.6906 28.3333C39.0195 28.8838 40.1552 29.8159 40.9543 31.0118C41.7534 32.2077 42.18 33.6138 42.18 35.0521C42.18 36.9809 41.4138 38.8306 40.0499 40.1945C38.6861 41.5583 36.8363 42.3245 34.9076 42.3245Z" fill="#30353E"/>
<path d="M35.8165 34.6773V31.4174C35.8165 31.1763 35.7208 30.9451 35.5503 30.7746C35.3798 30.6042 35.1486 30.5084 34.9075 30.5084C34.6664 30.5084 34.4352 30.6042 34.2647 30.7746C34.0942 30.9451 33.9984 31.1763 33.9984 31.4174V35.0536C33.9982 35.1731 34.0216 35.2914 34.0671 35.4018C34.1127 35.5123 34.1795 35.6127 34.2639 35.6972L36.082 37.5153C36.2527 37.686 36.4842 37.7819 36.7256 37.7819C36.967 37.7819 37.1985 37.686 37.3692 37.5153C37.5399 37.3446 37.6358 37.1131 37.6358 36.8717C37.6358 36.6303 37.5399 36.3988 37.3692 36.2281L35.8165 34.6773ZM24.908 27.7812H17.6356C17.3945 27.7812 17.1633 27.877 16.9928 28.0475C16.8223 28.218 16.7266 28.4492 16.7266 28.6903C16.7266 28.9314 16.8223 29.1626 16.9928 29.3331C17.1633 29.5036 17.3945 29.5993 17.6356 29.5993H24.908C25.1491 29.5993 25.3803 29.5036 25.5508 29.3331C25.7213 29.1626 25.817 28.9314 25.817 28.6903C25.817 28.4492 25.7213 28.218 25.5508 28.0475C25.3803 27.877 25.1491 27.7812 24.908 27.7812ZM23.0899 36.8717H17.6356C17.3945 36.8717 17.1633 36.9675 16.9928 37.138C16.8223 37.3084 16.7266 37.5397 16.7266 37.7808C16.7266 38.0219 16.8223 38.2531 16.9928 38.4236C17.1633 38.594 17.3945 38.6898 17.6356 38.6898H23.0899C23.331 38.6898 23.5622 38.594 23.7327 38.4236C23.9032 38.2531 23.9989 38.0219 23.9989 37.7808C23.9989 37.5397 23.9032 37.3084 23.7327 37.138C23.5622 36.9675 23.331 36.8717 23.0899 36.8717ZM23.0899 33.2355H17.6356C17.3945 33.2355 17.1633 33.3313 16.9928 33.5018C16.8223 33.6723 16.7266 33.9035 16.7266 34.1446C16.7266 34.3857 16.8223 34.6169 16.9928 34.7874C17.1633 34.9578 17.3945 35.0536 17.6356 35.0536H23.0899C23.331 35.0536 23.5622 34.9578 23.7327 34.7874C23.9032 34.6169 23.9989 34.3857 23.9989 34.1446C23.9989 33.9035 23.9032 33.6723 23.7327 33.5018C23.5622 33.3313 23.331 33.2355 23.0899 33.2355Z" fill="#30353E"/>
<path d="M35.8181 34.6767V31.4169C35.8181 31.1758 35.7223 30.9445 35.5518 30.7741C35.3814 30.6036 35.1501 30.5078 34.909 30.5078C34.668 30.5078 34.4367 30.6036 34.2663 30.7741C34.0958 30.9445 34 31.1758 34 31.4169V35.053C33.9998 35.1725 34.0231 35.2908 34.0687 35.4013C34.1142 35.5117 34.1811 35.6121 34.2654 35.6967L36.0835 37.5147C36.2542 37.6854 36.4857 37.7813 36.7271 37.7813C36.9685 37.7813 37.2001 37.6854 37.3707 37.5147C37.5414 37.344 37.6373 37.1125 37.6373 36.8711C37.6373 36.6297 37.5414 36.3982 37.3707 36.2275L35.8181 34.6767Z" fill="#005AFF"/>
</svg>
